G04 #@! TF.GenerationSoftware,KiCad,Pcbnew,5.1.5-52549c5~86~ubuntu18.04.1*
G04 #@! TF.CreationDate,2020-04-12T16:23:40+01:00*
G04 #@! TF.ProjectId,OverdrivePedal_RevC,4f766572-6472-4697-9665-506564616c5f,RevC*
G04 #@! TF.SameCoordinates,Original*
G04 #@! TF.FileFunction,Soldermask,Top*
G04 #@! TF.FilePolarity,Negative*
%FSLAX46Y46*%
G04 Gerber Fmt 4.6, Leading zero omitted, Abs format (unit mm)*
G04 Created by KiCad (PCBNEW 5.1.5-52549c5~86~ubuntu18.04.1) date 2020-04-12 16:23:40*
%MOMM*%
%LPD*%
G04 APERTURE LIST*
%ADD10C,0.100000*%
G04 APERTURE END LIST*
D10*
G36*
X157218200Y-110355200D02*
G01*
X156116200Y-110355200D01*
X156116200Y-109253200D01*
X157218200Y-109253200D01*
X157218200Y-110355200D01*
G37*
G36*
X146518800Y-110044200D02*
G01*
X145716800Y-110044200D01*
X145716800Y-109432200D01*
X146518800Y-109432200D01*
X146518800Y-110044200D01*
G37*
G36*
X144198800Y-110044200D02*
G01*
X143396800Y-110044200D01*
X143396800Y-109432200D01*
X144198800Y-109432200D01*
X144198800Y-110044200D01*
G37*
G36*
X146518800Y-109094200D02*
G01*
X145716800Y-109094200D01*
X145716800Y-108482200D01*
X146518800Y-108482200D01*
X146518800Y-109094200D01*
G37*
G36*
X144198800Y-109094200D02*
G01*
X143396800Y-109094200D01*
X143396800Y-108482200D01*
X144198800Y-108482200D01*
X144198800Y-109094200D01*
G37*
G36*
X151300000Y-108551800D02*
G01*
X150198000Y-108551800D01*
X150198000Y-107449800D01*
X151300000Y-107449800D01*
X151300000Y-108551800D01*
G37*
G36*
X138289512Y-106723727D02*
G01*
X138438812Y-106753424D01*
X138602784Y-106821344D01*
X138750354Y-106919947D01*
X138875853Y-107045446D01*
X138974456Y-107193016D01*
X139042376Y-107356988D01*
X139077000Y-107531059D01*
X139077000Y-107708541D01*
X139042376Y-107882612D01*
X138974456Y-108046584D01*
X138875853Y-108194154D01*
X138750354Y-108319653D01*
X138602784Y-108418256D01*
X138438812Y-108486176D01*
X138289512Y-108515873D01*
X138264742Y-108520800D01*
X138087258Y-108520800D01*
X138062488Y-108515873D01*
X137913188Y-108486176D01*
X137749216Y-108418256D01*
X137601646Y-108319653D01*
X137476147Y-108194154D01*
X137377544Y-108046584D01*
X137309624Y-107882612D01*
X137275000Y-107708541D01*
X137275000Y-107531059D01*
X137309624Y-107356988D01*
X137377544Y-107193016D01*
X137476147Y-107045446D01*
X137601646Y-106919947D01*
X137749216Y-106821344D01*
X137913188Y-106753424D01*
X138062488Y-106723727D01*
X138087258Y-106718800D01*
X138264742Y-106718800D01*
X138289512Y-106723727D01*
G37*
G36*
X163970562Y-106773181D02*
G01*
X164005481Y-106783774D01*
X164037663Y-106800976D01*
X164065873Y-106824127D01*
X164089024Y-106852337D01*
X164106226Y-106884519D01*
X164116819Y-106919438D01*
X164121000Y-106961895D01*
X164121000Y-108103105D01*
X164116819Y-108145562D01*
X164106226Y-108180481D01*
X164089024Y-108212663D01*
X164065873Y-108240873D01*
X164037663Y-108264024D01*
X164005481Y-108281226D01*
X163970562Y-108291819D01*
X163928105Y-108296000D01*
X162461895Y-108296000D01*
X162419438Y-108291819D01*
X162384519Y-108281226D01*
X162352337Y-108264024D01*
X162324127Y-108240873D01*
X162300976Y-108212663D01*
X162283774Y-108180481D01*
X162273181Y-108145562D01*
X162269000Y-108103105D01*
X162269000Y-106961895D01*
X162273181Y-106919438D01*
X162283774Y-106884519D01*
X162300976Y-106852337D01*
X162324127Y-106824127D01*
X162352337Y-106800976D01*
X162384519Y-106783774D01*
X162419438Y-106773181D01*
X162461895Y-106769000D01*
X163928105Y-106769000D01*
X163970562Y-106773181D01*
G37*
G36*
X126505562Y-106773181D02*
G01*
X126540481Y-106783774D01*
X126572663Y-106800976D01*
X126600873Y-106824127D01*
X126624024Y-106852337D01*
X126641226Y-106884519D01*
X126651819Y-106919438D01*
X126656000Y-106961895D01*
X126656000Y-108103105D01*
X126651819Y-108145562D01*
X126641226Y-108180481D01*
X126624024Y-108212663D01*
X126600873Y-108240873D01*
X126572663Y-108264024D01*
X126540481Y-108281226D01*
X126505562Y-108291819D01*
X126463105Y-108296000D01*
X124996895Y-108296000D01*
X124954438Y-108291819D01*
X124919519Y-108281226D01*
X124887337Y-108264024D01*
X124859127Y-108240873D01*
X124835976Y-108212663D01*
X124818774Y-108180481D01*
X124808181Y-108145562D01*
X124804000Y-108103105D01*
X124804000Y-106961895D01*
X124808181Y-106919438D01*
X124818774Y-106884519D01*
X124835976Y-106852337D01*
X124859127Y-106824127D01*
X124887337Y-106800976D01*
X124919519Y-106783774D01*
X124954438Y-106773181D01*
X124996895Y-106769000D01*
X126463105Y-106769000D01*
X126505562Y-106773181D01*
G37*
G36*
X144198800Y-108144200D02*
G01*
X143396800Y-108144200D01*
X143396800Y-107532200D01*
X144198800Y-107532200D01*
X144198800Y-108144200D01*
G37*
G36*
X146518800Y-108144200D02*
G01*
X145716800Y-108144200D01*
X145716800Y-107532200D01*
X146518800Y-107532200D01*
X146518800Y-108144200D01*
G37*
G36*
X139077000Y-105980800D02*
G01*
X137275000Y-105980800D01*
X137275000Y-104178800D01*
X139077000Y-104178800D01*
X139077000Y-105980800D01*
G37*
G36*
X156907800Y-105879200D02*
G01*
X155105800Y-105879200D01*
X155105800Y-104077200D01*
X156907800Y-104077200D01*
X156907800Y-105879200D01*
G37*
G36*
X148398800Y-105879200D02*
G01*
X146596800Y-105879200D01*
X146596800Y-104077200D01*
X148398800Y-104077200D01*
X148398800Y-105879200D01*
G37*
G36*
X153580312Y-104082127D02*
G01*
X153729612Y-104111824D01*
X153893584Y-104179744D01*
X154041154Y-104278347D01*
X154166653Y-104403846D01*
X154265256Y-104551416D01*
X154333176Y-104715388D01*
X154367800Y-104889459D01*
X154367800Y-105066941D01*
X154333176Y-105241012D01*
X154265256Y-105404984D01*
X154166653Y-105552554D01*
X154041154Y-105678053D01*
X153893584Y-105776656D01*
X153729612Y-105844576D01*
X153580312Y-105874273D01*
X153555542Y-105879200D01*
X153378058Y-105879200D01*
X153353288Y-105874273D01*
X153203988Y-105844576D01*
X153040016Y-105776656D01*
X152892446Y-105678053D01*
X152766947Y-105552554D01*
X152668344Y-105404984D01*
X152600424Y-105241012D01*
X152565800Y-105066941D01*
X152565800Y-104889459D01*
X152600424Y-104715388D01*
X152668344Y-104551416D01*
X152766947Y-104403846D01*
X152892446Y-104278347D01*
X153040016Y-104179744D01*
X153203988Y-104111824D01*
X153353288Y-104082127D01*
X153378058Y-104077200D01*
X153555542Y-104077200D01*
X153580312Y-104082127D01*
G37*
G36*
X145071312Y-104082127D02*
G01*
X145220612Y-104111824D01*
X145384584Y-104179744D01*
X145532154Y-104278347D01*
X145657653Y-104403846D01*
X145756256Y-104551416D01*
X145824176Y-104715388D01*
X145858800Y-104889459D01*
X145858800Y-105066941D01*
X145824176Y-105241012D01*
X145756256Y-105404984D01*
X145657653Y-105552554D01*
X145532154Y-105678053D01*
X145384584Y-105776656D01*
X145220612Y-105844576D01*
X145071312Y-105874273D01*
X145046542Y-105879200D01*
X144869058Y-105879200D01*
X144844288Y-105874273D01*
X144694988Y-105844576D01*
X144531016Y-105776656D01*
X144383446Y-105678053D01*
X144257947Y-105552554D01*
X144159344Y-105404984D01*
X144091424Y-105241012D01*
X144056800Y-105066941D01*
X144056800Y-104889459D01*
X144091424Y-104715388D01*
X144159344Y-104551416D01*
X144257947Y-104403846D01*
X144383446Y-104278347D01*
X144531016Y-104179744D01*
X144694988Y-104111824D01*
X144844288Y-104082127D01*
X144869058Y-104077200D01*
X145046542Y-104077200D01*
X145071312Y-104082127D01*
G37*
G36*
X142531312Y-104082127D02*
G01*
X142680612Y-104111824D01*
X142844584Y-104179744D01*
X142992154Y-104278347D01*
X143117653Y-104403846D01*
X143216256Y-104551416D01*
X143284176Y-104715388D01*
X143318800Y-104889459D01*
X143318800Y-105066941D01*
X143284176Y-105241012D01*
X143216256Y-105404984D01*
X143117653Y-105552554D01*
X142992154Y-105678053D01*
X142844584Y-105776656D01*
X142680612Y-105844576D01*
X142531312Y-105874273D01*
X142506542Y-105879200D01*
X142329058Y-105879200D01*
X142304288Y-105874273D01*
X142154988Y-105844576D01*
X141991016Y-105776656D01*
X141843446Y-105678053D01*
X141717947Y-105552554D01*
X141619344Y-105404984D01*
X141551424Y-105241012D01*
X141516800Y-105066941D01*
X141516800Y-104889459D01*
X141551424Y-104715388D01*
X141619344Y-104551416D01*
X141717947Y-104403846D01*
X141843446Y-104278347D01*
X141991016Y-104179744D01*
X142154988Y-104111824D01*
X142304288Y-104082127D01*
X142329058Y-104077200D01*
X142506542Y-104077200D01*
X142531312Y-104082127D01*
G37*
G36*
X163970562Y-103798181D02*
G01*
X164005481Y-103808774D01*
X164037663Y-103825976D01*
X164065873Y-103849127D01*
X164089024Y-103877337D01*
X164106226Y-103909519D01*
X164116819Y-103944438D01*
X164121000Y-103986895D01*
X164121000Y-105128105D01*
X164116819Y-105170562D01*
X164106226Y-105205481D01*
X164089024Y-105237663D01*
X164065873Y-105265873D01*
X164037663Y-105289024D01*
X164005481Y-105306226D01*
X163970562Y-105316819D01*
X163928105Y-105321000D01*
X162461895Y-105321000D01*
X162419438Y-105316819D01*
X162384519Y-105306226D01*
X162352337Y-105289024D01*
X162324127Y-105265873D01*
X162300976Y-105237663D01*
X162283774Y-105205481D01*
X162273181Y-105170562D01*
X162269000Y-105128105D01*
X162269000Y-103986895D01*
X162273181Y-103944438D01*
X162283774Y-103909519D01*
X162300976Y-103877337D01*
X162324127Y-103849127D01*
X162352337Y-103825976D01*
X162384519Y-103808774D01*
X162419438Y-103798181D01*
X162461895Y-103794000D01*
X163928105Y-103794000D01*
X163970562Y-103798181D01*
G37*
G36*
X126505562Y-103798181D02*
G01*
X126540481Y-103808774D01*
X126572663Y-103825976D01*
X126600873Y-103849127D01*
X126624024Y-103877337D01*
X126641226Y-103909519D01*
X126651819Y-103944438D01*
X126656000Y-103986895D01*
X126656000Y-105128105D01*
X126651819Y-105170562D01*
X126641226Y-105205481D01*
X126624024Y-105237663D01*
X126600873Y-105265873D01*
X126572663Y-105289024D01*
X126540481Y-105306226D01*
X126505562Y-105316819D01*
X126463105Y-105321000D01*
X124996895Y-105321000D01*
X124954438Y-105316819D01*
X124919519Y-105306226D01*
X124887337Y-105289024D01*
X124859127Y-105265873D01*
X124835976Y-105237663D01*
X124818774Y-105205481D01*
X124808181Y-105170562D01*
X124804000Y-105128105D01*
X124804000Y-103986895D01*
X124808181Y-103944438D01*
X124818774Y-103909519D01*
X124835976Y-103877337D01*
X124859127Y-103849127D01*
X124887337Y-103825976D01*
X124919519Y-103808774D01*
X124954438Y-103798181D01*
X124996895Y-103794000D01*
X126463105Y-103794000D01*
X126505562Y-103798181D01*
G37*
G36*
X150827738Y-104611916D02*
G01*
X150848357Y-104618171D01*
X150867353Y-104628324D01*
X150884008Y-104641992D01*
X150897676Y-104658647D01*
X150907829Y-104677643D01*
X150914084Y-104698262D01*
X150916800Y-104725840D01*
X150916800Y-105184560D01*
X150914084Y-105212138D01*
X150907829Y-105232757D01*
X150897676Y-105251753D01*
X150884008Y-105268408D01*
X150867353Y-105282076D01*
X150848357Y-105292229D01*
X150827738Y-105298484D01*
X150800160Y-105301200D01*
X150291440Y-105301200D01*
X150263862Y-105298484D01*
X150243243Y-105292229D01*
X150224247Y-105282076D01*
X150207592Y-105268408D01*
X150193924Y-105251753D01*
X150183771Y-105232757D01*
X150177516Y-105212138D01*
X150174800Y-105184560D01*
X150174800Y-104725840D01*
X150177516Y-104698262D01*
X150183771Y-104677643D01*
X150193924Y-104658647D01*
X150207592Y-104641992D01*
X150224247Y-104628324D01*
X150243243Y-104618171D01*
X150263862Y-104611916D01*
X150291440Y-104609200D01*
X150800160Y-104609200D01*
X150827738Y-104611916D01*
G37*
G36*
X150827738Y-103641916D02*
G01*
X150848357Y-103648171D01*
X150867353Y-103658324D01*
X150884008Y-103671992D01*
X150897676Y-103688647D01*
X150907829Y-103707643D01*
X150914084Y-103728262D01*
X150916800Y-103755840D01*
X150916800Y-104214560D01*
X150914084Y-104242138D01*
X150907829Y-104262757D01*
X150897676Y-104281753D01*
X150884008Y-104298408D01*
X150867353Y-104312076D01*
X150848357Y-104322229D01*
X150827738Y-104328484D01*
X150800160Y-104331200D01*
X150291440Y-104331200D01*
X150263862Y-104328484D01*
X150243243Y-104322229D01*
X150224247Y-104312076D01*
X150207592Y-104298408D01*
X150193924Y-104281753D01*
X150183771Y-104262757D01*
X150177516Y-104242138D01*
X150174800Y-104214560D01*
X150174800Y-103755840D01*
X150177516Y-103728262D01*
X150183771Y-103707643D01*
X150193924Y-103688647D01*
X150207592Y-103671992D01*
X150224247Y-103658324D01*
X150243243Y-103648171D01*
X150263862Y-103641916D01*
X150291440Y-103639200D01*
X150800160Y-103639200D01*
X150827738Y-103641916D01*
G37*
G36*
X139984738Y-101053916D02*
G01*
X140005357Y-101060171D01*
X140024353Y-101070324D01*
X140041008Y-101083992D01*
X140054676Y-101100647D01*
X140064829Y-101119643D01*
X140071084Y-101140262D01*
X140073800Y-101167840D01*
X140073800Y-101676560D01*
X140071084Y-101704138D01*
X140064829Y-101724757D01*
X140054676Y-101743753D01*
X140041008Y-101760408D01*
X140024353Y-101774076D01*
X140005357Y-101784229D01*
X139984738Y-101790484D01*
X139957160Y-101793200D01*
X139498440Y-101793200D01*
X139470862Y-101790484D01*
X139450243Y-101784229D01*
X139431247Y-101774076D01*
X139414592Y-101760408D01*
X139400924Y-101743753D01*
X139390771Y-101724757D01*
X139384516Y-101704138D01*
X139381800Y-101676560D01*
X139381800Y-101167840D01*
X139384516Y-101140262D01*
X139390771Y-101119643D01*
X139400924Y-101100647D01*
X139414592Y-101083992D01*
X139431247Y-101070324D01*
X139450243Y-101060171D01*
X139470862Y-101053916D01*
X139498440Y-101051200D01*
X139957160Y-101051200D01*
X139984738Y-101053916D01*
G37*
G36*
X139014738Y-101053916D02*
G01*
X139035357Y-101060171D01*
X139054353Y-101070324D01*
X139071008Y-101083992D01*
X139084676Y-101100647D01*
X139094829Y-101119643D01*
X139101084Y-101140262D01*
X139103800Y-101167840D01*
X139103800Y-101676560D01*
X139101084Y-101704138D01*
X139094829Y-101724757D01*
X139084676Y-101743753D01*
X139071008Y-101760408D01*
X139054353Y-101774076D01*
X139035357Y-101784229D01*
X139014738Y-101790484D01*
X138987160Y-101793200D01*
X138528440Y-101793200D01*
X138500862Y-101790484D01*
X138480243Y-101784229D01*
X138461247Y-101774076D01*
X138444592Y-101760408D01*
X138430924Y-101743753D01*
X138420771Y-101724757D01*
X138414516Y-101704138D01*
X138411800Y-101676560D01*
X138411800Y-101167840D01*
X138414516Y-101140262D01*
X138420771Y-101119643D01*
X138430924Y-101100647D01*
X138444592Y-101083992D01*
X138461247Y-101070324D01*
X138480243Y-101060171D01*
X138500862Y-101053916D01*
X138528440Y-101051200D01*
X138987160Y-101051200D01*
X139014738Y-101053916D01*
G37*
G36*
X151414738Y-101053916D02*
G01*
X151435357Y-101060171D01*
X151454353Y-101070324D01*
X151471008Y-101083992D01*
X151484676Y-101100647D01*
X151494829Y-101119643D01*
X151501084Y-101140262D01*
X151503800Y-101167840D01*
X151503800Y-101676560D01*
X151501084Y-101704138D01*
X151494829Y-101724757D01*
X151484676Y-101743753D01*
X151471008Y-101760408D01*
X151454353Y-101774076D01*
X151435357Y-101784229D01*
X151414738Y-101790484D01*
X151387160Y-101793200D01*
X150928440Y-101793200D01*
X150900862Y-101790484D01*
X150880243Y-101784229D01*
X150861247Y-101774076D01*
X150844592Y-101760408D01*
X150830924Y-101743753D01*
X150820771Y-101724757D01*
X150814516Y-101704138D01*
X150811800Y-101676560D01*
X150811800Y-101167840D01*
X150814516Y-101140262D01*
X150820771Y-101119643D01*
X150830924Y-101100647D01*
X150844592Y-101083992D01*
X150861247Y-101070324D01*
X150880243Y-101060171D01*
X150900862Y-101053916D01*
X150928440Y-101051200D01*
X151387160Y-101051200D01*
X151414738Y-101053916D01*
G37*
G36*
X150444738Y-101053916D02*
G01*
X150465357Y-101060171D01*
X150484353Y-101070324D01*
X150501008Y-101083992D01*
X150514676Y-101100647D01*
X150524829Y-101119643D01*
X150531084Y-101140262D01*
X150533800Y-101167840D01*
X150533800Y-101676560D01*
X150531084Y-101704138D01*
X150524829Y-101724757D01*
X150514676Y-101743753D01*
X150501008Y-101760408D01*
X150484353Y-101774076D01*
X150465357Y-101784229D01*
X150444738Y-101790484D01*
X150417160Y-101793200D01*
X149958440Y-101793200D01*
X149930862Y-101790484D01*
X149910243Y-101784229D01*
X149891247Y-101774076D01*
X149874592Y-101760408D01*
X149860924Y-101743753D01*
X149850771Y-101724757D01*
X149844516Y-101704138D01*
X149841800Y-101676560D01*
X149841800Y-101167840D01*
X149844516Y-101140262D01*
X149850771Y-101119643D01*
X149860924Y-101100647D01*
X149874592Y-101083992D01*
X149891247Y-101070324D01*
X149910243Y-101060171D01*
X149930862Y-101053916D01*
X149958440Y-101051200D01*
X150417160Y-101051200D01*
X150444738Y-101053916D01*
G37*
G36*
X148367728Y-101073964D02*
G01*
X148388809Y-101080360D01*
X148408245Y-101090748D01*
X148425276Y-101104724D01*
X148439252Y-101121755D01*
X148449640Y-101141191D01*
X148456036Y-101162272D01*
X148458800Y-101190340D01*
X148458800Y-101654060D01*
X148456036Y-101682128D01*
X148449640Y-101703209D01*
X148439252Y-101722645D01*
X148425276Y-101739676D01*
X148408245Y-101753652D01*
X148388809Y-101764040D01*
X148367728Y-101770436D01*
X148339660Y-101773200D01*
X146525940Y-101773200D01*
X146497872Y-101770436D01*
X146476791Y-101764040D01*
X146457355Y-101753652D01*
X146440324Y-101739676D01*
X146426348Y-101722645D01*
X146415960Y-101703209D01*
X146409564Y-101682128D01*
X146406800Y-101654060D01*
X146406800Y-101190340D01*
X146409564Y-101162272D01*
X146415960Y-101141191D01*
X146426348Y-101121755D01*
X146440324Y-101104724D01*
X146457355Y-101090748D01*
X146476791Y-101080360D01*
X146497872Y-101073964D01*
X146525940Y-101071200D01*
X148339660Y-101071200D01*
X148367728Y-101073964D01*
G37*
G36*
X143417728Y-101073964D02*
G01*
X143438809Y-101080360D01*
X143458245Y-101090748D01*
X143475276Y-101104724D01*
X143489252Y-101121755D01*
X143499640Y-101141191D01*
X143506036Y-101162272D01*
X143508800Y-101190340D01*
X143508800Y-101654060D01*
X143506036Y-101682128D01*
X143499640Y-101703209D01*
X143489252Y-101722645D01*
X143475276Y-101739676D01*
X143458245Y-101753652D01*
X143438809Y-101764040D01*
X143417728Y-101770436D01*
X143389660Y-101773200D01*
X141575940Y-101773200D01*
X141547872Y-101770436D01*
X141526791Y-101764040D01*
X141507355Y-101753652D01*
X141490324Y-101739676D01*
X141476348Y-101722645D01*
X141465960Y-101703209D01*
X141459564Y-101682128D01*
X141456800Y-101654060D01*
X141456800Y-101190340D01*
X141459564Y-101162272D01*
X141465960Y-101141191D01*
X141476348Y-101121755D01*
X141490324Y-101104724D01*
X141507355Y-101090748D01*
X141526791Y-101080360D01*
X141547872Y-101073964D01*
X141575940Y-101071200D01*
X143389660Y-101071200D01*
X143417728Y-101073964D01*
G37*
G36*
X154121800Y-101728200D02*
G01*
X153319800Y-101728200D01*
X153319800Y-101116200D01*
X154121800Y-101116200D01*
X154121800Y-101728200D01*
G37*
G36*
X156441800Y-101728200D02*
G01*
X155639800Y-101728200D01*
X155639800Y-101116200D01*
X156441800Y-101116200D01*
X156441800Y-101728200D01*
G37*
G36*
X135520600Y-101725700D02*
G01*
X134718600Y-101725700D01*
X134718600Y-101113700D01*
X135520600Y-101113700D01*
X135520600Y-101725700D01*
G37*
G36*
X133200600Y-101725700D02*
G01*
X132398600Y-101725700D01*
X132398600Y-101113700D01*
X133200600Y-101113700D01*
X133200600Y-101725700D01*
G37*
G36*
X126505562Y-99788181D02*
G01*
X126540481Y-99798774D01*
X126572663Y-99815976D01*
X126600873Y-99839127D01*
X126624024Y-99867337D01*
X126641226Y-99899519D01*
X126651819Y-99934438D01*
X126656000Y-99976895D01*
X126656000Y-101118105D01*
X126651819Y-101160562D01*
X126641226Y-101195481D01*
X126624024Y-101227663D01*
X126600873Y-101255873D01*
X126572663Y-101279024D01*
X126540481Y-101296226D01*
X126505562Y-101306819D01*
X126463105Y-101311000D01*
X124996895Y-101311000D01*
X124954438Y-101306819D01*
X124919519Y-101296226D01*
X124887337Y-101279024D01*
X124859127Y-101255873D01*
X124835976Y-101227663D01*
X124818774Y-101195481D01*
X124808181Y-101160562D01*
X124804000Y-101118105D01*
X124804000Y-99976895D01*
X124808181Y-99934438D01*
X124818774Y-99899519D01*
X124835976Y-99867337D01*
X124859127Y-99839127D01*
X124887337Y-99815976D01*
X124919519Y-99798774D01*
X124954438Y-99788181D01*
X124996895Y-99784000D01*
X126463105Y-99784000D01*
X126505562Y-99788181D01*
G37*
G36*
X163970562Y-99788181D02*
G01*
X164005481Y-99798774D01*
X164037663Y-99815976D01*
X164065873Y-99839127D01*
X164089024Y-99867337D01*
X164106226Y-99899519D01*
X164116819Y-99934438D01*
X164121000Y-99976895D01*
X164121000Y-101118105D01*
X164116819Y-101160562D01*
X164106226Y-101195481D01*
X164089024Y-101227663D01*
X164065873Y-101255873D01*
X164037663Y-101279024D01*
X164005481Y-101296226D01*
X163970562Y-101306819D01*
X163928105Y-101311000D01*
X162461895Y-101311000D01*
X162419438Y-101306819D01*
X162384519Y-101296226D01*
X162352337Y-101279024D01*
X162324127Y-101255873D01*
X162300976Y-101227663D01*
X162283774Y-101195481D01*
X162273181Y-101160562D01*
X162269000Y-101118105D01*
X162269000Y-99976895D01*
X162273181Y-99934438D01*
X162283774Y-99899519D01*
X162300976Y-99867337D01*
X162324127Y-99839127D01*
X162352337Y-99815976D01*
X162384519Y-99798774D01*
X162419438Y-99788181D01*
X162461895Y-99784000D01*
X163928105Y-99784000D01*
X163970562Y-99788181D01*
G37*
G36*
X156441800Y-100778200D02*
G01*
X155639800Y-100778200D01*
X155639800Y-100166200D01*
X156441800Y-100166200D01*
X156441800Y-100778200D01*
G37*
G36*
X154121800Y-100778200D02*
G01*
X153319800Y-100778200D01*
X153319800Y-100166200D01*
X154121800Y-100166200D01*
X154121800Y-100778200D01*
G37*
G36*
X135520600Y-100775700D02*
G01*
X134718600Y-100775700D01*
X134718600Y-100163700D01*
X135520600Y-100163700D01*
X135520600Y-100775700D01*
G37*
G36*
X133200600Y-100775700D02*
G01*
X132398600Y-100775700D01*
X132398600Y-100163700D01*
X133200600Y-100163700D01*
X133200600Y-100775700D01*
G37*
G36*
X151414738Y-99974416D02*
G01*
X151435357Y-99980671D01*
X151454353Y-99990824D01*
X151471008Y-100004492D01*
X151484676Y-100021147D01*
X151494829Y-100040143D01*
X151501084Y-100060762D01*
X151503800Y-100088340D01*
X151503800Y-100597060D01*
X151501084Y-100624638D01*
X151494829Y-100645257D01*
X151484676Y-100664253D01*
X151471008Y-100680908D01*
X151454353Y-100694576D01*
X151435357Y-100704729D01*
X151414738Y-100710984D01*
X151387160Y-100713700D01*
X150928440Y-100713700D01*
X150900862Y-100710984D01*
X150880243Y-100704729D01*
X150861247Y-100694576D01*
X150844592Y-100680908D01*
X150830924Y-100664253D01*
X150820771Y-100645257D01*
X150814516Y-100624638D01*
X150811800Y-100597060D01*
X150811800Y-100088340D01*
X150814516Y-100060762D01*
X150820771Y-100040143D01*
X150830924Y-100021147D01*
X150844592Y-100004492D01*
X150861247Y-99990824D01*
X150880243Y-99980671D01*
X150900862Y-99974416D01*
X150928440Y-99971700D01*
X151387160Y-99971700D01*
X151414738Y-99974416D01*
G37*
G36*
X150444738Y-99974416D02*
G01*
X150465357Y-99980671D01*
X150484353Y-99990824D01*
X150501008Y-100004492D01*
X150514676Y-100021147D01*
X150524829Y-100040143D01*
X150531084Y-100060762D01*
X150533800Y-100088340D01*
X150533800Y-100597060D01*
X150531084Y-100624638D01*
X150524829Y-100645257D01*
X150514676Y-100664253D01*
X150501008Y-100680908D01*
X150484353Y-100694576D01*
X150465357Y-100704729D01*
X150444738Y-100710984D01*
X150417160Y-100713700D01*
X149958440Y-100713700D01*
X149930862Y-100710984D01*
X149910243Y-100704729D01*
X149891247Y-100694576D01*
X149874592Y-100680908D01*
X149860924Y-100664253D01*
X149850771Y-100645257D01*
X149844516Y-100624638D01*
X149841800Y-100597060D01*
X149841800Y-100088340D01*
X149844516Y-100060762D01*
X149850771Y-100040143D01*
X149860924Y-100021147D01*
X149874592Y-100004492D01*
X149891247Y-99990824D01*
X149910243Y-99980671D01*
X149930862Y-99974416D01*
X149958440Y-99971700D01*
X150417160Y-99971700D01*
X150444738Y-99974416D01*
G37*
G36*
X148367728Y-99803964D02*
G01*
X148388809Y-99810360D01*
X148408245Y-99820748D01*
X148425276Y-99834724D01*
X148439252Y-99851755D01*
X148449640Y-99871191D01*
X148456036Y-99892272D01*
X148458800Y-99920340D01*
X148458800Y-100384060D01*
X148456036Y-100412128D01*
X148449640Y-100433209D01*
X148439252Y-100452645D01*
X148425276Y-100469676D01*
X148408245Y-100483652D01*
X148388809Y-100494040D01*
X148367728Y-100500436D01*
X148339660Y-100503200D01*
X146525940Y-100503200D01*
X146497872Y-100500436D01*
X146476791Y-100494040D01*
X146457355Y-100483652D01*
X146440324Y-100469676D01*
X146426348Y-100452645D01*
X146415960Y-100433209D01*
X146409564Y-100412128D01*
X146406800Y-100384060D01*
X146406800Y-99920340D01*
X146409564Y-99892272D01*
X146415960Y-99871191D01*
X146426348Y-99851755D01*
X146440324Y-99834724D01*
X146457355Y-99820748D01*
X146476791Y-99810360D01*
X146497872Y-99803964D01*
X146525940Y-99801200D01*
X148339660Y-99801200D01*
X148367728Y-99803964D01*
G37*
G36*
X143417728Y-99803964D02*
G01*
X143438809Y-99810360D01*
X143458245Y-99820748D01*
X143475276Y-99834724D01*
X143489252Y-99851755D01*
X143499640Y-99871191D01*
X143506036Y-99892272D01*
X143508800Y-99920340D01*
X143508800Y-100384060D01*
X143506036Y-100412128D01*
X143499640Y-100433209D01*
X143489252Y-100452645D01*
X143475276Y-100469676D01*
X143458245Y-100483652D01*
X143438809Y-100494040D01*
X143417728Y-100500436D01*
X143389660Y-100503200D01*
X141575940Y-100503200D01*
X141547872Y-100500436D01*
X141526791Y-100494040D01*
X141507355Y-100483652D01*
X141490324Y-100469676D01*
X141476348Y-100452645D01*
X141465960Y-100433209D01*
X141459564Y-100412128D01*
X141456800Y-100384060D01*
X141456800Y-99920340D01*
X141459564Y-99892272D01*
X141465960Y-99871191D01*
X141476348Y-99851755D01*
X141490324Y-99834724D01*
X141507355Y-99820748D01*
X141526791Y-99810360D01*
X141547872Y-99803964D01*
X141575940Y-99801200D01*
X143389660Y-99801200D01*
X143417728Y-99803964D01*
G37*
G36*
X156441800Y-99828200D02*
G01*
X155639800Y-99828200D01*
X155639800Y-99216200D01*
X156441800Y-99216200D01*
X156441800Y-99828200D01*
G37*
G36*
X154121800Y-99828200D02*
G01*
X153319800Y-99828200D01*
X153319800Y-99216200D01*
X154121800Y-99216200D01*
X154121800Y-99828200D01*
G37*
G36*
X135520600Y-99825700D02*
G01*
X134718600Y-99825700D01*
X134718600Y-99213700D01*
X135520600Y-99213700D01*
X135520600Y-99825700D01*
G37*
G36*
X133200600Y-99825700D02*
G01*
X132398600Y-99825700D01*
X132398600Y-99213700D01*
X133200600Y-99213700D01*
X133200600Y-99825700D01*
G37*
G36*
X139984738Y-98767916D02*
G01*
X140005357Y-98774171D01*
X140024353Y-98784324D01*
X140041008Y-98797992D01*
X140054676Y-98814647D01*
X140064829Y-98833643D01*
X140071084Y-98854262D01*
X140073800Y-98881840D01*
X140073800Y-99390560D01*
X140071084Y-99418138D01*
X140064829Y-99438757D01*
X140054676Y-99457753D01*
X140041008Y-99474408D01*
X140024353Y-99488076D01*
X140005357Y-99498229D01*
X139984738Y-99504484D01*
X139957160Y-99507200D01*
X139498440Y-99507200D01*
X139470862Y-99504484D01*
X139450243Y-99498229D01*
X139431247Y-99488076D01*
X139414592Y-99474408D01*
X139400924Y-99457753D01*
X139390771Y-99438757D01*
X139384516Y-99418138D01*
X139381800Y-99390560D01*
X139381800Y-98881840D01*
X139384516Y-98854262D01*
X139390771Y-98833643D01*
X139400924Y-98814647D01*
X139414592Y-98797992D01*
X139431247Y-98784324D01*
X139450243Y-98774171D01*
X139470862Y-98767916D01*
X139498440Y-98765200D01*
X139957160Y-98765200D01*
X139984738Y-98767916D01*
G37*
G36*
X139014738Y-98767916D02*
G01*
X139035357Y-98774171D01*
X139054353Y-98784324D01*
X139071008Y-98797992D01*
X139084676Y-98814647D01*
X139094829Y-98833643D01*
X139101084Y-98854262D01*
X139103800Y-98881840D01*
X139103800Y-99390560D01*
X139101084Y-99418138D01*
X139094829Y-99438757D01*
X139084676Y-99457753D01*
X139071008Y-99474408D01*
X139054353Y-99488076D01*
X139035357Y-99498229D01*
X139014738Y-99504484D01*
X138987160Y-99507200D01*
X138528440Y-99507200D01*
X138500862Y-99504484D01*
X138480243Y-99498229D01*
X138461247Y-99488076D01*
X138444592Y-99474408D01*
X138430924Y-99457753D01*
X138420771Y-99438757D01*
X138414516Y-99418138D01*
X138411800Y-99390560D01*
X138411800Y-98881840D01*
X138414516Y-98854262D01*
X138420771Y-98833643D01*
X138430924Y-98814647D01*
X138444592Y-98797992D01*
X138461247Y-98784324D01*
X138480243Y-98774171D01*
X138500862Y-98767916D01*
X138528440Y-98765200D01*
X138987160Y-98765200D01*
X139014738Y-98767916D01*
G37*
G36*
X143417728Y-98533964D02*
G01*
X143438809Y-98540360D01*
X143458245Y-98550748D01*
X143475276Y-98564724D01*
X143489252Y-98581755D01*
X143499640Y-98601191D01*
X143506036Y-98622272D01*
X143508800Y-98650340D01*
X143508800Y-99114060D01*
X143506036Y-99142128D01*
X143499640Y-99163209D01*
X143489252Y-99182645D01*
X143475276Y-99199676D01*
X143458245Y-99213652D01*
X143438809Y-99224040D01*
X143417728Y-99230436D01*
X143389660Y-99233200D01*
X141575940Y-99233200D01*
X141547872Y-99230436D01*
X141526791Y-99224040D01*
X141507355Y-99213652D01*
X141490324Y-99199676D01*
X141476348Y-99182645D01*
X141465960Y-99163209D01*
X141459564Y-99142128D01*
X141456800Y-99114060D01*
X141456800Y-98650340D01*
X141459564Y-98622272D01*
X141465960Y-98601191D01*
X141476348Y-98581755D01*
X141490324Y-98564724D01*
X141507355Y-98550748D01*
X141526791Y-98540360D01*
X141547872Y-98533964D01*
X141575940Y-98531200D01*
X143389660Y-98531200D01*
X143417728Y-98533964D01*
G37*
G36*
X148367728Y-98533964D02*
G01*
X148388809Y-98540360D01*
X148408245Y-98550748D01*
X148425276Y-98564724D01*
X148439252Y-98581755D01*
X148449640Y-98601191D01*
X148456036Y-98622272D01*
X148458800Y-98650340D01*
X148458800Y-99114060D01*
X148456036Y-99142128D01*
X148449640Y-99163209D01*
X148439252Y-99182645D01*
X148425276Y-99199676D01*
X148408245Y-99213652D01*
X148388809Y-99224040D01*
X148367728Y-99230436D01*
X148339660Y-99233200D01*
X146525940Y-99233200D01*
X146497872Y-99230436D01*
X146476791Y-99224040D01*
X146457355Y-99213652D01*
X146440324Y-99199676D01*
X146426348Y-99182645D01*
X146415960Y-99163209D01*
X146409564Y-99142128D01*
X146406800Y-99114060D01*
X146406800Y-98650340D01*
X146409564Y-98622272D01*
X146415960Y-98601191D01*
X146426348Y-98581755D01*
X146440324Y-98564724D01*
X146457355Y-98550748D01*
X146476791Y-98540360D01*
X146497872Y-98533964D01*
X146525940Y-98531200D01*
X148339660Y-98531200D01*
X148367728Y-98533964D01*
G37*
G36*
X151414738Y-98196416D02*
G01*
X151435357Y-98202671D01*
X151454353Y-98212824D01*
X151471008Y-98226492D01*
X151484676Y-98243147D01*
X151494829Y-98262143D01*
X151501084Y-98282762D01*
X151503800Y-98310340D01*
X151503800Y-98819060D01*
X151501084Y-98846638D01*
X151494829Y-98867257D01*
X151484676Y-98886253D01*
X151471008Y-98902908D01*
X151454353Y-98916576D01*
X151435357Y-98926729D01*
X151414738Y-98932984D01*
X151387160Y-98935700D01*
X150928440Y-98935700D01*
X150900862Y-98932984D01*
X150880243Y-98926729D01*
X150861247Y-98916576D01*
X150844592Y-98902908D01*
X150830924Y-98886253D01*
X150820771Y-98867257D01*
X150814516Y-98846638D01*
X150811800Y-98819060D01*
X150811800Y-98310340D01*
X150814516Y-98282762D01*
X150820771Y-98262143D01*
X150830924Y-98243147D01*
X150844592Y-98226492D01*
X150861247Y-98212824D01*
X150880243Y-98202671D01*
X150900862Y-98196416D01*
X150928440Y-98193700D01*
X151387160Y-98193700D01*
X151414738Y-98196416D01*
G37*
G36*
X150444738Y-98196416D02*
G01*
X150465357Y-98202671D01*
X150484353Y-98212824D01*
X150501008Y-98226492D01*
X150514676Y-98243147D01*
X150524829Y-98262143D01*
X150531084Y-98282762D01*
X150533800Y-98310340D01*
X150533800Y-98819060D01*
X150531084Y-98846638D01*
X150524829Y-98867257D01*
X150514676Y-98886253D01*
X150501008Y-98902908D01*
X150484353Y-98916576D01*
X150465357Y-98926729D01*
X150444738Y-98932984D01*
X150417160Y-98935700D01*
X149958440Y-98935700D01*
X149930862Y-98932984D01*
X149910243Y-98926729D01*
X149891247Y-98916576D01*
X149874592Y-98902908D01*
X149860924Y-98886253D01*
X149850771Y-98867257D01*
X149844516Y-98846638D01*
X149841800Y-98819060D01*
X149841800Y-98310340D01*
X149844516Y-98282762D01*
X149850771Y-98262143D01*
X149860924Y-98243147D01*
X149874592Y-98226492D01*
X149891247Y-98212824D01*
X149910243Y-98202671D01*
X149930862Y-98196416D01*
X149958440Y-98193700D01*
X150417160Y-98193700D01*
X150444738Y-98196416D01*
G37*
G36*
X163970562Y-96813181D02*
G01*
X164005481Y-96823774D01*
X164037663Y-96840976D01*
X164065873Y-96864127D01*
X164089024Y-96892337D01*
X164106226Y-96924519D01*
X164116819Y-96959438D01*
X164121000Y-97001895D01*
X164121000Y-98143105D01*
X164116819Y-98185562D01*
X164106226Y-98220481D01*
X164089025Y-98252662D01*
X164065873Y-98280873D01*
X164037663Y-98304024D01*
X164005481Y-98321226D01*
X163970562Y-98331819D01*
X163928105Y-98336000D01*
X162461895Y-98336000D01*
X162419438Y-98331819D01*
X162384519Y-98321226D01*
X162352337Y-98304024D01*
X162324127Y-98280873D01*
X162300975Y-98252662D01*
X162283774Y-98220481D01*
X162273181Y-98185562D01*
X162269000Y-98143105D01*
X162269000Y-97001895D01*
X162273181Y-96959438D01*
X162283774Y-96924519D01*
X162300976Y-96892337D01*
X162324127Y-96864127D01*
X162352337Y-96840976D01*
X162384519Y-96823774D01*
X162419438Y-96813181D01*
X162461895Y-96809000D01*
X163928105Y-96809000D01*
X163970562Y-96813181D01*
G37*
G36*
X126505562Y-96813181D02*
G01*
X126540481Y-96823774D01*
X126572663Y-96840976D01*
X126600873Y-96864127D01*
X126624024Y-96892337D01*
X126641226Y-96924519D01*
X126651819Y-96959438D01*
X126656000Y-97001895D01*
X126656000Y-98143105D01*
X126651819Y-98185562D01*
X126641226Y-98220481D01*
X126624025Y-98252662D01*
X126600873Y-98280873D01*
X126572663Y-98304024D01*
X126540481Y-98321226D01*
X126505562Y-98331819D01*
X126463105Y-98336000D01*
X124996895Y-98336000D01*
X124954438Y-98331819D01*
X124919519Y-98321226D01*
X124887337Y-98304024D01*
X124859127Y-98280873D01*
X124835975Y-98252662D01*
X124818774Y-98220481D01*
X124808181Y-98185562D01*
X124804000Y-98143105D01*
X124804000Y-97001895D01*
X124808181Y-96959438D01*
X124818774Y-96924519D01*
X124835976Y-96892337D01*
X124859127Y-96864127D01*
X124887337Y-96840976D01*
X124919519Y-96823774D01*
X124954438Y-96813181D01*
X124996895Y-96809000D01*
X126463105Y-96809000D01*
X126505562Y-96813181D01*
G37*
G36*
X139014738Y-97497916D02*
G01*
X139035357Y-97504171D01*
X139054353Y-97514324D01*
X139071008Y-97527992D01*
X139084676Y-97544647D01*
X139094829Y-97563643D01*
X139101084Y-97584262D01*
X139103800Y-97611840D01*
X139103800Y-98120560D01*
X139101084Y-98148138D01*
X139094829Y-98168757D01*
X139084676Y-98187753D01*
X139071008Y-98204408D01*
X139054353Y-98218076D01*
X139035357Y-98228229D01*
X139014738Y-98234484D01*
X138987160Y-98237200D01*
X138528440Y-98237200D01*
X138500862Y-98234484D01*
X138480243Y-98228229D01*
X138461247Y-98218076D01*
X138444592Y-98204408D01*
X138430924Y-98187753D01*
X138420771Y-98168757D01*
X138414516Y-98148138D01*
X138411800Y-98120560D01*
X138411800Y-97611840D01*
X138414516Y-97584262D01*
X138420771Y-97563643D01*
X138430924Y-97544647D01*
X138444592Y-97527992D01*
X138461247Y-97514324D01*
X138480243Y-97504171D01*
X138500862Y-97497916D01*
X138528440Y-97495200D01*
X138987160Y-97495200D01*
X139014738Y-97497916D01*
G37*
G36*
X139984738Y-97497916D02*
G01*
X140005357Y-97504171D01*
X140024353Y-97514324D01*
X140041008Y-97527992D01*
X140054676Y-97544647D01*
X140064829Y-97563643D01*
X140071084Y-97584262D01*
X140073800Y-97611840D01*
X140073800Y-98120560D01*
X140071084Y-98148138D01*
X140064829Y-98168757D01*
X140054676Y-98187753D01*
X140041008Y-98204408D01*
X140024353Y-98218076D01*
X140005357Y-98228229D01*
X139984738Y-98234484D01*
X139957160Y-98237200D01*
X139498440Y-98237200D01*
X139470862Y-98234484D01*
X139450243Y-98228229D01*
X139431247Y-98218076D01*
X139414592Y-98204408D01*
X139400924Y-98187753D01*
X139390771Y-98168757D01*
X139384516Y-98148138D01*
X139381800Y-98120560D01*
X139381800Y-97611840D01*
X139384516Y-97584262D01*
X139390771Y-97563643D01*
X139400924Y-97544647D01*
X139414592Y-97527992D01*
X139431247Y-97514324D01*
X139450243Y-97504171D01*
X139470862Y-97497916D01*
X139498440Y-97495200D01*
X139957160Y-97495200D01*
X139984738Y-97497916D01*
G37*
G36*
X148367728Y-97263964D02*
G01*
X148388809Y-97270360D01*
X148408245Y-97280748D01*
X148425276Y-97294724D01*
X148439252Y-97311755D01*
X148449640Y-97331191D01*
X148456036Y-97352272D01*
X148458800Y-97380340D01*
X148458800Y-97844060D01*
X148456036Y-97872128D01*
X148449640Y-97893209D01*
X148439252Y-97912645D01*
X148425276Y-97929676D01*
X148408245Y-97943652D01*
X148388809Y-97954040D01*
X148367728Y-97960436D01*
X148339660Y-97963200D01*
X146525940Y-97963200D01*
X146497872Y-97960436D01*
X146476791Y-97954040D01*
X146457355Y-97943652D01*
X146440324Y-97929676D01*
X146426348Y-97912645D01*
X146415960Y-97893209D01*
X146409564Y-97872128D01*
X146406800Y-97844060D01*
X146406800Y-97380340D01*
X146409564Y-97352272D01*
X146415960Y-97331191D01*
X146426348Y-97311755D01*
X146440324Y-97294724D01*
X146457355Y-97280748D01*
X146476791Y-97270360D01*
X146497872Y-97263964D01*
X146525940Y-97261200D01*
X148339660Y-97261200D01*
X148367728Y-97263964D01*
G37*
G36*
X143417728Y-97263964D02*
G01*
X143438809Y-97270360D01*
X143458245Y-97280748D01*
X143475276Y-97294724D01*
X143489252Y-97311755D01*
X143499640Y-97331191D01*
X143506036Y-97352272D01*
X143508800Y-97380340D01*
X143508800Y-97844060D01*
X143506036Y-97872128D01*
X143499640Y-97893209D01*
X143489252Y-97912645D01*
X143475276Y-97929676D01*
X143458245Y-97943652D01*
X143438809Y-97954040D01*
X143417728Y-97960436D01*
X143389660Y-97963200D01*
X141575940Y-97963200D01*
X141547872Y-97960436D01*
X141526791Y-97954040D01*
X141507355Y-97943652D01*
X141490324Y-97929676D01*
X141476348Y-97912645D01*
X141465960Y-97893209D01*
X141459564Y-97872128D01*
X141456800Y-97844060D01*
X141456800Y-97380340D01*
X141459564Y-97352272D01*
X141465960Y-97331191D01*
X141476348Y-97311755D01*
X141490324Y-97294724D01*
X141507355Y-97280748D01*
X141526791Y-97270360D01*
X141547872Y-97263964D01*
X141575940Y-97261200D01*
X143389660Y-97261200D01*
X143417728Y-97263964D01*
G37*
G36*
X147726938Y-95516716D02*
G01*
X147747557Y-95522971D01*
X147766553Y-95533124D01*
X147783208Y-95546792D01*
X147796876Y-95563447D01*
X147807029Y-95582443D01*
X147813284Y-95603062D01*
X147816000Y-95630640D01*
X147816000Y-96139360D01*
X147813284Y-96166938D01*
X147807029Y-96187557D01*
X147796876Y-96206553D01*
X147783208Y-96223208D01*
X147766553Y-96236876D01*
X147747557Y-96247029D01*
X147726938Y-96253284D01*
X147699360Y-96256000D01*
X147240640Y-96256000D01*
X147213062Y-96253284D01*
X147192443Y-96247029D01*
X147173447Y-96236876D01*
X147156792Y-96223208D01*
X147143124Y-96206553D01*
X147132971Y-96187557D01*
X147126716Y-96166938D01*
X147124000Y-96139360D01*
X147124000Y-95630640D01*
X147126716Y-95603062D01*
X147132971Y-95582443D01*
X147143124Y-95563447D01*
X147156792Y-95546792D01*
X147173447Y-95533124D01*
X147192443Y-95522971D01*
X147213062Y-95516716D01*
X147240640Y-95514000D01*
X147699360Y-95514000D01*
X147726938Y-95516716D01*
G37*
G36*
X148696938Y-95516716D02*
G01*
X148717557Y-95522971D01*
X148736553Y-95533124D01*
X148753208Y-95546792D01*
X148766876Y-95563447D01*
X148777029Y-95582443D01*
X148783284Y-95603062D01*
X148786000Y-95630640D01*
X148786000Y-96139360D01*
X148783284Y-96166938D01*
X148777029Y-96187557D01*
X148766876Y-96206553D01*
X148753208Y-96223208D01*
X148736553Y-96236876D01*
X148717557Y-96247029D01*
X148696938Y-96253284D01*
X148669360Y-96256000D01*
X148210640Y-96256000D01*
X148183062Y-96253284D01*
X148162443Y-96247029D01*
X148143447Y-96236876D01*
X148126792Y-96223208D01*
X148113124Y-96206553D01*
X148102971Y-96187557D01*
X148096716Y-96166938D01*
X148094000Y-96139360D01*
X148094000Y-95630640D01*
X148096716Y-95603062D01*
X148102971Y-95582443D01*
X148113124Y-95563447D01*
X148126792Y-95546792D01*
X148143447Y-95533124D01*
X148162443Y-95522971D01*
X148183062Y-95516716D01*
X148210640Y-95514000D01*
X148669360Y-95514000D01*
X148696938Y-95516716D01*
G37*
G36*
X150139938Y-95516716D02*
G01*
X150160557Y-95522971D01*
X150179553Y-95533124D01*
X150196208Y-95546792D01*
X150209876Y-95563447D01*
X150220029Y-95582443D01*
X150226284Y-95603062D01*
X150229000Y-95630640D01*
X150229000Y-96139360D01*
X150226284Y-96166938D01*
X150220029Y-96187557D01*
X150209876Y-96206553D01*
X150196208Y-96223208D01*
X150179553Y-96236876D01*
X150160557Y-96247029D01*
X150139938Y-96253284D01*
X150112360Y-96256000D01*
X149653640Y-96256000D01*
X149626062Y-96253284D01*
X149605443Y-96247029D01*
X149586447Y-96236876D01*
X149569792Y-96223208D01*
X149556124Y-96206553D01*
X149545971Y-96187557D01*
X149539716Y-96166938D01*
X149537000Y-96139360D01*
X149537000Y-95630640D01*
X149539716Y-95603062D01*
X149545971Y-95582443D01*
X149556124Y-95563447D01*
X149569792Y-95546792D01*
X149586447Y-95533124D01*
X149605443Y-95522971D01*
X149626062Y-95516716D01*
X149653640Y-95514000D01*
X150112360Y-95514000D01*
X150139938Y-95516716D01*
G37*
G36*
X151109938Y-95516716D02*
G01*
X151130557Y-95522971D01*
X151149553Y-95533124D01*
X151166208Y-95546792D01*
X151179876Y-95563447D01*
X151190029Y-95582443D01*
X151196284Y-95603062D01*
X151199000Y-95630640D01*
X151199000Y-96139360D01*
X151196284Y-96166938D01*
X151190029Y-96187557D01*
X151179876Y-96206553D01*
X151166208Y-96223208D01*
X151149553Y-96236876D01*
X151130557Y-96247029D01*
X151109938Y-96253284D01*
X151082360Y-96256000D01*
X150623640Y-96256000D01*
X150596062Y-96253284D01*
X150575443Y-96247029D01*
X150556447Y-96236876D01*
X150539792Y-96223208D01*
X150526124Y-96206553D01*
X150515971Y-96187557D01*
X150509716Y-96166938D01*
X150507000Y-96139360D01*
X150507000Y-95630640D01*
X150509716Y-95603062D01*
X150515971Y-95582443D01*
X150526124Y-95563447D01*
X150539792Y-95546792D01*
X150556447Y-95533124D01*
X150575443Y-95522971D01*
X150596062Y-95516716D01*
X150623640Y-95514000D01*
X151082360Y-95514000D01*
X151109938Y-95516716D01*
G37*
G36*
X132459589Y-94615876D02*
G01*
X132558893Y-94635629D01*
X132699206Y-94693748D01*
X132825484Y-94778125D01*
X132932875Y-94885516D01*
X133017252Y-95011794D01*
X133075371Y-95152107D01*
X133105000Y-95301063D01*
X133105000Y-95452937D01*
X133075371Y-95601893D01*
X133017252Y-95742206D01*
X132932875Y-95868484D01*
X132825484Y-95975875D01*
X132699206Y-96060252D01*
X132558893Y-96118371D01*
X132459589Y-96138124D01*
X132409938Y-96148000D01*
X132258062Y-96148000D01*
X132208411Y-96138124D01*
X132109107Y-96118371D01*
X131968794Y-96060252D01*
X131842516Y-95975875D01*
X131735125Y-95868484D01*
X131650748Y-95742206D01*
X131592629Y-95601893D01*
X131563000Y-95452937D01*
X131563000Y-95301063D01*
X131592629Y-95152107D01*
X131650748Y-95011794D01*
X131735125Y-94885516D01*
X131842516Y-94778125D01*
X131968794Y-94693748D01*
X132109107Y-94635629D01*
X132208411Y-94615876D01*
X132258062Y-94606000D01*
X132409938Y-94606000D01*
X132459589Y-94615876D01*
G37*
G36*
X134999589Y-94615876D02*
G01*
X135098893Y-94635629D01*
X135239206Y-94693748D01*
X135365484Y-94778125D01*
X135472875Y-94885516D01*
X135557252Y-95011794D01*
X135615371Y-95152107D01*
X135645000Y-95301063D01*
X135645000Y-95452937D01*
X135615371Y-95601893D01*
X135557252Y-95742206D01*
X135472875Y-95868484D01*
X135365484Y-95975875D01*
X135239206Y-96060252D01*
X135098893Y-96118371D01*
X134999589Y-96138124D01*
X134949938Y-96148000D01*
X134798062Y-96148000D01*
X134748411Y-96138124D01*
X134649107Y-96118371D01*
X134508794Y-96060252D01*
X134382516Y-95975875D01*
X134275125Y-95868484D01*
X134190748Y-95742206D01*
X134132629Y-95601893D01*
X134103000Y-95452937D01*
X134103000Y-95301063D01*
X134132629Y-95152107D01*
X134190748Y-95011794D01*
X134275125Y-94885516D01*
X134382516Y-94778125D01*
X134508794Y-94693748D01*
X134649107Y-94635629D01*
X134748411Y-94615876D01*
X134798062Y-94606000D01*
X134949938Y-94606000D01*
X134999589Y-94615876D01*
G37*
G36*
X129919589Y-94615876D02*
G01*
X130018893Y-94635629D01*
X130159206Y-94693748D01*
X130285484Y-94778125D01*
X130392875Y-94885516D01*
X130477252Y-95011794D01*
X130535371Y-95152107D01*
X130565000Y-95301063D01*
X130565000Y-95452937D01*
X130535371Y-95601893D01*
X130477252Y-95742206D01*
X130392875Y-95868484D01*
X130285484Y-95975875D01*
X130159206Y-96060252D01*
X130018893Y-96118371D01*
X129919589Y-96138124D01*
X129869938Y-96148000D01*
X129718062Y-96148000D01*
X129668411Y-96138124D01*
X129569107Y-96118371D01*
X129428794Y-96060252D01*
X129302516Y-95975875D01*
X129195125Y-95868484D01*
X129110748Y-95742206D01*
X129052629Y-95601893D01*
X129023000Y-95452937D01*
X129023000Y-95301063D01*
X129052629Y-95152107D01*
X129110748Y-95011794D01*
X129195125Y-94885516D01*
X129302516Y-94778125D01*
X129428794Y-94693748D01*
X129569107Y-94635629D01*
X129668411Y-94615876D01*
X129718062Y-94606000D01*
X129869938Y-94606000D01*
X129919589Y-94615876D01*
G37*
G36*
X153723338Y-95137716D02*
G01*
X153743957Y-95143971D01*
X153762953Y-95154124D01*
X153779608Y-95167792D01*
X153793276Y-95184447D01*
X153803429Y-95203443D01*
X153809684Y-95224062D01*
X153812400Y-95251640D01*
X153812400Y-95710360D01*
X153809684Y-95737938D01*
X153803429Y-95758557D01*
X153793276Y-95777553D01*
X153779608Y-95794208D01*
X153762953Y-95807876D01*
X153743957Y-95818029D01*
X153723338Y-95824284D01*
X153695760Y-95827000D01*
X153187040Y-95827000D01*
X153159462Y-95824284D01*
X153138843Y-95818029D01*
X153119847Y-95807876D01*
X153103192Y-95794208D01*
X153089524Y-95777553D01*
X153079371Y-95758557D01*
X153073116Y-95737938D01*
X153070400Y-95710360D01*
X153070400Y-95251640D01*
X153073116Y-95224062D01*
X153079371Y-95203443D01*
X153089524Y-95184447D01*
X153103192Y-95167792D01*
X153119847Y-95154124D01*
X153138843Y-95143971D01*
X153159462Y-95137716D01*
X153187040Y-95135000D01*
X153695760Y-95135000D01*
X153723338Y-95137716D01*
G37*
G36*
X155882338Y-95137716D02*
G01*
X155902957Y-95143971D01*
X155921953Y-95154124D01*
X155938608Y-95167792D01*
X155952276Y-95184447D01*
X155962429Y-95203443D01*
X155968684Y-95224062D01*
X155971400Y-95251640D01*
X155971400Y-95710360D01*
X155968684Y-95737938D01*
X155962429Y-95758557D01*
X155952276Y-95777553D01*
X155938608Y-95794208D01*
X155921953Y-95807876D01*
X155902957Y-95818029D01*
X155882338Y-95824284D01*
X155854760Y-95827000D01*
X155346040Y-95827000D01*
X155318462Y-95824284D01*
X155297843Y-95818029D01*
X155278847Y-95807876D01*
X155262192Y-95794208D01*
X155248524Y-95777553D01*
X155238371Y-95758557D01*
X155232116Y-95737938D01*
X155229400Y-95710360D01*
X155229400Y-95251640D01*
X155232116Y-95224062D01*
X155238371Y-95203443D01*
X155248524Y-95184447D01*
X155262192Y-95167792D01*
X155278847Y-95154124D01*
X155297843Y-95143971D01*
X155318462Y-95137716D01*
X155346040Y-95135000D01*
X155854760Y-95135000D01*
X155882338Y-95137716D01*
G37*
G36*
X157914338Y-95137716D02*
G01*
X157934957Y-95143971D01*
X157953953Y-95154124D01*
X157970608Y-95167792D01*
X157984276Y-95184447D01*
X157994429Y-95203443D01*
X158000684Y-95224062D01*
X158003400Y-95251640D01*
X158003400Y-95710360D01*
X158000684Y-95737938D01*
X157994429Y-95758557D01*
X157984276Y-95777553D01*
X157970608Y-95794208D01*
X157953953Y-95807876D01*
X157934957Y-95818029D01*
X157914338Y-95824284D01*
X157886760Y-95827000D01*
X157378040Y-95827000D01*
X157350462Y-95824284D01*
X157329843Y-95818029D01*
X157310847Y-95807876D01*
X157294192Y-95794208D01*
X157280524Y-95777553D01*
X157270371Y-95758557D01*
X157264116Y-95737938D01*
X157261400Y-95710360D01*
X157261400Y-95251640D01*
X157264116Y-95224062D01*
X157270371Y-95203443D01*
X157280524Y-95184447D01*
X157294192Y-95167792D01*
X157310847Y-95154124D01*
X157329843Y-95143971D01*
X157350462Y-95137716D01*
X157378040Y-95135000D01*
X157886760Y-95135000D01*
X157914338Y-95137716D01*
G37*
G36*
X140251000Y-95712100D02*
G01*
X139149000Y-95712100D01*
X139149000Y-94610100D01*
X140251000Y-94610100D01*
X140251000Y-95712100D01*
G37*
G36*
X137416538Y-94744016D02*
G01*
X137437157Y-94750271D01*
X137456153Y-94760424D01*
X137472808Y-94774092D01*
X137486476Y-94790747D01*
X137496629Y-94809743D01*
X137502884Y-94830362D01*
X137505600Y-94857940D01*
X137505600Y-95316660D01*
X137502884Y-95344238D01*
X137496629Y-95364857D01*
X137486476Y-95383853D01*
X137472808Y-95400508D01*
X137456153Y-95414176D01*
X137437157Y-95424329D01*
X137416538Y-95430584D01*
X137388960Y-95433300D01*
X136880240Y-95433300D01*
X136852662Y-95430584D01*
X136832043Y-95424329D01*
X136813047Y-95414176D01*
X136796392Y-95400508D01*
X136782724Y-95383853D01*
X136772571Y-95364857D01*
X136766316Y-95344238D01*
X136763600Y-95316660D01*
X136763600Y-94857940D01*
X136766316Y-94830362D01*
X136772571Y-94809743D01*
X136782724Y-94790747D01*
X136796392Y-94774092D01*
X136813047Y-94760424D01*
X136832043Y-94750271D01*
X136852662Y-94744016D01*
X136880240Y-94741300D01*
X137388960Y-94741300D01*
X137416538Y-94744016D01*
G37*
G36*
X157914338Y-94167716D02*
G01*
X157934957Y-94173971D01*
X157953953Y-94184124D01*
X157970608Y-94197792D01*
X157984276Y-94214447D01*
X157994429Y-94233443D01*
X158000684Y-94254062D01*
X158003400Y-94281640D01*
X158003400Y-94740360D01*
X158000684Y-94767938D01*
X157994429Y-94788557D01*
X157984276Y-94807553D01*
X157970608Y-94824208D01*
X157953953Y-94837876D01*
X157934957Y-94848029D01*
X157914338Y-94854284D01*
X157886760Y-94857000D01*
X157378040Y-94857000D01*
X157350462Y-94854284D01*
X157329843Y-94848029D01*
X157310847Y-94837876D01*
X157294192Y-94824208D01*
X157280524Y-94807553D01*
X157270371Y-94788557D01*
X157264116Y-94767938D01*
X157261400Y-94740360D01*
X157261400Y-94281640D01*
X157264116Y-94254062D01*
X157270371Y-94233443D01*
X157280524Y-94214447D01*
X157294192Y-94197792D01*
X157310847Y-94184124D01*
X157329843Y-94173971D01*
X157350462Y-94167716D01*
X157378040Y-94165000D01*
X157886760Y-94165000D01*
X157914338Y-94167716D01*
G37*
G36*
X155882338Y-94167716D02*
G01*
X155902957Y-94173971D01*
X155921953Y-94184124D01*
X155938608Y-94197792D01*
X155952276Y-94214447D01*
X155962429Y-94233443D01*
X155968684Y-94254062D01*
X155971400Y-94281640D01*
X155971400Y-94740360D01*
X155968684Y-94767938D01*
X155962429Y-94788557D01*
X155952276Y-94807553D01*
X155938608Y-94824208D01*
X155921953Y-94837876D01*
X155902957Y-94848029D01*
X155882338Y-94854284D01*
X155854760Y-94857000D01*
X155346040Y-94857000D01*
X155318462Y-94854284D01*
X155297843Y-94848029D01*
X155278847Y-94837876D01*
X155262192Y-94824208D01*
X155248524Y-94807553D01*
X155238371Y-94788557D01*
X155232116Y-94767938D01*
X155229400Y-94740360D01*
X155229400Y-94281640D01*
X155232116Y-94254062D01*
X155238371Y-94233443D01*
X155248524Y-94214447D01*
X155262192Y-94197792D01*
X155278847Y-94184124D01*
X155297843Y-94173971D01*
X155318462Y-94167716D01*
X155346040Y-94165000D01*
X155854760Y-94165000D01*
X155882338Y-94167716D01*
G37*
G36*
X153723338Y-94167716D02*
G01*
X153743957Y-94173971D01*
X153762953Y-94184124D01*
X153779608Y-94197792D01*
X153793276Y-94214447D01*
X153803429Y-94233443D01*
X153809684Y-94254062D01*
X153812400Y-94281640D01*
X153812400Y-94740360D01*
X153809684Y-94767938D01*
X153803429Y-94788557D01*
X153793276Y-94807553D01*
X153779608Y-94824208D01*
X153762953Y-94837876D01*
X153743957Y-94848029D01*
X153723338Y-94854284D01*
X153695760Y-94857000D01*
X153187040Y-94857000D01*
X153159462Y-94854284D01*
X153138843Y-94848029D01*
X153119847Y-94837876D01*
X153103192Y-94824208D01*
X153089524Y-94807553D01*
X153079371Y-94788557D01*
X153073116Y-94767938D01*
X153070400Y-94740360D01*
X153070400Y-94281640D01*
X153073116Y-94254062D01*
X153079371Y-94233443D01*
X153089524Y-94214447D01*
X153103192Y-94197792D01*
X153119847Y-94184124D01*
X153138843Y-94173971D01*
X153159462Y-94167716D01*
X153187040Y-94165000D01*
X153695760Y-94165000D01*
X153723338Y-94167716D01*
G37*
G36*
X146009600Y-94631200D02*
G01*
X144457600Y-94631200D01*
X144457600Y-90179200D01*
X146009600Y-90179200D01*
X146009600Y-94631200D01*
G37*
G36*
X151909600Y-94631200D02*
G01*
X150357600Y-94631200D01*
X150357600Y-90179200D01*
X151909600Y-90179200D01*
X151909600Y-94631200D01*
G37*
G36*
X137416538Y-93774016D02*
G01*
X137437157Y-93780271D01*
X137456153Y-93790424D01*
X137472808Y-93804092D01*
X137486476Y-93820747D01*
X137496629Y-93839743D01*
X137502884Y-93860362D01*
X137505600Y-93887940D01*
X137505600Y-94346660D01*
X137502884Y-94374238D01*
X137496629Y-94394857D01*
X137486476Y-94413853D01*
X137472808Y-94430508D01*
X137456153Y-94444176D01*
X137437157Y-94454329D01*
X137416538Y-94460584D01*
X137388960Y-94463300D01*
X136880240Y-94463300D01*
X136852662Y-94460584D01*
X136832043Y-94454329D01*
X136813047Y-94444176D01*
X136796392Y-94430508D01*
X136782724Y-94413853D01*
X136772571Y-94394857D01*
X136766316Y-94374238D01*
X136763600Y-94346660D01*
X136763600Y-93887940D01*
X136766316Y-93860362D01*
X136772571Y-93839743D01*
X136782724Y-93820747D01*
X136796392Y-93804092D01*
X136813047Y-93790424D01*
X136832043Y-93780271D01*
X136852662Y-93774016D01*
X136880240Y-93771300D01*
X137388960Y-93771300D01*
X137416538Y-93774016D01*
G37*
G36*
X163970562Y-92803181D02*
G01*
X164005481Y-92813774D01*
X164037663Y-92830976D01*
X164065873Y-92854127D01*
X164089024Y-92882337D01*
X164106226Y-92914519D01*
X164116819Y-92949438D01*
X164121000Y-92991895D01*
X164121000Y-94133105D01*
X164116819Y-94175562D01*
X164106226Y-94210481D01*
X164089024Y-94242663D01*
X164065873Y-94270873D01*
X164037663Y-94294024D01*
X164005481Y-94311226D01*
X163970562Y-94321819D01*
X163928105Y-94326000D01*
X162461895Y-94326000D01*
X162419438Y-94321819D01*
X162384519Y-94311226D01*
X162352337Y-94294024D01*
X162324127Y-94270873D01*
X162300976Y-94242663D01*
X162283774Y-94210481D01*
X162273181Y-94175562D01*
X162269000Y-94133105D01*
X162269000Y-92991895D01*
X162273181Y-92949438D01*
X162283774Y-92914519D01*
X162300976Y-92882337D01*
X162324127Y-92854127D01*
X162352337Y-92830976D01*
X162384519Y-92813774D01*
X162419438Y-92803181D01*
X162461895Y-92799000D01*
X163928105Y-92799000D01*
X163970562Y-92803181D01*
G37*
G36*
X126505562Y-92803181D02*
G01*
X126540481Y-92813774D01*
X126572663Y-92830976D01*
X126600873Y-92854127D01*
X126624024Y-92882337D01*
X126641226Y-92914519D01*
X126651819Y-92949438D01*
X126656000Y-92991895D01*
X126656000Y-94133105D01*
X126651819Y-94175562D01*
X126641226Y-94210481D01*
X126624024Y-94242663D01*
X126600873Y-94270873D01*
X126572663Y-94294024D01*
X126540481Y-94311226D01*
X126505562Y-94321819D01*
X126463105Y-94326000D01*
X124996895Y-94326000D01*
X124954438Y-94321819D01*
X124919519Y-94311226D01*
X124887337Y-94294024D01*
X124859127Y-94270873D01*
X124835976Y-94242663D01*
X124818774Y-94210481D01*
X124808181Y-94175562D01*
X124804000Y-94133105D01*
X124804000Y-92991895D01*
X124808181Y-92949438D01*
X124818774Y-92914519D01*
X124835976Y-92882337D01*
X124859127Y-92854127D01*
X124887337Y-92830976D01*
X124919519Y-92813774D01*
X124954438Y-92803181D01*
X124996895Y-92799000D01*
X126463105Y-92799000D01*
X126505562Y-92803181D01*
G37*
G36*
X154139112Y-90493127D02*
G01*
X154288412Y-90522824D01*
X154452384Y-90590744D01*
X154599954Y-90689347D01*
X154725453Y-90814846D01*
X154824056Y-90962416D01*
X154891976Y-91126388D01*
X154916629Y-91250329D01*
X154926168Y-91298284D01*
X154926600Y-91300459D01*
X154926600Y-91477941D01*
X154891976Y-91652012D01*
X154824056Y-91815984D01*
X154725453Y-91963554D01*
X154599954Y-92089053D01*
X154452384Y-92187656D01*
X154288412Y-92255576D01*
X154139112Y-92285273D01*
X154114342Y-92290200D01*
X153936858Y-92290200D01*
X153912088Y-92285273D01*
X153762788Y-92255576D01*
X153598816Y-92187656D01*
X153451246Y-92089053D01*
X153325747Y-91963554D01*
X153227144Y-91815984D01*
X153159224Y-91652012D01*
X153124600Y-91477941D01*
X153124600Y-91300459D01*
X153125033Y-91298284D01*
X153134571Y-91250329D01*
X153159224Y-91126388D01*
X153227144Y-90962416D01*
X153325747Y-90814846D01*
X153451246Y-90689347D01*
X153598816Y-90590744D01*
X153762788Y-90522824D01*
X153912088Y-90493127D01*
X153936858Y-90488200D01*
X154114342Y-90488200D01*
X154139112Y-90493127D01*
G37*
G36*
X157466600Y-92290200D02*
G01*
X155664600Y-92290200D01*
X155664600Y-90488200D01*
X157466600Y-90488200D01*
X157466600Y-92290200D01*
G37*
G36*
X132806438Y-91581716D02*
G01*
X132827057Y-91587971D01*
X132846053Y-91598124D01*
X132862708Y-91611792D01*
X132876376Y-91628447D01*
X132886529Y-91647443D01*
X132892784Y-91668062D01*
X132895500Y-91695640D01*
X132895500Y-92154360D01*
X132892784Y-92181938D01*
X132886529Y-92202557D01*
X132876376Y-92221553D01*
X132862708Y-92238208D01*
X132846053Y-92251876D01*
X132827057Y-92262029D01*
X132806438Y-92268284D01*
X132778860Y-92271000D01*
X132270140Y-92271000D01*
X132242562Y-92268284D01*
X132221943Y-92262029D01*
X132202947Y-92251876D01*
X132186292Y-92238208D01*
X132172624Y-92221553D01*
X132162471Y-92202557D01*
X132156216Y-92181938D01*
X132153500Y-92154360D01*
X132153500Y-91695640D01*
X132156216Y-91668062D01*
X132162471Y-91647443D01*
X132172624Y-91628447D01*
X132186292Y-91611792D01*
X132202947Y-91598124D01*
X132221943Y-91587971D01*
X132242562Y-91581716D01*
X132270140Y-91579000D01*
X132778860Y-91579000D01*
X132806438Y-91581716D01*
G37*
G36*
X135171000Y-91991000D02*
G01*
X134069000Y-91991000D01*
X134069000Y-90889000D01*
X135171000Y-90889000D01*
X135171000Y-91991000D01*
G37*
G36*
X137711000Y-91112218D02*
G01*
X137713402Y-91136604D01*
X137720515Y-91160053D01*
X137732066Y-91181664D01*
X137747611Y-91200606D01*
X137766553Y-91216151D01*
X137788164Y-91227702D01*
X137811613Y-91234815D01*
X137835999Y-91237217D01*
X137860385Y-91234815D01*
X137883834Y-91227702D01*
X137905445Y-91216151D01*
X137924387Y-91200606D01*
X137939932Y-91181664D01*
X138002009Y-91088760D01*
X138002010Y-91088758D01*
X138078758Y-91012010D01*
X138169004Y-90951710D01*
X138169005Y-90951709D01*
X138269279Y-90910174D01*
X138375730Y-90889000D01*
X138484270Y-90889000D01*
X138590721Y-90910174D01*
X138690995Y-90951709D01*
X138690996Y-90951710D01*
X138781242Y-91012010D01*
X138857990Y-91088758D01*
X138857991Y-91088760D01*
X138918291Y-91179005D01*
X138949516Y-91254389D01*
X138961067Y-91276000D01*
X138976612Y-91294941D01*
X138995554Y-91310487D01*
X139017165Y-91322038D01*
X139040614Y-91329151D01*
X139065000Y-91331553D01*
X139089386Y-91329151D01*
X139112835Y-91322038D01*
X139134446Y-91310487D01*
X139153387Y-91294942D01*
X139168933Y-91276000D01*
X139180484Y-91254389D01*
X139211709Y-91179005D01*
X139272009Y-91088760D01*
X139272010Y-91088758D01*
X139348758Y-91012010D01*
X139439004Y-90951710D01*
X139439005Y-90951709D01*
X139539279Y-90910174D01*
X139645730Y-90889000D01*
X139754270Y-90889000D01*
X139860721Y-90910174D01*
X139960995Y-90951709D01*
X139960996Y-90951710D01*
X140051242Y-91012010D01*
X140127990Y-91088758D01*
X140127991Y-91088760D01*
X140188291Y-91179005D01*
X140219516Y-91254389D01*
X140231067Y-91276000D01*
X140246612Y-91294941D01*
X140265554Y-91310487D01*
X140287165Y-91322038D01*
X140310614Y-91329151D01*
X140335000Y-91331553D01*
X140359386Y-91329151D01*
X140382835Y-91322038D01*
X140404446Y-91310487D01*
X140423387Y-91294942D01*
X140438933Y-91276000D01*
X140450484Y-91254389D01*
X140481709Y-91179005D01*
X140542009Y-91088760D01*
X140542010Y-91088758D01*
X140618758Y-91012010D01*
X140709004Y-90951710D01*
X140709005Y-90951709D01*
X140809279Y-90910174D01*
X140915730Y-90889000D01*
X141024270Y-90889000D01*
X141130721Y-90910174D01*
X141230995Y-90951709D01*
X141230996Y-90951710D01*
X141321242Y-91012010D01*
X141397990Y-91088758D01*
X141397991Y-91088760D01*
X141458291Y-91179005D01*
X141489516Y-91254389D01*
X141501067Y-91276000D01*
X141516612Y-91294941D01*
X141535554Y-91310487D01*
X141557165Y-91322038D01*
X141580614Y-91329151D01*
X141605000Y-91331553D01*
X141629386Y-91329151D01*
X141652835Y-91322038D01*
X141674446Y-91310487D01*
X141693387Y-91294942D01*
X141708933Y-91276000D01*
X141720484Y-91254389D01*
X141751709Y-91179005D01*
X141812009Y-91088760D01*
X141812010Y-91088758D01*
X141888758Y-91012010D01*
X141979004Y-90951710D01*
X141979005Y-90951709D01*
X142079279Y-90910174D01*
X142185730Y-90889000D01*
X142294270Y-90889000D01*
X142400721Y-90910174D01*
X142500995Y-90951709D01*
X142500996Y-90951710D01*
X142591242Y-91012010D01*
X142667990Y-91088758D01*
X142667991Y-91088760D01*
X142728291Y-91179005D01*
X142769826Y-91279279D01*
X142791000Y-91385730D01*
X142791000Y-91494270D01*
X142769826Y-91600721D01*
X142728291Y-91700995D01*
X142728290Y-91700996D01*
X142667990Y-91791242D01*
X142591242Y-91867990D01*
X142545812Y-91898345D01*
X142500995Y-91928291D01*
X142400721Y-91969826D01*
X142294270Y-91991000D01*
X142185730Y-91991000D01*
X142079279Y-91969826D01*
X141979005Y-91928291D01*
X141934188Y-91898345D01*
X141888758Y-91867990D01*
X141812010Y-91791242D01*
X141751710Y-91700996D01*
X141751709Y-91700995D01*
X141720484Y-91625611D01*
X141708933Y-91604000D01*
X141693388Y-91585059D01*
X141674446Y-91569513D01*
X141652835Y-91557962D01*
X141629386Y-91550849D01*
X141605000Y-91548447D01*
X141580614Y-91550849D01*
X141557165Y-91557962D01*
X141535554Y-91569513D01*
X141516613Y-91585058D01*
X141501067Y-91604000D01*
X141489516Y-91625611D01*
X141458291Y-91700995D01*
X141458290Y-91700996D01*
X141397990Y-91791242D01*
X141321242Y-91867990D01*
X141275812Y-91898345D01*
X141230995Y-91928291D01*
X141130721Y-91969826D01*
X141024270Y-91991000D01*
X140915730Y-91991000D01*
X140809279Y-91969826D01*
X140709005Y-91928291D01*
X140664188Y-91898345D01*
X140618758Y-91867990D01*
X140542010Y-91791242D01*
X140481710Y-91700996D01*
X140481709Y-91700995D01*
X140450484Y-91625611D01*
X140438933Y-91604000D01*
X140423388Y-91585059D01*
X140404446Y-91569513D01*
X140382835Y-91557962D01*
X140359386Y-91550849D01*
X140335000Y-91548447D01*
X140310614Y-91550849D01*
X140287165Y-91557962D01*
X140265554Y-91569513D01*
X140246613Y-91585058D01*
X140231067Y-91604000D01*
X140219516Y-91625611D01*
X140188291Y-91700995D01*
X140188290Y-91700996D01*
X140127990Y-91791242D01*
X140051242Y-91867990D01*
X140005812Y-91898345D01*
X139960995Y-91928291D01*
X139860721Y-91969826D01*
X139754270Y-91991000D01*
X139645730Y-91991000D01*
X139539279Y-91969826D01*
X139439005Y-91928291D01*
X139394188Y-91898345D01*
X139348758Y-91867990D01*
X139272010Y-91791242D01*
X139211710Y-91700996D01*
X139211709Y-91700995D01*
X139180484Y-91625611D01*
X139168933Y-91604000D01*
X139153388Y-91585059D01*
X139134446Y-91569513D01*
X139112835Y-91557962D01*
X139089386Y-91550849D01*
X139065000Y-91548447D01*
X139040614Y-91550849D01*
X139017165Y-91557962D01*
X138995554Y-91569513D01*
X138976613Y-91585058D01*
X138961067Y-91604000D01*
X138949516Y-91625611D01*
X138918291Y-91700995D01*
X138918290Y-91700996D01*
X138857990Y-91791242D01*
X138781242Y-91867990D01*
X138735812Y-91898345D01*
X138690995Y-91928291D01*
X138590721Y-91969826D01*
X138484270Y-91991000D01*
X138375730Y-91991000D01*
X138269279Y-91969826D01*
X138169005Y-91928291D01*
X138124188Y-91898345D01*
X138078758Y-91867990D01*
X138002010Y-91791242D01*
X137981012Y-91759816D01*
X137939932Y-91698336D01*
X137924386Y-91679394D01*
X137905444Y-91663849D01*
X137883833Y-91652298D01*
X137860385Y-91645185D01*
X137835998Y-91642783D01*
X137811612Y-91645185D01*
X137788163Y-91652298D01*
X137766553Y-91663849D01*
X137747611Y-91679395D01*
X137732066Y-91698337D01*
X137720515Y-91719948D01*
X137713402Y-91743396D01*
X137711000Y-91767782D01*
X137711000Y-91991000D01*
X136609000Y-91991000D01*
X136609000Y-90889000D01*
X137711000Y-90889000D01*
X137711000Y-91112218D01*
G37*
G36*
X163970562Y-89828181D02*
G01*
X164005481Y-89838774D01*
X164037663Y-89855976D01*
X164065873Y-89879127D01*
X164089024Y-89907337D01*
X164106226Y-89939519D01*
X164116819Y-89974438D01*
X164121000Y-90016895D01*
X164121000Y-91158105D01*
X164116819Y-91200562D01*
X164106226Y-91235481D01*
X164089024Y-91267663D01*
X164065873Y-91295873D01*
X164037663Y-91319024D01*
X164005481Y-91336226D01*
X163970562Y-91346819D01*
X163928105Y-91351000D01*
X162461895Y-91351000D01*
X162419438Y-91346819D01*
X162384519Y-91336226D01*
X162352337Y-91319024D01*
X162324127Y-91295873D01*
X162300976Y-91267663D01*
X162283774Y-91235481D01*
X162273181Y-91200562D01*
X162269000Y-91158105D01*
X162269000Y-90016895D01*
X162273181Y-89974438D01*
X162283774Y-89939519D01*
X162300976Y-89907337D01*
X162324127Y-89879127D01*
X162352337Y-89855976D01*
X162384519Y-89838774D01*
X162419438Y-89828181D01*
X162461895Y-89824000D01*
X163928105Y-89824000D01*
X163970562Y-89828181D01*
G37*
G36*
X126505562Y-89828181D02*
G01*
X126540481Y-89838774D01*
X126572663Y-89855976D01*
X126600873Y-89879127D01*
X126624024Y-89907337D01*
X126641226Y-89939519D01*
X126651819Y-89974438D01*
X126656000Y-90016895D01*
X126656000Y-91158105D01*
X126651819Y-91200562D01*
X126641226Y-91235481D01*
X126624024Y-91267663D01*
X126600873Y-91295873D01*
X126572663Y-91319024D01*
X126540481Y-91336226D01*
X126505562Y-91346819D01*
X126463105Y-91351000D01*
X124996895Y-91351000D01*
X124954438Y-91346819D01*
X124919519Y-91336226D01*
X124887337Y-91319024D01*
X124859127Y-91295873D01*
X124835976Y-91267663D01*
X124818774Y-91235481D01*
X124808181Y-91200562D01*
X124804000Y-91158105D01*
X124804000Y-90016895D01*
X124808181Y-89974438D01*
X124818774Y-89939519D01*
X124835976Y-89907337D01*
X124859127Y-89879127D01*
X124887337Y-89855976D01*
X124919519Y-89838774D01*
X124954438Y-89828181D01*
X124996895Y-89824000D01*
X126463105Y-89824000D01*
X126505562Y-89828181D01*
G37*
G36*
X132806438Y-90611716D02*
G01*
X132827057Y-90617971D01*
X132846053Y-90628124D01*
X132862708Y-90641792D01*
X132876376Y-90658447D01*
X132886529Y-90677443D01*
X132892784Y-90698062D01*
X132895500Y-90725640D01*
X132895500Y-91184360D01*
X132892784Y-91211938D01*
X132886529Y-91232557D01*
X132876376Y-91251553D01*
X132862708Y-91268208D01*
X132846053Y-91281876D01*
X132827057Y-91292029D01*
X132806438Y-91298284D01*
X132778860Y-91301000D01*
X132270140Y-91301000D01*
X132242562Y-91298284D01*
X132221943Y-91292029D01*
X132202947Y-91281876D01*
X132186292Y-91268208D01*
X132172624Y-91251553D01*
X132162471Y-91232557D01*
X132156216Y-91211938D01*
X132153500Y-91184360D01*
X132153500Y-90725640D01*
X132156216Y-90698062D01*
X132162471Y-90677443D01*
X132172624Y-90658447D01*
X132186292Y-90641792D01*
X132202947Y-90628124D01*
X132221943Y-90617971D01*
X132242562Y-90611716D01*
X132270140Y-90609000D01*
X132778860Y-90609000D01*
X132806438Y-90611716D01*
G37*
G36*
X156291100Y-89070000D02*
G01*
X155189100Y-89070000D01*
X155189100Y-87968000D01*
X156291100Y-87968000D01*
X156291100Y-89070000D01*
G37*
G36*
X130231000Y-88613000D02*
G01*
X127579000Y-88613000D01*
X127579000Y-86511000D01*
X130231000Y-86511000D01*
X130231000Y-88613000D01*
G37*
G36*
X160711000Y-88536800D02*
G01*
X158059000Y-88536800D01*
X158059000Y-86434800D01*
X160711000Y-86434800D01*
X160711000Y-88536800D01*
G37*
G36*
X163970562Y-86453181D02*
G01*
X164005481Y-86463774D01*
X164037663Y-86480976D01*
X164065873Y-86504127D01*
X164089024Y-86532337D01*
X164106226Y-86564519D01*
X164116819Y-86599438D01*
X164121000Y-86641895D01*
X164121000Y-87783105D01*
X164116819Y-87825562D01*
X164106226Y-87860481D01*
X164089024Y-87892663D01*
X164065873Y-87920873D01*
X164037663Y-87944024D01*
X164005481Y-87961226D01*
X163970562Y-87971819D01*
X163928105Y-87976000D01*
X162461895Y-87976000D01*
X162419438Y-87971819D01*
X162384519Y-87961226D01*
X162352337Y-87944024D01*
X162324127Y-87920873D01*
X162300976Y-87892663D01*
X162283774Y-87860481D01*
X162273181Y-87825562D01*
X162269000Y-87783105D01*
X162269000Y-86641895D01*
X162273181Y-86599438D01*
X162283774Y-86564519D01*
X162300976Y-86532337D01*
X162324127Y-86504127D01*
X162352337Y-86480976D01*
X162384519Y-86463774D01*
X162419438Y-86453181D01*
X162461895Y-86449000D01*
X163928105Y-86449000D01*
X163970562Y-86453181D01*
G37*
G36*
X126505562Y-86453181D02*
G01*
X126540481Y-86463774D01*
X126572663Y-86480976D01*
X126600873Y-86504127D01*
X126624024Y-86532337D01*
X126641226Y-86564519D01*
X126651819Y-86599438D01*
X126656000Y-86641895D01*
X126656000Y-87783105D01*
X126651819Y-87825562D01*
X126641226Y-87860481D01*
X126624024Y-87892663D01*
X126600873Y-87920873D01*
X126572663Y-87944024D01*
X126540481Y-87961226D01*
X126505562Y-87971819D01*
X126463105Y-87976000D01*
X124996895Y-87976000D01*
X124954438Y-87971819D01*
X124919519Y-87961226D01*
X124887337Y-87944024D01*
X124859127Y-87920873D01*
X124835976Y-87892663D01*
X124818774Y-87860481D01*
X124808181Y-87825562D01*
X124804000Y-87783105D01*
X124804000Y-86641895D01*
X124808181Y-86599438D01*
X124818774Y-86564519D01*
X124835976Y-86532337D01*
X124859127Y-86504127D01*
X124887337Y-86480976D01*
X124919519Y-86463774D01*
X124954438Y-86453181D01*
X124996895Y-86449000D01*
X126463105Y-86449000D01*
X126505562Y-86453181D01*
G37*
G36*
X132427800Y-87876200D02*
G01*
X131325800Y-87876200D01*
X131325800Y-86774200D01*
X132427800Y-86774200D01*
X132427800Y-87876200D01*
G37*
G36*
X150901938Y-87134716D02*
G01*
X150922557Y-87140971D01*
X150941553Y-87151124D01*
X150958208Y-87164792D01*
X150971876Y-87181447D01*
X150982029Y-87200443D01*
X150988284Y-87221062D01*
X150991000Y-87248640D01*
X150991000Y-87757360D01*
X150988284Y-87784938D01*
X150982029Y-87805557D01*
X150971876Y-87824553D01*
X150958208Y-87841208D01*
X150941553Y-87854876D01*
X150922557Y-87865029D01*
X150901938Y-87871284D01*
X150874360Y-87874000D01*
X150415640Y-87874000D01*
X150388062Y-87871284D01*
X150367443Y-87865029D01*
X150348447Y-87854876D01*
X150331792Y-87841208D01*
X150318124Y-87824553D01*
X150307971Y-87805557D01*
X150301716Y-87784938D01*
X150299000Y-87757360D01*
X150299000Y-87248640D01*
X150301716Y-87221062D01*
X150307971Y-87200443D01*
X150318124Y-87181447D01*
X150331792Y-87164792D01*
X150348447Y-87151124D01*
X150367443Y-87140971D01*
X150388062Y-87134716D01*
X150415640Y-87132000D01*
X150874360Y-87132000D01*
X150901938Y-87134716D01*
G37*
G36*
X151871938Y-87134716D02*
G01*
X151892557Y-87140971D01*
X151911553Y-87151124D01*
X151928208Y-87164792D01*
X151941876Y-87181447D01*
X151952029Y-87200443D01*
X151958284Y-87221062D01*
X151961000Y-87248640D01*
X151961000Y-87757360D01*
X151958284Y-87784938D01*
X151952029Y-87805557D01*
X151941876Y-87824553D01*
X151928208Y-87841208D01*
X151911553Y-87854876D01*
X151892557Y-87865029D01*
X151871938Y-87871284D01*
X151844360Y-87874000D01*
X151385640Y-87874000D01*
X151358062Y-87871284D01*
X151337443Y-87865029D01*
X151318447Y-87854876D01*
X151301792Y-87841208D01*
X151288124Y-87824553D01*
X151277971Y-87805557D01*
X151271716Y-87784938D01*
X151269000Y-87757360D01*
X151269000Y-87248640D01*
X151271716Y-87221062D01*
X151277971Y-87200443D01*
X151288124Y-87181447D01*
X151301792Y-87164792D01*
X151318447Y-87151124D01*
X151337443Y-87140971D01*
X151358062Y-87134716D01*
X151385640Y-87132000D01*
X151844360Y-87132000D01*
X151871938Y-87134716D01*
G37*
G36*
X142865074Y-85867465D02*
G01*
X142902767Y-85878899D01*
X142937503Y-85897466D01*
X142967948Y-85922452D01*
X142992934Y-85952897D01*
X143011501Y-85987633D01*
X143022935Y-86025326D01*
X143027400Y-86070661D01*
X143027400Y-87157339D01*
X143022935Y-87202674D01*
X143011501Y-87240367D01*
X142992934Y-87275103D01*
X142967948Y-87305548D01*
X142937503Y-87330534D01*
X142902767Y-87349101D01*
X142865074Y-87360535D01*
X142819739Y-87365000D01*
X141983061Y-87365000D01*
X141937726Y-87360535D01*
X141900033Y-87349101D01*
X141865297Y-87330534D01*
X141834852Y-87305548D01*
X141809866Y-87275103D01*
X141791299Y-87240367D01*
X141779865Y-87202674D01*
X141775400Y-87157339D01*
X141775400Y-86070661D01*
X141779865Y-86025326D01*
X141791299Y-85987633D01*
X141809866Y-85952897D01*
X141834852Y-85922452D01*
X141865297Y-85897466D01*
X141900033Y-85878899D01*
X141937726Y-85867465D01*
X141983061Y-85863000D01*
X142819739Y-85863000D01*
X142865074Y-85867465D01*
G37*
G36*
X140815074Y-85867465D02*
G01*
X140852767Y-85878899D01*
X140887503Y-85897466D01*
X140917948Y-85922452D01*
X140942934Y-85952897D01*
X140961501Y-85987633D01*
X140972935Y-86025326D01*
X140977400Y-86070661D01*
X140977400Y-87157339D01*
X140972935Y-87202674D01*
X140961501Y-87240367D01*
X140942934Y-87275103D01*
X140917948Y-87305548D01*
X140887503Y-87330534D01*
X140852767Y-87349101D01*
X140815074Y-87360535D01*
X140769739Y-87365000D01*
X139933061Y-87365000D01*
X139887726Y-87360535D01*
X139850033Y-87349101D01*
X139815297Y-87330534D01*
X139784852Y-87305548D01*
X139759866Y-87275103D01*
X139741299Y-87240367D01*
X139729865Y-87202674D01*
X139725400Y-87157339D01*
X139725400Y-86070661D01*
X139729865Y-86025326D01*
X139741299Y-85987633D01*
X139759866Y-85952897D01*
X139784852Y-85922452D01*
X139815297Y-85897466D01*
X139850033Y-85878899D01*
X139887726Y-85867465D01*
X139933061Y-85863000D01*
X140769739Y-85863000D01*
X140815074Y-85867465D01*
G37*
G36*
X145993000Y-87251400D02*
G01*
X145091000Y-87251400D01*
X145091000Y-86249400D01*
X145993000Y-86249400D01*
X145993000Y-87251400D01*
G37*
G36*
X135825800Y-87108600D02*
G01*
X134023800Y-87108600D01*
X134023800Y-85306600D01*
X135825800Y-85306600D01*
X135825800Y-87108600D01*
G37*
G36*
X153568938Y-86296516D02*
G01*
X153589557Y-86302771D01*
X153608553Y-86312924D01*
X153625208Y-86326592D01*
X153638876Y-86343247D01*
X153649029Y-86362243D01*
X153655284Y-86382862D01*
X153658000Y-86410440D01*
X153658000Y-86919160D01*
X153655284Y-86946738D01*
X153649029Y-86967357D01*
X153638876Y-86986353D01*
X153625208Y-87003008D01*
X153608553Y-87016676D01*
X153589557Y-87026829D01*
X153568938Y-87033084D01*
X153541360Y-87035800D01*
X153082640Y-87035800D01*
X153055062Y-87033084D01*
X153034443Y-87026829D01*
X153015447Y-87016676D01*
X152998792Y-87003008D01*
X152985124Y-86986353D01*
X152974971Y-86967357D01*
X152968716Y-86946738D01*
X152966000Y-86919160D01*
X152966000Y-86410440D01*
X152968716Y-86382862D01*
X152974971Y-86362243D01*
X152985124Y-86343247D01*
X152998792Y-86326592D01*
X153015447Y-86312924D01*
X153034443Y-86302771D01*
X153055062Y-86296516D01*
X153082640Y-86293800D01*
X153541360Y-86293800D01*
X153568938Y-86296516D01*
G37*
G36*
X154538938Y-86296516D02*
G01*
X154559557Y-86302771D01*
X154578553Y-86312924D01*
X154595208Y-86326592D01*
X154608876Y-86343247D01*
X154619029Y-86362243D01*
X154625284Y-86382862D01*
X154628000Y-86410440D01*
X154628000Y-86919160D01*
X154625284Y-86946738D01*
X154619029Y-86967357D01*
X154608876Y-86986353D01*
X154595208Y-87003008D01*
X154578553Y-87016676D01*
X154559557Y-87026829D01*
X154538938Y-87033084D01*
X154511360Y-87035800D01*
X154052640Y-87035800D01*
X154025062Y-87033084D01*
X154004443Y-87026829D01*
X153985447Y-87016676D01*
X153968792Y-87003008D01*
X153955124Y-86986353D01*
X153944971Y-86967357D01*
X153938716Y-86946738D01*
X153936000Y-86919160D01*
X153936000Y-86410440D01*
X153938716Y-86382862D01*
X153944971Y-86362243D01*
X153955124Y-86343247D01*
X153968792Y-86326592D01*
X153985447Y-86312924D01*
X154004443Y-86302771D01*
X154025062Y-86296516D01*
X154052640Y-86293800D01*
X154511360Y-86293800D01*
X154538938Y-86296516D01*
G37*
G36*
X150048000Y-86636000D02*
G01*
X149296000Y-86636000D01*
X149296000Y-84974000D01*
X150048000Y-84974000D01*
X150048000Y-86636000D01*
G37*
G36*
X151948000Y-86636000D02*
G01*
X151196000Y-86636000D01*
X151196000Y-84974000D01*
X151948000Y-84974000D01*
X151948000Y-86636000D01*
G37*
G36*
X138777000Y-86329000D02*
G01*
X137575000Y-86329000D01*
X137575000Y-85127000D01*
X138777000Y-85127000D01*
X138777000Y-86329000D01*
G37*
G36*
X154538938Y-85153516D02*
G01*
X154559557Y-85159771D01*
X154578553Y-85169924D01*
X154595208Y-85183592D01*
X154608876Y-85200247D01*
X154619029Y-85219243D01*
X154625284Y-85239862D01*
X154628000Y-85267440D01*
X154628000Y-85776160D01*
X154625284Y-85803738D01*
X154619029Y-85824357D01*
X154608876Y-85843353D01*
X154595208Y-85860008D01*
X154578553Y-85873676D01*
X154559557Y-85883829D01*
X154538938Y-85890084D01*
X154511360Y-85892800D01*
X154052640Y-85892800D01*
X154025062Y-85890084D01*
X154004443Y-85883829D01*
X153985447Y-85873676D01*
X153968792Y-85860008D01*
X153955124Y-85843353D01*
X153944971Y-85824357D01*
X153938716Y-85803738D01*
X153936000Y-85776160D01*
X153936000Y-85267440D01*
X153938716Y-85239862D01*
X153944971Y-85219243D01*
X153955124Y-85200247D01*
X153968792Y-85183592D01*
X153985447Y-85169924D01*
X154004443Y-85159771D01*
X154025062Y-85153516D01*
X154052640Y-85150800D01*
X154511360Y-85150800D01*
X154538938Y-85153516D01*
G37*
G36*
X153568938Y-85153516D02*
G01*
X153589557Y-85159771D01*
X153608553Y-85169924D01*
X153625208Y-85183592D01*
X153638876Y-85200247D01*
X153649029Y-85219243D01*
X153655284Y-85239862D01*
X153658000Y-85267440D01*
X153658000Y-85776160D01*
X153655284Y-85803738D01*
X153649029Y-85824357D01*
X153638876Y-85843353D01*
X153625208Y-85860008D01*
X153608553Y-85873676D01*
X153589557Y-85883829D01*
X153568938Y-85890084D01*
X153541360Y-85892800D01*
X153082640Y-85892800D01*
X153055062Y-85890084D01*
X153034443Y-85883829D01*
X153015447Y-85873676D01*
X152998792Y-85860008D01*
X152985124Y-85843353D01*
X152974971Y-85824357D01*
X152968716Y-85803738D01*
X152966000Y-85776160D01*
X152966000Y-85267440D01*
X152968716Y-85239862D01*
X152974971Y-85219243D01*
X152985124Y-85200247D01*
X152998792Y-85183592D01*
X153015447Y-85169924D01*
X153034443Y-85159771D01*
X153055062Y-85153516D01*
X153082640Y-85150800D01*
X153541360Y-85150800D01*
X153568938Y-85153516D01*
G37*
G36*
X141802000Y-85321000D02*
G01*
X140900000Y-85321000D01*
X140900000Y-84319000D01*
X141802000Y-84319000D01*
X141802000Y-85321000D01*
G37*
G36*
X146943000Y-85251400D02*
G01*
X146041000Y-85251400D01*
X146041000Y-84249400D01*
X146943000Y-84249400D01*
X146943000Y-85251400D01*
G37*
G36*
X145043000Y-85251400D02*
G01*
X144141000Y-85251400D01*
X144141000Y-84249400D01*
X145043000Y-84249400D01*
X145043000Y-85251400D01*
G37*
G36*
X130231000Y-85193000D02*
G01*
X127579000Y-85193000D01*
X127579000Y-83091000D01*
X130231000Y-83091000D01*
X130231000Y-85193000D01*
G37*
G36*
X160711000Y-85116800D02*
G01*
X158059000Y-85116800D01*
X158059000Y-83014800D01*
X160711000Y-83014800D01*
X160711000Y-85116800D01*
G37*
G36*
X126505562Y-83478181D02*
G01*
X126540481Y-83488774D01*
X126572663Y-83505976D01*
X126600873Y-83529127D01*
X126624024Y-83557337D01*
X126641226Y-83589519D01*
X126651819Y-83624438D01*
X126656000Y-83666895D01*
X126656000Y-84808105D01*
X126651819Y-84850562D01*
X126641226Y-84885481D01*
X126624024Y-84917663D01*
X126600873Y-84945873D01*
X126572663Y-84969024D01*
X126540481Y-84986226D01*
X126505562Y-84996819D01*
X126463105Y-85001000D01*
X124996895Y-85001000D01*
X124954438Y-84996819D01*
X124919519Y-84986226D01*
X124887337Y-84969024D01*
X124859127Y-84945873D01*
X124835976Y-84917663D01*
X124818774Y-84885481D01*
X124808181Y-84850562D01*
X124804000Y-84808105D01*
X124804000Y-83666895D01*
X124808181Y-83624438D01*
X124818774Y-83589519D01*
X124835976Y-83557337D01*
X124859127Y-83529127D01*
X124887337Y-83505976D01*
X124919519Y-83488774D01*
X124954438Y-83478181D01*
X124996895Y-83474000D01*
X126463105Y-83474000D01*
X126505562Y-83478181D01*
G37*
G36*
X163970562Y-83478181D02*
G01*
X164005481Y-83488774D01*
X164037663Y-83505976D01*
X164065873Y-83529127D01*
X164089024Y-83557337D01*
X164106226Y-83589519D01*
X164116819Y-83624438D01*
X164121000Y-83666895D01*
X164121000Y-84808105D01*
X164116819Y-84850562D01*
X164106226Y-84885481D01*
X164089024Y-84917663D01*
X164065873Y-84945873D01*
X164037663Y-84969024D01*
X164005481Y-84986226D01*
X163970562Y-84996819D01*
X163928105Y-85001000D01*
X162461895Y-85001000D01*
X162419438Y-84996819D01*
X162384519Y-84986226D01*
X162352337Y-84969024D01*
X162324127Y-84945873D01*
X162300976Y-84917663D01*
X162283774Y-84885481D01*
X162273181Y-84850562D01*
X162269000Y-84808105D01*
X162269000Y-83666895D01*
X162273181Y-83624438D01*
X162283774Y-83589519D01*
X162300976Y-83557337D01*
X162324127Y-83529127D01*
X162352337Y-83505976D01*
X162384519Y-83488774D01*
X162419438Y-83478181D01*
X162461895Y-83474000D01*
X163928105Y-83474000D01*
X163970562Y-83478181D01*
G37*
G36*
X153568938Y-84010516D02*
G01*
X153589557Y-84016771D01*
X153608553Y-84026924D01*
X153625208Y-84040592D01*
X153638876Y-84057247D01*
X153649029Y-84076243D01*
X153655284Y-84096862D01*
X153658000Y-84124440D01*
X153658000Y-84633160D01*
X153655284Y-84660738D01*
X153649029Y-84681357D01*
X153638876Y-84700353D01*
X153625208Y-84717008D01*
X153608553Y-84730676D01*
X153589557Y-84740829D01*
X153568938Y-84747084D01*
X153541360Y-84749800D01*
X153082640Y-84749800D01*
X153055062Y-84747084D01*
X153034443Y-84740829D01*
X153015447Y-84730676D01*
X152998792Y-84717008D01*
X152985124Y-84700353D01*
X152974971Y-84681357D01*
X152968716Y-84660738D01*
X152966000Y-84633160D01*
X152966000Y-84124440D01*
X152968716Y-84096862D01*
X152974971Y-84076243D01*
X152985124Y-84057247D01*
X152998792Y-84040592D01*
X153015447Y-84026924D01*
X153034443Y-84016771D01*
X153055062Y-84010516D01*
X153082640Y-84007800D01*
X153541360Y-84007800D01*
X153568938Y-84010516D01*
G37*
G36*
X154538938Y-84010516D02*
G01*
X154559557Y-84016771D01*
X154578553Y-84026924D01*
X154595208Y-84040592D01*
X154608876Y-84057247D01*
X154619029Y-84076243D01*
X154625284Y-84096862D01*
X154628000Y-84124440D01*
X154628000Y-84633160D01*
X154625284Y-84660738D01*
X154619029Y-84681357D01*
X154608876Y-84700353D01*
X154595208Y-84717008D01*
X154578553Y-84730676D01*
X154559557Y-84740829D01*
X154538938Y-84747084D01*
X154511360Y-84749800D01*
X154052640Y-84749800D01*
X154025062Y-84747084D01*
X154004443Y-84740829D01*
X153985447Y-84730676D01*
X153968792Y-84717008D01*
X153955124Y-84700353D01*
X153944971Y-84681357D01*
X153938716Y-84660738D01*
X153936000Y-84633160D01*
X153936000Y-84124440D01*
X153938716Y-84096862D01*
X153944971Y-84076243D01*
X153955124Y-84057247D01*
X153968792Y-84040592D01*
X153985447Y-84026924D01*
X154004443Y-84016771D01*
X154025062Y-84010516D01*
X154052640Y-84007800D01*
X154511360Y-84007800D01*
X154538938Y-84010516D01*
G37*
G36*
X135038312Y-82771527D02*
G01*
X135187612Y-82801224D01*
X135351584Y-82869144D01*
X135499154Y-82967747D01*
X135624653Y-83093246D01*
X135723256Y-83240816D01*
X135791176Y-83404788D01*
X135815908Y-83529127D01*
X135825800Y-83578858D01*
X135825800Y-83756342D01*
X135820873Y-83781112D01*
X135791176Y-83930412D01*
X135723256Y-84094384D01*
X135624653Y-84241954D01*
X135499154Y-84367453D01*
X135351584Y-84466056D01*
X135187612Y-84533976D01*
X135038312Y-84563673D01*
X135013542Y-84568600D01*
X134836058Y-84568600D01*
X134811288Y-84563673D01*
X134661988Y-84533976D01*
X134498016Y-84466056D01*
X134350446Y-84367453D01*
X134224947Y-84241954D01*
X134126344Y-84094384D01*
X134058424Y-83930412D01*
X134028727Y-83781112D01*
X134023800Y-83756342D01*
X134023800Y-83578858D01*
X134033692Y-83529127D01*
X134058424Y-83404788D01*
X134126344Y-83240816D01*
X134224947Y-83093246D01*
X134350446Y-82967747D01*
X134498016Y-82869144D01*
X134661988Y-82801224D01*
X134811288Y-82771527D01*
X134836058Y-82766600D01*
X135013542Y-82766600D01*
X135038312Y-82771527D01*
G37*
G36*
X151948000Y-83936000D02*
G01*
X149296000Y-83936000D01*
X149296000Y-82274000D01*
X151948000Y-82274000D01*
X151948000Y-83936000D01*
G37*
G36*
X144553938Y-83072716D02*
G01*
X144574557Y-83078971D01*
X144593553Y-83089124D01*
X144610208Y-83102792D01*
X144623876Y-83119447D01*
X144634029Y-83138443D01*
X144640284Y-83159062D01*
X144643000Y-83186640D01*
X144643000Y-83645360D01*
X144640284Y-83672938D01*
X144634029Y-83693557D01*
X144623876Y-83712553D01*
X144610208Y-83729208D01*
X144593553Y-83742876D01*
X144574557Y-83753029D01*
X144553938Y-83759284D01*
X144526360Y-83762000D01*
X144017640Y-83762000D01*
X143990062Y-83759284D01*
X143969443Y-83753029D01*
X143950447Y-83742876D01*
X143933792Y-83729208D01*
X143920124Y-83712553D01*
X143909971Y-83693557D01*
X143903716Y-83672938D01*
X143901000Y-83645360D01*
X143901000Y-83186640D01*
X143903716Y-83159062D01*
X143909971Y-83138443D01*
X143920124Y-83119447D01*
X143933792Y-83102792D01*
X143950447Y-83089124D01*
X143969443Y-83078971D01*
X143990062Y-83072716D01*
X144017640Y-83070000D01*
X144526360Y-83070000D01*
X144553938Y-83072716D01*
G37*
G36*
X148300674Y-82159065D02*
G01*
X148338367Y-82170499D01*
X148373103Y-82189066D01*
X148403548Y-82214052D01*
X148428534Y-82244497D01*
X148447101Y-82279233D01*
X148458535Y-82316926D01*
X148463000Y-82362261D01*
X148463000Y-83448939D01*
X148458535Y-83494274D01*
X148447101Y-83531967D01*
X148428534Y-83566703D01*
X148403548Y-83597148D01*
X148373103Y-83622134D01*
X148338367Y-83640701D01*
X148300674Y-83652135D01*
X148255339Y-83656600D01*
X147418661Y-83656600D01*
X147373326Y-83652135D01*
X147335633Y-83640701D01*
X147300897Y-83622134D01*
X147270452Y-83597148D01*
X147245466Y-83566703D01*
X147226899Y-83531967D01*
X147215465Y-83494274D01*
X147211000Y-83448939D01*
X147211000Y-82362261D01*
X147215465Y-82316926D01*
X147226899Y-82279233D01*
X147245466Y-82244497D01*
X147270452Y-82214052D01*
X147300897Y-82189066D01*
X147335633Y-82170499D01*
X147373326Y-82159065D01*
X147418661Y-82154600D01*
X148255339Y-82154600D01*
X148300674Y-82159065D01*
G37*
G36*
X146250674Y-82159065D02*
G01*
X146288367Y-82170499D01*
X146323103Y-82189066D01*
X146353548Y-82214052D01*
X146378534Y-82244497D01*
X146397101Y-82279233D01*
X146408535Y-82316926D01*
X146413000Y-82362261D01*
X146413000Y-83448939D01*
X146408535Y-83494274D01*
X146397101Y-83531967D01*
X146378534Y-83566703D01*
X146353548Y-83597148D01*
X146323103Y-83622134D01*
X146288367Y-83640701D01*
X146250674Y-83652135D01*
X146205339Y-83656600D01*
X145368661Y-83656600D01*
X145323326Y-83652135D01*
X145285633Y-83640701D01*
X145250897Y-83622134D01*
X145220452Y-83597148D01*
X145195466Y-83566703D01*
X145176899Y-83531967D01*
X145165465Y-83494274D01*
X145161000Y-83448939D01*
X145161000Y-82362261D01*
X145165465Y-82316926D01*
X145176899Y-82279233D01*
X145195466Y-82244497D01*
X145220452Y-82214052D01*
X145250897Y-82189066D01*
X145285633Y-82170499D01*
X145323326Y-82159065D01*
X145368661Y-82154600D01*
X146205339Y-82154600D01*
X146250674Y-82159065D01*
G37*
G36*
X154538938Y-82867516D02*
G01*
X154559557Y-82873771D01*
X154578553Y-82883924D01*
X154595208Y-82897592D01*
X154608876Y-82914247D01*
X154619029Y-82933243D01*
X154625284Y-82953862D01*
X154628000Y-82981440D01*
X154628000Y-83490160D01*
X154625284Y-83517738D01*
X154619029Y-83538357D01*
X154608876Y-83557353D01*
X154595208Y-83574008D01*
X154578553Y-83587676D01*
X154559557Y-83597829D01*
X154538938Y-83604084D01*
X154511360Y-83606800D01*
X154052640Y-83606800D01*
X154025062Y-83604084D01*
X154004443Y-83597829D01*
X153985447Y-83587676D01*
X153968792Y-83574008D01*
X153955124Y-83557353D01*
X153944971Y-83538357D01*
X153938716Y-83517738D01*
X153936000Y-83490160D01*
X153936000Y-82981440D01*
X153938716Y-82953862D01*
X153944971Y-82933243D01*
X153955124Y-82914247D01*
X153968792Y-82897592D01*
X153985447Y-82883924D01*
X154004443Y-82873771D01*
X154025062Y-82867516D01*
X154052640Y-82864800D01*
X154511360Y-82864800D01*
X154538938Y-82867516D01*
G37*
G36*
X153568938Y-82867516D02*
G01*
X153589557Y-82873771D01*
X153608553Y-82883924D01*
X153625208Y-82897592D01*
X153638876Y-82914247D01*
X153649029Y-82933243D01*
X153655284Y-82953862D01*
X153658000Y-82981440D01*
X153658000Y-83490160D01*
X153655284Y-83517738D01*
X153649029Y-83538357D01*
X153638876Y-83557353D01*
X153625208Y-83574008D01*
X153608553Y-83587676D01*
X153589557Y-83597829D01*
X153568938Y-83604084D01*
X153541360Y-83606800D01*
X153082640Y-83606800D01*
X153055062Y-83604084D01*
X153034443Y-83597829D01*
X153015447Y-83587676D01*
X152998792Y-83574008D01*
X152985124Y-83557353D01*
X152974971Y-83538357D01*
X152968716Y-83517738D01*
X152966000Y-83490160D01*
X152966000Y-82981440D01*
X152968716Y-82953862D01*
X152974971Y-82933243D01*
X152985124Y-82914247D01*
X152998792Y-82897592D01*
X153015447Y-82883924D01*
X153034443Y-82873771D01*
X153055062Y-82867516D01*
X153082640Y-82864800D01*
X153541360Y-82864800D01*
X153568938Y-82867516D01*
G37*
G36*
X138777000Y-83529000D02*
G01*
X137575000Y-83529000D01*
X137575000Y-82327000D01*
X138777000Y-82327000D01*
X138777000Y-83529000D01*
G37*
G36*
X132504000Y-83482000D02*
G01*
X131402000Y-83482000D01*
X131402000Y-82380000D01*
X132504000Y-82380000D01*
X132504000Y-83482000D01*
G37*
G36*
X142752000Y-83321000D02*
G01*
X141850000Y-83321000D01*
X141850000Y-82319000D01*
X142752000Y-82319000D01*
X142752000Y-83321000D01*
G37*
G36*
X140852000Y-83321000D02*
G01*
X139950000Y-83321000D01*
X139950000Y-82319000D01*
X140852000Y-82319000D01*
X140852000Y-83321000D01*
G37*
G36*
X125501938Y-82207116D02*
G01*
X125522557Y-82213371D01*
X125541553Y-82223524D01*
X125558208Y-82237192D01*
X125571876Y-82253847D01*
X125582029Y-82272843D01*
X125588284Y-82293462D01*
X125591000Y-82321040D01*
X125591000Y-82829760D01*
X125588284Y-82857338D01*
X125582029Y-82877957D01*
X125571876Y-82896953D01*
X125558208Y-82913608D01*
X125541553Y-82927276D01*
X125522557Y-82937429D01*
X125501938Y-82943684D01*
X125474360Y-82946400D01*
X125015640Y-82946400D01*
X124988062Y-82943684D01*
X124967443Y-82937429D01*
X124948447Y-82927276D01*
X124931792Y-82913608D01*
X124918124Y-82896953D01*
X124907971Y-82877957D01*
X124901716Y-82857338D01*
X124899000Y-82829760D01*
X124899000Y-82321040D01*
X124901716Y-82293462D01*
X124907971Y-82272843D01*
X124918124Y-82253847D01*
X124931792Y-82237192D01*
X124948447Y-82223524D01*
X124967443Y-82213371D01*
X124988062Y-82207116D01*
X125015640Y-82204400D01*
X125474360Y-82204400D01*
X125501938Y-82207116D01*
G37*
G36*
X126471938Y-82207116D02*
G01*
X126492557Y-82213371D01*
X126511553Y-82223524D01*
X126528208Y-82237192D01*
X126541876Y-82253847D01*
X126552029Y-82272843D01*
X126558284Y-82293462D01*
X126561000Y-82321040D01*
X126561000Y-82829760D01*
X126558284Y-82857338D01*
X126552029Y-82877957D01*
X126541876Y-82896953D01*
X126528208Y-82913608D01*
X126511553Y-82927276D01*
X126492557Y-82937429D01*
X126471938Y-82943684D01*
X126444360Y-82946400D01*
X125985640Y-82946400D01*
X125958062Y-82943684D01*
X125937443Y-82937429D01*
X125918447Y-82927276D01*
X125901792Y-82913608D01*
X125888124Y-82896953D01*
X125877971Y-82877957D01*
X125871716Y-82857338D01*
X125869000Y-82829760D01*
X125869000Y-82321040D01*
X125871716Y-82293462D01*
X125877971Y-82272843D01*
X125888124Y-82253847D01*
X125901792Y-82237192D01*
X125918447Y-82223524D01*
X125937443Y-82213371D01*
X125958062Y-82207116D01*
X125985640Y-82204400D01*
X126444360Y-82204400D01*
X126471938Y-82207116D01*
G37*
G36*
X163962338Y-82181716D02*
G01*
X163982957Y-82187971D01*
X164001953Y-82198124D01*
X164018608Y-82211792D01*
X164032276Y-82228447D01*
X164042429Y-82247443D01*
X164048684Y-82268062D01*
X164051400Y-82295640D01*
X164051400Y-82804360D01*
X164048684Y-82831938D01*
X164042429Y-82852557D01*
X164032276Y-82871553D01*
X164018608Y-82888208D01*
X164001953Y-82901876D01*
X163982957Y-82912029D01*
X163962338Y-82918284D01*
X163934760Y-82921000D01*
X163476040Y-82921000D01*
X163448462Y-82918284D01*
X163427843Y-82912029D01*
X163408847Y-82901876D01*
X163392192Y-82888208D01*
X163378524Y-82871553D01*
X163368371Y-82852557D01*
X163362116Y-82831938D01*
X163359400Y-82804360D01*
X163359400Y-82295640D01*
X163362116Y-82268062D01*
X163368371Y-82247443D01*
X163378524Y-82228447D01*
X163392192Y-82211792D01*
X163408847Y-82198124D01*
X163427843Y-82187971D01*
X163448462Y-82181716D01*
X163476040Y-82179000D01*
X163934760Y-82179000D01*
X163962338Y-82181716D01*
G37*
G36*
X162992338Y-82181716D02*
G01*
X163012957Y-82187971D01*
X163031953Y-82198124D01*
X163048608Y-82211792D01*
X163062276Y-82228447D01*
X163072429Y-82247443D01*
X163078684Y-82268062D01*
X163081400Y-82295640D01*
X163081400Y-82804360D01*
X163078684Y-82831938D01*
X163072429Y-82852557D01*
X163062276Y-82871553D01*
X163048608Y-82888208D01*
X163031953Y-82901876D01*
X163012957Y-82912029D01*
X162992338Y-82918284D01*
X162964760Y-82921000D01*
X162506040Y-82921000D01*
X162478462Y-82918284D01*
X162457843Y-82912029D01*
X162438847Y-82901876D01*
X162422192Y-82888208D01*
X162408524Y-82871553D01*
X162398371Y-82852557D01*
X162392116Y-82831938D01*
X162389400Y-82804360D01*
X162389400Y-82295640D01*
X162392116Y-82268062D01*
X162398371Y-82247443D01*
X162408524Y-82228447D01*
X162422192Y-82211792D01*
X162438847Y-82198124D01*
X162457843Y-82187971D01*
X162478462Y-82181716D01*
X162506040Y-82179000D01*
X162964760Y-82179000D01*
X162992338Y-82181716D01*
G37*
G36*
X144553938Y-82102716D02*
G01*
X144574557Y-82108971D01*
X144593553Y-82119124D01*
X144610208Y-82132792D01*
X144623876Y-82149447D01*
X144634029Y-82168443D01*
X144640284Y-82189062D01*
X144643000Y-82216640D01*
X144643000Y-82675360D01*
X144640284Y-82702938D01*
X144634029Y-82723557D01*
X144623876Y-82742553D01*
X144610208Y-82759208D01*
X144593553Y-82772876D01*
X144574557Y-82783029D01*
X144553938Y-82789284D01*
X144526360Y-82792000D01*
X144017640Y-82792000D01*
X143990062Y-82789284D01*
X143969443Y-82783029D01*
X143950447Y-82772876D01*
X143933792Y-82759208D01*
X143920124Y-82742553D01*
X143909971Y-82723557D01*
X143903716Y-82702938D01*
X143901000Y-82675360D01*
X143901000Y-82216640D01*
X143903716Y-82189062D01*
X143909971Y-82168443D01*
X143920124Y-82149447D01*
X143933792Y-82132792D01*
X143950447Y-82119124D01*
X143969443Y-82108971D01*
X143990062Y-82102716D01*
X144017640Y-82100000D01*
X144526360Y-82100000D01*
X144553938Y-82102716D01*
G37*
G36*
X154538938Y-81800716D02*
G01*
X154559557Y-81806971D01*
X154578553Y-81817124D01*
X154595208Y-81830792D01*
X154608876Y-81847447D01*
X154619029Y-81866443D01*
X154625284Y-81887062D01*
X154628000Y-81914640D01*
X154628000Y-82423360D01*
X154625284Y-82450938D01*
X154619029Y-82471557D01*
X154608876Y-82490553D01*
X154595208Y-82507208D01*
X154578553Y-82520876D01*
X154559557Y-82531029D01*
X154538938Y-82537284D01*
X154511360Y-82540000D01*
X154052640Y-82540000D01*
X154025062Y-82537284D01*
X154004443Y-82531029D01*
X153985447Y-82520876D01*
X153968792Y-82507208D01*
X153955124Y-82490553D01*
X153944971Y-82471557D01*
X153938716Y-82450938D01*
X153936000Y-82423360D01*
X153936000Y-81914640D01*
X153938716Y-81887062D01*
X153944971Y-81866443D01*
X153955124Y-81847447D01*
X153968792Y-81830792D01*
X153985447Y-81817124D01*
X154004443Y-81806971D01*
X154025062Y-81800716D01*
X154052640Y-81798000D01*
X154511360Y-81798000D01*
X154538938Y-81800716D01*
G37*
G36*
X153568938Y-81800716D02*
G01*
X153589557Y-81806971D01*
X153608553Y-81817124D01*
X153625208Y-81830792D01*
X153638876Y-81847447D01*
X153649029Y-81866443D01*
X153655284Y-81887062D01*
X153658000Y-81914640D01*
X153658000Y-82423360D01*
X153655284Y-82450938D01*
X153649029Y-82471557D01*
X153638876Y-82490553D01*
X153625208Y-82507208D01*
X153608553Y-82520876D01*
X153589557Y-82531029D01*
X153568938Y-82537284D01*
X153541360Y-82540000D01*
X153082640Y-82540000D01*
X153055062Y-82537284D01*
X153034443Y-82531029D01*
X153015447Y-82520876D01*
X152998792Y-82507208D01*
X152985124Y-82490553D01*
X152974971Y-82471557D01*
X152968716Y-82450938D01*
X152966000Y-82423360D01*
X152966000Y-81914640D01*
X152968716Y-81887062D01*
X152974971Y-81866443D01*
X152985124Y-81847447D01*
X152998792Y-81830792D01*
X153015447Y-81817124D01*
X153034443Y-81806971D01*
X153055062Y-81800716D01*
X153082640Y-81798000D01*
X153541360Y-81798000D01*
X153568938Y-81800716D01*
G37*
M02*
