G04 #@! TF.GenerationSoftware,KiCad,Pcbnew,5.1.5-52549c5~86~ubuntu18.04.1*
G04 #@! TF.CreationDate,2020-04-12T16:23:40+01:00*
G04 #@! TF.ProjectId,OverdrivePedal_RevC,4f766572-6472-4697-9665-506564616c5f,RevC*
G04 #@! TF.SameCoordinates,Original*
G04 #@! TF.FileFunction,Soldermask,Bot*
G04 #@! TF.FilePolarity,Negative*
%FSLAX46Y46*%
G04 Gerber Fmt 4.6, Leading zero omitted, Abs format (unit mm)*
G04 Created by KiCad (PCBNEW 5.1.5-52549c5~86~ubuntu18.04.1) date 2020-04-12 16:23:40*
%MOMM*%
%LPD*%
G04 APERTURE LIST*
%ADD10C,0.100000*%
G04 APERTURE END LIST*
D10*
G36*
X138289512Y-106723727D02*
G01*
X138438812Y-106753424D01*
X138602784Y-106821344D01*
X138750354Y-106919947D01*
X138875853Y-107045446D01*
X138974456Y-107193016D01*
X139042376Y-107356988D01*
X139077000Y-107531059D01*
X139077000Y-107708541D01*
X139042376Y-107882612D01*
X138974456Y-108046584D01*
X138875853Y-108194154D01*
X138750354Y-108319653D01*
X138602784Y-108418256D01*
X138438812Y-108486176D01*
X138289512Y-108515873D01*
X138264742Y-108520800D01*
X138087258Y-108520800D01*
X138062488Y-108515873D01*
X137913188Y-108486176D01*
X137749216Y-108418256D01*
X137601646Y-108319653D01*
X137476147Y-108194154D01*
X137377544Y-108046584D01*
X137309624Y-107882612D01*
X137275000Y-107708541D01*
X137275000Y-107531059D01*
X137309624Y-107356988D01*
X137377544Y-107193016D01*
X137476147Y-107045446D01*
X137601646Y-106919947D01*
X137749216Y-106821344D01*
X137913188Y-106753424D01*
X138062488Y-106723727D01*
X138087258Y-106718800D01*
X138264742Y-106718800D01*
X138289512Y-106723727D01*
G37*
G36*
X139077000Y-105980800D02*
G01*
X137275000Y-105980800D01*
X137275000Y-104178800D01*
X139077000Y-104178800D01*
X139077000Y-105980800D01*
G37*
G36*
X156907800Y-105879200D02*
G01*
X155105800Y-105879200D01*
X155105800Y-104077200D01*
X156907800Y-104077200D01*
X156907800Y-105879200D01*
G37*
G36*
X153580312Y-104082127D02*
G01*
X153729612Y-104111824D01*
X153893584Y-104179744D01*
X154041154Y-104278347D01*
X154166653Y-104403846D01*
X154265256Y-104551416D01*
X154333176Y-104715388D01*
X154367800Y-104889459D01*
X154367800Y-105066941D01*
X154333176Y-105241012D01*
X154265256Y-105404984D01*
X154166653Y-105552554D01*
X154041154Y-105678053D01*
X153893584Y-105776656D01*
X153729612Y-105844576D01*
X153580312Y-105874273D01*
X153555542Y-105879200D01*
X153378058Y-105879200D01*
X153353288Y-105874273D01*
X153203988Y-105844576D01*
X153040016Y-105776656D01*
X152892446Y-105678053D01*
X152766947Y-105552554D01*
X152668344Y-105404984D01*
X152600424Y-105241012D01*
X152565800Y-105066941D01*
X152565800Y-104889459D01*
X152600424Y-104715388D01*
X152668344Y-104551416D01*
X152766947Y-104403846D01*
X152892446Y-104278347D01*
X153040016Y-104179744D01*
X153203988Y-104111824D01*
X153353288Y-104082127D01*
X153378058Y-104077200D01*
X153555542Y-104077200D01*
X153580312Y-104082127D01*
G37*
G36*
X148398800Y-105879200D02*
G01*
X146596800Y-105879200D01*
X146596800Y-104077200D01*
X148398800Y-104077200D01*
X148398800Y-105879200D01*
G37*
G36*
X145071312Y-104082127D02*
G01*
X145220612Y-104111824D01*
X145384584Y-104179744D01*
X145532154Y-104278347D01*
X145657653Y-104403846D01*
X145756256Y-104551416D01*
X145824176Y-104715388D01*
X145858800Y-104889459D01*
X145858800Y-105066941D01*
X145824176Y-105241012D01*
X145756256Y-105404984D01*
X145657653Y-105552554D01*
X145532154Y-105678053D01*
X145384584Y-105776656D01*
X145220612Y-105844576D01*
X145071312Y-105874273D01*
X145046542Y-105879200D01*
X144869058Y-105879200D01*
X144844288Y-105874273D01*
X144694988Y-105844576D01*
X144531016Y-105776656D01*
X144383446Y-105678053D01*
X144257947Y-105552554D01*
X144159344Y-105404984D01*
X144091424Y-105241012D01*
X144056800Y-105066941D01*
X144056800Y-104889459D01*
X144091424Y-104715388D01*
X144159344Y-104551416D01*
X144257947Y-104403846D01*
X144383446Y-104278347D01*
X144531016Y-104179744D01*
X144694988Y-104111824D01*
X144844288Y-104082127D01*
X144869058Y-104077200D01*
X145046542Y-104077200D01*
X145071312Y-104082127D01*
G37*
G36*
X142531312Y-104082127D02*
G01*
X142680612Y-104111824D01*
X142844584Y-104179744D01*
X142992154Y-104278347D01*
X143117653Y-104403846D01*
X143216256Y-104551416D01*
X143284176Y-104715388D01*
X143318800Y-104889459D01*
X143318800Y-105066941D01*
X143284176Y-105241012D01*
X143216256Y-105404984D01*
X143117653Y-105552554D01*
X142992154Y-105678053D01*
X142844584Y-105776656D01*
X142680612Y-105844576D01*
X142531312Y-105874273D01*
X142506542Y-105879200D01*
X142329058Y-105879200D01*
X142304288Y-105874273D01*
X142154988Y-105844576D01*
X141991016Y-105776656D01*
X141843446Y-105678053D01*
X141717947Y-105552554D01*
X141619344Y-105404984D01*
X141551424Y-105241012D01*
X141516800Y-105066941D01*
X141516800Y-104889459D01*
X141551424Y-104715388D01*
X141619344Y-104551416D01*
X141717947Y-104403846D01*
X141843446Y-104278347D01*
X141991016Y-104179744D01*
X142154988Y-104111824D01*
X142304288Y-104082127D01*
X142329058Y-104077200D01*
X142506542Y-104077200D01*
X142531312Y-104082127D01*
G37*
G36*
X134999589Y-94615876D02*
G01*
X135098893Y-94635629D01*
X135239206Y-94693748D01*
X135365484Y-94778125D01*
X135472875Y-94885516D01*
X135557252Y-95011794D01*
X135615371Y-95152107D01*
X135645000Y-95301063D01*
X135645000Y-95452937D01*
X135615371Y-95601893D01*
X135557252Y-95742206D01*
X135472875Y-95868484D01*
X135365484Y-95975875D01*
X135239206Y-96060252D01*
X135098893Y-96118371D01*
X134999589Y-96138124D01*
X134949938Y-96148000D01*
X134798062Y-96148000D01*
X134748411Y-96138124D01*
X134649107Y-96118371D01*
X134508794Y-96060252D01*
X134382516Y-95975875D01*
X134275125Y-95868484D01*
X134190748Y-95742206D01*
X134132629Y-95601893D01*
X134103000Y-95452937D01*
X134103000Y-95301063D01*
X134132629Y-95152107D01*
X134190748Y-95011794D01*
X134275125Y-94885516D01*
X134382516Y-94778125D01*
X134508794Y-94693748D01*
X134649107Y-94635629D01*
X134748411Y-94615876D01*
X134798062Y-94606000D01*
X134949938Y-94606000D01*
X134999589Y-94615876D01*
G37*
G36*
X132459589Y-94615876D02*
G01*
X132558893Y-94635629D01*
X132699206Y-94693748D01*
X132825484Y-94778125D01*
X132932875Y-94885516D01*
X133017252Y-95011794D01*
X133075371Y-95152107D01*
X133105000Y-95301063D01*
X133105000Y-95452937D01*
X133075371Y-95601893D01*
X133017252Y-95742206D01*
X132932875Y-95868484D01*
X132825484Y-95975875D01*
X132699206Y-96060252D01*
X132558893Y-96118371D01*
X132459589Y-96138124D01*
X132409938Y-96148000D01*
X132258062Y-96148000D01*
X132208411Y-96138124D01*
X132109107Y-96118371D01*
X131968794Y-96060252D01*
X131842516Y-95975875D01*
X131735125Y-95868484D01*
X131650748Y-95742206D01*
X131592629Y-95601893D01*
X131563000Y-95452937D01*
X131563000Y-95301063D01*
X131592629Y-95152107D01*
X131650748Y-95011794D01*
X131735125Y-94885516D01*
X131842516Y-94778125D01*
X131968794Y-94693748D01*
X132109107Y-94635629D01*
X132208411Y-94615876D01*
X132258062Y-94606000D01*
X132409938Y-94606000D01*
X132459589Y-94615876D01*
G37*
G36*
X129919589Y-94615876D02*
G01*
X130018893Y-94635629D01*
X130159206Y-94693748D01*
X130285484Y-94778125D01*
X130392875Y-94885516D01*
X130477252Y-95011794D01*
X130535371Y-95152107D01*
X130565000Y-95301063D01*
X130565000Y-95452937D01*
X130535371Y-95601893D01*
X130477252Y-95742206D01*
X130392875Y-95868484D01*
X130285484Y-95975875D01*
X130159206Y-96060252D01*
X130018893Y-96118371D01*
X129919589Y-96138124D01*
X129869938Y-96148000D01*
X129718062Y-96148000D01*
X129668411Y-96138124D01*
X129569107Y-96118371D01*
X129428794Y-96060252D01*
X129302516Y-95975875D01*
X129195125Y-95868484D01*
X129110748Y-95742206D01*
X129052629Y-95601893D01*
X129023000Y-95452937D01*
X129023000Y-95301063D01*
X129052629Y-95152107D01*
X129110748Y-95011794D01*
X129195125Y-94885516D01*
X129302516Y-94778125D01*
X129428794Y-94693748D01*
X129569107Y-94635629D01*
X129668411Y-94615876D01*
X129718062Y-94606000D01*
X129869938Y-94606000D01*
X129919589Y-94615876D01*
G37*
G36*
X157466600Y-92290200D02*
G01*
X155664600Y-92290200D01*
X155664600Y-90488200D01*
X157466600Y-90488200D01*
X157466600Y-92290200D01*
G37*
G36*
X154139112Y-90493127D02*
G01*
X154288412Y-90522824D01*
X154452384Y-90590744D01*
X154599954Y-90689347D01*
X154725453Y-90814846D01*
X154824056Y-90962416D01*
X154891976Y-91126388D01*
X154917436Y-91254389D01*
X154925503Y-91294941D01*
X154926600Y-91300459D01*
X154926600Y-91477941D01*
X154891976Y-91652012D01*
X154824056Y-91815984D01*
X154725453Y-91963554D01*
X154599954Y-92089053D01*
X154452384Y-92187656D01*
X154288412Y-92255576D01*
X154139112Y-92285273D01*
X154114342Y-92290200D01*
X153936858Y-92290200D01*
X153912088Y-92285273D01*
X153762788Y-92255576D01*
X153598816Y-92187656D01*
X153451246Y-92089053D01*
X153325747Y-91963554D01*
X153227144Y-91815984D01*
X153159224Y-91652012D01*
X153124600Y-91477941D01*
X153124600Y-91300459D01*
X153125698Y-91294941D01*
X153133764Y-91254389D01*
X153159224Y-91126388D01*
X153227144Y-90962416D01*
X153325747Y-90814846D01*
X153451246Y-90689347D01*
X153598816Y-90590744D01*
X153762788Y-90522824D01*
X153912088Y-90493127D01*
X153936858Y-90488200D01*
X154114342Y-90488200D01*
X154139112Y-90493127D01*
G37*
G36*
X137711000Y-91112218D02*
G01*
X137713402Y-91136604D01*
X137720515Y-91160053D01*
X137732066Y-91181664D01*
X137747611Y-91200606D01*
X137766553Y-91216151D01*
X137788164Y-91227702D01*
X137811613Y-91234815D01*
X137835999Y-91237217D01*
X137860385Y-91234815D01*
X137883834Y-91227702D01*
X137905445Y-91216151D01*
X137924387Y-91200606D01*
X137939932Y-91181664D01*
X138002009Y-91088760D01*
X138002010Y-91088758D01*
X138078758Y-91012010D01*
X138169004Y-90951710D01*
X138169005Y-90951709D01*
X138269279Y-90910174D01*
X138375730Y-90889000D01*
X138484270Y-90889000D01*
X138590721Y-90910174D01*
X138690995Y-90951709D01*
X138690996Y-90951710D01*
X138781242Y-91012010D01*
X138857990Y-91088758D01*
X138857991Y-91088760D01*
X138918291Y-91179005D01*
X138949516Y-91254389D01*
X138961067Y-91276000D01*
X138976612Y-91294941D01*
X138995554Y-91310487D01*
X139017165Y-91322038D01*
X139040614Y-91329151D01*
X139065000Y-91331553D01*
X139089386Y-91329151D01*
X139112835Y-91322038D01*
X139134446Y-91310487D01*
X139153387Y-91294942D01*
X139168933Y-91276000D01*
X139180484Y-91254389D01*
X139211709Y-91179005D01*
X139272009Y-91088760D01*
X139272010Y-91088758D01*
X139348758Y-91012010D01*
X139439004Y-90951710D01*
X139439005Y-90951709D01*
X139539279Y-90910174D01*
X139645730Y-90889000D01*
X139754270Y-90889000D01*
X139860721Y-90910174D01*
X139960995Y-90951709D01*
X139960996Y-90951710D01*
X140051242Y-91012010D01*
X140127990Y-91088758D01*
X140127991Y-91088760D01*
X140188291Y-91179005D01*
X140219516Y-91254389D01*
X140231067Y-91276000D01*
X140246612Y-91294941D01*
X140265554Y-91310487D01*
X140287165Y-91322038D01*
X140310614Y-91329151D01*
X140335000Y-91331553D01*
X140359386Y-91329151D01*
X140382835Y-91322038D01*
X140404446Y-91310487D01*
X140423387Y-91294942D01*
X140438933Y-91276000D01*
X140450484Y-91254389D01*
X140481709Y-91179005D01*
X140542009Y-91088760D01*
X140542010Y-91088758D01*
X140618758Y-91012010D01*
X140709004Y-90951710D01*
X140709005Y-90951709D01*
X140809279Y-90910174D01*
X140915730Y-90889000D01*
X141024270Y-90889000D01*
X141130721Y-90910174D01*
X141230995Y-90951709D01*
X141230996Y-90951710D01*
X141321242Y-91012010D01*
X141397990Y-91088758D01*
X141397991Y-91088760D01*
X141458291Y-91179005D01*
X141489516Y-91254389D01*
X141501067Y-91276000D01*
X141516612Y-91294941D01*
X141535554Y-91310487D01*
X141557165Y-91322038D01*
X141580614Y-91329151D01*
X141605000Y-91331553D01*
X141629386Y-91329151D01*
X141652835Y-91322038D01*
X141674446Y-91310487D01*
X141693387Y-91294942D01*
X141708933Y-91276000D01*
X141720484Y-91254389D01*
X141751709Y-91179005D01*
X141812009Y-91088760D01*
X141812010Y-91088758D01*
X141888758Y-91012010D01*
X141979004Y-90951710D01*
X141979005Y-90951709D01*
X142079279Y-90910174D01*
X142185730Y-90889000D01*
X142294270Y-90889000D01*
X142400721Y-90910174D01*
X142500995Y-90951709D01*
X142500996Y-90951710D01*
X142591242Y-91012010D01*
X142667990Y-91088758D01*
X142667991Y-91088760D01*
X142728291Y-91179005D01*
X142769826Y-91279279D01*
X142791000Y-91385730D01*
X142791000Y-91494270D01*
X142769826Y-91600721D01*
X142728291Y-91700995D01*
X142728290Y-91700996D01*
X142667990Y-91791242D01*
X142591242Y-91867990D01*
X142545812Y-91898345D01*
X142500995Y-91928291D01*
X142400721Y-91969826D01*
X142294270Y-91991000D01*
X142185730Y-91991000D01*
X142079279Y-91969826D01*
X141979005Y-91928291D01*
X141934188Y-91898345D01*
X141888758Y-91867990D01*
X141812010Y-91791242D01*
X141751710Y-91700996D01*
X141751709Y-91700995D01*
X141720484Y-91625611D01*
X141708933Y-91604000D01*
X141693388Y-91585059D01*
X141674446Y-91569513D01*
X141652835Y-91557962D01*
X141629386Y-91550849D01*
X141605000Y-91548447D01*
X141580614Y-91550849D01*
X141557165Y-91557962D01*
X141535554Y-91569513D01*
X141516613Y-91585058D01*
X141501067Y-91604000D01*
X141489516Y-91625611D01*
X141458291Y-91700995D01*
X141458290Y-91700996D01*
X141397990Y-91791242D01*
X141321242Y-91867990D01*
X141275812Y-91898345D01*
X141230995Y-91928291D01*
X141130721Y-91969826D01*
X141024270Y-91991000D01*
X140915730Y-91991000D01*
X140809279Y-91969826D01*
X140709005Y-91928291D01*
X140664188Y-91898345D01*
X140618758Y-91867990D01*
X140542010Y-91791242D01*
X140481710Y-91700996D01*
X140481709Y-91700995D01*
X140450484Y-91625611D01*
X140438933Y-91604000D01*
X140423388Y-91585059D01*
X140404446Y-91569513D01*
X140382835Y-91557962D01*
X140359386Y-91550849D01*
X140335000Y-91548447D01*
X140310614Y-91550849D01*
X140287165Y-91557962D01*
X140265554Y-91569513D01*
X140246613Y-91585058D01*
X140231067Y-91604000D01*
X140219516Y-91625611D01*
X140188291Y-91700995D01*
X140188290Y-91700996D01*
X140127990Y-91791242D01*
X140051242Y-91867990D01*
X140005812Y-91898345D01*
X139960995Y-91928291D01*
X139860721Y-91969826D01*
X139754270Y-91991000D01*
X139645730Y-91991000D01*
X139539279Y-91969826D01*
X139439005Y-91928291D01*
X139394188Y-91898345D01*
X139348758Y-91867990D01*
X139272010Y-91791242D01*
X139211710Y-91700996D01*
X139211709Y-91700995D01*
X139180484Y-91625611D01*
X139168933Y-91604000D01*
X139153388Y-91585059D01*
X139134446Y-91569513D01*
X139112835Y-91557962D01*
X139089386Y-91550849D01*
X139065000Y-91548447D01*
X139040614Y-91550849D01*
X139017165Y-91557962D01*
X138995554Y-91569513D01*
X138976613Y-91585058D01*
X138961067Y-91604000D01*
X138949516Y-91625611D01*
X138918291Y-91700995D01*
X138918290Y-91700996D01*
X138857990Y-91791242D01*
X138781242Y-91867990D01*
X138735812Y-91898345D01*
X138690995Y-91928291D01*
X138590721Y-91969826D01*
X138484270Y-91991000D01*
X138375730Y-91991000D01*
X138269279Y-91969826D01*
X138169005Y-91928291D01*
X138124188Y-91898345D01*
X138078758Y-91867990D01*
X138002010Y-91791242D01*
X137981012Y-91759816D01*
X137939932Y-91698336D01*
X137924386Y-91679394D01*
X137905444Y-91663849D01*
X137883833Y-91652298D01*
X137860385Y-91645185D01*
X137835998Y-91642783D01*
X137811612Y-91645185D01*
X137788163Y-91652298D01*
X137766553Y-91663849D01*
X137747611Y-91679395D01*
X137732066Y-91698337D01*
X137720515Y-91719948D01*
X137713402Y-91743396D01*
X137711000Y-91767782D01*
X137711000Y-91991000D01*
X136609000Y-91991000D01*
X136609000Y-90889000D01*
X137711000Y-90889000D01*
X137711000Y-91112218D01*
G37*
G36*
X135825800Y-87108600D02*
G01*
X134023800Y-87108600D01*
X134023800Y-85306600D01*
X135825800Y-85306600D01*
X135825800Y-87108600D01*
G37*
G36*
X135038312Y-82771527D02*
G01*
X135187612Y-82801224D01*
X135351584Y-82869144D01*
X135499154Y-82967747D01*
X135624653Y-83093246D01*
X135723256Y-83240816D01*
X135791176Y-83404788D01*
X135825800Y-83578859D01*
X135825800Y-83756341D01*
X135791176Y-83930412D01*
X135723256Y-84094384D01*
X135624653Y-84241954D01*
X135499154Y-84367453D01*
X135351584Y-84466056D01*
X135187612Y-84533976D01*
X135038312Y-84563673D01*
X135013542Y-84568600D01*
X134836058Y-84568600D01*
X134811288Y-84563673D01*
X134661988Y-84533976D01*
X134498016Y-84466056D01*
X134350446Y-84367453D01*
X134224947Y-84241954D01*
X134126344Y-84094384D01*
X134058424Y-83930412D01*
X134023800Y-83756341D01*
X134023800Y-83578859D01*
X134058424Y-83404788D01*
X134126344Y-83240816D01*
X134224947Y-83093246D01*
X134350446Y-82967747D01*
X134498016Y-82869144D01*
X134661988Y-82801224D01*
X134811288Y-82771527D01*
X134836058Y-82766600D01*
X135013542Y-82766600D01*
X135038312Y-82771527D01*
G37*
M02*
