G04 #@! TF.GenerationSoftware,KiCad,Pcbnew,5.1.5-52549c5~84~ubuntu18.04.1*
G04 #@! TF.CreationDate,2020-03-31T23:43:49+01:00*
G04 #@! TF.ProjectId,OverdrivePedal_RevB,4f766572-6472-4697-9665-506564616c5f,RevB*
G04 #@! TF.SameCoordinates,Original*
G04 #@! TF.FileFunction,Copper,L2,Bot*
G04 #@! TF.FilePolarity,Positive*
%FSLAX46Y46*%
G04 Gerber Fmt 4.6, Leading zero omitted, Abs format (unit mm)*
G04 Created by KiCad (PCBNEW 5.1.5-52549c5~84~ubuntu18.04.1) date 2020-03-31 23:43:49*
%MOMM*%
%LPD*%
G04 APERTURE LIST*
%ADD10O,1.700000X1.700000*%
%ADD11R,1.700000X1.700000*%
%ADD12C,0.600000*%
%ADD13C,0.600000*%
%ADD14C,0.450000*%
%ADD15C,0.254000*%
G04 APERTURE END LIST*
D10*
X154025600Y-91389200D03*
D11*
X156565600Y-91389200D03*
D10*
X142417800Y-104978200D03*
X144957800Y-104978200D03*
D11*
X147497800Y-104978200D03*
D10*
X138176000Y-107619800D03*
D11*
X138176000Y-105079800D03*
D10*
X142189200Y-91363800D03*
X139649200Y-91363800D03*
X137109200Y-91363800D03*
X134569200Y-91363800D03*
D11*
X132029200Y-91363800D03*
D10*
X134924800Y-83667600D03*
D11*
X134924800Y-86207600D03*
D10*
X153466800Y-104978200D03*
D11*
X156006800Y-104978200D03*
D12*
X156210000Y-94742000D03*
X140512800Y-97612200D03*
X140512800Y-101422200D03*
X156210000Y-96520000D03*
X149656800Y-103962200D03*
X142991800Y-107838200D03*
X148793200Y-85801200D03*
X152552400Y-86664800D03*
X156210000Y-93726000D03*
X159385000Y-82778600D03*
X133974700Y-96441400D03*
X135098000Y-105888800D03*
X130683000Y-104470200D03*
X162052000Y-82550000D03*
X126974598Y-82575400D03*
X128778000Y-109093000D03*
X152755600Y-99529900D03*
X151168100Y-99529900D03*
X131838700Y-99517200D03*
X146481800Y-85801202D03*
X142303500Y-83781900D03*
X142392400Y-85496400D03*
X155067000Y-83235798D03*
X147574000Y-90170000D03*
X131953000Y-84302600D03*
X130606800Y-89154000D03*
X154282000Y-87500600D03*
X157200600Y-87541100D03*
X134279096Y-100469035D03*
X131838700Y-101422200D03*
X143814800Y-92481400D03*
X143802102Y-89941400D03*
X144589500Y-85801200D03*
X147574000Y-93865700D03*
X147066000Y-91694000D03*
X157708600Y-102450900D03*
X156210000Y-97574100D03*
D13*
X131953000Y-87807800D02*
X130906799Y-88854001D01*
X131953000Y-84302600D02*
X131953000Y-87807800D01*
X130906799Y-88854001D02*
X130606800Y-89154000D01*
D14*
X154322500Y-87541100D02*
X154282000Y-87500600D01*
X157200600Y-87541100D02*
X154322500Y-87541100D01*
X134279096Y-100469035D02*
X133325931Y-101422200D01*
X133325931Y-101422200D02*
X131838700Y-101422200D01*
X143802102Y-89941400D02*
X144589500Y-89154002D01*
X144589500Y-89154002D02*
X144589500Y-86225464D01*
X144589500Y-86225464D02*
X144589500Y-85801200D01*
D13*
X147574000Y-93865700D02*
X146189700Y-92481400D01*
X146189700Y-92481400D02*
X143814800Y-92481400D01*
X146735800Y-91363800D02*
X142189200Y-91363800D01*
X147066000Y-91694000D02*
X146735800Y-91363800D01*
X156210000Y-100952300D02*
X156210000Y-97998364D01*
X157708600Y-102450900D02*
X156210000Y-100952300D01*
X156210000Y-97998364D02*
X156210000Y-97574100D01*
D15*
G36*
X165100401Y-110465000D02*
G01*
X123875400Y-110465000D01*
X123875400Y-104229800D01*
X136687928Y-104229800D01*
X136687928Y-105929800D01*
X136700188Y-106054282D01*
X136736498Y-106173980D01*
X136795463Y-106284294D01*
X136874815Y-106380985D01*
X136971506Y-106460337D01*
X137081820Y-106519302D01*
X137201518Y-106555612D01*
X137326000Y-106567872D01*
X139026000Y-106567872D01*
X139150482Y-106555612D01*
X139270180Y-106519302D01*
X139380494Y-106460337D01*
X139477185Y-106380985D01*
X139556537Y-106284294D01*
X139615502Y-106173980D01*
X139651812Y-106054282D01*
X139664072Y-105929800D01*
X139664072Y-104831940D01*
X140932800Y-104831940D01*
X140932800Y-105124460D01*
X140989868Y-105411358D01*
X141101810Y-105681611D01*
X141264325Y-105924832D01*
X141471168Y-106131675D01*
X141714389Y-106294190D01*
X141984642Y-106406132D01*
X142271540Y-106463200D01*
X142564060Y-106463200D01*
X142850958Y-106406132D01*
X143121211Y-106294190D01*
X143364432Y-106131675D01*
X143571275Y-105924832D01*
X143687800Y-105750440D01*
X143804325Y-105924832D01*
X144011168Y-106131675D01*
X144254389Y-106294190D01*
X144524642Y-106406132D01*
X144811540Y-106463200D01*
X145104060Y-106463200D01*
X145390958Y-106406132D01*
X145661211Y-106294190D01*
X145904432Y-106131675D01*
X146036287Y-105999820D01*
X146058298Y-106072380D01*
X146117263Y-106182694D01*
X146196615Y-106279385D01*
X146293306Y-106358737D01*
X146403620Y-106417702D01*
X146523318Y-106454012D01*
X146647800Y-106466272D01*
X148347800Y-106466272D01*
X148472282Y-106454012D01*
X148591980Y-106417702D01*
X148702294Y-106358737D01*
X148798985Y-106279385D01*
X148878337Y-106182694D01*
X148937302Y-106072380D01*
X148973612Y-105952682D01*
X148985872Y-105828200D01*
X148985872Y-104128200D01*
X154518728Y-104128200D01*
X154518728Y-105828200D01*
X154530988Y-105952682D01*
X154567298Y-106072380D01*
X154626263Y-106182694D01*
X154705615Y-106279385D01*
X154802306Y-106358737D01*
X154912620Y-106417702D01*
X155032318Y-106454012D01*
X155156800Y-106466272D01*
X156856800Y-106466272D01*
X156981282Y-106454012D01*
X157100980Y-106417702D01*
X157211294Y-106358737D01*
X157307985Y-106279385D01*
X157387337Y-106182694D01*
X157446302Y-106072380D01*
X157482612Y-105952682D01*
X157494872Y-105828200D01*
X157494872Y-104128200D01*
X157482612Y-104003718D01*
X157446302Y-103884020D01*
X157387337Y-103773706D01*
X157307985Y-103677015D01*
X157211294Y-103597663D01*
X157100980Y-103538698D01*
X156981282Y-103502388D01*
X156856800Y-103490128D01*
X155156800Y-103490128D01*
X155032318Y-103502388D01*
X154912620Y-103538698D01*
X154802306Y-103597663D01*
X154705615Y-103677015D01*
X154626263Y-103773706D01*
X154567298Y-103884020D01*
X154530988Y-104003718D01*
X154518728Y-104128200D01*
X148985872Y-104128200D01*
X148973612Y-104003718D01*
X148937302Y-103884020D01*
X148878337Y-103773706D01*
X148798985Y-103677015D01*
X148702294Y-103597663D01*
X148591980Y-103538698D01*
X148472282Y-103502388D01*
X148347800Y-103490128D01*
X146647800Y-103490128D01*
X146523318Y-103502388D01*
X146403620Y-103538698D01*
X146293306Y-103597663D01*
X146196615Y-103677015D01*
X146117263Y-103773706D01*
X146058298Y-103884020D01*
X146036287Y-103956580D01*
X145904432Y-103824725D01*
X145661211Y-103662210D01*
X145390958Y-103550268D01*
X145104060Y-103493200D01*
X144811540Y-103493200D01*
X144524642Y-103550268D01*
X144254389Y-103662210D01*
X144011168Y-103824725D01*
X143804325Y-104031568D01*
X143687800Y-104205960D01*
X143571275Y-104031568D01*
X143364432Y-103824725D01*
X143121211Y-103662210D01*
X142850958Y-103550268D01*
X142564060Y-103493200D01*
X142271540Y-103493200D01*
X141984642Y-103550268D01*
X141714389Y-103662210D01*
X141471168Y-103824725D01*
X141264325Y-104031568D01*
X141101810Y-104274789D01*
X140989868Y-104545042D01*
X140932800Y-104831940D01*
X139664072Y-104831940D01*
X139664072Y-104229800D01*
X139651812Y-104105318D01*
X139615502Y-103985620D01*
X139556537Y-103875306D01*
X139477185Y-103778615D01*
X139380494Y-103699263D01*
X139270180Y-103640298D01*
X139150482Y-103603988D01*
X139026000Y-103591728D01*
X137326000Y-103591728D01*
X137201518Y-103603988D01*
X137081820Y-103640298D01*
X136971506Y-103699263D01*
X136874815Y-103778615D01*
X136795463Y-103875306D01*
X136736498Y-103985620D01*
X136700188Y-104105318D01*
X136687928Y-104229800D01*
X123875400Y-104229800D01*
X123875400Y-101330111D01*
X130903700Y-101330111D01*
X130903700Y-101514289D01*
X130939632Y-101694929D01*
X131010114Y-101865089D01*
X131112438Y-102018228D01*
X131242672Y-102148462D01*
X131395811Y-102250786D01*
X131565971Y-102321268D01*
X131746611Y-102357200D01*
X131930789Y-102357200D01*
X132111429Y-102321268D01*
X132205748Y-102282200D01*
X133283692Y-102282200D01*
X133325931Y-102286360D01*
X133368170Y-102282200D01*
X133368177Y-102282200D01*
X133494520Y-102269756D01*
X133656631Y-102220581D01*
X133806033Y-102140724D01*
X133936985Y-102033254D01*
X133963919Y-102000435D01*
X134627666Y-101336689D01*
X134721985Y-101297621D01*
X134875124Y-101195297D01*
X135005358Y-101065063D01*
X135080703Y-100952300D01*
X155270476Y-100952300D01*
X155275000Y-100998231D01*
X155288529Y-101135591D01*
X155341993Y-101311839D01*
X155428814Y-101474271D01*
X155545656Y-101616644D01*
X155581341Y-101645930D01*
X156982338Y-103046928D01*
X157112572Y-103177162D01*
X157150952Y-103202807D01*
X157186628Y-103232085D01*
X157227330Y-103253840D01*
X157265711Y-103279486D01*
X157308357Y-103297151D01*
X157349059Y-103318906D01*
X157393227Y-103332304D01*
X157435871Y-103349968D01*
X157481138Y-103358972D01*
X157525307Y-103372371D01*
X157571239Y-103376895D01*
X157616511Y-103385900D01*
X157662674Y-103385900D01*
X157708599Y-103390423D01*
X157754524Y-103385900D01*
X157800689Y-103385900D01*
X157845963Y-103376894D01*
X157891891Y-103372371D01*
X157936057Y-103358973D01*
X157981329Y-103349968D01*
X158023977Y-103332303D01*
X158068140Y-103318906D01*
X158108838Y-103297152D01*
X158151489Y-103279486D01*
X158189874Y-103253838D01*
X158230571Y-103232085D01*
X158266241Y-103202811D01*
X158304628Y-103177162D01*
X158337275Y-103144515D01*
X158372943Y-103115243D01*
X158402215Y-103079575D01*
X158434862Y-103046928D01*
X158460511Y-103008541D01*
X158489785Y-102972871D01*
X158511538Y-102932174D01*
X158537186Y-102893789D01*
X158554852Y-102851138D01*
X158576606Y-102810440D01*
X158590003Y-102766277D01*
X158607668Y-102723629D01*
X158616673Y-102678357D01*
X158630071Y-102634191D01*
X158634594Y-102588263D01*
X158643600Y-102542989D01*
X158643600Y-102496824D01*
X158648123Y-102450899D01*
X158643600Y-102404974D01*
X158643600Y-102358811D01*
X158634595Y-102313539D01*
X158630071Y-102267607D01*
X158616672Y-102223438D01*
X158607668Y-102178171D01*
X158590004Y-102135527D01*
X158576606Y-102091359D01*
X158554851Y-102050657D01*
X158537186Y-102008011D01*
X158511540Y-101969630D01*
X158489785Y-101928928D01*
X158460507Y-101893252D01*
X158434862Y-101854872D01*
X158304628Y-101724638D01*
X157145000Y-100565011D01*
X157145000Y-97482011D01*
X157135995Y-97436740D01*
X157131471Y-97390808D01*
X157118072Y-97346638D01*
X157109068Y-97301371D01*
X157091406Y-97258731D01*
X157078007Y-97214560D01*
X157056248Y-97173852D01*
X157038586Y-97131211D01*
X157012945Y-97092836D01*
X156991186Y-97052128D01*
X156961903Y-97016447D01*
X156936262Y-96978072D01*
X156903625Y-96945435D01*
X156874344Y-96909756D01*
X156838665Y-96880475D01*
X156806028Y-96847838D01*
X156767653Y-96822197D01*
X156731972Y-96792914D01*
X156691264Y-96771155D01*
X156652889Y-96745514D01*
X156610248Y-96727852D01*
X156569540Y-96706093D01*
X156525369Y-96692694D01*
X156482729Y-96675032D01*
X156437462Y-96666028D01*
X156393292Y-96652629D01*
X156347359Y-96648105D01*
X156302089Y-96639100D01*
X156255932Y-96639100D01*
X156210000Y-96634576D01*
X156164068Y-96639100D01*
X156117911Y-96639100D01*
X156072640Y-96648105D01*
X156026709Y-96652629D01*
X155982541Y-96666027D01*
X155937271Y-96675032D01*
X155894628Y-96692695D01*
X155850461Y-96706093D01*
X155809757Y-96727850D01*
X155767111Y-96745514D01*
X155728732Y-96771158D01*
X155688029Y-96792914D01*
X155652353Y-96822193D01*
X155613972Y-96847838D01*
X155581331Y-96880479D01*
X155545657Y-96909756D01*
X155516379Y-96945431D01*
X155483738Y-96978072D01*
X155458095Y-97016449D01*
X155428814Y-97052128D01*
X155407055Y-97092836D01*
X155381414Y-97131211D01*
X155363752Y-97173852D01*
X155341993Y-97214560D01*
X155328594Y-97258731D01*
X155310932Y-97301371D01*
X155301928Y-97346638D01*
X155288529Y-97390808D01*
X155284005Y-97436741D01*
X155275000Y-97482011D01*
X155275000Y-98044295D01*
X155275001Y-98044305D01*
X155275000Y-100906368D01*
X155270476Y-100952300D01*
X135080703Y-100952300D01*
X135107682Y-100911924D01*
X135178164Y-100741764D01*
X135214096Y-100561124D01*
X135214096Y-100376946D01*
X135178164Y-100196306D01*
X135107682Y-100026146D01*
X135005358Y-99873007D01*
X134875124Y-99742773D01*
X134721985Y-99640449D01*
X134551825Y-99569967D01*
X134371185Y-99534035D01*
X134187007Y-99534035D01*
X134006367Y-99569967D01*
X133836207Y-99640449D01*
X133683068Y-99742773D01*
X133552834Y-99873007D01*
X133450510Y-100026146D01*
X133411442Y-100120465D01*
X132969708Y-100562200D01*
X132205748Y-100562200D01*
X132111429Y-100523132D01*
X131930789Y-100487200D01*
X131746611Y-100487200D01*
X131565971Y-100523132D01*
X131395811Y-100593614D01*
X131242672Y-100695938D01*
X131112438Y-100826172D01*
X131010114Y-100979311D01*
X130939632Y-101149471D01*
X130903700Y-101330111D01*
X123875400Y-101330111D01*
X123875400Y-89154000D01*
X129667276Y-89154000D01*
X129671800Y-89199932D01*
X129671800Y-89246089D01*
X129680805Y-89291360D01*
X129685329Y-89337291D01*
X129698727Y-89381457D01*
X129707732Y-89426729D01*
X129725397Y-89469377D01*
X129738794Y-89513540D01*
X129760548Y-89554238D01*
X129778214Y-89596889D01*
X129803862Y-89635274D01*
X129825615Y-89675971D01*
X129854889Y-89711641D01*
X129880538Y-89750028D01*
X129913185Y-89782675D01*
X129942457Y-89818343D01*
X129978125Y-89847615D01*
X130010772Y-89880262D01*
X130049159Y-89905911D01*
X130084829Y-89935185D01*
X130125526Y-89956938D01*
X130163911Y-89982586D01*
X130206562Y-90000252D01*
X130247260Y-90022006D01*
X130291423Y-90035403D01*
X130334071Y-90053068D01*
X130379343Y-90062073D01*
X130423509Y-90075471D01*
X130469440Y-90079995D01*
X130514711Y-90089000D01*
X130560868Y-90089000D01*
X130606800Y-90093524D01*
X130652732Y-90089000D01*
X130698889Y-90089000D01*
X130707819Y-90087224D01*
X130648663Y-90159306D01*
X130589698Y-90269620D01*
X130553388Y-90389318D01*
X130541128Y-90513800D01*
X130541128Y-92213800D01*
X130553388Y-92338282D01*
X130589698Y-92457980D01*
X130648663Y-92568294D01*
X130728015Y-92664985D01*
X130824706Y-92744337D01*
X130935020Y-92803302D01*
X131054718Y-92839612D01*
X131179200Y-92851872D01*
X132879200Y-92851872D01*
X133003682Y-92839612D01*
X133123380Y-92803302D01*
X133233694Y-92744337D01*
X133330385Y-92664985D01*
X133409737Y-92568294D01*
X133468702Y-92457980D01*
X133490713Y-92385420D01*
X133622568Y-92517275D01*
X133865789Y-92679790D01*
X134136042Y-92791732D01*
X134422940Y-92848800D01*
X134715460Y-92848800D01*
X135002358Y-92791732D01*
X135272611Y-92679790D01*
X135515832Y-92517275D01*
X135722675Y-92310432D01*
X135885190Y-92067211D01*
X135997132Y-91796958D01*
X136054200Y-91510060D01*
X136054200Y-91217540D01*
X138164200Y-91217540D01*
X138164200Y-91510060D01*
X138221268Y-91796958D01*
X138333210Y-92067211D01*
X138495725Y-92310432D01*
X138702568Y-92517275D01*
X138945789Y-92679790D01*
X139216042Y-92791732D01*
X139502940Y-92848800D01*
X139795460Y-92848800D01*
X140082358Y-92791732D01*
X140352611Y-92679790D01*
X140595832Y-92517275D01*
X140802675Y-92310432D01*
X140919200Y-92136040D01*
X141035725Y-92310432D01*
X141242568Y-92517275D01*
X141485789Y-92679790D01*
X141756042Y-92791732D01*
X142042940Y-92848800D01*
X142335460Y-92848800D01*
X142622358Y-92791732D01*
X142892611Y-92679790D01*
X142897016Y-92676847D01*
X142906728Y-92708862D01*
X142915732Y-92754129D01*
X142933394Y-92796769D01*
X142946793Y-92840940D01*
X142968552Y-92881648D01*
X142986214Y-92924289D01*
X143011855Y-92962664D01*
X143033614Y-93003372D01*
X143062897Y-93039053D01*
X143088538Y-93077428D01*
X143121175Y-93110065D01*
X143150456Y-93145744D01*
X143186135Y-93175025D01*
X143218772Y-93207662D01*
X143257147Y-93233303D01*
X143292828Y-93262586D01*
X143333536Y-93284345D01*
X143371911Y-93309986D01*
X143414552Y-93327648D01*
X143455260Y-93349407D01*
X143499431Y-93362806D01*
X143542071Y-93380468D01*
X143587338Y-93389472D01*
X143631508Y-93402871D01*
X143677441Y-93407395D01*
X143722711Y-93416400D01*
X145802411Y-93416400D01*
X146847736Y-94461725D01*
X146847738Y-94461728D01*
X146977972Y-94591962D01*
X147016354Y-94617608D01*
X147052028Y-94646885D01*
X147092730Y-94668640D01*
X147131111Y-94694286D01*
X147173757Y-94711951D01*
X147214459Y-94733706D01*
X147258626Y-94747104D01*
X147301271Y-94764768D01*
X147346540Y-94773773D01*
X147390708Y-94787171D01*
X147436641Y-94791695D01*
X147481911Y-94800700D01*
X147528068Y-94800700D01*
X147574000Y-94805224D01*
X147619932Y-94800700D01*
X147666089Y-94800700D01*
X147711359Y-94791695D01*
X147757292Y-94787171D01*
X147801459Y-94773773D01*
X147846729Y-94764768D01*
X147889376Y-94747103D01*
X147933540Y-94733706D01*
X147974238Y-94711952D01*
X148016889Y-94694286D01*
X148055274Y-94668638D01*
X148095971Y-94646885D01*
X148131641Y-94617611D01*
X148170028Y-94591962D01*
X148202675Y-94559315D01*
X148238343Y-94530043D01*
X148267615Y-94494375D01*
X148300262Y-94461728D01*
X148325911Y-94423341D01*
X148355185Y-94387671D01*
X148376938Y-94346974D01*
X148402586Y-94308589D01*
X148420252Y-94265938D01*
X148442006Y-94225240D01*
X148455403Y-94181076D01*
X148473068Y-94138429D01*
X148482073Y-94093159D01*
X148495471Y-94048992D01*
X148499995Y-94003059D01*
X148509000Y-93957789D01*
X148509000Y-93911632D01*
X148513524Y-93865700D01*
X148509000Y-93819768D01*
X148509000Y-93773611D01*
X148499995Y-93728341D01*
X148495471Y-93682408D01*
X148482073Y-93638240D01*
X148473068Y-93592971D01*
X148455404Y-93550326D01*
X148442006Y-93506159D01*
X148420251Y-93465457D01*
X148402586Y-93422811D01*
X148376940Y-93384430D01*
X148355185Y-93343728D01*
X148325908Y-93308054D01*
X148300262Y-93269672D01*
X148170028Y-93139438D01*
X148170025Y-93139436D01*
X147535437Y-92504848D01*
X147547274Y-92496938D01*
X147587971Y-92475185D01*
X147623641Y-92445911D01*
X147662028Y-92420262D01*
X147694675Y-92387615D01*
X147730343Y-92358343D01*
X147759615Y-92322675D01*
X147792262Y-92290028D01*
X147817911Y-92251641D01*
X147847185Y-92215971D01*
X147868938Y-92175274D01*
X147894586Y-92136889D01*
X147912252Y-92094238D01*
X147934006Y-92053540D01*
X147947403Y-92009377D01*
X147965068Y-91966729D01*
X147974073Y-91921457D01*
X147987471Y-91877291D01*
X147991995Y-91831360D01*
X148001000Y-91786089D01*
X148001000Y-91739931D01*
X148005524Y-91693999D01*
X148001000Y-91648067D01*
X148001000Y-91601911D01*
X147991995Y-91556642D01*
X147987471Y-91510707D01*
X147974072Y-91466539D01*
X147965068Y-91421271D01*
X147947404Y-91378625D01*
X147934006Y-91334460D01*
X147912252Y-91293762D01*
X147894586Y-91251111D01*
X147889127Y-91242940D01*
X152540600Y-91242940D01*
X152540600Y-91535460D01*
X152597668Y-91822358D01*
X152709610Y-92092611D01*
X152872125Y-92335832D01*
X153078968Y-92542675D01*
X153322189Y-92705190D01*
X153592442Y-92817132D01*
X153879340Y-92874200D01*
X154171860Y-92874200D01*
X154458758Y-92817132D01*
X154729011Y-92705190D01*
X154972232Y-92542675D01*
X155179075Y-92335832D01*
X155341590Y-92092611D01*
X155453532Y-91822358D01*
X155510600Y-91535460D01*
X155510600Y-91242940D01*
X155453532Y-90956042D01*
X155341590Y-90685789D01*
X155179075Y-90442568D01*
X154972232Y-90235725D01*
X154729011Y-90073210D01*
X154458758Y-89961268D01*
X154171860Y-89904200D01*
X153879340Y-89904200D01*
X153592442Y-89961268D01*
X153322189Y-90073210D01*
X153078968Y-90235725D01*
X152872125Y-90442568D01*
X152709610Y-90685789D01*
X152597668Y-90956042D01*
X152540600Y-91242940D01*
X147889127Y-91242940D01*
X147868938Y-91212726D01*
X147847185Y-91172029D01*
X147817911Y-91136358D01*
X147792262Y-91097972D01*
X147662028Y-90967738D01*
X147662025Y-90967736D01*
X147429430Y-90735141D01*
X147400144Y-90699456D01*
X147257772Y-90582614D01*
X147095340Y-90495793D01*
X146919092Y-90442329D01*
X146781732Y-90428800D01*
X146735800Y-90424276D01*
X146689868Y-90428800D01*
X144600947Y-90428800D01*
X144630688Y-90384289D01*
X144669756Y-90289969D01*
X145167741Y-89791984D01*
X145200554Y-89765056D01*
X145308024Y-89634104D01*
X145387881Y-89484702D01*
X145437056Y-89322591D01*
X145449500Y-89196248D01*
X145449500Y-89196241D01*
X145453660Y-89154002D01*
X145449500Y-89111763D01*
X145449500Y-87408511D01*
X153347000Y-87408511D01*
X153347000Y-87592689D01*
X153382932Y-87773329D01*
X153453414Y-87943489D01*
X153555738Y-88096628D01*
X153685972Y-88226862D01*
X153839111Y-88329186D01*
X154009271Y-88399668D01*
X154189911Y-88435600D01*
X154374089Y-88435600D01*
X154547530Y-88401100D01*
X156833552Y-88401100D01*
X156927871Y-88440168D01*
X157108511Y-88476100D01*
X157292689Y-88476100D01*
X157473329Y-88440168D01*
X157643489Y-88369686D01*
X157796628Y-88267362D01*
X157926862Y-88137128D01*
X158029186Y-87983989D01*
X158099668Y-87813829D01*
X158135600Y-87633189D01*
X158135600Y-87449011D01*
X158099668Y-87268371D01*
X158029186Y-87098211D01*
X157926862Y-86945072D01*
X157796628Y-86814838D01*
X157643489Y-86712514D01*
X157473329Y-86642032D01*
X157292689Y-86606100D01*
X157108511Y-86606100D01*
X156927871Y-86642032D01*
X156833552Y-86681100D01*
X154738487Y-86681100D01*
X154724889Y-86672014D01*
X154554729Y-86601532D01*
X154374089Y-86565600D01*
X154189911Y-86565600D01*
X154009271Y-86601532D01*
X153839111Y-86672014D01*
X153685972Y-86774338D01*
X153555738Y-86904572D01*
X153453414Y-87057711D01*
X153382932Y-87227871D01*
X153347000Y-87408511D01*
X145449500Y-87408511D01*
X145449500Y-86168248D01*
X145488568Y-86073929D01*
X145524500Y-85893289D01*
X145524500Y-85709111D01*
X145488568Y-85528471D01*
X145418086Y-85358311D01*
X145315762Y-85205172D01*
X145185528Y-85074938D01*
X145032389Y-84972614D01*
X144862229Y-84902132D01*
X144681589Y-84866200D01*
X144497411Y-84866200D01*
X144316771Y-84902132D01*
X144146611Y-84972614D01*
X143993472Y-85074938D01*
X143863238Y-85205172D01*
X143760914Y-85358311D01*
X143690432Y-85528471D01*
X143654500Y-85709111D01*
X143654500Y-85893289D01*
X143690432Y-86073929D01*
X143729500Y-86168248D01*
X143729500Y-86267709D01*
X143729501Y-86267719D01*
X143729500Y-88797778D01*
X143453533Y-89073746D01*
X143359213Y-89112814D01*
X143206074Y-89215138D01*
X143075840Y-89345372D01*
X142973516Y-89498511D01*
X142903034Y-89668671D01*
X142867102Y-89849311D01*
X142867102Y-90033489D01*
X142867916Y-90037581D01*
X142622358Y-89935868D01*
X142335460Y-89878800D01*
X142042940Y-89878800D01*
X141756042Y-89935868D01*
X141485789Y-90047810D01*
X141242568Y-90210325D01*
X141035725Y-90417168D01*
X140919200Y-90591560D01*
X140802675Y-90417168D01*
X140595832Y-90210325D01*
X140352611Y-90047810D01*
X140082358Y-89935868D01*
X139795460Y-89878800D01*
X139502940Y-89878800D01*
X139216042Y-89935868D01*
X138945789Y-90047810D01*
X138702568Y-90210325D01*
X138495725Y-90417168D01*
X138333210Y-90660389D01*
X138221268Y-90930642D01*
X138164200Y-91217540D01*
X136054200Y-91217540D01*
X135997132Y-90930642D01*
X135885190Y-90660389D01*
X135722675Y-90417168D01*
X135515832Y-90210325D01*
X135272611Y-90047810D01*
X135002358Y-89935868D01*
X134715460Y-89878800D01*
X134422940Y-89878800D01*
X134136042Y-89935868D01*
X133865789Y-90047810D01*
X133622568Y-90210325D01*
X133490713Y-90342180D01*
X133468702Y-90269620D01*
X133409737Y-90159306D01*
X133330385Y-90062615D01*
X133233694Y-89983263D01*
X133123380Y-89924298D01*
X133003682Y-89887988D01*
X132879200Y-89875728D01*
X131207362Y-89875728D01*
X131333062Y-89750028D01*
X131333065Y-89750024D01*
X131535460Y-89547628D01*
X131535465Y-89547624D01*
X132581659Y-88501430D01*
X132617344Y-88472144D01*
X132734186Y-88329772D01*
X132793394Y-88219000D01*
X132821007Y-88167341D01*
X132874472Y-87991092D01*
X132892524Y-87807800D01*
X132888000Y-87761865D01*
X132888000Y-84210511D01*
X132878995Y-84165241D01*
X132874471Y-84119308D01*
X132861072Y-84075138D01*
X132852068Y-84029871D01*
X132834406Y-83987231D01*
X132821007Y-83943060D01*
X132799248Y-83902352D01*
X132781586Y-83859711D01*
X132755945Y-83821336D01*
X132734186Y-83780628D01*
X132704903Y-83744947D01*
X132679262Y-83706572D01*
X132646625Y-83673935D01*
X132617344Y-83638256D01*
X132581666Y-83608976D01*
X132549028Y-83576338D01*
X132510649Y-83550694D01*
X132474971Y-83521414D01*
X132474833Y-83521340D01*
X133439800Y-83521340D01*
X133439800Y-83813860D01*
X133496868Y-84100758D01*
X133608810Y-84371011D01*
X133771325Y-84614232D01*
X133978168Y-84821075D01*
X134221389Y-84983590D01*
X134491642Y-85095532D01*
X134778540Y-85152600D01*
X135071060Y-85152600D01*
X135357958Y-85095532D01*
X135628211Y-84983590D01*
X135871432Y-84821075D01*
X136078275Y-84614232D01*
X136240790Y-84371011D01*
X136352732Y-84100758D01*
X136409800Y-83813860D01*
X136409800Y-83521340D01*
X136352732Y-83234442D01*
X136240790Y-82964189D01*
X136078275Y-82720968D01*
X135871432Y-82514125D01*
X135628211Y-82351610D01*
X135357958Y-82239668D01*
X135071060Y-82182600D01*
X134778540Y-82182600D01*
X134491642Y-82239668D01*
X134221389Y-82351610D01*
X133978168Y-82514125D01*
X133771325Y-82720968D01*
X133608810Y-82964189D01*
X133496868Y-83234442D01*
X133439800Y-83521340D01*
X132474833Y-83521340D01*
X132434268Y-83499658D01*
X132395889Y-83474014D01*
X132353243Y-83456350D01*
X132312539Y-83434593D01*
X132268372Y-83421195D01*
X132225729Y-83403532D01*
X132180459Y-83394527D01*
X132136291Y-83381129D01*
X132090360Y-83376605D01*
X132045089Y-83367600D01*
X131998932Y-83367600D01*
X131953000Y-83363076D01*
X131907068Y-83367600D01*
X131860911Y-83367600D01*
X131815641Y-83376605D01*
X131769708Y-83381129D01*
X131725538Y-83394528D01*
X131680271Y-83403532D01*
X131637631Y-83421194D01*
X131593460Y-83434593D01*
X131552752Y-83456352D01*
X131510111Y-83474014D01*
X131471736Y-83499655D01*
X131431028Y-83521414D01*
X131395347Y-83550697D01*
X131356972Y-83576338D01*
X131324335Y-83608975D01*
X131288656Y-83638256D01*
X131259376Y-83673934D01*
X131226738Y-83706572D01*
X131201094Y-83744951D01*
X131171814Y-83780629D01*
X131150058Y-83821332D01*
X131124414Y-83859711D01*
X131106750Y-83902357D01*
X131084993Y-83943061D01*
X131071595Y-83987228D01*
X131053932Y-84029871D01*
X131044927Y-84075141D01*
X131031529Y-84119309D01*
X131027005Y-84165240D01*
X131018000Y-84210511D01*
X131018000Y-84256669D01*
X131018001Y-87420510D01*
X130213176Y-88225335D01*
X130213172Y-88225340D01*
X130010776Y-88427735D01*
X130010772Y-88427738D01*
X129880538Y-88557972D01*
X129854889Y-88596358D01*
X129825615Y-88632029D01*
X129803862Y-88672726D01*
X129778214Y-88711111D01*
X129760548Y-88753762D01*
X129738794Y-88794460D01*
X129725397Y-88838623D01*
X129707732Y-88881271D01*
X129698727Y-88926543D01*
X129685329Y-88970709D01*
X129680805Y-89016640D01*
X129671800Y-89061911D01*
X129671800Y-89108068D01*
X129667276Y-89154000D01*
X123875400Y-89154000D01*
X123875400Y-81305000D01*
X165100400Y-81305000D01*
X165100401Y-110465000D01*
G37*
X165100401Y-110465000D02*
X123875400Y-110465000D01*
X123875400Y-104229800D01*
X136687928Y-104229800D01*
X136687928Y-105929800D01*
X136700188Y-106054282D01*
X136736498Y-106173980D01*
X136795463Y-106284294D01*
X136874815Y-106380985D01*
X136971506Y-106460337D01*
X137081820Y-106519302D01*
X137201518Y-106555612D01*
X137326000Y-106567872D01*
X139026000Y-106567872D01*
X139150482Y-106555612D01*
X139270180Y-106519302D01*
X139380494Y-106460337D01*
X139477185Y-106380985D01*
X139556537Y-106284294D01*
X139615502Y-106173980D01*
X139651812Y-106054282D01*
X139664072Y-105929800D01*
X139664072Y-104831940D01*
X140932800Y-104831940D01*
X140932800Y-105124460D01*
X140989868Y-105411358D01*
X141101810Y-105681611D01*
X141264325Y-105924832D01*
X141471168Y-106131675D01*
X141714389Y-106294190D01*
X141984642Y-106406132D01*
X142271540Y-106463200D01*
X142564060Y-106463200D01*
X142850958Y-106406132D01*
X143121211Y-106294190D01*
X143364432Y-106131675D01*
X143571275Y-105924832D01*
X143687800Y-105750440D01*
X143804325Y-105924832D01*
X144011168Y-106131675D01*
X144254389Y-106294190D01*
X144524642Y-106406132D01*
X144811540Y-106463200D01*
X145104060Y-106463200D01*
X145390958Y-106406132D01*
X145661211Y-106294190D01*
X145904432Y-106131675D01*
X146036287Y-105999820D01*
X146058298Y-106072380D01*
X146117263Y-106182694D01*
X146196615Y-106279385D01*
X146293306Y-106358737D01*
X146403620Y-106417702D01*
X146523318Y-106454012D01*
X146647800Y-106466272D01*
X148347800Y-106466272D01*
X148472282Y-106454012D01*
X148591980Y-106417702D01*
X148702294Y-106358737D01*
X148798985Y-106279385D01*
X148878337Y-106182694D01*
X148937302Y-106072380D01*
X148973612Y-105952682D01*
X148985872Y-105828200D01*
X148985872Y-104128200D01*
X154518728Y-104128200D01*
X154518728Y-105828200D01*
X154530988Y-105952682D01*
X154567298Y-106072380D01*
X154626263Y-106182694D01*
X154705615Y-106279385D01*
X154802306Y-106358737D01*
X154912620Y-106417702D01*
X155032318Y-106454012D01*
X155156800Y-106466272D01*
X156856800Y-106466272D01*
X156981282Y-106454012D01*
X157100980Y-106417702D01*
X157211294Y-106358737D01*
X157307985Y-106279385D01*
X157387337Y-106182694D01*
X157446302Y-106072380D01*
X157482612Y-105952682D01*
X157494872Y-105828200D01*
X157494872Y-104128200D01*
X157482612Y-104003718D01*
X157446302Y-103884020D01*
X157387337Y-103773706D01*
X157307985Y-103677015D01*
X157211294Y-103597663D01*
X157100980Y-103538698D01*
X156981282Y-103502388D01*
X156856800Y-103490128D01*
X155156800Y-103490128D01*
X155032318Y-103502388D01*
X154912620Y-103538698D01*
X154802306Y-103597663D01*
X154705615Y-103677015D01*
X154626263Y-103773706D01*
X154567298Y-103884020D01*
X154530988Y-104003718D01*
X154518728Y-104128200D01*
X148985872Y-104128200D01*
X148973612Y-104003718D01*
X148937302Y-103884020D01*
X148878337Y-103773706D01*
X148798985Y-103677015D01*
X148702294Y-103597663D01*
X148591980Y-103538698D01*
X148472282Y-103502388D01*
X148347800Y-103490128D01*
X146647800Y-103490128D01*
X146523318Y-103502388D01*
X146403620Y-103538698D01*
X146293306Y-103597663D01*
X146196615Y-103677015D01*
X146117263Y-103773706D01*
X146058298Y-103884020D01*
X146036287Y-103956580D01*
X145904432Y-103824725D01*
X145661211Y-103662210D01*
X145390958Y-103550268D01*
X145104060Y-103493200D01*
X144811540Y-103493200D01*
X144524642Y-103550268D01*
X144254389Y-103662210D01*
X144011168Y-103824725D01*
X143804325Y-104031568D01*
X143687800Y-104205960D01*
X143571275Y-104031568D01*
X143364432Y-103824725D01*
X143121211Y-103662210D01*
X142850958Y-103550268D01*
X142564060Y-103493200D01*
X142271540Y-103493200D01*
X141984642Y-103550268D01*
X141714389Y-103662210D01*
X141471168Y-103824725D01*
X141264325Y-104031568D01*
X141101810Y-104274789D01*
X140989868Y-104545042D01*
X140932800Y-104831940D01*
X139664072Y-104831940D01*
X139664072Y-104229800D01*
X139651812Y-104105318D01*
X139615502Y-103985620D01*
X139556537Y-103875306D01*
X139477185Y-103778615D01*
X139380494Y-103699263D01*
X139270180Y-103640298D01*
X139150482Y-103603988D01*
X139026000Y-103591728D01*
X137326000Y-103591728D01*
X137201518Y-103603988D01*
X137081820Y-103640298D01*
X136971506Y-103699263D01*
X136874815Y-103778615D01*
X136795463Y-103875306D01*
X136736498Y-103985620D01*
X136700188Y-104105318D01*
X136687928Y-104229800D01*
X123875400Y-104229800D01*
X123875400Y-101330111D01*
X130903700Y-101330111D01*
X130903700Y-101514289D01*
X130939632Y-101694929D01*
X131010114Y-101865089D01*
X131112438Y-102018228D01*
X131242672Y-102148462D01*
X131395811Y-102250786D01*
X131565971Y-102321268D01*
X131746611Y-102357200D01*
X131930789Y-102357200D01*
X132111429Y-102321268D01*
X132205748Y-102282200D01*
X133283692Y-102282200D01*
X133325931Y-102286360D01*
X133368170Y-102282200D01*
X133368177Y-102282200D01*
X133494520Y-102269756D01*
X133656631Y-102220581D01*
X133806033Y-102140724D01*
X133936985Y-102033254D01*
X133963919Y-102000435D01*
X134627666Y-101336689D01*
X134721985Y-101297621D01*
X134875124Y-101195297D01*
X135005358Y-101065063D01*
X135080703Y-100952300D01*
X155270476Y-100952300D01*
X155275000Y-100998231D01*
X155288529Y-101135591D01*
X155341993Y-101311839D01*
X155428814Y-101474271D01*
X155545656Y-101616644D01*
X155581341Y-101645930D01*
X156982338Y-103046928D01*
X157112572Y-103177162D01*
X157150952Y-103202807D01*
X157186628Y-103232085D01*
X157227330Y-103253840D01*
X157265711Y-103279486D01*
X157308357Y-103297151D01*
X157349059Y-103318906D01*
X157393227Y-103332304D01*
X157435871Y-103349968D01*
X157481138Y-103358972D01*
X157525307Y-103372371D01*
X157571239Y-103376895D01*
X157616511Y-103385900D01*
X157662674Y-103385900D01*
X157708599Y-103390423D01*
X157754524Y-103385900D01*
X157800689Y-103385900D01*
X157845963Y-103376894D01*
X157891891Y-103372371D01*
X157936057Y-103358973D01*
X157981329Y-103349968D01*
X158023977Y-103332303D01*
X158068140Y-103318906D01*
X158108838Y-103297152D01*
X158151489Y-103279486D01*
X158189874Y-103253838D01*
X158230571Y-103232085D01*
X158266241Y-103202811D01*
X158304628Y-103177162D01*
X158337275Y-103144515D01*
X158372943Y-103115243D01*
X158402215Y-103079575D01*
X158434862Y-103046928D01*
X158460511Y-103008541D01*
X158489785Y-102972871D01*
X158511538Y-102932174D01*
X158537186Y-102893789D01*
X158554852Y-102851138D01*
X158576606Y-102810440D01*
X158590003Y-102766277D01*
X158607668Y-102723629D01*
X158616673Y-102678357D01*
X158630071Y-102634191D01*
X158634594Y-102588263D01*
X158643600Y-102542989D01*
X158643600Y-102496824D01*
X158648123Y-102450899D01*
X158643600Y-102404974D01*
X158643600Y-102358811D01*
X158634595Y-102313539D01*
X158630071Y-102267607D01*
X158616672Y-102223438D01*
X158607668Y-102178171D01*
X158590004Y-102135527D01*
X158576606Y-102091359D01*
X158554851Y-102050657D01*
X158537186Y-102008011D01*
X158511540Y-101969630D01*
X158489785Y-101928928D01*
X158460507Y-101893252D01*
X158434862Y-101854872D01*
X158304628Y-101724638D01*
X157145000Y-100565011D01*
X157145000Y-97482011D01*
X157135995Y-97436740D01*
X157131471Y-97390808D01*
X157118072Y-97346638D01*
X157109068Y-97301371D01*
X157091406Y-97258731D01*
X157078007Y-97214560D01*
X157056248Y-97173852D01*
X157038586Y-97131211D01*
X157012945Y-97092836D01*
X156991186Y-97052128D01*
X156961903Y-97016447D01*
X156936262Y-96978072D01*
X156903625Y-96945435D01*
X156874344Y-96909756D01*
X156838665Y-96880475D01*
X156806028Y-96847838D01*
X156767653Y-96822197D01*
X156731972Y-96792914D01*
X156691264Y-96771155D01*
X156652889Y-96745514D01*
X156610248Y-96727852D01*
X156569540Y-96706093D01*
X156525369Y-96692694D01*
X156482729Y-96675032D01*
X156437462Y-96666028D01*
X156393292Y-96652629D01*
X156347359Y-96648105D01*
X156302089Y-96639100D01*
X156255932Y-96639100D01*
X156210000Y-96634576D01*
X156164068Y-96639100D01*
X156117911Y-96639100D01*
X156072640Y-96648105D01*
X156026709Y-96652629D01*
X155982541Y-96666027D01*
X155937271Y-96675032D01*
X155894628Y-96692695D01*
X155850461Y-96706093D01*
X155809757Y-96727850D01*
X155767111Y-96745514D01*
X155728732Y-96771158D01*
X155688029Y-96792914D01*
X155652353Y-96822193D01*
X155613972Y-96847838D01*
X155581331Y-96880479D01*
X155545657Y-96909756D01*
X155516379Y-96945431D01*
X155483738Y-96978072D01*
X155458095Y-97016449D01*
X155428814Y-97052128D01*
X155407055Y-97092836D01*
X155381414Y-97131211D01*
X155363752Y-97173852D01*
X155341993Y-97214560D01*
X155328594Y-97258731D01*
X155310932Y-97301371D01*
X155301928Y-97346638D01*
X155288529Y-97390808D01*
X155284005Y-97436741D01*
X155275000Y-97482011D01*
X155275000Y-98044295D01*
X155275001Y-98044305D01*
X155275000Y-100906368D01*
X155270476Y-100952300D01*
X135080703Y-100952300D01*
X135107682Y-100911924D01*
X135178164Y-100741764D01*
X135214096Y-100561124D01*
X135214096Y-100376946D01*
X135178164Y-100196306D01*
X135107682Y-100026146D01*
X135005358Y-99873007D01*
X134875124Y-99742773D01*
X134721985Y-99640449D01*
X134551825Y-99569967D01*
X134371185Y-99534035D01*
X134187007Y-99534035D01*
X134006367Y-99569967D01*
X133836207Y-99640449D01*
X133683068Y-99742773D01*
X133552834Y-99873007D01*
X133450510Y-100026146D01*
X133411442Y-100120465D01*
X132969708Y-100562200D01*
X132205748Y-100562200D01*
X132111429Y-100523132D01*
X131930789Y-100487200D01*
X131746611Y-100487200D01*
X131565971Y-100523132D01*
X131395811Y-100593614D01*
X131242672Y-100695938D01*
X131112438Y-100826172D01*
X131010114Y-100979311D01*
X130939632Y-101149471D01*
X130903700Y-101330111D01*
X123875400Y-101330111D01*
X123875400Y-89154000D01*
X129667276Y-89154000D01*
X129671800Y-89199932D01*
X129671800Y-89246089D01*
X129680805Y-89291360D01*
X129685329Y-89337291D01*
X129698727Y-89381457D01*
X129707732Y-89426729D01*
X129725397Y-89469377D01*
X129738794Y-89513540D01*
X129760548Y-89554238D01*
X129778214Y-89596889D01*
X129803862Y-89635274D01*
X129825615Y-89675971D01*
X129854889Y-89711641D01*
X129880538Y-89750028D01*
X129913185Y-89782675D01*
X129942457Y-89818343D01*
X129978125Y-89847615D01*
X130010772Y-89880262D01*
X130049159Y-89905911D01*
X130084829Y-89935185D01*
X130125526Y-89956938D01*
X130163911Y-89982586D01*
X130206562Y-90000252D01*
X130247260Y-90022006D01*
X130291423Y-90035403D01*
X130334071Y-90053068D01*
X130379343Y-90062073D01*
X130423509Y-90075471D01*
X130469440Y-90079995D01*
X130514711Y-90089000D01*
X130560868Y-90089000D01*
X130606800Y-90093524D01*
X130652732Y-90089000D01*
X130698889Y-90089000D01*
X130707819Y-90087224D01*
X130648663Y-90159306D01*
X130589698Y-90269620D01*
X130553388Y-90389318D01*
X130541128Y-90513800D01*
X130541128Y-92213800D01*
X130553388Y-92338282D01*
X130589698Y-92457980D01*
X130648663Y-92568294D01*
X130728015Y-92664985D01*
X130824706Y-92744337D01*
X130935020Y-92803302D01*
X131054718Y-92839612D01*
X131179200Y-92851872D01*
X132879200Y-92851872D01*
X133003682Y-92839612D01*
X133123380Y-92803302D01*
X133233694Y-92744337D01*
X133330385Y-92664985D01*
X133409737Y-92568294D01*
X133468702Y-92457980D01*
X133490713Y-92385420D01*
X133622568Y-92517275D01*
X133865789Y-92679790D01*
X134136042Y-92791732D01*
X134422940Y-92848800D01*
X134715460Y-92848800D01*
X135002358Y-92791732D01*
X135272611Y-92679790D01*
X135515832Y-92517275D01*
X135722675Y-92310432D01*
X135885190Y-92067211D01*
X135997132Y-91796958D01*
X136054200Y-91510060D01*
X136054200Y-91217540D01*
X138164200Y-91217540D01*
X138164200Y-91510060D01*
X138221268Y-91796958D01*
X138333210Y-92067211D01*
X138495725Y-92310432D01*
X138702568Y-92517275D01*
X138945789Y-92679790D01*
X139216042Y-92791732D01*
X139502940Y-92848800D01*
X139795460Y-92848800D01*
X140082358Y-92791732D01*
X140352611Y-92679790D01*
X140595832Y-92517275D01*
X140802675Y-92310432D01*
X140919200Y-92136040D01*
X141035725Y-92310432D01*
X141242568Y-92517275D01*
X141485789Y-92679790D01*
X141756042Y-92791732D01*
X142042940Y-92848800D01*
X142335460Y-92848800D01*
X142622358Y-92791732D01*
X142892611Y-92679790D01*
X142897016Y-92676847D01*
X142906728Y-92708862D01*
X142915732Y-92754129D01*
X142933394Y-92796769D01*
X142946793Y-92840940D01*
X142968552Y-92881648D01*
X142986214Y-92924289D01*
X143011855Y-92962664D01*
X143033614Y-93003372D01*
X143062897Y-93039053D01*
X143088538Y-93077428D01*
X143121175Y-93110065D01*
X143150456Y-93145744D01*
X143186135Y-93175025D01*
X143218772Y-93207662D01*
X143257147Y-93233303D01*
X143292828Y-93262586D01*
X143333536Y-93284345D01*
X143371911Y-93309986D01*
X143414552Y-93327648D01*
X143455260Y-93349407D01*
X143499431Y-93362806D01*
X143542071Y-93380468D01*
X143587338Y-93389472D01*
X143631508Y-93402871D01*
X143677441Y-93407395D01*
X143722711Y-93416400D01*
X145802411Y-93416400D01*
X146847736Y-94461725D01*
X146847738Y-94461728D01*
X146977972Y-94591962D01*
X147016354Y-94617608D01*
X147052028Y-94646885D01*
X147092730Y-94668640D01*
X147131111Y-94694286D01*
X147173757Y-94711951D01*
X147214459Y-94733706D01*
X147258626Y-94747104D01*
X147301271Y-94764768D01*
X147346540Y-94773773D01*
X147390708Y-94787171D01*
X147436641Y-94791695D01*
X147481911Y-94800700D01*
X147528068Y-94800700D01*
X147574000Y-94805224D01*
X147619932Y-94800700D01*
X147666089Y-94800700D01*
X147711359Y-94791695D01*
X147757292Y-94787171D01*
X147801459Y-94773773D01*
X147846729Y-94764768D01*
X147889376Y-94747103D01*
X147933540Y-94733706D01*
X147974238Y-94711952D01*
X148016889Y-94694286D01*
X148055274Y-94668638D01*
X148095971Y-94646885D01*
X148131641Y-94617611D01*
X148170028Y-94591962D01*
X148202675Y-94559315D01*
X148238343Y-94530043D01*
X148267615Y-94494375D01*
X148300262Y-94461728D01*
X148325911Y-94423341D01*
X148355185Y-94387671D01*
X148376938Y-94346974D01*
X148402586Y-94308589D01*
X148420252Y-94265938D01*
X148442006Y-94225240D01*
X148455403Y-94181076D01*
X148473068Y-94138429D01*
X148482073Y-94093159D01*
X148495471Y-94048992D01*
X148499995Y-94003059D01*
X148509000Y-93957789D01*
X148509000Y-93911632D01*
X148513524Y-93865700D01*
X148509000Y-93819768D01*
X148509000Y-93773611D01*
X148499995Y-93728341D01*
X148495471Y-93682408D01*
X148482073Y-93638240D01*
X148473068Y-93592971D01*
X148455404Y-93550326D01*
X148442006Y-93506159D01*
X148420251Y-93465457D01*
X148402586Y-93422811D01*
X148376940Y-93384430D01*
X148355185Y-93343728D01*
X148325908Y-93308054D01*
X148300262Y-93269672D01*
X148170028Y-93139438D01*
X148170025Y-93139436D01*
X147535437Y-92504848D01*
X147547274Y-92496938D01*
X147587971Y-92475185D01*
X147623641Y-92445911D01*
X147662028Y-92420262D01*
X147694675Y-92387615D01*
X147730343Y-92358343D01*
X147759615Y-92322675D01*
X147792262Y-92290028D01*
X147817911Y-92251641D01*
X147847185Y-92215971D01*
X147868938Y-92175274D01*
X147894586Y-92136889D01*
X147912252Y-92094238D01*
X147934006Y-92053540D01*
X147947403Y-92009377D01*
X147965068Y-91966729D01*
X147974073Y-91921457D01*
X147987471Y-91877291D01*
X147991995Y-91831360D01*
X148001000Y-91786089D01*
X148001000Y-91739931D01*
X148005524Y-91693999D01*
X148001000Y-91648067D01*
X148001000Y-91601911D01*
X147991995Y-91556642D01*
X147987471Y-91510707D01*
X147974072Y-91466539D01*
X147965068Y-91421271D01*
X147947404Y-91378625D01*
X147934006Y-91334460D01*
X147912252Y-91293762D01*
X147894586Y-91251111D01*
X147889127Y-91242940D01*
X152540600Y-91242940D01*
X152540600Y-91535460D01*
X152597668Y-91822358D01*
X152709610Y-92092611D01*
X152872125Y-92335832D01*
X153078968Y-92542675D01*
X153322189Y-92705190D01*
X153592442Y-92817132D01*
X153879340Y-92874200D01*
X154171860Y-92874200D01*
X154458758Y-92817132D01*
X154729011Y-92705190D01*
X154972232Y-92542675D01*
X155179075Y-92335832D01*
X155341590Y-92092611D01*
X155453532Y-91822358D01*
X155510600Y-91535460D01*
X155510600Y-91242940D01*
X155453532Y-90956042D01*
X155341590Y-90685789D01*
X155179075Y-90442568D01*
X154972232Y-90235725D01*
X154729011Y-90073210D01*
X154458758Y-89961268D01*
X154171860Y-89904200D01*
X153879340Y-89904200D01*
X153592442Y-89961268D01*
X153322189Y-90073210D01*
X153078968Y-90235725D01*
X152872125Y-90442568D01*
X152709610Y-90685789D01*
X152597668Y-90956042D01*
X152540600Y-91242940D01*
X147889127Y-91242940D01*
X147868938Y-91212726D01*
X147847185Y-91172029D01*
X147817911Y-91136358D01*
X147792262Y-91097972D01*
X147662028Y-90967738D01*
X147662025Y-90967736D01*
X147429430Y-90735141D01*
X147400144Y-90699456D01*
X147257772Y-90582614D01*
X147095340Y-90495793D01*
X146919092Y-90442329D01*
X146781732Y-90428800D01*
X146735800Y-90424276D01*
X146689868Y-90428800D01*
X144600947Y-90428800D01*
X144630688Y-90384289D01*
X144669756Y-90289969D01*
X145167741Y-89791984D01*
X145200554Y-89765056D01*
X145308024Y-89634104D01*
X145387881Y-89484702D01*
X145437056Y-89322591D01*
X145449500Y-89196248D01*
X145449500Y-89196241D01*
X145453660Y-89154002D01*
X145449500Y-89111763D01*
X145449500Y-87408511D01*
X153347000Y-87408511D01*
X153347000Y-87592689D01*
X153382932Y-87773329D01*
X153453414Y-87943489D01*
X153555738Y-88096628D01*
X153685972Y-88226862D01*
X153839111Y-88329186D01*
X154009271Y-88399668D01*
X154189911Y-88435600D01*
X154374089Y-88435600D01*
X154547530Y-88401100D01*
X156833552Y-88401100D01*
X156927871Y-88440168D01*
X157108511Y-88476100D01*
X157292689Y-88476100D01*
X157473329Y-88440168D01*
X157643489Y-88369686D01*
X157796628Y-88267362D01*
X157926862Y-88137128D01*
X158029186Y-87983989D01*
X158099668Y-87813829D01*
X158135600Y-87633189D01*
X158135600Y-87449011D01*
X158099668Y-87268371D01*
X158029186Y-87098211D01*
X157926862Y-86945072D01*
X157796628Y-86814838D01*
X157643489Y-86712514D01*
X157473329Y-86642032D01*
X157292689Y-86606100D01*
X157108511Y-86606100D01*
X156927871Y-86642032D01*
X156833552Y-86681100D01*
X154738487Y-86681100D01*
X154724889Y-86672014D01*
X154554729Y-86601532D01*
X154374089Y-86565600D01*
X154189911Y-86565600D01*
X154009271Y-86601532D01*
X153839111Y-86672014D01*
X153685972Y-86774338D01*
X153555738Y-86904572D01*
X153453414Y-87057711D01*
X153382932Y-87227871D01*
X153347000Y-87408511D01*
X145449500Y-87408511D01*
X145449500Y-86168248D01*
X145488568Y-86073929D01*
X145524500Y-85893289D01*
X145524500Y-85709111D01*
X145488568Y-85528471D01*
X145418086Y-85358311D01*
X145315762Y-85205172D01*
X145185528Y-85074938D01*
X145032389Y-84972614D01*
X144862229Y-84902132D01*
X144681589Y-84866200D01*
X144497411Y-84866200D01*
X144316771Y-84902132D01*
X144146611Y-84972614D01*
X143993472Y-85074938D01*
X143863238Y-85205172D01*
X143760914Y-85358311D01*
X143690432Y-85528471D01*
X143654500Y-85709111D01*
X143654500Y-85893289D01*
X143690432Y-86073929D01*
X143729500Y-86168248D01*
X143729500Y-86267709D01*
X143729501Y-86267719D01*
X143729500Y-88797778D01*
X143453533Y-89073746D01*
X143359213Y-89112814D01*
X143206074Y-89215138D01*
X143075840Y-89345372D01*
X142973516Y-89498511D01*
X142903034Y-89668671D01*
X142867102Y-89849311D01*
X142867102Y-90033489D01*
X142867916Y-90037581D01*
X142622358Y-89935868D01*
X142335460Y-89878800D01*
X142042940Y-89878800D01*
X141756042Y-89935868D01*
X141485789Y-90047810D01*
X141242568Y-90210325D01*
X141035725Y-90417168D01*
X140919200Y-90591560D01*
X140802675Y-90417168D01*
X140595832Y-90210325D01*
X140352611Y-90047810D01*
X140082358Y-89935868D01*
X139795460Y-89878800D01*
X139502940Y-89878800D01*
X139216042Y-89935868D01*
X138945789Y-90047810D01*
X138702568Y-90210325D01*
X138495725Y-90417168D01*
X138333210Y-90660389D01*
X138221268Y-90930642D01*
X138164200Y-91217540D01*
X136054200Y-91217540D01*
X135997132Y-90930642D01*
X135885190Y-90660389D01*
X135722675Y-90417168D01*
X135515832Y-90210325D01*
X135272611Y-90047810D01*
X135002358Y-89935868D01*
X134715460Y-89878800D01*
X134422940Y-89878800D01*
X134136042Y-89935868D01*
X133865789Y-90047810D01*
X133622568Y-90210325D01*
X133490713Y-90342180D01*
X133468702Y-90269620D01*
X133409737Y-90159306D01*
X133330385Y-90062615D01*
X133233694Y-89983263D01*
X133123380Y-89924298D01*
X133003682Y-89887988D01*
X132879200Y-89875728D01*
X131207362Y-89875728D01*
X131333062Y-89750028D01*
X131333065Y-89750024D01*
X131535460Y-89547628D01*
X131535465Y-89547624D01*
X132581659Y-88501430D01*
X132617344Y-88472144D01*
X132734186Y-88329772D01*
X132793394Y-88219000D01*
X132821007Y-88167341D01*
X132874472Y-87991092D01*
X132892524Y-87807800D01*
X132888000Y-87761865D01*
X132888000Y-84210511D01*
X132878995Y-84165241D01*
X132874471Y-84119308D01*
X132861072Y-84075138D01*
X132852068Y-84029871D01*
X132834406Y-83987231D01*
X132821007Y-83943060D01*
X132799248Y-83902352D01*
X132781586Y-83859711D01*
X132755945Y-83821336D01*
X132734186Y-83780628D01*
X132704903Y-83744947D01*
X132679262Y-83706572D01*
X132646625Y-83673935D01*
X132617344Y-83638256D01*
X132581666Y-83608976D01*
X132549028Y-83576338D01*
X132510649Y-83550694D01*
X132474971Y-83521414D01*
X132474833Y-83521340D01*
X133439800Y-83521340D01*
X133439800Y-83813860D01*
X133496868Y-84100758D01*
X133608810Y-84371011D01*
X133771325Y-84614232D01*
X133978168Y-84821075D01*
X134221389Y-84983590D01*
X134491642Y-85095532D01*
X134778540Y-85152600D01*
X135071060Y-85152600D01*
X135357958Y-85095532D01*
X135628211Y-84983590D01*
X135871432Y-84821075D01*
X136078275Y-84614232D01*
X136240790Y-84371011D01*
X136352732Y-84100758D01*
X136409800Y-83813860D01*
X136409800Y-83521340D01*
X136352732Y-83234442D01*
X136240790Y-82964189D01*
X136078275Y-82720968D01*
X135871432Y-82514125D01*
X135628211Y-82351610D01*
X135357958Y-82239668D01*
X135071060Y-82182600D01*
X134778540Y-82182600D01*
X134491642Y-82239668D01*
X134221389Y-82351610D01*
X133978168Y-82514125D01*
X133771325Y-82720968D01*
X133608810Y-82964189D01*
X133496868Y-83234442D01*
X133439800Y-83521340D01*
X132474833Y-83521340D01*
X132434268Y-83499658D01*
X132395889Y-83474014D01*
X132353243Y-83456350D01*
X132312539Y-83434593D01*
X132268372Y-83421195D01*
X132225729Y-83403532D01*
X132180459Y-83394527D01*
X132136291Y-83381129D01*
X132090360Y-83376605D01*
X132045089Y-83367600D01*
X131998932Y-83367600D01*
X131953000Y-83363076D01*
X131907068Y-83367600D01*
X131860911Y-83367600D01*
X131815641Y-83376605D01*
X131769708Y-83381129D01*
X131725538Y-83394528D01*
X131680271Y-83403532D01*
X131637631Y-83421194D01*
X131593460Y-83434593D01*
X131552752Y-83456352D01*
X131510111Y-83474014D01*
X131471736Y-83499655D01*
X131431028Y-83521414D01*
X131395347Y-83550697D01*
X131356972Y-83576338D01*
X131324335Y-83608975D01*
X131288656Y-83638256D01*
X131259376Y-83673934D01*
X131226738Y-83706572D01*
X131201094Y-83744951D01*
X131171814Y-83780629D01*
X131150058Y-83821332D01*
X131124414Y-83859711D01*
X131106750Y-83902357D01*
X131084993Y-83943061D01*
X131071595Y-83987228D01*
X131053932Y-84029871D01*
X131044927Y-84075141D01*
X131031529Y-84119309D01*
X131027005Y-84165240D01*
X131018000Y-84210511D01*
X131018000Y-84256669D01*
X131018001Y-87420510D01*
X130213176Y-88225335D01*
X130213172Y-88225340D01*
X130010776Y-88427735D01*
X130010772Y-88427738D01*
X129880538Y-88557972D01*
X129854889Y-88596358D01*
X129825615Y-88632029D01*
X129803862Y-88672726D01*
X129778214Y-88711111D01*
X129760548Y-88753762D01*
X129738794Y-88794460D01*
X129725397Y-88838623D01*
X129707732Y-88881271D01*
X129698727Y-88926543D01*
X129685329Y-88970709D01*
X129680805Y-89016640D01*
X129671800Y-89061911D01*
X129671800Y-89108068D01*
X129667276Y-89154000D01*
X123875400Y-89154000D01*
X123875400Y-81305000D01*
X165100400Y-81305000D01*
X165100401Y-110465000D01*
M02*
