M48
; DRILL file {KiCad 5.1.5-52549c5~86~ubuntu18.04.1} date Sun 12 Apr 2020 16:23:42 BST
; FORMAT={-:-/ absolute / inch / decimal}
; #@! TF.CreationDate,2020-04-12T16:23:42+01:00
; #@! TF.GenerationSoftware,Kicad,Pcbnew,5.1.5-52549c5~86~ubuntu18.04.1
; #@! TF.FileFunction,Plated,1,2,PTH
FMAT,2
INCH
T1C0.0118
T2C0.0256
T3C0.0315
T4C0.0394
%
G90
G05
T1
X4.999Y-3.251
X5.1905Y-3.918
X5.4325Y-3.7425
X5.532Y-3.853
X5.532Y-3.993
X5.6025Y-3.2985
X5.606Y-3.366
X5.6296Y-4.2456
X5.6575Y-3.5475
X5.662Y-3.641
X5.6925Y-3.378
X5.767Y-3.378
X5.79Y-3.61
X5.805Y-3.7
X5.81Y-3.55
X5.858Y-3.378
X5.892Y-4.093
X5.9515Y-3.9185
X5.97Y-3.775
X6.006Y-3.412
X6.014Y-3.9185
X6.041Y-3.79
X6.0741Y-3.4449
X6.105Y-3.277
X6.126Y-3.79
X6.15Y-3.835
X6.189Y-3.4465
X6.205Y-3.79
X6.209Y-4.0335
X6.275Y-3.259
X6.38Y-3.25
T2
X5.4Y-3.6
X5.45Y-3.6
X5.5Y-3.6
X5.55Y-3.6
X5.6Y-3.6
T3
X5.11Y-3.755
X5.21Y-3.755
X5.31Y-3.755
T4
X5.312Y-3.294
X5.312Y-3.394
X5.44Y-4.137
X5.44Y-4.237
X5.607Y-4.133
X5.707Y-4.133
X5.807Y-4.133
X6.042Y-4.133
X6.142Y-4.133
X6.064Y-3.598
X6.164Y-3.598
T0
M30
