G04 #@! TF.GenerationSoftware,KiCad,Pcbnew,5.1.5-52549c5~84~ubuntu18.04.1*
G04 #@! TF.CreationDate,2020-03-31T23:43:49+01:00*
G04 #@! TF.ProjectId,OverdrivePedal_RevB,4f766572-6472-4697-9665-506564616c5f,RevB*
G04 #@! TF.SameCoordinates,Original*
G04 #@! TF.FileFunction,Soldermask,Top*
G04 #@! TF.FilePolarity,Negative*
%FSLAX46Y46*%
G04 Gerber Fmt 4.6, Leading zero omitted, Abs format (unit mm)*
G04 Created by KiCad (PCBNEW 5.1.5-52549c5~84~ubuntu18.04.1) date 2020-03-31 23:43:49*
%MOMM*%
%LPD*%
G04 APERTURE LIST*
%ADD10C,0.100000*%
G04 APERTURE END LIST*
D10*
G36*
X157218200Y-110355200D02*
G01*
X156116200Y-110355200D01*
X156116200Y-109253200D01*
X157218200Y-109253200D01*
X157218200Y-110355200D01*
G37*
G36*
X146518800Y-110044200D02*
G01*
X145716800Y-110044200D01*
X145716800Y-109432200D01*
X146518800Y-109432200D01*
X146518800Y-110044200D01*
G37*
G36*
X144198800Y-110044200D02*
G01*
X143396800Y-110044200D01*
X143396800Y-109432200D01*
X144198800Y-109432200D01*
X144198800Y-110044200D01*
G37*
G36*
X129972338Y-108775516D02*
G01*
X129992957Y-108781771D01*
X130011953Y-108791924D01*
X130028608Y-108805592D01*
X130042276Y-108822247D01*
X130052429Y-108841243D01*
X130058684Y-108861862D01*
X130061400Y-108889440D01*
X130061400Y-109398160D01*
X130058684Y-109425738D01*
X130052429Y-109446357D01*
X130042276Y-109465353D01*
X130028608Y-109482008D01*
X130011953Y-109495676D01*
X129992957Y-109505829D01*
X129972338Y-109512084D01*
X129944760Y-109514800D01*
X129486040Y-109514800D01*
X129458462Y-109512084D01*
X129437843Y-109505829D01*
X129418847Y-109495676D01*
X129402192Y-109482008D01*
X129388524Y-109465353D01*
X129378371Y-109446357D01*
X129372116Y-109425738D01*
X129369400Y-109398160D01*
X129369400Y-108889440D01*
X129372116Y-108861862D01*
X129378371Y-108841243D01*
X129388524Y-108822247D01*
X129402192Y-108805592D01*
X129418847Y-108791924D01*
X129437843Y-108781771D01*
X129458462Y-108775516D01*
X129486040Y-108772800D01*
X129944760Y-108772800D01*
X129972338Y-108775516D01*
G37*
G36*
X130942338Y-108775516D02*
G01*
X130962957Y-108781771D01*
X130981953Y-108791924D01*
X130998608Y-108805592D01*
X131012276Y-108822247D01*
X131022429Y-108841243D01*
X131028684Y-108861862D01*
X131031400Y-108889440D01*
X131031400Y-109398160D01*
X131028684Y-109425738D01*
X131022429Y-109446357D01*
X131012276Y-109465353D01*
X130998608Y-109482008D01*
X130981953Y-109495676D01*
X130962957Y-109505829D01*
X130942338Y-109512084D01*
X130914760Y-109514800D01*
X130456040Y-109514800D01*
X130428462Y-109512084D01*
X130407843Y-109505829D01*
X130388847Y-109495676D01*
X130372192Y-109482008D01*
X130358524Y-109465353D01*
X130348371Y-109446357D01*
X130342116Y-109425738D01*
X130339400Y-109398160D01*
X130339400Y-108889440D01*
X130342116Y-108861862D01*
X130348371Y-108841243D01*
X130358524Y-108822247D01*
X130372192Y-108805592D01*
X130388847Y-108791924D01*
X130407843Y-108781771D01*
X130428462Y-108775516D01*
X130456040Y-108772800D01*
X130914760Y-108772800D01*
X130942338Y-108775516D01*
G37*
G36*
X134549000Y-109419800D02*
G01*
X131897000Y-109419800D01*
X131897000Y-107757800D01*
X134549000Y-107757800D01*
X134549000Y-109419800D01*
G37*
G36*
X146518800Y-109094200D02*
G01*
X145716800Y-109094200D01*
X145716800Y-108482200D01*
X146518800Y-108482200D01*
X146518800Y-109094200D01*
G37*
G36*
X144198800Y-109094200D02*
G01*
X143396800Y-109094200D01*
X143396800Y-108482200D01*
X144198800Y-108482200D01*
X144198800Y-109094200D01*
G37*
G36*
X151300000Y-108551800D02*
G01*
X150198000Y-108551800D01*
X150198000Y-107449800D01*
X151300000Y-107449800D01*
X151300000Y-108551800D01*
G37*
G36*
X138289512Y-106723727D02*
G01*
X138438812Y-106753424D01*
X138602784Y-106821344D01*
X138750354Y-106919947D01*
X138875853Y-107045446D01*
X138974456Y-107193016D01*
X139042376Y-107356988D01*
X139060837Y-107449800D01*
X139073999Y-107515969D01*
X139077000Y-107531059D01*
X139077000Y-107708541D01*
X139042376Y-107882612D01*
X138974456Y-108046584D01*
X138875853Y-108194154D01*
X138750354Y-108319653D01*
X138602784Y-108418256D01*
X138438812Y-108486176D01*
X138289512Y-108515873D01*
X138264742Y-108520800D01*
X138087258Y-108520800D01*
X138062488Y-108515873D01*
X137913188Y-108486176D01*
X137749216Y-108418256D01*
X137601646Y-108319653D01*
X137476147Y-108194154D01*
X137377544Y-108046584D01*
X137309624Y-107882612D01*
X137275000Y-107708541D01*
X137275000Y-107531059D01*
X137278002Y-107515969D01*
X137291163Y-107449800D01*
X137309624Y-107356988D01*
X137377544Y-107193016D01*
X137476147Y-107045446D01*
X137601646Y-106919947D01*
X137749216Y-106821344D01*
X137913188Y-106753424D01*
X138062488Y-106723727D01*
X138087258Y-106718800D01*
X138264742Y-106718800D01*
X138289512Y-106723727D01*
G37*
G36*
X126505562Y-106773181D02*
G01*
X126540481Y-106783774D01*
X126572663Y-106800976D01*
X126600873Y-106824127D01*
X126624024Y-106852337D01*
X126641226Y-106884519D01*
X126651819Y-106919438D01*
X126656000Y-106961895D01*
X126656000Y-108103105D01*
X126651819Y-108145562D01*
X126641226Y-108180481D01*
X126624024Y-108212663D01*
X126600873Y-108240873D01*
X126572663Y-108264024D01*
X126540481Y-108281226D01*
X126505562Y-108291819D01*
X126463105Y-108296000D01*
X124996895Y-108296000D01*
X124954438Y-108291819D01*
X124919519Y-108281226D01*
X124887337Y-108264024D01*
X124859127Y-108240873D01*
X124835976Y-108212663D01*
X124818774Y-108180481D01*
X124808181Y-108145562D01*
X124804000Y-108103105D01*
X124804000Y-106961895D01*
X124808181Y-106919438D01*
X124818774Y-106884519D01*
X124835976Y-106852337D01*
X124859127Y-106824127D01*
X124887337Y-106800976D01*
X124919519Y-106783774D01*
X124954438Y-106773181D01*
X124996895Y-106769000D01*
X126463105Y-106769000D01*
X126505562Y-106773181D01*
G37*
G36*
X163970562Y-106773181D02*
G01*
X164005481Y-106783774D01*
X164037663Y-106800976D01*
X164065873Y-106824127D01*
X164089024Y-106852337D01*
X164106226Y-106884519D01*
X164116819Y-106919438D01*
X164121000Y-106961895D01*
X164121000Y-108103105D01*
X164116819Y-108145562D01*
X164106226Y-108180481D01*
X164089024Y-108212663D01*
X164065873Y-108240873D01*
X164037663Y-108264024D01*
X164005481Y-108281226D01*
X163970562Y-108291819D01*
X163928105Y-108296000D01*
X162461895Y-108296000D01*
X162419438Y-108291819D01*
X162384519Y-108281226D01*
X162352337Y-108264024D01*
X162324127Y-108240873D01*
X162300976Y-108212663D01*
X162283774Y-108180481D01*
X162273181Y-108145562D01*
X162269000Y-108103105D01*
X162269000Y-106961895D01*
X162273181Y-106919438D01*
X162283774Y-106884519D01*
X162300976Y-106852337D01*
X162324127Y-106824127D01*
X162352337Y-106800976D01*
X162384519Y-106783774D01*
X162419438Y-106773181D01*
X162461895Y-106769000D01*
X163928105Y-106769000D01*
X163970562Y-106773181D01*
G37*
G36*
X130942338Y-107505516D02*
G01*
X130962957Y-107511771D01*
X130981953Y-107521924D01*
X130998608Y-107535592D01*
X131012276Y-107552247D01*
X131022429Y-107571243D01*
X131028684Y-107591862D01*
X131031400Y-107619440D01*
X131031400Y-108128160D01*
X131028684Y-108155738D01*
X131022429Y-108176357D01*
X131012276Y-108195353D01*
X130998608Y-108212008D01*
X130981953Y-108225676D01*
X130962957Y-108235829D01*
X130942338Y-108242084D01*
X130914760Y-108244800D01*
X130456040Y-108244800D01*
X130428462Y-108242084D01*
X130407843Y-108235829D01*
X130388847Y-108225676D01*
X130372192Y-108212008D01*
X130358524Y-108195353D01*
X130348371Y-108176357D01*
X130342116Y-108155738D01*
X130339400Y-108128160D01*
X130339400Y-107619440D01*
X130342116Y-107591862D01*
X130348371Y-107571243D01*
X130358524Y-107552247D01*
X130372192Y-107535592D01*
X130388847Y-107521924D01*
X130407843Y-107511771D01*
X130428462Y-107505516D01*
X130456040Y-107502800D01*
X130914760Y-107502800D01*
X130942338Y-107505516D01*
G37*
G36*
X129972338Y-107505516D02*
G01*
X129992957Y-107511771D01*
X130011953Y-107521924D01*
X130028608Y-107535592D01*
X130042276Y-107552247D01*
X130052429Y-107571243D01*
X130058684Y-107591862D01*
X130061400Y-107619440D01*
X130061400Y-108128160D01*
X130058684Y-108155738D01*
X130052429Y-108176357D01*
X130042276Y-108195353D01*
X130028608Y-108212008D01*
X130011953Y-108225676D01*
X129992957Y-108235829D01*
X129972338Y-108242084D01*
X129944760Y-108244800D01*
X129486040Y-108244800D01*
X129458462Y-108242084D01*
X129437843Y-108235829D01*
X129418847Y-108225676D01*
X129402192Y-108212008D01*
X129388524Y-108195353D01*
X129378371Y-108176357D01*
X129372116Y-108155738D01*
X129369400Y-108128160D01*
X129369400Y-107619440D01*
X129372116Y-107591862D01*
X129378371Y-107571243D01*
X129388524Y-107552247D01*
X129402192Y-107535592D01*
X129418847Y-107521924D01*
X129437843Y-107511771D01*
X129458462Y-107505516D01*
X129486040Y-107502800D01*
X129944760Y-107502800D01*
X129972338Y-107505516D01*
G37*
G36*
X146518800Y-108144200D02*
G01*
X145716800Y-108144200D01*
X145716800Y-107532200D01*
X146518800Y-107532200D01*
X146518800Y-108144200D01*
G37*
G36*
X144198800Y-108144200D02*
G01*
X143396800Y-108144200D01*
X143396800Y-107532200D01*
X144198800Y-107532200D01*
X144198800Y-108144200D01*
G37*
G36*
X130942338Y-106235516D02*
G01*
X130962957Y-106241771D01*
X130981953Y-106251924D01*
X130998608Y-106265592D01*
X131012276Y-106282247D01*
X131022429Y-106301243D01*
X131028684Y-106321862D01*
X131031400Y-106349440D01*
X131031400Y-106858160D01*
X131028684Y-106885738D01*
X131022429Y-106906357D01*
X131012276Y-106925353D01*
X130998608Y-106942008D01*
X130981953Y-106955676D01*
X130962957Y-106965829D01*
X130942338Y-106972084D01*
X130914760Y-106974800D01*
X130456040Y-106974800D01*
X130428462Y-106972084D01*
X130407843Y-106965829D01*
X130388847Y-106955676D01*
X130372192Y-106942008D01*
X130358524Y-106925353D01*
X130348371Y-106906357D01*
X130342116Y-106885738D01*
X130339400Y-106858160D01*
X130339400Y-106349440D01*
X130342116Y-106321862D01*
X130348371Y-106301243D01*
X130358524Y-106282247D01*
X130372192Y-106265592D01*
X130388847Y-106251924D01*
X130407843Y-106241771D01*
X130428462Y-106235516D01*
X130456040Y-106232800D01*
X130914760Y-106232800D01*
X130942338Y-106235516D01*
G37*
G36*
X129972338Y-106235516D02*
G01*
X129992957Y-106241771D01*
X130011953Y-106251924D01*
X130028608Y-106265592D01*
X130042276Y-106282247D01*
X130052429Y-106301243D01*
X130058684Y-106321862D01*
X130061400Y-106349440D01*
X130061400Y-106858160D01*
X130058684Y-106885738D01*
X130052429Y-106906357D01*
X130042276Y-106925353D01*
X130028608Y-106942008D01*
X130011953Y-106955676D01*
X129992957Y-106965829D01*
X129972338Y-106972084D01*
X129944760Y-106974800D01*
X129486040Y-106974800D01*
X129458462Y-106972084D01*
X129437843Y-106965829D01*
X129418847Y-106955676D01*
X129402192Y-106942008D01*
X129388524Y-106925353D01*
X129378371Y-106906357D01*
X129372116Y-106885738D01*
X129369400Y-106858160D01*
X129369400Y-106349440D01*
X129372116Y-106321862D01*
X129378371Y-106301243D01*
X129388524Y-106282247D01*
X129402192Y-106265592D01*
X129418847Y-106251924D01*
X129437843Y-106241771D01*
X129458462Y-106235516D01*
X129486040Y-106232800D01*
X129944760Y-106232800D01*
X129972338Y-106235516D01*
G37*
G36*
X132649000Y-106719800D02*
G01*
X131897000Y-106719800D01*
X131897000Y-105057800D01*
X132649000Y-105057800D01*
X132649000Y-106719800D01*
G37*
G36*
X134549000Y-106719800D02*
G01*
X133797000Y-106719800D01*
X133797000Y-105057800D01*
X134549000Y-105057800D01*
X134549000Y-106719800D01*
G37*
G36*
X139077000Y-105980800D02*
G01*
X137275000Y-105980800D01*
X137275000Y-104178800D01*
X139077000Y-104178800D01*
X139077000Y-105980800D01*
G37*
G36*
X156907800Y-105879200D02*
G01*
X155105800Y-105879200D01*
X155105800Y-104077200D01*
X156907800Y-104077200D01*
X156907800Y-105879200D01*
G37*
G36*
X142531312Y-104082127D02*
G01*
X142680612Y-104111824D01*
X142844584Y-104179744D01*
X142992154Y-104278347D01*
X143117653Y-104403846D01*
X143216256Y-104551416D01*
X143284176Y-104715388D01*
X143318800Y-104889459D01*
X143318800Y-105066941D01*
X143284176Y-105241012D01*
X143216256Y-105404984D01*
X143117653Y-105552554D01*
X142992154Y-105678053D01*
X142844584Y-105776656D01*
X142680612Y-105844576D01*
X142531312Y-105874273D01*
X142506542Y-105879200D01*
X142329058Y-105879200D01*
X142304288Y-105874273D01*
X142154988Y-105844576D01*
X141991016Y-105776656D01*
X141843446Y-105678053D01*
X141717947Y-105552554D01*
X141619344Y-105404984D01*
X141551424Y-105241012D01*
X141516800Y-105066941D01*
X141516800Y-104889459D01*
X141551424Y-104715388D01*
X141619344Y-104551416D01*
X141717947Y-104403846D01*
X141843446Y-104278347D01*
X141991016Y-104179744D01*
X142154988Y-104111824D01*
X142304288Y-104082127D01*
X142329058Y-104077200D01*
X142506542Y-104077200D01*
X142531312Y-104082127D01*
G37*
G36*
X145071312Y-104082127D02*
G01*
X145220612Y-104111824D01*
X145384584Y-104179744D01*
X145532154Y-104278347D01*
X145657653Y-104403846D01*
X145756256Y-104551416D01*
X145824176Y-104715388D01*
X145858800Y-104889459D01*
X145858800Y-105066941D01*
X145824176Y-105241012D01*
X145756256Y-105404984D01*
X145657653Y-105552554D01*
X145532154Y-105678053D01*
X145384584Y-105776656D01*
X145220612Y-105844576D01*
X145071312Y-105874273D01*
X145046542Y-105879200D01*
X144869058Y-105879200D01*
X144844288Y-105874273D01*
X144694988Y-105844576D01*
X144531016Y-105776656D01*
X144383446Y-105678053D01*
X144257947Y-105552554D01*
X144159344Y-105404984D01*
X144091424Y-105241012D01*
X144056800Y-105066941D01*
X144056800Y-104889459D01*
X144091424Y-104715388D01*
X144159344Y-104551416D01*
X144257947Y-104403846D01*
X144383446Y-104278347D01*
X144531016Y-104179744D01*
X144694988Y-104111824D01*
X144844288Y-104082127D01*
X144869058Y-104077200D01*
X145046542Y-104077200D01*
X145071312Y-104082127D01*
G37*
G36*
X148398800Y-105879200D02*
G01*
X146596800Y-105879200D01*
X146596800Y-104077200D01*
X148398800Y-104077200D01*
X148398800Y-105879200D01*
G37*
G36*
X153580312Y-104082127D02*
G01*
X153729612Y-104111824D01*
X153893584Y-104179744D01*
X154041154Y-104278347D01*
X154166653Y-104403846D01*
X154265256Y-104551416D01*
X154333176Y-104715388D01*
X154367800Y-104889459D01*
X154367800Y-105066941D01*
X154333176Y-105241012D01*
X154265256Y-105404984D01*
X154166653Y-105552554D01*
X154041154Y-105678053D01*
X153893584Y-105776656D01*
X153729612Y-105844576D01*
X153580312Y-105874273D01*
X153555542Y-105879200D01*
X153378058Y-105879200D01*
X153353288Y-105874273D01*
X153203988Y-105844576D01*
X153040016Y-105776656D01*
X152892446Y-105678053D01*
X152766947Y-105552554D01*
X152668344Y-105404984D01*
X152600424Y-105241012D01*
X152565800Y-105066941D01*
X152565800Y-104889459D01*
X152600424Y-104715388D01*
X152668344Y-104551416D01*
X152766947Y-104403846D01*
X152892446Y-104278347D01*
X153040016Y-104179744D01*
X153203988Y-104111824D01*
X153353288Y-104082127D01*
X153378058Y-104077200D01*
X153555542Y-104077200D01*
X153580312Y-104082127D01*
G37*
G36*
X129972338Y-104965516D02*
G01*
X129992957Y-104971771D01*
X130011953Y-104981924D01*
X130028608Y-104995592D01*
X130042276Y-105012247D01*
X130052429Y-105031243D01*
X130058684Y-105051862D01*
X130061400Y-105079440D01*
X130061400Y-105588160D01*
X130058684Y-105615738D01*
X130052429Y-105636357D01*
X130042276Y-105655353D01*
X130028608Y-105672008D01*
X130011953Y-105685676D01*
X129992957Y-105695829D01*
X129972338Y-105702084D01*
X129944760Y-105704800D01*
X129486040Y-105704800D01*
X129458462Y-105702084D01*
X129437843Y-105695829D01*
X129418847Y-105685676D01*
X129402192Y-105672008D01*
X129388524Y-105655353D01*
X129378371Y-105636357D01*
X129372116Y-105615738D01*
X129369400Y-105588160D01*
X129369400Y-105079440D01*
X129372116Y-105051862D01*
X129378371Y-105031243D01*
X129388524Y-105012247D01*
X129402192Y-104995592D01*
X129418847Y-104981924D01*
X129437843Y-104971771D01*
X129458462Y-104965516D01*
X129486040Y-104962800D01*
X129944760Y-104962800D01*
X129972338Y-104965516D01*
G37*
G36*
X130942338Y-104965516D02*
G01*
X130962957Y-104971771D01*
X130981953Y-104981924D01*
X130998608Y-104995592D01*
X131012276Y-105012247D01*
X131022429Y-105031243D01*
X131028684Y-105051862D01*
X131031400Y-105079440D01*
X131031400Y-105588160D01*
X131028684Y-105615738D01*
X131022429Y-105636357D01*
X131012276Y-105655353D01*
X130998608Y-105672008D01*
X130981953Y-105685676D01*
X130962957Y-105695829D01*
X130942338Y-105702084D01*
X130914760Y-105704800D01*
X130456040Y-105704800D01*
X130428462Y-105702084D01*
X130407843Y-105695829D01*
X130388847Y-105685676D01*
X130372192Y-105672008D01*
X130358524Y-105655353D01*
X130348371Y-105636357D01*
X130342116Y-105615738D01*
X130339400Y-105588160D01*
X130339400Y-105079440D01*
X130342116Y-105051862D01*
X130348371Y-105031243D01*
X130358524Y-105012247D01*
X130372192Y-104995592D01*
X130388847Y-104981924D01*
X130407843Y-104971771D01*
X130428462Y-104965516D01*
X130456040Y-104962800D01*
X130914760Y-104962800D01*
X130942338Y-104965516D01*
G37*
G36*
X163970562Y-103798181D02*
G01*
X164005481Y-103808774D01*
X164037663Y-103825976D01*
X164065873Y-103849127D01*
X164089024Y-103877337D01*
X164106226Y-103909519D01*
X164116819Y-103944438D01*
X164121000Y-103986895D01*
X164121000Y-105128105D01*
X164116819Y-105170562D01*
X164106226Y-105205481D01*
X164089024Y-105237663D01*
X164065873Y-105265873D01*
X164037663Y-105289024D01*
X164005481Y-105306226D01*
X163970562Y-105316819D01*
X163928105Y-105321000D01*
X162461895Y-105321000D01*
X162419438Y-105316819D01*
X162384519Y-105306226D01*
X162352337Y-105289024D01*
X162324127Y-105265873D01*
X162300976Y-105237663D01*
X162283774Y-105205481D01*
X162273181Y-105170562D01*
X162269000Y-105128105D01*
X162269000Y-103986895D01*
X162273181Y-103944438D01*
X162283774Y-103909519D01*
X162300976Y-103877337D01*
X162324127Y-103849127D01*
X162352337Y-103825976D01*
X162384519Y-103808774D01*
X162419438Y-103798181D01*
X162461895Y-103794000D01*
X163928105Y-103794000D01*
X163970562Y-103798181D01*
G37*
G36*
X126505562Y-103798181D02*
G01*
X126540481Y-103808774D01*
X126572663Y-103825976D01*
X126600873Y-103849127D01*
X126624024Y-103877337D01*
X126641226Y-103909519D01*
X126651819Y-103944438D01*
X126656000Y-103986895D01*
X126656000Y-105128105D01*
X126651819Y-105170562D01*
X126641226Y-105205481D01*
X126624024Y-105237663D01*
X126600873Y-105265873D01*
X126572663Y-105289024D01*
X126540481Y-105306226D01*
X126505562Y-105316819D01*
X126463105Y-105321000D01*
X124996895Y-105321000D01*
X124954438Y-105316819D01*
X124919519Y-105306226D01*
X124887337Y-105289024D01*
X124859127Y-105265873D01*
X124835976Y-105237663D01*
X124818774Y-105205481D01*
X124808181Y-105170562D01*
X124804000Y-105128105D01*
X124804000Y-103986895D01*
X124808181Y-103944438D01*
X124818774Y-103909519D01*
X124835976Y-103877337D01*
X124859127Y-103849127D01*
X124887337Y-103825976D01*
X124919519Y-103808774D01*
X124954438Y-103798181D01*
X124996895Y-103794000D01*
X126463105Y-103794000D01*
X126505562Y-103798181D01*
G37*
G36*
X150827738Y-104611916D02*
G01*
X150848357Y-104618171D01*
X150867353Y-104628324D01*
X150884008Y-104641992D01*
X150897676Y-104658647D01*
X150907829Y-104677643D01*
X150914084Y-104698262D01*
X150916800Y-104725840D01*
X150916800Y-105184560D01*
X150914084Y-105212138D01*
X150907829Y-105232757D01*
X150897676Y-105251753D01*
X150884008Y-105268408D01*
X150867353Y-105282076D01*
X150848357Y-105292229D01*
X150827738Y-105298484D01*
X150800160Y-105301200D01*
X150291440Y-105301200D01*
X150263862Y-105298484D01*
X150243243Y-105292229D01*
X150224247Y-105282076D01*
X150207592Y-105268408D01*
X150193924Y-105251753D01*
X150183771Y-105232757D01*
X150177516Y-105212138D01*
X150174800Y-105184560D01*
X150174800Y-104725840D01*
X150177516Y-104698262D01*
X150183771Y-104677643D01*
X150193924Y-104658647D01*
X150207592Y-104641992D01*
X150224247Y-104628324D01*
X150243243Y-104618171D01*
X150263862Y-104611916D01*
X150291440Y-104609200D01*
X150800160Y-104609200D01*
X150827738Y-104611916D01*
G37*
G36*
X132486938Y-103822516D02*
G01*
X132507557Y-103828771D01*
X132526553Y-103838924D01*
X132543208Y-103852592D01*
X132556876Y-103869247D01*
X132567029Y-103888243D01*
X132573284Y-103908862D01*
X132576000Y-103936440D01*
X132576000Y-104445160D01*
X132573284Y-104472738D01*
X132567029Y-104493357D01*
X132556876Y-104512353D01*
X132543208Y-104529008D01*
X132526553Y-104542676D01*
X132507557Y-104552829D01*
X132486938Y-104559084D01*
X132459360Y-104561800D01*
X132000640Y-104561800D01*
X131973062Y-104559084D01*
X131952443Y-104552829D01*
X131933447Y-104542676D01*
X131916792Y-104529008D01*
X131903124Y-104512353D01*
X131892971Y-104493357D01*
X131886716Y-104472738D01*
X131884000Y-104445160D01*
X131884000Y-103936440D01*
X131886716Y-103908862D01*
X131892971Y-103888243D01*
X131903124Y-103869247D01*
X131916792Y-103852592D01*
X131933447Y-103838924D01*
X131952443Y-103828771D01*
X131973062Y-103822516D01*
X132000640Y-103819800D01*
X132459360Y-103819800D01*
X132486938Y-103822516D01*
G37*
G36*
X133456938Y-103822516D02*
G01*
X133477557Y-103828771D01*
X133496553Y-103838924D01*
X133513208Y-103852592D01*
X133526876Y-103869247D01*
X133537029Y-103888243D01*
X133543284Y-103908862D01*
X133546000Y-103936440D01*
X133546000Y-104445160D01*
X133543284Y-104472738D01*
X133537029Y-104493357D01*
X133526876Y-104512353D01*
X133513208Y-104529008D01*
X133496553Y-104542676D01*
X133477557Y-104552829D01*
X133456938Y-104559084D01*
X133429360Y-104561800D01*
X132970640Y-104561800D01*
X132943062Y-104559084D01*
X132922443Y-104552829D01*
X132903447Y-104542676D01*
X132886792Y-104529008D01*
X132873124Y-104512353D01*
X132862971Y-104493357D01*
X132856716Y-104472738D01*
X132854000Y-104445160D01*
X132854000Y-103936440D01*
X132856716Y-103908862D01*
X132862971Y-103888243D01*
X132873124Y-103869247D01*
X132886792Y-103852592D01*
X132903447Y-103838924D01*
X132922443Y-103828771D01*
X132943062Y-103822516D01*
X132970640Y-103819800D01*
X133429360Y-103819800D01*
X133456938Y-103822516D01*
G37*
G36*
X150827738Y-103641916D02*
G01*
X150848357Y-103648171D01*
X150867353Y-103658324D01*
X150884008Y-103671992D01*
X150897676Y-103688647D01*
X150907829Y-103707643D01*
X150914084Y-103728262D01*
X150916800Y-103755840D01*
X150916800Y-104214560D01*
X150914084Y-104242138D01*
X150907829Y-104262757D01*
X150897676Y-104281753D01*
X150884008Y-104298408D01*
X150867353Y-104312076D01*
X150848357Y-104322229D01*
X150827738Y-104328484D01*
X150800160Y-104331200D01*
X150291440Y-104331200D01*
X150263862Y-104328484D01*
X150243243Y-104322229D01*
X150224247Y-104312076D01*
X150207592Y-104298408D01*
X150193924Y-104281753D01*
X150183771Y-104262757D01*
X150177516Y-104242138D01*
X150174800Y-104214560D01*
X150174800Y-103755840D01*
X150177516Y-103728262D01*
X150183771Y-103707643D01*
X150193924Y-103688647D01*
X150207592Y-103671992D01*
X150224247Y-103658324D01*
X150243243Y-103648171D01*
X150263862Y-103641916D01*
X150291440Y-103639200D01*
X150800160Y-103639200D01*
X150827738Y-103641916D01*
G37*
G36*
X151414738Y-101053916D02*
G01*
X151435357Y-101060171D01*
X151454353Y-101070324D01*
X151471008Y-101083992D01*
X151484676Y-101100647D01*
X151494829Y-101119643D01*
X151501084Y-101140262D01*
X151503800Y-101167840D01*
X151503800Y-101676560D01*
X151501084Y-101704138D01*
X151494829Y-101724757D01*
X151484676Y-101743753D01*
X151471008Y-101760408D01*
X151454353Y-101774076D01*
X151435357Y-101784229D01*
X151414738Y-101790484D01*
X151387160Y-101793200D01*
X150928440Y-101793200D01*
X150900862Y-101790484D01*
X150880243Y-101784229D01*
X150861247Y-101774076D01*
X150844592Y-101760408D01*
X150830924Y-101743753D01*
X150820771Y-101724757D01*
X150814516Y-101704138D01*
X150811800Y-101676560D01*
X150811800Y-101167840D01*
X150814516Y-101140262D01*
X150820771Y-101119643D01*
X150830924Y-101100647D01*
X150844592Y-101083992D01*
X150861247Y-101070324D01*
X150880243Y-101060171D01*
X150900862Y-101053916D01*
X150928440Y-101051200D01*
X151387160Y-101051200D01*
X151414738Y-101053916D01*
G37*
G36*
X139984738Y-101053916D02*
G01*
X140005357Y-101060171D01*
X140024353Y-101070324D01*
X140041008Y-101083992D01*
X140054676Y-101100647D01*
X140064829Y-101119643D01*
X140071084Y-101140262D01*
X140073800Y-101167840D01*
X140073800Y-101676560D01*
X140071084Y-101704138D01*
X140064829Y-101724757D01*
X140054676Y-101743753D01*
X140041008Y-101760408D01*
X140024353Y-101774076D01*
X140005357Y-101784229D01*
X139984738Y-101790484D01*
X139957160Y-101793200D01*
X139498440Y-101793200D01*
X139470862Y-101790484D01*
X139450243Y-101784229D01*
X139431247Y-101774076D01*
X139414592Y-101760408D01*
X139400924Y-101743753D01*
X139390771Y-101724757D01*
X139384516Y-101704138D01*
X139381800Y-101676560D01*
X139381800Y-101167840D01*
X139384516Y-101140262D01*
X139390771Y-101119643D01*
X139400924Y-101100647D01*
X139414592Y-101083992D01*
X139431247Y-101070324D01*
X139450243Y-101060171D01*
X139470862Y-101053916D01*
X139498440Y-101051200D01*
X139957160Y-101051200D01*
X139984738Y-101053916D01*
G37*
G36*
X150444738Y-101053916D02*
G01*
X150465357Y-101060171D01*
X150484353Y-101070324D01*
X150501008Y-101083992D01*
X150514676Y-101100647D01*
X150524829Y-101119643D01*
X150531084Y-101140262D01*
X150533800Y-101167840D01*
X150533800Y-101676560D01*
X150531084Y-101704138D01*
X150524829Y-101724757D01*
X150514676Y-101743753D01*
X150501008Y-101760408D01*
X150484353Y-101774076D01*
X150465357Y-101784229D01*
X150444738Y-101790484D01*
X150417160Y-101793200D01*
X149958440Y-101793200D01*
X149930862Y-101790484D01*
X149910243Y-101784229D01*
X149891247Y-101774076D01*
X149874592Y-101760408D01*
X149860924Y-101743753D01*
X149850771Y-101724757D01*
X149844516Y-101704138D01*
X149841800Y-101676560D01*
X149841800Y-101167840D01*
X149844516Y-101140262D01*
X149850771Y-101119643D01*
X149860924Y-101100647D01*
X149874592Y-101083992D01*
X149891247Y-101070324D01*
X149910243Y-101060171D01*
X149930862Y-101053916D01*
X149958440Y-101051200D01*
X150417160Y-101051200D01*
X150444738Y-101053916D01*
G37*
G36*
X139014738Y-101053916D02*
G01*
X139035357Y-101060171D01*
X139054353Y-101070324D01*
X139071008Y-101083992D01*
X139084676Y-101100647D01*
X139094829Y-101119643D01*
X139101084Y-101140262D01*
X139103800Y-101167840D01*
X139103800Y-101676560D01*
X139101084Y-101704138D01*
X139094829Y-101724757D01*
X139084676Y-101743753D01*
X139071008Y-101760408D01*
X139054353Y-101774076D01*
X139035357Y-101784229D01*
X139014738Y-101790484D01*
X138987160Y-101793200D01*
X138528440Y-101793200D01*
X138500862Y-101790484D01*
X138480243Y-101784229D01*
X138461247Y-101774076D01*
X138444592Y-101760408D01*
X138430924Y-101743753D01*
X138420771Y-101724757D01*
X138414516Y-101704138D01*
X138411800Y-101676560D01*
X138411800Y-101167840D01*
X138414516Y-101140262D01*
X138420771Y-101119643D01*
X138430924Y-101100647D01*
X138444592Y-101083992D01*
X138461247Y-101070324D01*
X138480243Y-101060171D01*
X138500862Y-101053916D01*
X138528440Y-101051200D01*
X138987160Y-101051200D01*
X139014738Y-101053916D01*
G37*
G36*
X143417728Y-101073964D02*
G01*
X143438809Y-101080360D01*
X143458245Y-101090748D01*
X143475276Y-101104724D01*
X143489252Y-101121755D01*
X143499640Y-101141191D01*
X143506036Y-101162272D01*
X143508800Y-101190340D01*
X143508800Y-101654060D01*
X143506036Y-101682128D01*
X143499640Y-101703209D01*
X143489252Y-101722645D01*
X143475276Y-101739676D01*
X143458245Y-101753652D01*
X143438809Y-101764040D01*
X143417728Y-101770436D01*
X143389660Y-101773200D01*
X141575940Y-101773200D01*
X141547872Y-101770436D01*
X141526791Y-101764040D01*
X141507355Y-101753652D01*
X141490324Y-101739676D01*
X141476348Y-101722645D01*
X141465960Y-101703209D01*
X141459564Y-101682128D01*
X141456800Y-101654060D01*
X141456800Y-101190340D01*
X141459564Y-101162272D01*
X141465960Y-101141191D01*
X141476348Y-101121755D01*
X141490324Y-101104724D01*
X141507355Y-101090748D01*
X141526791Y-101080360D01*
X141547872Y-101073964D01*
X141575940Y-101071200D01*
X143389660Y-101071200D01*
X143417728Y-101073964D01*
G37*
G36*
X148367728Y-101073964D02*
G01*
X148388809Y-101080360D01*
X148408245Y-101090748D01*
X148425276Y-101104724D01*
X148439252Y-101121755D01*
X148449640Y-101141191D01*
X148456036Y-101162272D01*
X148458800Y-101190340D01*
X148458800Y-101654060D01*
X148456036Y-101682128D01*
X148449640Y-101703209D01*
X148439252Y-101722645D01*
X148425276Y-101739676D01*
X148408245Y-101753652D01*
X148388809Y-101764040D01*
X148367728Y-101770436D01*
X148339660Y-101773200D01*
X146525940Y-101773200D01*
X146497872Y-101770436D01*
X146476791Y-101764040D01*
X146457355Y-101753652D01*
X146440324Y-101739676D01*
X146426348Y-101722645D01*
X146415960Y-101703209D01*
X146409564Y-101682128D01*
X146406800Y-101654060D01*
X146406800Y-101190340D01*
X146409564Y-101162272D01*
X146415960Y-101141191D01*
X146426348Y-101121755D01*
X146440324Y-101104724D01*
X146457355Y-101090748D01*
X146476791Y-101080360D01*
X146497872Y-101073964D01*
X146525940Y-101071200D01*
X148339660Y-101071200D01*
X148367728Y-101073964D01*
G37*
G36*
X154121800Y-101728200D02*
G01*
X153319800Y-101728200D01*
X153319800Y-101116200D01*
X154121800Y-101116200D01*
X154121800Y-101728200D01*
G37*
G36*
X156441800Y-101728200D02*
G01*
X155639800Y-101728200D01*
X155639800Y-101116200D01*
X156441800Y-101116200D01*
X156441800Y-101728200D01*
G37*
G36*
X133200600Y-101725700D02*
G01*
X132398600Y-101725700D01*
X132398600Y-101113700D01*
X133200600Y-101113700D01*
X133200600Y-101725700D01*
G37*
G36*
X135520600Y-101725700D02*
G01*
X134718600Y-101725700D01*
X134718600Y-101113700D01*
X135520600Y-101113700D01*
X135520600Y-101725700D01*
G37*
G36*
X163970562Y-99788181D02*
G01*
X164005481Y-99798774D01*
X164037663Y-99815976D01*
X164065873Y-99839127D01*
X164089024Y-99867337D01*
X164106226Y-99899519D01*
X164116819Y-99934438D01*
X164121000Y-99976895D01*
X164121000Y-101118105D01*
X164116819Y-101160562D01*
X164106226Y-101195481D01*
X164089024Y-101227663D01*
X164065873Y-101255873D01*
X164037663Y-101279024D01*
X164005481Y-101296226D01*
X163970562Y-101306819D01*
X163928105Y-101311000D01*
X162461895Y-101311000D01*
X162419438Y-101306819D01*
X162384519Y-101296226D01*
X162352337Y-101279024D01*
X162324127Y-101255873D01*
X162300976Y-101227663D01*
X162283774Y-101195481D01*
X162273181Y-101160562D01*
X162269000Y-101118105D01*
X162269000Y-99976895D01*
X162273181Y-99934438D01*
X162283774Y-99899519D01*
X162300976Y-99867337D01*
X162324127Y-99839127D01*
X162352337Y-99815976D01*
X162384519Y-99798774D01*
X162419438Y-99788181D01*
X162461895Y-99784000D01*
X163928105Y-99784000D01*
X163970562Y-99788181D01*
G37*
G36*
X126505562Y-99788181D02*
G01*
X126540481Y-99798774D01*
X126572663Y-99815976D01*
X126600873Y-99839127D01*
X126624024Y-99867337D01*
X126641226Y-99899519D01*
X126651819Y-99934438D01*
X126656000Y-99976895D01*
X126656000Y-101118105D01*
X126651819Y-101160562D01*
X126641226Y-101195481D01*
X126624024Y-101227663D01*
X126600873Y-101255873D01*
X126572663Y-101279024D01*
X126540481Y-101296226D01*
X126505562Y-101306819D01*
X126463105Y-101311000D01*
X124996895Y-101311000D01*
X124954438Y-101306819D01*
X124919519Y-101296226D01*
X124887337Y-101279024D01*
X124859127Y-101255873D01*
X124835976Y-101227663D01*
X124818774Y-101195481D01*
X124808181Y-101160562D01*
X124804000Y-101118105D01*
X124804000Y-99976895D01*
X124808181Y-99934438D01*
X124818774Y-99899519D01*
X124835976Y-99867337D01*
X124859127Y-99839127D01*
X124887337Y-99815976D01*
X124919519Y-99798774D01*
X124954438Y-99788181D01*
X124996895Y-99784000D01*
X126463105Y-99784000D01*
X126505562Y-99788181D01*
G37*
G36*
X154121800Y-100778200D02*
G01*
X153319800Y-100778200D01*
X153319800Y-100166200D01*
X154121800Y-100166200D01*
X154121800Y-100778200D01*
G37*
G36*
X156441800Y-100778200D02*
G01*
X155639800Y-100778200D01*
X155639800Y-100166200D01*
X156441800Y-100166200D01*
X156441800Y-100778200D01*
G37*
G36*
X133200600Y-100775700D02*
G01*
X132398600Y-100775700D01*
X132398600Y-100163700D01*
X133200600Y-100163700D01*
X133200600Y-100775700D01*
G37*
G36*
X135520600Y-100775700D02*
G01*
X134718600Y-100775700D01*
X134718600Y-100163700D01*
X135520600Y-100163700D01*
X135520600Y-100775700D01*
G37*
G36*
X151414738Y-99974416D02*
G01*
X151435357Y-99980671D01*
X151454353Y-99990824D01*
X151471008Y-100004492D01*
X151484676Y-100021147D01*
X151494829Y-100040143D01*
X151501084Y-100060762D01*
X151503800Y-100088340D01*
X151503800Y-100597060D01*
X151501084Y-100624638D01*
X151494829Y-100645257D01*
X151484676Y-100664253D01*
X151471008Y-100680908D01*
X151454353Y-100694576D01*
X151435357Y-100704729D01*
X151414738Y-100710984D01*
X151387160Y-100713700D01*
X150928440Y-100713700D01*
X150900862Y-100710984D01*
X150880243Y-100704729D01*
X150861247Y-100694576D01*
X150844592Y-100680908D01*
X150830924Y-100664253D01*
X150820771Y-100645257D01*
X150814516Y-100624638D01*
X150811800Y-100597060D01*
X150811800Y-100088340D01*
X150814516Y-100060762D01*
X150820771Y-100040143D01*
X150830924Y-100021147D01*
X150844592Y-100004492D01*
X150861247Y-99990824D01*
X150880243Y-99980671D01*
X150900862Y-99974416D01*
X150928440Y-99971700D01*
X151387160Y-99971700D01*
X151414738Y-99974416D01*
G37*
G36*
X150444738Y-99974416D02*
G01*
X150465357Y-99980671D01*
X150484353Y-99990824D01*
X150501008Y-100004492D01*
X150514676Y-100021147D01*
X150524829Y-100040143D01*
X150531084Y-100060762D01*
X150533800Y-100088340D01*
X150533800Y-100597060D01*
X150531084Y-100624638D01*
X150524829Y-100645257D01*
X150514676Y-100664253D01*
X150501008Y-100680908D01*
X150484353Y-100694576D01*
X150465357Y-100704729D01*
X150444738Y-100710984D01*
X150417160Y-100713700D01*
X149958440Y-100713700D01*
X149930862Y-100710984D01*
X149910243Y-100704729D01*
X149891247Y-100694576D01*
X149874592Y-100680908D01*
X149860924Y-100664253D01*
X149850771Y-100645257D01*
X149844516Y-100624638D01*
X149841800Y-100597060D01*
X149841800Y-100088340D01*
X149844516Y-100060762D01*
X149850771Y-100040143D01*
X149860924Y-100021147D01*
X149874592Y-100004492D01*
X149891247Y-99990824D01*
X149910243Y-99980671D01*
X149930862Y-99974416D01*
X149958440Y-99971700D01*
X150417160Y-99971700D01*
X150444738Y-99974416D01*
G37*
G36*
X143417728Y-99803964D02*
G01*
X143438809Y-99810360D01*
X143458245Y-99820748D01*
X143475276Y-99834724D01*
X143489252Y-99851755D01*
X143499640Y-99871191D01*
X143506036Y-99892272D01*
X143508800Y-99920340D01*
X143508800Y-100384060D01*
X143506036Y-100412128D01*
X143499640Y-100433209D01*
X143489252Y-100452645D01*
X143475276Y-100469676D01*
X143458245Y-100483652D01*
X143438809Y-100494040D01*
X143417728Y-100500436D01*
X143389660Y-100503200D01*
X141575940Y-100503200D01*
X141547872Y-100500436D01*
X141526791Y-100494040D01*
X141507355Y-100483652D01*
X141490324Y-100469676D01*
X141476348Y-100452645D01*
X141465960Y-100433209D01*
X141459564Y-100412128D01*
X141456800Y-100384060D01*
X141456800Y-99920340D01*
X141459564Y-99892272D01*
X141465960Y-99871191D01*
X141476348Y-99851755D01*
X141490324Y-99834724D01*
X141507355Y-99820748D01*
X141526791Y-99810360D01*
X141547872Y-99803964D01*
X141575940Y-99801200D01*
X143389660Y-99801200D01*
X143417728Y-99803964D01*
G37*
G36*
X148367728Y-99803964D02*
G01*
X148388809Y-99810360D01*
X148408245Y-99820748D01*
X148425276Y-99834724D01*
X148439252Y-99851755D01*
X148449640Y-99871191D01*
X148456036Y-99892272D01*
X148458800Y-99920340D01*
X148458800Y-100384060D01*
X148456036Y-100412128D01*
X148449640Y-100433209D01*
X148439252Y-100452645D01*
X148425276Y-100469676D01*
X148408245Y-100483652D01*
X148388809Y-100494040D01*
X148367728Y-100500436D01*
X148339660Y-100503200D01*
X146525940Y-100503200D01*
X146497872Y-100500436D01*
X146476791Y-100494040D01*
X146457355Y-100483652D01*
X146440324Y-100469676D01*
X146426348Y-100452645D01*
X146415960Y-100433209D01*
X146409564Y-100412128D01*
X146406800Y-100384060D01*
X146406800Y-99920340D01*
X146409564Y-99892272D01*
X146415960Y-99871191D01*
X146426348Y-99851755D01*
X146440324Y-99834724D01*
X146457355Y-99820748D01*
X146476791Y-99810360D01*
X146497872Y-99803964D01*
X146525940Y-99801200D01*
X148339660Y-99801200D01*
X148367728Y-99803964D01*
G37*
G36*
X156441800Y-99828200D02*
G01*
X155639800Y-99828200D01*
X155639800Y-99216200D01*
X156441800Y-99216200D01*
X156441800Y-99828200D01*
G37*
G36*
X154121800Y-99828200D02*
G01*
X153319800Y-99828200D01*
X153319800Y-99216200D01*
X154121800Y-99216200D01*
X154121800Y-99828200D01*
G37*
G36*
X133200600Y-99825700D02*
G01*
X132398600Y-99825700D01*
X132398600Y-99213700D01*
X133200600Y-99213700D01*
X133200600Y-99825700D01*
G37*
G36*
X135520600Y-99825700D02*
G01*
X134718600Y-99825700D01*
X134718600Y-99213700D01*
X135520600Y-99213700D01*
X135520600Y-99825700D01*
G37*
G36*
X139014738Y-98513916D02*
G01*
X139035357Y-98520171D01*
X139054353Y-98530324D01*
X139071008Y-98543992D01*
X139084676Y-98560647D01*
X139094829Y-98579643D01*
X139101084Y-98600262D01*
X139103800Y-98627840D01*
X139103800Y-99136560D01*
X139101084Y-99164138D01*
X139094829Y-99184757D01*
X139084676Y-99203753D01*
X139071008Y-99220408D01*
X139054353Y-99234076D01*
X139035357Y-99244229D01*
X139014738Y-99250484D01*
X138987160Y-99253200D01*
X138528440Y-99253200D01*
X138500862Y-99250484D01*
X138480243Y-99244229D01*
X138461247Y-99234076D01*
X138444592Y-99220408D01*
X138430924Y-99203753D01*
X138420771Y-99184757D01*
X138414516Y-99164138D01*
X138411800Y-99136560D01*
X138411800Y-98627840D01*
X138414516Y-98600262D01*
X138420771Y-98579643D01*
X138430924Y-98560647D01*
X138444592Y-98543992D01*
X138461247Y-98530324D01*
X138480243Y-98520171D01*
X138500862Y-98513916D01*
X138528440Y-98511200D01*
X138987160Y-98511200D01*
X139014738Y-98513916D01*
G37*
G36*
X139984738Y-98513916D02*
G01*
X140005357Y-98520171D01*
X140024353Y-98530324D01*
X140041008Y-98543992D01*
X140054676Y-98560647D01*
X140064829Y-98579643D01*
X140071084Y-98600262D01*
X140073800Y-98627840D01*
X140073800Y-99136560D01*
X140071084Y-99164138D01*
X140064829Y-99184757D01*
X140054676Y-99203753D01*
X140041008Y-99220408D01*
X140024353Y-99234076D01*
X140005357Y-99244229D01*
X139984738Y-99250484D01*
X139957160Y-99253200D01*
X139498440Y-99253200D01*
X139470862Y-99250484D01*
X139450243Y-99244229D01*
X139431247Y-99234076D01*
X139414592Y-99220408D01*
X139400924Y-99203753D01*
X139390771Y-99184757D01*
X139384516Y-99164138D01*
X139381800Y-99136560D01*
X139381800Y-98627840D01*
X139384516Y-98600262D01*
X139390771Y-98579643D01*
X139400924Y-98560647D01*
X139414592Y-98543992D01*
X139431247Y-98530324D01*
X139450243Y-98520171D01*
X139470862Y-98513916D01*
X139498440Y-98511200D01*
X139957160Y-98511200D01*
X139984738Y-98513916D01*
G37*
G36*
X143417728Y-98533964D02*
G01*
X143438809Y-98540360D01*
X143458245Y-98550748D01*
X143475276Y-98564724D01*
X143489252Y-98581755D01*
X143499640Y-98601191D01*
X143506036Y-98622272D01*
X143508800Y-98650340D01*
X143508800Y-99114060D01*
X143506036Y-99142128D01*
X143499640Y-99163209D01*
X143489252Y-99182645D01*
X143475276Y-99199676D01*
X143458245Y-99213652D01*
X143438809Y-99224040D01*
X143417728Y-99230436D01*
X143389660Y-99233200D01*
X141575940Y-99233200D01*
X141547872Y-99230436D01*
X141526791Y-99224040D01*
X141507355Y-99213652D01*
X141490324Y-99199676D01*
X141476348Y-99182645D01*
X141465960Y-99163209D01*
X141459564Y-99142128D01*
X141456800Y-99114060D01*
X141456800Y-98650340D01*
X141459564Y-98622272D01*
X141465960Y-98601191D01*
X141476348Y-98581755D01*
X141490324Y-98564724D01*
X141507355Y-98550748D01*
X141526791Y-98540360D01*
X141547872Y-98533964D01*
X141575940Y-98531200D01*
X143389660Y-98531200D01*
X143417728Y-98533964D01*
G37*
G36*
X148367728Y-98533964D02*
G01*
X148388809Y-98540360D01*
X148408245Y-98550748D01*
X148425276Y-98564724D01*
X148439252Y-98581755D01*
X148449640Y-98601191D01*
X148456036Y-98622272D01*
X148458800Y-98650340D01*
X148458800Y-99114060D01*
X148456036Y-99142128D01*
X148449640Y-99163209D01*
X148439252Y-99182645D01*
X148425276Y-99199676D01*
X148408245Y-99213652D01*
X148388809Y-99224040D01*
X148367728Y-99230436D01*
X148339660Y-99233200D01*
X146525940Y-99233200D01*
X146497872Y-99230436D01*
X146476791Y-99224040D01*
X146457355Y-99213652D01*
X146440324Y-99199676D01*
X146426348Y-99182645D01*
X146415960Y-99163209D01*
X146409564Y-99142128D01*
X146406800Y-99114060D01*
X146406800Y-98650340D01*
X146409564Y-98622272D01*
X146415960Y-98601191D01*
X146426348Y-98581755D01*
X146440324Y-98564724D01*
X146457355Y-98550748D01*
X146476791Y-98540360D01*
X146497872Y-98533964D01*
X146525940Y-98531200D01*
X148339660Y-98531200D01*
X148367728Y-98533964D01*
G37*
G36*
X150444738Y-98196416D02*
G01*
X150465357Y-98202671D01*
X150484353Y-98212824D01*
X150501008Y-98226492D01*
X150514676Y-98243147D01*
X150524829Y-98262143D01*
X150531084Y-98282762D01*
X150533800Y-98310340D01*
X150533800Y-98819060D01*
X150531084Y-98846638D01*
X150524829Y-98867257D01*
X150514676Y-98886253D01*
X150501008Y-98902908D01*
X150484353Y-98916576D01*
X150465357Y-98926729D01*
X150444738Y-98932984D01*
X150417160Y-98935700D01*
X149958440Y-98935700D01*
X149930862Y-98932984D01*
X149910243Y-98926729D01*
X149891247Y-98916576D01*
X149874592Y-98902908D01*
X149860924Y-98886253D01*
X149850771Y-98867257D01*
X149844516Y-98846638D01*
X149841800Y-98819060D01*
X149841800Y-98310340D01*
X149844516Y-98282762D01*
X149850771Y-98262143D01*
X149860924Y-98243147D01*
X149874592Y-98226492D01*
X149891247Y-98212824D01*
X149910243Y-98202671D01*
X149930862Y-98196416D01*
X149958440Y-98193700D01*
X150417160Y-98193700D01*
X150444738Y-98196416D01*
G37*
G36*
X151414738Y-98196416D02*
G01*
X151435357Y-98202671D01*
X151454353Y-98212824D01*
X151471008Y-98226492D01*
X151484676Y-98243147D01*
X151494829Y-98262143D01*
X151501084Y-98282762D01*
X151503800Y-98310340D01*
X151503800Y-98819060D01*
X151501084Y-98846638D01*
X151494829Y-98867257D01*
X151484676Y-98886253D01*
X151471008Y-98902908D01*
X151454353Y-98916576D01*
X151435357Y-98926729D01*
X151414738Y-98932984D01*
X151387160Y-98935700D01*
X150928440Y-98935700D01*
X150900862Y-98932984D01*
X150880243Y-98926729D01*
X150861247Y-98916576D01*
X150844592Y-98902908D01*
X150830924Y-98886253D01*
X150820771Y-98867257D01*
X150814516Y-98846638D01*
X150811800Y-98819060D01*
X150811800Y-98310340D01*
X150814516Y-98282762D01*
X150820771Y-98262143D01*
X150830924Y-98243147D01*
X150844592Y-98226492D01*
X150861247Y-98212824D01*
X150880243Y-98202671D01*
X150900862Y-98196416D01*
X150928440Y-98193700D01*
X151387160Y-98193700D01*
X151414738Y-98196416D01*
G37*
G36*
X163970562Y-96813181D02*
G01*
X164005481Y-96823774D01*
X164037663Y-96840976D01*
X164065873Y-96864127D01*
X164089024Y-96892337D01*
X164106226Y-96924519D01*
X164116819Y-96959438D01*
X164121000Y-97001895D01*
X164121000Y-98143105D01*
X164116819Y-98185562D01*
X164106226Y-98220481D01*
X164089025Y-98252662D01*
X164065873Y-98280873D01*
X164037663Y-98304024D01*
X164005481Y-98321226D01*
X163970562Y-98331819D01*
X163928105Y-98336000D01*
X162461895Y-98336000D01*
X162419438Y-98331819D01*
X162384519Y-98321226D01*
X162352337Y-98304024D01*
X162324127Y-98280873D01*
X162300975Y-98252662D01*
X162283774Y-98220481D01*
X162273181Y-98185562D01*
X162269000Y-98143105D01*
X162269000Y-97001895D01*
X162273181Y-96959438D01*
X162283774Y-96924519D01*
X162300976Y-96892337D01*
X162324127Y-96864127D01*
X162352337Y-96840976D01*
X162384519Y-96823774D01*
X162419438Y-96813181D01*
X162461895Y-96809000D01*
X163928105Y-96809000D01*
X163970562Y-96813181D01*
G37*
G36*
X126505562Y-96813181D02*
G01*
X126540481Y-96823774D01*
X126572663Y-96840976D01*
X126600873Y-96864127D01*
X126624024Y-96892337D01*
X126641226Y-96924519D01*
X126651819Y-96959438D01*
X126656000Y-97001895D01*
X126656000Y-98143105D01*
X126651819Y-98185562D01*
X126641226Y-98220481D01*
X126624025Y-98252662D01*
X126600873Y-98280873D01*
X126572663Y-98304024D01*
X126540481Y-98321226D01*
X126505562Y-98331819D01*
X126463105Y-98336000D01*
X124996895Y-98336000D01*
X124954438Y-98331819D01*
X124919519Y-98321226D01*
X124887337Y-98304024D01*
X124859127Y-98280873D01*
X124835975Y-98252662D01*
X124818774Y-98220481D01*
X124808181Y-98185562D01*
X124804000Y-98143105D01*
X124804000Y-97001895D01*
X124808181Y-96959438D01*
X124818774Y-96924519D01*
X124835976Y-96892337D01*
X124859127Y-96864127D01*
X124887337Y-96840976D01*
X124919519Y-96823774D01*
X124954438Y-96813181D01*
X124996895Y-96809000D01*
X126463105Y-96809000D01*
X126505562Y-96813181D01*
G37*
G36*
X139014738Y-97243916D02*
G01*
X139035357Y-97250171D01*
X139054353Y-97260324D01*
X139071008Y-97273992D01*
X139084676Y-97290647D01*
X139094829Y-97309643D01*
X139101084Y-97330262D01*
X139103800Y-97357840D01*
X139103800Y-97866560D01*
X139101084Y-97894138D01*
X139094829Y-97914757D01*
X139084676Y-97933753D01*
X139071008Y-97950408D01*
X139054353Y-97964076D01*
X139035357Y-97974229D01*
X139014738Y-97980484D01*
X138987160Y-97983200D01*
X138528440Y-97983200D01*
X138500862Y-97980484D01*
X138480243Y-97974229D01*
X138461247Y-97964076D01*
X138444592Y-97950408D01*
X138430924Y-97933753D01*
X138420771Y-97914757D01*
X138414516Y-97894138D01*
X138411800Y-97866560D01*
X138411800Y-97357840D01*
X138414516Y-97330262D01*
X138420771Y-97309643D01*
X138430924Y-97290647D01*
X138444592Y-97273992D01*
X138461247Y-97260324D01*
X138480243Y-97250171D01*
X138500862Y-97243916D01*
X138528440Y-97241200D01*
X138987160Y-97241200D01*
X139014738Y-97243916D01*
G37*
G36*
X139984738Y-97243916D02*
G01*
X140005357Y-97250171D01*
X140024353Y-97260324D01*
X140041008Y-97273992D01*
X140054676Y-97290647D01*
X140064829Y-97309643D01*
X140071084Y-97330262D01*
X140073800Y-97357840D01*
X140073800Y-97866560D01*
X140071084Y-97894138D01*
X140064829Y-97914757D01*
X140054676Y-97933753D01*
X140041008Y-97950408D01*
X140024353Y-97964076D01*
X140005357Y-97974229D01*
X139984738Y-97980484D01*
X139957160Y-97983200D01*
X139498440Y-97983200D01*
X139470862Y-97980484D01*
X139450243Y-97974229D01*
X139431247Y-97964076D01*
X139414592Y-97950408D01*
X139400924Y-97933753D01*
X139390771Y-97914757D01*
X139384516Y-97894138D01*
X139381800Y-97866560D01*
X139381800Y-97357840D01*
X139384516Y-97330262D01*
X139390771Y-97309643D01*
X139400924Y-97290647D01*
X139414592Y-97273992D01*
X139431247Y-97260324D01*
X139450243Y-97250171D01*
X139470862Y-97243916D01*
X139498440Y-97241200D01*
X139957160Y-97241200D01*
X139984738Y-97243916D01*
G37*
G36*
X148367728Y-97263964D02*
G01*
X148388809Y-97270360D01*
X148408245Y-97280748D01*
X148425276Y-97294724D01*
X148439252Y-97311755D01*
X148449640Y-97331191D01*
X148456036Y-97352272D01*
X148458800Y-97380340D01*
X148458800Y-97844060D01*
X148456036Y-97872128D01*
X148449640Y-97893209D01*
X148439252Y-97912645D01*
X148425276Y-97929676D01*
X148408245Y-97943652D01*
X148388809Y-97954040D01*
X148367728Y-97960436D01*
X148339660Y-97963200D01*
X146525940Y-97963200D01*
X146497872Y-97960436D01*
X146476791Y-97954040D01*
X146457355Y-97943652D01*
X146440324Y-97929676D01*
X146426348Y-97912645D01*
X146415960Y-97893209D01*
X146409564Y-97872128D01*
X146406800Y-97844060D01*
X146406800Y-97380340D01*
X146409564Y-97352272D01*
X146415960Y-97331191D01*
X146426348Y-97311755D01*
X146440324Y-97294724D01*
X146457355Y-97280748D01*
X146476791Y-97270360D01*
X146497872Y-97263964D01*
X146525940Y-97261200D01*
X148339660Y-97261200D01*
X148367728Y-97263964D01*
G37*
G36*
X143417728Y-97263964D02*
G01*
X143438809Y-97270360D01*
X143458245Y-97280748D01*
X143475276Y-97294724D01*
X143489252Y-97311755D01*
X143499640Y-97331191D01*
X143506036Y-97352272D01*
X143508800Y-97380340D01*
X143508800Y-97844060D01*
X143506036Y-97872128D01*
X143499640Y-97893209D01*
X143489252Y-97912645D01*
X143475276Y-97929676D01*
X143458245Y-97943652D01*
X143438809Y-97954040D01*
X143417728Y-97960436D01*
X143389660Y-97963200D01*
X141575940Y-97963200D01*
X141547872Y-97960436D01*
X141526791Y-97954040D01*
X141507355Y-97943652D01*
X141490324Y-97929676D01*
X141476348Y-97912645D01*
X141465960Y-97893209D01*
X141459564Y-97872128D01*
X141456800Y-97844060D01*
X141456800Y-97380340D01*
X141459564Y-97352272D01*
X141465960Y-97331191D01*
X141476348Y-97311755D01*
X141490324Y-97294724D01*
X141507355Y-97280748D01*
X141526791Y-97270360D01*
X141547872Y-97263964D01*
X141575940Y-97261200D01*
X143389660Y-97261200D01*
X143417728Y-97263964D01*
G37*
G36*
X155681938Y-96151716D02*
G01*
X155702557Y-96157971D01*
X155721553Y-96168124D01*
X155738208Y-96181792D01*
X155751876Y-96198447D01*
X155762029Y-96217443D01*
X155768284Y-96238062D01*
X155771000Y-96265640D01*
X155771000Y-96774360D01*
X155768284Y-96801938D01*
X155762029Y-96822557D01*
X155751876Y-96841553D01*
X155738208Y-96858208D01*
X155721553Y-96871876D01*
X155702557Y-96882029D01*
X155681938Y-96888284D01*
X155654360Y-96891000D01*
X155195640Y-96891000D01*
X155168062Y-96888284D01*
X155147443Y-96882029D01*
X155128447Y-96871876D01*
X155111792Y-96858208D01*
X155098124Y-96841553D01*
X155087971Y-96822557D01*
X155081716Y-96801938D01*
X155079000Y-96774360D01*
X155079000Y-96265640D01*
X155081716Y-96238062D01*
X155087971Y-96217443D01*
X155098124Y-96198447D01*
X155111792Y-96181792D01*
X155128447Y-96168124D01*
X155147443Y-96157971D01*
X155168062Y-96151716D01*
X155195640Y-96149000D01*
X155654360Y-96149000D01*
X155681938Y-96151716D01*
G37*
G36*
X154711938Y-96151716D02*
G01*
X154732557Y-96157971D01*
X154751553Y-96168124D01*
X154768208Y-96181792D01*
X154781876Y-96198447D01*
X154792029Y-96217443D01*
X154798284Y-96238062D01*
X154801000Y-96265640D01*
X154801000Y-96774360D01*
X154798284Y-96801938D01*
X154792029Y-96822557D01*
X154781876Y-96841553D01*
X154768208Y-96858208D01*
X154751553Y-96871876D01*
X154732557Y-96882029D01*
X154711938Y-96888284D01*
X154684360Y-96891000D01*
X154225640Y-96891000D01*
X154198062Y-96888284D01*
X154177443Y-96882029D01*
X154158447Y-96871876D01*
X154141792Y-96858208D01*
X154128124Y-96841553D01*
X154117971Y-96822557D01*
X154111716Y-96801938D01*
X154109000Y-96774360D01*
X154109000Y-96265640D01*
X154111716Y-96238062D01*
X154117971Y-96217443D01*
X154128124Y-96198447D01*
X154141792Y-96181792D01*
X154158447Y-96168124D01*
X154177443Y-96157971D01*
X154198062Y-96151716D01*
X154225640Y-96149000D01*
X154684360Y-96149000D01*
X154711938Y-96151716D01*
G37*
G36*
X151389338Y-95465916D02*
G01*
X151409957Y-95472171D01*
X151428953Y-95482324D01*
X151445608Y-95495992D01*
X151459276Y-95512647D01*
X151469429Y-95531643D01*
X151475684Y-95552262D01*
X151478400Y-95579840D01*
X151478400Y-96088560D01*
X151475684Y-96116138D01*
X151469429Y-96136757D01*
X151459276Y-96155753D01*
X151445608Y-96172408D01*
X151428953Y-96186076D01*
X151409957Y-96196229D01*
X151389338Y-96202484D01*
X151361760Y-96205200D01*
X150903040Y-96205200D01*
X150875462Y-96202484D01*
X150854843Y-96196229D01*
X150835847Y-96186076D01*
X150819192Y-96172408D01*
X150805524Y-96155753D01*
X150795371Y-96136757D01*
X150789116Y-96116138D01*
X150786400Y-96088560D01*
X150786400Y-95579840D01*
X150789116Y-95552262D01*
X150795371Y-95531643D01*
X150805524Y-95512647D01*
X150819192Y-95495992D01*
X150835847Y-95482324D01*
X150854843Y-95472171D01*
X150875462Y-95465916D01*
X150903040Y-95463200D01*
X151361760Y-95463200D01*
X151389338Y-95465916D01*
G37*
G36*
X150419338Y-95465916D02*
G01*
X150439957Y-95472171D01*
X150458953Y-95482324D01*
X150475608Y-95495992D01*
X150489276Y-95512647D01*
X150499429Y-95531643D01*
X150505684Y-95552262D01*
X150508400Y-95579840D01*
X150508400Y-96088560D01*
X150505684Y-96116138D01*
X150499429Y-96136757D01*
X150489276Y-96155753D01*
X150475608Y-96172408D01*
X150458953Y-96186076D01*
X150439957Y-96196229D01*
X150419338Y-96202484D01*
X150391760Y-96205200D01*
X149933040Y-96205200D01*
X149905462Y-96202484D01*
X149884843Y-96196229D01*
X149865847Y-96186076D01*
X149849192Y-96172408D01*
X149835524Y-96155753D01*
X149825371Y-96136757D01*
X149819116Y-96116138D01*
X149816400Y-96088560D01*
X149816400Y-95579840D01*
X149819116Y-95552262D01*
X149825371Y-95531643D01*
X149835524Y-95512647D01*
X149849192Y-95495992D01*
X149865847Y-95482324D01*
X149884843Y-95472171D01*
X149905462Y-95465916D01*
X149933040Y-95463200D01*
X150391760Y-95463200D01*
X150419338Y-95465916D01*
G37*
G36*
X134241538Y-95379016D02*
G01*
X134262157Y-95385271D01*
X134281153Y-95395424D01*
X134297808Y-95409092D01*
X134311476Y-95425747D01*
X134321629Y-95444743D01*
X134327884Y-95465362D01*
X134330600Y-95492940D01*
X134330600Y-95951660D01*
X134327884Y-95979238D01*
X134321629Y-95999857D01*
X134311476Y-96018853D01*
X134297808Y-96035508D01*
X134281153Y-96049176D01*
X134262157Y-96059329D01*
X134241538Y-96065584D01*
X134213960Y-96068300D01*
X133705240Y-96068300D01*
X133677662Y-96065584D01*
X133657043Y-96059329D01*
X133638047Y-96049176D01*
X133621392Y-96035508D01*
X133607724Y-96018853D01*
X133597571Y-95999857D01*
X133591316Y-95979238D01*
X133588600Y-95951660D01*
X133588600Y-95492940D01*
X133591316Y-95465362D01*
X133597571Y-95444743D01*
X133607724Y-95425747D01*
X133621392Y-95409092D01*
X133638047Y-95395424D01*
X133657043Y-95385271D01*
X133677662Y-95379016D01*
X133705240Y-95376300D01*
X134213960Y-95376300D01*
X134241538Y-95379016D01*
G37*
G36*
X138307900Y-95712100D02*
G01*
X137205900Y-95712100D01*
X137205900Y-94610100D01*
X138307900Y-94610100D01*
X138307900Y-95712100D01*
G37*
G36*
X132605600Y-95712100D02*
G01*
X131503600Y-95712100D01*
X131503600Y-94610100D01*
X132605600Y-94610100D01*
X132605600Y-95712100D01*
G37*
G36*
X154711938Y-94373716D02*
G01*
X154732557Y-94379971D01*
X154751553Y-94390124D01*
X154768208Y-94403792D01*
X154781876Y-94420447D01*
X154792029Y-94439443D01*
X154798284Y-94460062D01*
X154801000Y-94487640D01*
X154801000Y-94996360D01*
X154798284Y-95023938D01*
X154792029Y-95044557D01*
X154781876Y-95063553D01*
X154768208Y-95080208D01*
X154751553Y-95093876D01*
X154732557Y-95104029D01*
X154711938Y-95110284D01*
X154684360Y-95113000D01*
X154225640Y-95113000D01*
X154198062Y-95110284D01*
X154177443Y-95104029D01*
X154158447Y-95093876D01*
X154141792Y-95080208D01*
X154128124Y-95063553D01*
X154117971Y-95044557D01*
X154111716Y-95023938D01*
X154109000Y-94996360D01*
X154109000Y-94487640D01*
X154111716Y-94460062D01*
X154117971Y-94439443D01*
X154128124Y-94420447D01*
X154141792Y-94403792D01*
X154158447Y-94390124D01*
X154177443Y-94379971D01*
X154198062Y-94373716D01*
X154225640Y-94371000D01*
X154684360Y-94371000D01*
X154711938Y-94373716D01*
G37*
G36*
X155681938Y-94373716D02*
G01*
X155702557Y-94379971D01*
X155721553Y-94390124D01*
X155738208Y-94403792D01*
X155751876Y-94420447D01*
X155762029Y-94439443D01*
X155768284Y-94460062D01*
X155771000Y-94487640D01*
X155771000Y-94996360D01*
X155768284Y-95023938D01*
X155762029Y-95044557D01*
X155751876Y-95063553D01*
X155738208Y-95080208D01*
X155721553Y-95093876D01*
X155702557Y-95104029D01*
X155681938Y-95110284D01*
X155654360Y-95113000D01*
X155195640Y-95113000D01*
X155168062Y-95110284D01*
X155147443Y-95104029D01*
X155128447Y-95093876D01*
X155111792Y-95080208D01*
X155098124Y-95063553D01*
X155087971Y-95044557D01*
X155081716Y-95023938D01*
X155079000Y-94996360D01*
X155079000Y-94487640D01*
X155081716Y-94460062D01*
X155087971Y-94439443D01*
X155098124Y-94420447D01*
X155111792Y-94403792D01*
X155128447Y-94390124D01*
X155147443Y-94379971D01*
X155168062Y-94373716D01*
X155195640Y-94371000D01*
X155654360Y-94371000D01*
X155681938Y-94373716D01*
G37*
G36*
X134241538Y-94409016D02*
G01*
X134262157Y-94415271D01*
X134281153Y-94425424D01*
X134297808Y-94439092D01*
X134311476Y-94455747D01*
X134321629Y-94474743D01*
X134327884Y-94495362D01*
X134330600Y-94522940D01*
X134330600Y-94981660D01*
X134327884Y-95009238D01*
X134321629Y-95029857D01*
X134311476Y-95048853D01*
X134297808Y-95065508D01*
X134281153Y-95079176D01*
X134262157Y-95089329D01*
X134241538Y-95095584D01*
X134213960Y-95098300D01*
X133705240Y-95098300D01*
X133677662Y-95095584D01*
X133657043Y-95089329D01*
X133638047Y-95079176D01*
X133621392Y-95065508D01*
X133607724Y-95048853D01*
X133597571Y-95029857D01*
X133591316Y-95009238D01*
X133588600Y-94981660D01*
X133588600Y-94522940D01*
X133591316Y-94495362D01*
X133597571Y-94474743D01*
X133607724Y-94455747D01*
X133621392Y-94439092D01*
X133638047Y-94425424D01*
X133657043Y-94415271D01*
X133677662Y-94409016D01*
X133705240Y-94406300D01*
X134213960Y-94406300D01*
X134241538Y-94409016D01*
G37*
G36*
X146009600Y-94631200D02*
G01*
X144457600Y-94631200D01*
X144457600Y-90179200D01*
X146009600Y-90179200D01*
X146009600Y-94631200D01*
G37*
G36*
X151909600Y-94631200D02*
G01*
X150357600Y-94631200D01*
X150357600Y-90179200D01*
X151909600Y-90179200D01*
X151909600Y-94631200D01*
G37*
G36*
X163970562Y-92803181D02*
G01*
X164005481Y-92813774D01*
X164037663Y-92830976D01*
X164065873Y-92854127D01*
X164089024Y-92882337D01*
X164106226Y-92914519D01*
X164116819Y-92949438D01*
X164121000Y-92991895D01*
X164121000Y-94133105D01*
X164116819Y-94175562D01*
X164106226Y-94210481D01*
X164089024Y-94242663D01*
X164065873Y-94270873D01*
X164037663Y-94294024D01*
X164005481Y-94311226D01*
X163970562Y-94321819D01*
X163928105Y-94326000D01*
X162461895Y-94326000D01*
X162419438Y-94321819D01*
X162384519Y-94311226D01*
X162352337Y-94294024D01*
X162324127Y-94270873D01*
X162300976Y-94242663D01*
X162283774Y-94210481D01*
X162273181Y-94175562D01*
X162269000Y-94133105D01*
X162269000Y-92991895D01*
X162273181Y-92949438D01*
X162283774Y-92914519D01*
X162300976Y-92882337D01*
X162324127Y-92854127D01*
X162352337Y-92830976D01*
X162384519Y-92813774D01*
X162419438Y-92803181D01*
X162461895Y-92799000D01*
X163928105Y-92799000D01*
X163970562Y-92803181D01*
G37*
G36*
X126505562Y-92803181D02*
G01*
X126540481Y-92813774D01*
X126572663Y-92830976D01*
X126600873Y-92854127D01*
X126624024Y-92882337D01*
X126641226Y-92914519D01*
X126651819Y-92949438D01*
X126656000Y-92991895D01*
X126656000Y-94133105D01*
X126651819Y-94175562D01*
X126641226Y-94210481D01*
X126624024Y-94242663D01*
X126600873Y-94270873D01*
X126572663Y-94294024D01*
X126540481Y-94311226D01*
X126505562Y-94321819D01*
X126463105Y-94326000D01*
X124996895Y-94326000D01*
X124954438Y-94321819D01*
X124919519Y-94311226D01*
X124887337Y-94294024D01*
X124859127Y-94270873D01*
X124835976Y-94242663D01*
X124818774Y-94210481D01*
X124808181Y-94175562D01*
X124804000Y-94133105D01*
X124804000Y-92991895D01*
X124808181Y-92949438D01*
X124818774Y-92914519D01*
X124835976Y-92882337D01*
X124859127Y-92854127D01*
X124887337Y-92830976D01*
X124919519Y-92813774D01*
X124954438Y-92803181D01*
X124996895Y-92799000D01*
X126463105Y-92799000D01*
X126505562Y-92803181D01*
G37*
G36*
X155681938Y-93332316D02*
G01*
X155702557Y-93338571D01*
X155721553Y-93348724D01*
X155738208Y-93362392D01*
X155751876Y-93379047D01*
X155762029Y-93398043D01*
X155768284Y-93418662D01*
X155771000Y-93446240D01*
X155771000Y-93954960D01*
X155768284Y-93982538D01*
X155762029Y-94003157D01*
X155751876Y-94022153D01*
X155738208Y-94038808D01*
X155721553Y-94052476D01*
X155702557Y-94062629D01*
X155681938Y-94068884D01*
X155654360Y-94071600D01*
X155195640Y-94071600D01*
X155168062Y-94068884D01*
X155147443Y-94062629D01*
X155128447Y-94052476D01*
X155111792Y-94038808D01*
X155098124Y-94022153D01*
X155087971Y-94003157D01*
X155081716Y-93982538D01*
X155079000Y-93954960D01*
X155079000Y-93446240D01*
X155081716Y-93418662D01*
X155087971Y-93398043D01*
X155098124Y-93379047D01*
X155111792Y-93362392D01*
X155128447Y-93348724D01*
X155147443Y-93338571D01*
X155168062Y-93332316D01*
X155195640Y-93329600D01*
X155654360Y-93329600D01*
X155681938Y-93332316D01*
G37*
G36*
X154711938Y-93332316D02*
G01*
X154732557Y-93338571D01*
X154751553Y-93348724D01*
X154768208Y-93362392D01*
X154781876Y-93379047D01*
X154792029Y-93398043D01*
X154798284Y-93418662D01*
X154801000Y-93446240D01*
X154801000Y-93954960D01*
X154798284Y-93982538D01*
X154792029Y-94003157D01*
X154781876Y-94022153D01*
X154768208Y-94038808D01*
X154751553Y-94052476D01*
X154732557Y-94062629D01*
X154711938Y-94068884D01*
X154684360Y-94071600D01*
X154225640Y-94071600D01*
X154198062Y-94068884D01*
X154177443Y-94062629D01*
X154158447Y-94052476D01*
X154141792Y-94038808D01*
X154128124Y-94022153D01*
X154117971Y-94003157D01*
X154111716Y-93982538D01*
X154109000Y-93954960D01*
X154109000Y-93446240D01*
X154111716Y-93418662D01*
X154117971Y-93398043D01*
X154128124Y-93379047D01*
X154141792Y-93362392D01*
X154158447Y-93348724D01*
X154177443Y-93338571D01*
X154198062Y-93332316D01*
X154225640Y-93329600D01*
X154684360Y-93329600D01*
X154711938Y-93332316D01*
G37*
G36*
X154139112Y-90493127D02*
G01*
X154288412Y-90522824D01*
X154452384Y-90590744D01*
X154599954Y-90689347D01*
X154725453Y-90814846D01*
X154824056Y-90962416D01*
X154891976Y-91126388D01*
X154926600Y-91300459D01*
X154926600Y-91477941D01*
X154891976Y-91652012D01*
X154824056Y-91815984D01*
X154725453Y-91963554D01*
X154599954Y-92089053D01*
X154452384Y-92187656D01*
X154288412Y-92255576D01*
X154139112Y-92285273D01*
X154114342Y-92290200D01*
X153936858Y-92290200D01*
X153912088Y-92285273D01*
X153762788Y-92255576D01*
X153598816Y-92187656D01*
X153451246Y-92089053D01*
X153325747Y-91963554D01*
X153227144Y-91815984D01*
X153159224Y-91652012D01*
X153124600Y-91477941D01*
X153124600Y-91300459D01*
X153159224Y-91126388D01*
X153227144Y-90962416D01*
X153325747Y-90814846D01*
X153451246Y-90689347D01*
X153598816Y-90590744D01*
X153762788Y-90522824D01*
X153912088Y-90493127D01*
X153936858Y-90488200D01*
X154114342Y-90488200D01*
X154139112Y-90493127D01*
G37*
G36*
X157466600Y-92290200D02*
G01*
X155664600Y-92290200D01*
X155664600Y-90488200D01*
X157466600Y-90488200D01*
X157466600Y-92290200D01*
G37*
G36*
X142302712Y-90467727D02*
G01*
X142452012Y-90497424D01*
X142615984Y-90565344D01*
X142763554Y-90663947D01*
X142889053Y-90789446D01*
X142987656Y-90937016D01*
X143055576Y-91100988D01*
X143090200Y-91275059D01*
X143090200Y-91452541D01*
X143055576Y-91626612D01*
X142987656Y-91790584D01*
X142889053Y-91938154D01*
X142763554Y-92063653D01*
X142615984Y-92162256D01*
X142452012Y-92230176D01*
X142302712Y-92259873D01*
X142277942Y-92264800D01*
X142100458Y-92264800D01*
X142075688Y-92259873D01*
X141926388Y-92230176D01*
X141762416Y-92162256D01*
X141614846Y-92063653D01*
X141489347Y-91938154D01*
X141390744Y-91790584D01*
X141322824Y-91626612D01*
X141288200Y-91452541D01*
X141288200Y-91275059D01*
X141322824Y-91100988D01*
X141390744Y-90937016D01*
X141489347Y-90789446D01*
X141614846Y-90663947D01*
X141762416Y-90565344D01*
X141926388Y-90497424D01*
X142075688Y-90467727D01*
X142100458Y-90462800D01*
X142277942Y-90462800D01*
X142302712Y-90467727D01*
G37*
G36*
X134682712Y-90467727D02*
G01*
X134832012Y-90497424D01*
X134995984Y-90565344D01*
X135143554Y-90663947D01*
X135269053Y-90789446D01*
X135367656Y-90937016D01*
X135435576Y-91100988D01*
X135470200Y-91275059D01*
X135470200Y-91452541D01*
X135435576Y-91626612D01*
X135367656Y-91790584D01*
X135269053Y-91938154D01*
X135143554Y-92063653D01*
X134995984Y-92162256D01*
X134832012Y-92230176D01*
X134682712Y-92259873D01*
X134657942Y-92264800D01*
X134480458Y-92264800D01*
X134455688Y-92259873D01*
X134306388Y-92230176D01*
X134142416Y-92162256D01*
X133994846Y-92063653D01*
X133869347Y-91938154D01*
X133770744Y-91790584D01*
X133702824Y-91626612D01*
X133668200Y-91452541D01*
X133668200Y-91275059D01*
X133702824Y-91100988D01*
X133770744Y-90937016D01*
X133869347Y-90789446D01*
X133994846Y-90663947D01*
X134142416Y-90565344D01*
X134306388Y-90497424D01*
X134455688Y-90467727D01*
X134480458Y-90462800D01*
X134657942Y-90462800D01*
X134682712Y-90467727D01*
G37*
G36*
X137222712Y-90467727D02*
G01*
X137372012Y-90497424D01*
X137535984Y-90565344D01*
X137683554Y-90663947D01*
X137809053Y-90789446D01*
X137907656Y-90937016D01*
X137975576Y-91100988D01*
X138010200Y-91275059D01*
X138010200Y-91452541D01*
X137975576Y-91626612D01*
X137907656Y-91790584D01*
X137809053Y-91938154D01*
X137683554Y-92063653D01*
X137535984Y-92162256D01*
X137372012Y-92230176D01*
X137222712Y-92259873D01*
X137197942Y-92264800D01*
X137020458Y-92264800D01*
X136995688Y-92259873D01*
X136846388Y-92230176D01*
X136682416Y-92162256D01*
X136534846Y-92063653D01*
X136409347Y-91938154D01*
X136310744Y-91790584D01*
X136242824Y-91626612D01*
X136208200Y-91452541D01*
X136208200Y-91275059D01*
X136242824Y-91100988D01*
X136310744Y-90937016D01*
X136409347Y-90789446D01*
X136534846Y-90663947D01*
X136682416Y-90565344D01*
X136846388Y-90497424D01*
X136995688Y-90467727D01*
X137020458Y-90462800D01*
X137197942Y-90462800D01*
X137222712Y-90467727D01*
G37*
G36*
X139762712Y-90467727D02*
G01*
X139912012Y-90497424D01*
X140075984Y-90565344D01*
X140223554Y-90663947D01*
X140349053Y-90789446D01*
X140447656Y-90937016D01*
X140515576Y-91100988D01*
X140550200Y-91275059D01*
X140550200Y-91452541D01*
X140515576Y-91626612D01*
X140447656Y-91790584D01*
X140349053Y-91938154D01*
X140223554Y-92063653D01*
X140075984Y-92162256D01*
X139912012Y-92230176D01*
X139762712Y-92259873D01*
X139737942Y-92264800D01*
X139560458Y-92264800D01*
X139535688Y-92259873D01*
X139386388Y-92230176D01*
X139222416Y-92162256D01*
X139074846Y-92063653D01*
X138949347Y-91938154D01*
X138850744Y-91790584D01*
X138782824Y-91626612D01*
X138748200Y-91452541D01*
X138748200Y-91275059D01*
X138782824Y-91100988D01*
X138850744Y-90937016D01*
X138949347Y-90789446D01*
X139074846Y-90663947D01*
X139222416Y-90565344D01*
X139386388Y-90497424D01*
X139535688Y-90467727D01*
X139560458Y-90462800D01*
X139737942Y-90462800D01*
X139762712Y-90467727D01*
G37*
G36*
X132930200Y-92264800D02*
G01*
X131128200Y-92264800D01*
X131128200Y-90462800D01*
X132930200Y-90462800D01*
X132930200Y-92264800D01*
G37*
G36*
X163970562Y-89828181D02*
G01*
X164005481Y-89838774D01*
X164037663Y-89855976D01*
X164065873Y-89879127D01*
X164089024Y-89907337D01*
X164106226Y-89939519D01*
X164116819Y-89974438D01*
X164121000Y-90016895D01*
X164121000Y-91158105D01*
X164116819Y-91200562D01*
X164106226Y-91235481D01*
X164089024Y-91267663D01*
X164065873Y-91295873D01*
X164037663Y-91319024D01*
X164005481Y-91336226D01*
X163970562Y-91346819D01*
X163928105Y-91351000D01*
X162461895Y-91351000D01*
X162419438Y-91346819D01*
X162384519Y-91336226D01*
X162352337Y-91319024D01*
X162324127Y-91295873D01*
X162300976Y-91267663D01*
X162283774Y-91235481D01*
X162273181Y-91200562D01*
X162269000Y-91158105D01*
X162269000Y-90016895D01*
X162273181Y-89974438D01*
X162283774Y-89939519D01*
X162300976Y-89907337D01*
X162324127Y-89879127D01*
X162352337Y-89855976D01*
X162384519Y-89838774D01*
X162419438Y-89828181D01*
X162461895Y-89824000D01*
X163928105Y-89824000D01*
X163970562Y-89828181D01*
G37*
G36*
X126505562Y-89828181D02*
G01*
X126540481Y-89838774D01*
X126572663Y-89855976D01*
X126600873Y-89879127D01*
X126624024Y-89907337D01*
X126641226Y-89939519D01*
X126651819Y-89974438D01*
X126656000Y-90016895D01*
X126656000Y-91158105D01*
X126651819Y-91200562D01*
X126641226Y-91235481D01*
X126624024Y-91267663D01*
X126600873Y-91295873D01*
X126572663Y-91319024D01*
X126540481Y-91336226D01*
X126505562Y-91346819D01*
X126463105Y-91351000D01*
X124996895Y-91351000D01*
X124954438Y-91346819D01*
X124919519Y-91336226D01*
X124887337Y-91319024D01*
X124859127Y-91295873D01*
X124835976Y-91267663D01*
X124818774Y-91235481D01*
X124808181Y-91200562D01*
X124804000Y-91158105D01*
X124804000Y-90016895D01*
X124808181Y-89974438D01*
X124818774Y-89939519D01*
X124835976Y-89907337D01*
X124859127Y-89879127D01*
X124887337Y-89855976D01*
X124919519Y-89838774D01*
X124954438Y-89828181D01*
X124996895Y-89824000D01*
X126463105Y-89824000D01*
X126505562Y-89828181D01*
G37*
G36*
X156291100Y-89070000D02*
G01*
X155189100Y-89070000D01*
X155189100Y-87968000D01*
X156291100Y-87968000D01*
X156291100Y-89070000D01*
G37*
G36*
X130231000Y-88613000D02*
G01*
X127579000Y-88613000D01*
X127579000Y-86511000D01*
X130231000Y-86511000D01*
X130231000Y-88613000D01*
G37*
G36*
X160711000Y-88536800D02*
G01*
X158059000Y-88536800D01*
X158059000Y-86434800D01*
X160711000Y-86434800D01*
X160711000Y-88536800D01*
G37*
G36*
X163970562Y-86453181D02*
G01*
X164005481Y-86463774D01*
X164037663Y-86480976D01*
X164065873Y-86504127D01*
X164089024Y-86532337D01*
X164106226Y-86564519D01*
X164116819Y-86599438D01*
X164121000Y-86641895D01*
X164121000Y-87783105D01*
X164116819Y-87825562D01*
X164106226Y-87860481D01*
X164089024Y-87892663D01*
X164065873Y-87920873D01*
X164037663Y-87944024D01*
X164005481Y-87961226D01*
X163970562Y-87971819D01*
X163928105Y-87976000D01*
X162461895Y-87976000D01*
X162419438Y-87971819D01*
X162384519Y-87961226D01*
X162352337Y-87944024D01*
X162324127Y-87920873D01*
X162300976Y-87892663D01*
X162283774Y-87860481D01*
X162273181Y-87825562D01*
X162269000Y-87783105D01*
X162269000Y-86641895D01*
X162273181Y-86599438D01*
X162283774Y-86564519D01*
X162300976Y-86532337D01*
X162324127Y-86504127D01*
X162352337Y-86480976D01*
X162384519Y-86463774D01*
X162419438Y-86453181D01*
X162461895Y-86449000D01*
X163928105Y-86449000D01*
X163970562Y-86453181D01*
G37*
G36*
X126505562Y-86453181D02*
G01*
X126540481Y-86463774D01*
X126572663Y-86480976D01*
X126600873Y-86504127D01*
X126624024Y-86532337D01*
X126641226Y-86564519D01*
X126651819Y-86599438D01*
X126656000Y-86641895D01*
X126656000Y-87783105D01*
X126651819Y-87825562D01*
X126641226Y-87860481D01*
X126624024Y-87892663D01*
X126600873Y-87920873D01*
X126572663Y-87944024D01*
X126540481Y-87961226D01*
X126505562Y-87971819D01*
X126463105Y-87976000D01*
X124996895Y-87976000D01*
X124954438Y-87971819D01*
X124919519Y-87961226D01*
X124887337Y-87944024D01*
X124859127Y-87920873D01*
X124835976Y-87892663D01*
X124818774Y-87860481D01*
X124808181Y-87825562D01*
X124804000Y-87783105D01*
X124804000Y-86641895D01*
X124808181Y-86599438D01*
X124818774Y-86564519D01*
X124835976Y-86532337D01*
X124859127Y-86504127D01*
X124887337Y-86480976D01*
X124919519Y-86463774D01*
X124954438Y-86453181D01*
X124996895Y-86449000D01*
X126463105Y-86449000D01*
X126505562Y-86453181D01*
G37*
G36*
X132427800Y-87876200D02*
G01*
X131325800Y-87876200D01*
X131325800Y-86774200D01*
X132427800Y-86774200D01*
X132427800Y-87876200D01*
G37*
G36*
X150901938Y-87134716D02*
G01*
X150922557Y-87140971D01*
X150941553Y-87151124D01*
X150958208Y-87164792D01*
X150971876Y-87181447D01*
X150982029Y-87200443D01*
X150988284Y-87221062D01*
X150991000Y-87248640D01*
X150991000Y-87757360D01*
X150988284Y-87784938D01*
X150982029Y-87805557D01*
X150971876Y-87824553D01*
X150958208Y-87841208D01*
X150941553Y-87854876D01*
X150922557Y-87865029D01*
X150901938Y-87871284D01*
X150874360Y-87874000D01*
X150415640Y-87874000D01*
X150388062Y-87871284D01*
X150367443Y-87865029D01*
X150348447Y-87854876D01*
X150331792Y-87841208D01*
X150318124Y-87824553D01*
X150307971Y-87805557D01*
X150301716Y-87784938D01*
X150299000Y-87757360D01*
X150299000Y-87248640D01*
X150301716Y-87221062D01*
X150307971Y-87200443D01*
X150318124Y-87181447D01*
X150331792Y-87164792D01*
X150348447Y-87151124D01*
X150367443Y-87140971D01*
X150388062Y-87134716D01*
X150415640Y-87132000D01*
X150874360Y-87132000D01*
X150901938Y-87134716D01*
G37*
G36*
X151871938Y-87134716D02*
G01*
X151892557Y-87140971D01*
X151911553Y-87151124D01*
X151928208Y-87164792D01*
X151941876Y-87181447D01*
X151952029Y-87200443D01*
X151958284Y-87221062D01*
X151961000Y-87248640D01*
X151961000Y-87757360D01*
X151958284Y-87784938D01*
X151952029Y-87805557D01*
X151941876Y-87824553D01*
X151928208Y-87841208D01*
X151911553Y-87854876D01*
X151892557Y-87865029D01*
X151871938Y-87871284D01*
X151844360Y-87874000D01*
X151385640Y-87874000D01*
X151358062Y-87871284D01*
X151337443Y-87865029D01*
X151318447Y-87854876D01*
X151301792Y-87841208D01*
X151288124Y-87824553D01*
X151277971Y-87805557D01*
X151271716Y-87784938D01*
X151269000Y-87757360D01*
X151269000Y-87248640D01*
X151271716Y-87221062D01*
X151277971Y-87200443D01*
X151288124Y-87181447D01*
X151301792Y-87164792D01*
X151318447Y-87151124D01*
X151337443Y-87140971D01*
X151358062Y-87134716D01*
X151385640Y-87132000D01*
X151844360Y-87132000D01*
X151871938Y-87134716D01*
G37*
G36*
X140815074Y-85867465D02*
G01*
X140852767Y-85878899D01*
X140887503Y-85897466D01*
X140917948Y-85922452D01*
X140942934Y-85952897D01*
X140961501Y-85987633D01*
X140972935Y-86025326D01*
X140977400Y-86070661D01*
X140977400Y-87157339D01*
X140972935Y-87202674D01*
X140961501Y-87240367D01*
X140942934Y-87275103D01*
X140917948Y-87305548D01*
X140887503Y-87330534D01*
X140852767Y-87349101D01*
X140815074Y-87360535D01*
X140769739Y-87365000D01*
X139933061Y-87365000D01*
X139887726Y-87360535D01*
X139850033Y-87349101D01*
X139815297Y-87330534D01*
X139784852Y-87305548D01*
X139759866Y-87275103D01*
X139741299Y-87240367D01*
X139729865Y-87202674D01*
X139725400Y-87157339D01*
X139725400Y-86070661D01*
X139729865Y-86025326D01*
X139741299Y-85987633D01*
X139759866Y-85952897D01*
X139784852Y-85922452D01*
X139815297Y-85897466D01*
X139850033Y-85878899D01*
X139887726Y-85867465D01*
X139933061Y-85863000D01*
X140769739Y-85863000D01*
X140815074Y-85867465D01*
G37*
G36*
X142865074Y-85867465D02*
G01*
X142902767Y-85878899D01*
X142937503Y-85897466D01*
X142967948Y-85922452D01*
X142992934Y-85952897D01*
X143011501Y-85987633D01*
X143022935Y-86025326D01*
X143027400Y-86070661D01*
X143027400Y-87157339D01*
X143022935Y-87202674D01*
X143011501Y-87240367D01*
X142992934Y-87275103D01*
X142967948Y-87305548D01*
X142937503Y-87330534D01*
X142902767Y-87349101D01*
X142865074Y-87360535D01*
X142819739Y-87365000D01*
X141983061Y-87365000D01*
X141937726Y-87360535D01*
X141900033Y-87349101D01*
X141865297Y-87330534D01*
X141834852Y-87305548D01*
X141809866Y-87275103D01*
X141791299Y-87240367D01*
X141779865Y-87202674D01*
X141775400Y-87157339D01*
X141775400Y-86070661D01*
X141779865Y-86025326D01*
X141791299Y-85987633D01*
X141809866Y-85952897D01*
X141834852Y-85922452D01*
X141865297Y-85897466D01*
X141900033Y-85878899D01*
X141937726Y-85867465D01*
X141983061Y-85863000D01*
X142819739Y-85863000D01*
X142865074Y-85867465D01*
G37*
G36*
X145993000Y-87251400D02*
G01*
X145091000Y-87251400D01*
X145091000Y-86249400D01*
X145993000Y-86249400D01*
X145993000Y-87251400D01*
G37*
G36*
X135825800Y-87108600D02*
G01*
X134023800Y-87108600D01*
X134023800Y-85306600D01*
X135825800Y-85306600D01*
X135825800Y-87108600D01*
G37*
G36*
X154538938Y-86296516D02*
G01*
X154559557Y-86302771D01*
X154578553Y-86312924D01*
X154595208Y-86326592D01*
X154608876Y-86343247D01*
X154619029Y-86362243D01*
X154625284Y-86382862D01*
X154628000Y-86410440D01*
X154628000Y-86919160D01*
X154625284Y-86946738D01*
X154619029Y-86967357D01*
X154608876Y-86986353D01*
X154595208Y-87003008D01*
X154578553Y-87016676D01*
X154559557Y-87026829D01*
X154538938Y-87033084D01*
X154511360Y-87035800D01*
X154052640Y-87035800D01*
X154025062Y-87033084D01*
X154004443Y-87026829D01*
X153985447Y-87016676D01*
X153968792Y-87003008D01*
X153955124Y-86986353D01*
X153944971Y-86967357D01*
X153938716Y-86946738D01*
X153936000Y-86919160D01*
X153936000Y-86410440D01*
X153938716Y-86382862D01*
X153944971Y-86362243D01*
X153955124Y-86343247D01*
X153968792Y-86326592D01*
X153985447Y-86312924D01*
X154004443Y-86302771D01*
X154025062Y-86296516D01*
X154052640Y-86293800D01*
X154511360Y-86293800D01*
X154538938Y-86296516D01*
G37*
G36*
X153568938Y-86296516D02*
G01*
X153589557Y-86302771D01*
X153608553Y-86312924D01*
X153625208Y-86326592D01*
X153638876Y-86343247D01*
X153649029Y-86362243D01*
X153655284Y-86382862D01*
X153658000Y-86410440D01*
X153658000Y-86919160D01*
X153655284Y-86946738D01*
X153649029Y-86967357D01*
X153638876Y-86986353D01*
X153625208Y-87003008D01*
X153608553Y-87016676D01*
X153589557Y-87026829D01*
X153568938Y-87033084D01*
X153541360Y-87035800D01*
X153082640Y-87035800D01*
X153055062Y-87033084D01*
X153034443Y-87026829D01*
X153015447Y-87016676D01*
X152998792Y-87003008D01*
X152985124Y-86986353D01*
X152974971Y-86967357D01*
X152968716Y-86946738D01*
X152966000Y-86919160D01*
X152966000Y-86410440D01*
X152968716Y-86382862D01*
X152974971Y-86362243D01*
X152985124Y-86343247D01*
X152998792Y-86326592D01*
X153015447Y-86312924D01*
X153034443Y-86302771D01*
X153055062Y-86296516D01*
X153082640Y-86293800D01*
X153541360Y-86293800D01*
X153568938Y-86296516D01*
G37*
G36*
X150048000Y-86636000D02*
G01*
X149296000Y-86636000D01*
X149296000Y-84974000D01*
X150048000Y-84974000D01*
X150048000Y-86636000D01*
G37*
G36*
X151948000Y-86636000D02*
G01*
X151196000Y-86636000D01*
X151196000Y-84974000D01*
X151948000Y-84974000D01*
X151948000Y-86636000D01*
G37*
G36*
X138777000Y-86329000D02*
G01*
X137575000Y-86329000D01*
X137575000Y-85127000D01*
X138777000Y-85127000D01*
X138777000Y-86329000D01*
G37*
G36*
X154538938Y-85153516D02*
G01*
X154559557Y-85159771D01*
X154578553Y-85169924D01*
X154595208Y-85183592D01*
X154608876Y-85200247D01*
X154619029Y-85219243D01*
X154625284Y-85239862D01*
X154628000Y-85267440D01*
X154628000Y-85776160D01*
X154625284Y-85803738D01*
X154619029Y-85824357D01*
X154608876Y-85843353D01*
X154595208Y-85860008D01*
X154578553Y-85873676D01*
X154559557Y-85883829D01*
X154538938Y-85890084D01*
X154511360Y-85892800D01*
X154052640Y-85892800D01*
X154025062Y-85890084D01*
X154004443Y-85883829D01*
X153985447Y-85873676D01*
X153968792Y-85860008D01*
X153955124Y-85843353D01*
X153944971Y-85824357D01*
X153938716Y-85803738D01*
X153936000Y-85776160D01*
X153936000Y-85267440D01*
X153938716Y-85239862D01*
X153944971Y-85219243D01*
X153955124Y-85200247D01*
X153968792Y-85183592D01*
X153985447Y-85169924D01*
X154004443Y-85159771D01*
X154025062Y-85153516D01*
X154052640Y-85150800D01*
X154511360Y-85150800D01*
X154538938Y-85153516D01*
G37*
G36*
X153568938Y-85153516D02*
G01*
X153589557Y-85159771D01*
X153608553Y-85169924D01*
X153625208Y-85183592D01*
X153638876Y-85200247D01*
X153649029Y-85219243D01*
X153655284Y-85239862D01*
X153658000Y-85267440D01*
X153658000Y-85776160D01*
X153655284Y-85803738D01*
X153649029Y-85824357D01*
X153638876Y-85843353D01*
X153625208Y-85860008D01*
X153608553Y-85873676D01*
X153589557Y-85883829D01*
X153568938Y-85890084D01*
X153541360Y-85892800D01*
X153082640Y-85892800D01*
X153055062Y-85890084D01*
X153034443Y-85883829D01*
X153015447Y-85873676D01*
X152998792Y-85860008D01*
X152985124Y-85843353D01*
X152974971Y-85824357D01*
X152968716Y-85803738D01*
X152966000Y-85776160D01*
X152966000Y-85267440D01*
X152968716Y-85239862D01*
X152974971Y-85219243D01*
X152985124Y-85200247D01*
X152998792Y-85183592D01*
X153015447Y-85169924D01*
X153034443Y-85159771D01*
X153055062Y-85153516D01*
X153082640Y-85150800D01*
X153541360Y-85150800D01*
X153568938Y-85153516D01*
G37*
G36*
X141802000Y-85321000D02*
G01*
X140900000Y-85321000D01*
X140900000Y-84319000D01*
X141802000Y-84319000D01*
X141802000Y-85321000D01*
G37*
G36*
X146943000Y-85251400D02*
G01*
X146041000Y-85251400D01*
X146041000Y-84249400D01*
X146943000Y-84249400D01*
X146943000Y-85251400D01*
G37*
G36*
X145043000Y-85251400D02*
G01*
X144141000Y-85251400D01*
X144141000Y-84249400D01*
X145043000Y-84249400D01*
X145043000Y-85251400D01*
G37*
G36*
X130231000Y-85193000D02*
G01*
X127579000Y-85193000D01*
X127579000Y-83091000D01*
X130231000Y-83091000D01*
X130231000Y-85193000D01*
G37*
G36*
X160711000Y-85116800D02*
G01*
X158059000Y-85116800D01*
X158059000Y-83014800D01*
X160711000Y-83014800D01*
X160711000Y-85116800D01*
G37*
G36*
X163970562Y-83478181D02*
G01*
X164005481Y-83488774D01*
X164037663Y-83505976D01*
X164065873Y-83529127D01*
X164089024Y-83557337D01*
X164106226Y-83589519D01*
X164116819Y-83624438D01*
X164121000Y-83666895D01*
X164121000Y-84808105D01*
X164116819Y-84850562D01*
X164106226Y-84885481D01*
X164089024Y-84917663D01*
X164065873Y-84945873D01*
X164037663Y-84969024D01*
X164005481Y-84986226D01*
X163970562Y-84996819D01*
X163928105Y-85001000D01*
X162461895Y-85001000D01*
X162419438Y-84996819D01*
X162384519Y-84986226D01*
X162352337Y-84969024D01*
X162324127Y-84945873D01*
X162300976Y-84917663D01*
X162283774Y-84885481D01*
X162273181Y-84850562D01*
X162269000Y-84808105D01*
X162269000Y-83666895D01*
X162273181Y-83624438D01*
X162283774Y-83589519D01*
X162300976Y-83557337D01*
X162324127Y-83529127D01*
X162352337Y-83505976D01*
X162384519Y-83488774D01*
X162419438Y-83478181D01*
X162461895Y-83474000D01*
X163928105Y-83474000D01*
X163970562Y-83478181D01*
G37*
G36*
X126505562Y-83478181D02*
G01*
X126540481Y-83488774D01*
X126572663Y-83505976D01*
X126600873Y-83529127D01*
X126624024Y-83557337D01*
X126641226Y-83589519D01*
X126651819Y-83624438D01*
X126656000Y-83666895D01*
X126656000Y-84808105D01*
X126651819Y-84850562D01*
X126641226Y-84885481D01*
X126624024Y-84917663D01*
X126600873Y-84945873D01*
X126572663Y-84969024D01*
X126540481Y-84986226D01*
X126505562Y-84996819D01*
X126463105Y-85001000D01*
X124996895Y-85001000D01*
X124954438Y-84996819D01*
X124919519Y-84986226D01*
X124887337Y-84969024D01*
X124859127Y-84945873D01*
X124835976Y-84917663D01*
X124818774Y-84885481D01*
X124808181Y-84850562D01*
X124804000Y-84808105D01*
X124804000Y-83666895D01*
X124808181Y-83624438D01*
X124818774Y-83589519D01*
X124835976Y-83557337D01*
X124859127Y-83529127D01*
X124887337Y-83505976D01*
X124919519Y-83488774D01*
X124954438Y-83478181D01*
X124996895Y-83474000D01*
X126463105Y-83474000D01*
X126505562Y-83478181D01*
G37*
G36*
X154538938Y-84010516D02*
G01*
X154559557Y-84016771D01*
X154578553Y-84026924D01*
X154595208Y-84040592D01*
X154608876Y-84057247D01*
X154619029Y-84076243D01*
X154625284Y-84096862D01*
X154628000Y-84124440D01*
X154628000Y-84633160D01*
X154625284Y-84660738D01*
X154619029Y-84681357D01*
X154608876Y-84700353D01*
X154595208Y-84717008D01*
X154578553Y-84730676D01*
X154559557Y-84740829D01*
X154538938Y-84747084D01*
X154511360Y-84749800D01*
X154052640Y-84749800D01*
X154025062Y-84747084D01*
X154004443Y-84740829D01*
X153985447Y-84730676D01*
X153968792Y-84717008D01*
X153955124Y-84700353D01*
X153944971Y-84681357D01*
X153938716Y-84660738D01*
X153936000Y-84633160D01*
X153936000Y-84124440D01*
X153938716Y-84096862D01*
X153944971Y-84076243D01*
X153955124Y-84057247D01*
X153968792Y-84040592D01*
X153985447Y-84026924D01*
X154004443Y-84016771D01*
X154025062Y-84010516D01*
X154052640Y-84007800D01*
X154511360Y-84007800D01*
X154538938Y-84010516D01*
G37*
G36*
X153568938Y-84010516D02*
G01*
X153589557Y-84016771D01*
X153608553Y-84026924D01*
X153625208Y-84040592D01*
X153638876Y-84057247D01*
X153649029Y-84076243D01*
X153655284Y-84096862D01*
X153658000Y-84124440D01*
X153658000Y-84633160D01*
X153655284Y-84660738D01*
X153649029Y-84681357D01*
X153638876Y-84700353D01*
X153625208Y-84717008D01*
X153608553Y-84730676D01*
X153589557Y-84740829D01*
X153568938Y-84747084D01*
X153541360Y-84749800D01*
X153082640Y-84749800D01*
X153055062Y-84747084D01*
X153034443Y-84740829D01*
X153015447Y-84730676D01*
X152998792Y-84717008D01*
X152985124Y-84700353D01*
X152974971Y-84681357D01*
X152968716Y-84660738D01*
X152966000Y-84633160D01*
X152966000Y-84124440D01*
X152968716Y-84096862D01*
X152974971Y-84076243D01*
X152985124Y-84057247D01*
X152998792Y-84040592D01*
X153015447Y-84026924D01*
X153034443Y-84016771D01*
X153055062Y-84010516D01*
X153082640Y-84007800D01*
X153541360Y-84007800D01*
X153568938Y-84010516D01*
G37*
G36*
X135038312Y-82771527D02*
G01*
X135187612Y-82801224D01*
X135351584Y-82869144D01*
X135499154Y-82967747D01*
X135624653Y-83093246D01*
X135723256Y-83240816D01*
X135791176Y-83404788D01*
X135815908Y-83529127D01*
X135825800Y-83578858D01*
X135825800Y-83756342D01*
X135820873Y-83781112D01*
X135791176Y-83930412D01*
X135723256Y-84094384D01*
X135624653Y-84241954D01*
X135499154Y-84367453D01*
X135351584Y-84466056D01*
X135187612Y-84533976D01*
X135038312Y-84563673D01*
X135013542Y-84568600D01*
X134836058Y-84568600D01*
X134811288Y-84563673D01*
X134661988Y-84533976D01*
X134498016Y-84466056D01*
X134350446Y-84367453D01*
X134224947Y-84241954D01*
X134126344Y-84094384D01*
X134058424Y-83930412D01*
X134028727Y-83781112D01*
X134023800Y-83756342D01*
X134023800Y-83578858D01*
X134033692Y-83529127D01*
X134058424Y-83404788D01*
X134126344Y-83240816D01*
X134224947Y-83093246D01*
X134350446Y-82967747D01*
X134498016Y-82869144D01*
X134661988Y-82801224D01*
X134811288Y-82771527D01*
X134836058Y-82766600D01*
X135013542Y-82766600D01*
X135038312Y-82771527D01*
G37*
G36*
X151948000Y-83936000D02*
G01*
X149296000Y-83936000D01*
X149296000Y-82274000D01*
X151948000Y-82274000D01*
X151948000Y-83936000D01*
G37*
G36*
X144553938Y-83072716D02*
G01*
X144574557Y-83078971D01*
X144593553Y-83089124D01*
X144610208Y-83102792D01*
X144623876Y-83119447D01*
X144634029Y-83138443D01*
X144640284Y-83159062D01*
X144643000Y-83186640D01*
X144643000Y-83645360D01*
X144640284Y-83672938D01*
X144634029Y-83693557D01*
X144623876Y-83712553D01*
X144610208Y-83729208D01*
X144593553Y-83742876D01*
X144574557Y-83753029D01*
X144553938Y-83759284D01*
X144526360Y-83762000D01*
X144017640Y-83762000D01*
X143990062Y-83759284D01*
X143969443Y-83753029D01*
X143950447Y-83742876D01*
X143933792Y-83729208D01*
X143920124Y-83712553D01*
X143909971Y-83693557D01*
X143903716Y-83672938D01*
X143901000Y-83645360D01*
X143901000Y-83186640D01*
X143903716Y-83159062D01*
X143909971Y-83138443D01*
X143920124Y-83119447D01*
X143933792Y-83102792D01*
X143950447Y-83089124D01*
X143969443Y-83078971D01*
X143990062Y-83072716D01*
X144017640Y-83070000D01*
X144526360Y-83070000D01*
X144553938Y-83072716D01*
G37*
G36*
X146250674Y-82159065D02*
G01*
X146288367Y-82170499D01*
X146323103Y-82189066D01*
X146353548Y-82214052D01*
X146378534Y-82244497D01*
X146397101Y-82279233D01*
X146408535Y-82316926D01*
X146413000Y-82362261D01*
X146413000Y-83448939D01*
X146408535Y-83494274D01*
X146397101Y-83531967D01*
X146378534Y-83566703D01*
X146353548Y-83597148D01*
X146323103Y-83622134D01*
X146288367Y-83640701D01*
X146250674Y-83652135D01*
X146205339Y-83656600D01*
X145368661Y-83656600D01*
X145323326Y-83652135D01*
X145285633Y-83640701D01*
X145250897Y-83622134D01*
X145220452Y-83597148D01*
X145195466Y-83566703D01*
X145176899Y-83531967D01*
X145165465Y-83494274D01*
X145161000Y-83448939D01*
X145161000Y-82362261D01*
X145165465Y-82316926D01*
X145176899Y-82279233D01*
X145195466Y-82244497D01*
X145220452Y-82214052D01*
X145250897Y-82189066D01*
X145285633Y-82170499D01*
X145323326Y-82159065D01*
X145368661Y-82154600D01*
X146205339Y-82154600D01*
X146250674Y-82159065D01*
G37*
G36*
X148300674Y-82159065D02*
G01*
X148338367Y-82170499D01*
X148373103Y-82189066D01*
X148403548Y-82214052D01*
X148428534Y-82244497D01*
X148447101Y-82279233D01*
X148458535Y-82316926D01*
X148463000Y-82362261D01*
X148463000Y-83448939D01*
X148458535Y-83494274D01*
X148447101Y-83531967D01*
X148428534Y-83566703D01*
X148403548Y-83597148D01*
X148373103Y-83622134D01*
X148338367Y-83640701D01*
X148300674Y-83652135D01*
X148255339Y-83656600D01*
X147418661Y-83656600D01*
X147373326Y-83652135D01*
X147335633Y-83640701D01*
X147300897Y-83622134D01*
X147270452Y-83597148D01*
X147245466Y-83566703D01*
X147226899Y-83531967D01*
X147215465Y-83494274D01*
X147211000Y-83448939D01*
X147211000Y-82362261D01*
X147215465Y-82316926D01*
X147226899Y-82279233D01*
X147245466Y-82244497D01*
X147270452Y-82214052D01*
X147300897Y-82189066D01*
X147335633Y-82170499D01*
X147373326Y-82159065D01*
X147418661Y-82154600D01*
X148255339Y-82154600D01*
X148300674Y-82159065D01*
G37*
G36*
X154538938Y-82867516D02*
G01*
X154559557Y-82873771D01*
X154578553Y-82883924D01*
X154595208Y-82897592D01*
X154608876Y-82914247D01*
X154619029Y-82933243D01*
X154625284Y-82953862D01*
X154628000Y-82981440D01*
X154628000Y-83490160D01*
X154625284Y-83517738D01*
X154619029Y-83538357D01*
X154608876Y-83557353D01*
X154595208Y-83574008D01*
X154578553Y-83587676D01*
X154559557Y-83597829D01*
X154538938Y-83604084D01*
X154511360Y-83606800D01*
X154052640Y-83606800D01*
X154025062Y-83604084D01*
X154004443Y-83597829D01*
X153985447Y-83587676D01*
X153968792Y-83574008D01*
X153955124Y-83557353D01*
X153944971Y-83538357D01*
X153938716Y-83517738D01*
X153936000Y-83490160D01*
X153936000Y-82981440D01*
X153938716Y-82953862D01*
X153944971Y-82933243D01*
X153955124Y-82914247D01*
X153968792Y-82897592D01*
X153985447Y-82883924D01*
X154004443Y-82873771D01*
X154025062Y-82867516D01*
X154052640Y-82864800D01*
X154511360Y-82864800D01*
X154538938Y-82867516D01*
G37*
G36*
X153568938Y-82867516D02*
G01*
X153589557Y-82873771D01*
X153608553Y-82883924D01*
X153625208Y-82897592D01*
X153638876Y-82914247D01*
X153649029Y-82933243D01*
X153655284Y-82953862D01*
X153658000Y-82981440D01*
X153658000Y-83490160D01*
X153655284Y-83517738D01*
X153649029Y-83538357D01*
X153638876Y-83557353D01*
X153625208Y-83574008D01*
X153608553Y-83587676D01*
X153589557Y-83597829D01*
X153568938Y-83604084D01*
X153541360Y-83606800D01*
X153082640Y-83606800D01*
X153055062Y-83604084D01*
X153034443Y-83597829D01*
X153015447Y-83587676D01*
X152998792Y-83574008D01*
X152985124Y-83557353D01*
X152974971Y-83538357D01*
X152968716Y-83517738D01*
X152966000Y-83490160D01*
X152966000Y-82981440D01*
X152968716Y-82953862D01*
X152974971Y-82933243D01*
X152985124Y-82914247D01*
X152998792Y-82897592D01*
X153015447Y-82883924D01*
X153034443Y-82873771D01*
X153055062Y-82867516D01*
X153082640Y-82864800D01*
X153541360Y-82864800D01*
X153568938Y-82867516D01*
G37*
G36*
X138777000Y-83529000D02*
G01*
X137575000Y-83529000D01*
X137575000Y-82327000D01*
X138777000Y-82327000D01*
X138777000Y-83529000D01*
G37*
G36*
X132504000Y-83482000D02*
G01*
X131402000Y-83482000D01*
X131402000Y-82380000D01*
X132504000Y-82380000D01*
X132504000Y-83482000D01*
G37*
G36*
X140852000Y-83321000D02*
G01*
X139950000Y-83321000D01*
X139950000Y-82319000D01*
X140852000Y-82319000D01*
X140852000Y-83321000D01*
G37*
G36*
X142752000Y-83321000D02*
G01*
X141850000Y-83321000D01*
X141850000Y-82319000D01*
X142752000Y-82319000D01*
X142752000Y-83321000D01*
G37*
G36*
X126471938Y-82207116D02*
G01*
X126492557Y-82213371D01*
X126511553Y-82223524D01*
X126528208Y-82237192D01*
X126541876Y-82253847D01*
X126552029Y-82272843D01*
X126558284Y-82293462D01*
X126561000Y-82321040D01*
X126561000Y-82829760D01*
X126558284Y-82857338D01*
X126552029Y-82877957D01*
X126541876Y-82896953D01*
X126528208Y-82913608D01*
X126511553Y-82927276D01*
X126492557Y-82937429D01*
X126471938Y-82943684D01*
X126444360Y-82946400D01*
X125985640Y-82946400D01*
X125958062Y-82943684D01*
X125937443Y-82937429D01*
X125918447Y-82927276D01*
X125901792Y-82913608D01*
X125888124Y-82896953D01*
X125877971Y-82877957D01*
X125871716Y-82857338D01*
X125869000Y-82829760D01*
X125869000Y-82321040D01*
X125871716Y-82293462D01*
X125877971Y-82272843D01*
X125888124Y-82253847D01*
X125901792Y-82237192D01*
X125918447Y-82223524D01*
X125937443Y-82213371D01*
X125958062Y-82207116D01*
X125985640Y-82204400D01*
X126444360Y-82204400D01*
X126471938Y-82207116D01*
G37*
G36*
X125501938Y-82207116D02*
G01*
X125522557Y-82213371D01*
X125541553Y-82223524D01*
X125558208Y-82237192D01*
X125571876Y-82253847D01*
X125582029Y-82272843D01*
X125588284Y-82293462D01*
X125591000Y-82321040D01*
X125591000Y-82829760D01*
X125588284Y-82857338D01*
X125582029Y-82877957D01*
X125571876Y-82896953D01*
X125558208Y-82913608D01*
X125541553Y-82927276D01*
X125522557Y-82937429D01*
X125501938Y-82943684D01*
X125474360Y-82946400D01*
X125015640Y-82946400D01*
X124988062Y-82943684D01*
X124967443Y-82937429D01*
X124948447Y-82927276D01*
X124931792Y-82913608D01*
X124918124Y-82896953D01*
X124907971Y-82877957D01*
X124901716Y-82857338D01*
X124899000Y-82829760D01*
X124899000Y-82321040D01*
X124901716Y-82293462D01*
X124907971Y-82272843D01*
X124918124Y-82253847D01*
X124931792Y-82237192D01*
X124948447Y-82223524D01*
X124967443Y-82213371D01*
X124988062Y-82207116D01*
X125015640Y-82204400D01*
X125474360Y-82204400D01*
X125501938Y-82207116D01*
G37*
G36*
X162992338Y-82181716D02*
G01*
X163012957Y-82187971D01*
X163031953Y-82198124D01*
X163048608Y-82211792D01*
X163062276Y-82228447D01*
X163072429Y-82247443D01*
X163078684Y-82268062D01*
X163081400Y-82295640D01*
X163081400Y-82804360D01*
X163078684Y-82831938D01*
X163072429Y-82852557D01*
X163062276Y-82871553D01*
X163048608Y-82888208D01*
X163031953Y-82901876D01*
X163012957Y-82912029D01*
X162992338Y-82918284D01*
X162964760Y-82921000D01*
X162506040Y-82921000D01*
X162478462Y-82918284D01*
X162457843Y-82912029D01*
X162438847Y-82901876D01*
X162422192Y-82888208D01*
X162408524Y-82871553D01*
X162398371Y-82852557D01*
X162392116Y-82831938D01*
X162389400Y-82804360D01*
X162389400Y-82295640D01*
X162392116Y-82268062D01*
X162398371Y-82247443D01*
X162408524Y-82228447D01*
X162422192Y-82211792D01*
X162438847Y-82198124D01*
X162457843Y-82187971D01*
X162478462Y-82181716D01*
X162506040Y-82179000D01*
X162964760Y-82179000D01*
X162992338Y-82181716D01*
G37*
G36*
X163962338Y-82181716D02*
G01*
X163982957Y-82187971D01*
X164001953Y-82198124D01*
X164018608Y-82211792D01*
X164032276Y-82228447D01*
X164042429Y-82247443D01*
X164048684Y-82268062D01*
X164051400Y-82295640D01*
X164051400Y-82804360D01*
X164048684Y-82831938D01*
X164042429Y-82852557D01*
X164032276Y-82871553D01*
X164018608Y-82888208D01*
X164001953Y-82901876D01*
X163982957Y-82912029D01*
X163962338Y-82918284D01*
X163934760Y-82921000D01*
X163476040Y-82921000D01*
X163448462Y-82918284D01*
X163427843Y-82912029D01*
X163408847Y-82901876D01*
X163392192Y-82888208D01*
X163378524Y-82871553D01*
X163368371Y-82852557D01*
X163362116Y-82831938D01*
X163359400Y-82804360D01*
X163359400Y-82295640D01*
X163362116Y-82268062D01*
X163368371Y-82247443D01*
X163378524Y-82228447D01*
X163392192Y-82211792D01*
X163408847Y-82198124D01*
X163427843Y-82187971D01*
X163448462Y-82181716D01*
X163476040Y-82179000D01*
X163934760Y-82179000D01*
X163962338Y-82181716D01*
G37*
G36*
X144553938Y-82102716D02*
G01*
X144574557Y-82108971D01*
X144593553Y-82119124D01*
X144610208Y-82132792D01*
X144623876Y-82149447D01*
X144634029Y-82168443D01*
X144640284Y-82189062D01*
X144643000Y-82216640D01*
X144643000Y-82675360D01*
X144640284Y-82702938D01*
X144634029Y-82723557D01*
X144623876Y-82742553D01*
X144610208Y-82759208D01*
X144593553Y-82772876D01*
X144574557Y-82783029D01*
X144553938Y-82789284D01*
X144526360Y-82792000D01*
X144017640Y-82792000D01*
X143990062Y-82789284D01*
X143969443Y-82783029D01*
X143950447Y-82772876D01*
X143933792Y-82759208D01*
X143920124Y-82742553D01*
X143909971Y-82723557D01*
X143903716Y-82702938D01*
X143901000Y-82675360D01*
X143901000Y-82216640D01*
X143903716Y-82189062D01*
X143909971Y-82168443D01*
X143920124Y-82149447D01*
X143933792Y-82132792D01*
X143950447Y-82119124D01*
X143969443Y-82108971D01*
X143990062Y-82102716D01*
X144017640Y-82100000D01*
X144526360Y-82100000D01*
X144553938Y-82102716D01*
G37*
G36*
X154538938Y-81800716D02*
G01*
X154559557Y-81806971D01*
X154578553Y-81817124D01*
X154595208Y-81830792D01*
X154608876Y-81847447D01*
X154619029Y-81866443D01*
X154625284Y-81887062D01*
X154628000Y-81914640D01*
X154628000Y-82423360D01*
X154625284Y-82450938D01*
X154619029Y-82471557D01*
X154608876Y-82490553D01*
X154595208Y-82507208D01*
X154578553Y-82520876D01*
X154559557Y-82531029D01*
X154538938Y-82537284D01*
X154511360Y-82540000D01*
X154052640Y-82540000D01*
X154025062Y-82537284D01*
X154004443Y-82531029D01*
X153985447Y-82520876D01*
X153968792Y-82507208D01*
X153955124Y-82490553D01*
X153944971Y-82471557D01*
X153938716Y-82450938D01*
X153936000Y-82423360D01*
X153936000Y-81914640D01*
X153938716Y-81887062D01*
X153944971Y-81866443D01*
X153955124Y-81847447D01*
X153968792Y-81830792D01*
X153985447Y-81817124D01*
X154004443Y-81806971D01*
X154025062Y-81800716D01*
X154052640Y-81798000D01*
X154511360Y-81798000D01*
X154538938Y-81800716D01*
G37*
G36*
X153568938Y-81800716D02*
G01*
X153589557Y-81806971D01*
X153608553Y-81817124D01*
X153625208Y-81830792D01*
X153638876Y-81847447D01*
X153649029Y-81866443D01*
X153655284Y-81887062D01*
X153658000Y-81914640D01*
X153658000Y-82423360D01*
X153655284Y-82450938D01*
X153649029Y-82471557D01*
X153638876Y-82490553D01*
X153625208Y-82507208D01*
X153608553Y-82520876D01*
X153589557Y-82531029D01*
X153568938Y-82537284D01*
X153541360Y-82540000D01*
X153082640Y-82540000D01*
X153055062Y-82537284D01*
X153034443Y-82531029D01*
X153015447Y-82520876D01*
X152998792Y-82507208D01*
X152985124Y-82490553D01*
X152974971Y-82471557D01*
X152968716Y-82450938D01*
X152966000Y-82423360D01*
X152966000Y-81914640D01*
X152968716Y-81887062D01*
X152974971Y-81866443D01*
X152985124Y-81847447D01*
X152998792Y-81830792D01*
X153015447Y-81817124D01*
X153034443Y-81806971D01*
X153055062Y-81800716D01*
X153082640Y-81798000D01*
X153541360Y-81798000D01*
X153568938Y-81800716D01*
G37*
M02*
