G04 #@! TF.GenerationSoftware,KiCad,Pcbnew,5.1.5-52549c5~84~ubuntu18.04.1*
G04 #@! TF.CreationDate,2020-03-31T23:43:49+01:00*
G04 #@! TF.ProjectId,OverdrivePedal_RevB,4f766572-6472-4697-9665-506564616c5f,RevB*
G04 #@! TF.SameCoordinates,Original*
G04 #@! TF.FileFunction,Legend,Top*
G04 #@! TF.FilePolarity,Positive*
%FSLAX46Y46*%
G04 Gerber Fmt 4.6, Leading zero omitted, Abs format (unit mm)*
G04 Created by KiCad (PCBNEW 5.1.5-52549c5~84~ubuntu18.04.1) date 2020-03-31 23:43:49*
%MOMM*%
%LPD*%
G04 APERTURE LIST*
%ADD10C,0.150000*%
%ADD11C,0.500000*%
%ADD12C,0.200000*%
%ADD13C,0.120000*%
G04 APERTURE END LIST*
D10*
X159042190Y-92195657D02*
X158775523Y-92195657D01*
X158775523Y-92614704D02*
X158775523Y-91814704D01*
X159156476Y-91814704D01*
X159423142Y-92576609D02*
X159537428Y-92614704D01*
X159727904Y-92614704D01*
X159804095Y-92576609D01*
X159842190Y-92538514D01*
X159880285Y-92462323D01*
X159880285Y-92386133D01*
X159842190Y-92309942D01*
X159804095Y-92271847D01*
X159727904Y-92233752D01*
X159575523Y-92195657D01*
X159499333Y-92157561D01*
X159461238Y-92119466D01*
X159423142Y-92043276D01*
X159423142Y-91967085D01*
X159461238Y-91890895D01*
X159499333Y-91852800D01*
X159575523Y-91814704D01*
X159766000Y-91814704D01*
X159880285Y-91852800D01*
X160146952Y-91814704D02*
X160337428Y-92614704D01*
X160489809Y-92043276D01*
X160642190Y-92614704D01*
X160832666Y-91814704D01*
D11*
X152654000Y-94361000D02*
G75*
G03X152654000Y-94361000I-127000J0D01*
G01*
X136271000Y-101396800D02*
G75*
G03X136271000Y-101396800I-127000J0D01*
G01*
X147256500Y-109715300D02*
G75*
G03X147256500Y-109715300I-127000J0D01*
G01*
X129984500Y-82486500D02*
G75*
G03X129984500Y-82486500I-127000J0D01*
G01*
X151765000Y-81661000D02*
G75*
G03X151765000Y-81661000I-127000J0D01*
G01*
X160464500Y-82359500D02*
G75*
G03X160464500Y-82359500I-127000J0D01*
G01*
X157226000Y-101460300D02*
G75*
G03X157226000Y-101460300I-127000J0D01*
G01*
X149225000Y-101460300D02*
G75*
G03X149225000Y-101460300I-127000J0D01*
G01*
X132156200Y-89052400D02*
G75*
G03X132156200Y-89052400I-127000J0D01*
G01*
D10*
X133858133Y-88957104D02*
X133858133Y-88157104D01*
X134162895Y-88157104D01*
X134239085Y-88195200D01*
X134277180Y-88233295D01*
X134315276Y-88309485D01*
X134315276Y-88423771D01*
X134277180Y-88499961D01*
X134239085Y-88538057D01*
X134162895Y-88576152D01*
X133858133Y-88576152D01*
X134581942Y-88157104D02*
X134772419Y-88957104D01*
X134924800Y-88385676D01*
X135077180Y-88957104D01*
X135267657Y-88157104D01*
X136029561Y-88957104D02*
X135762895Y-88576152D01*
X135572419Y-88957104D02*
X135572419Y-88157104D01*
X135877180Y-88157104D01*
X135953371Y-88195200D01*
X135991466Y-88233295D01*
X136029561Y-88309485D01*
X136029561Y-88423771D01*
X135991466Y-88499961D01*
X135953371Y-88538057D01*
X135877180Y-88576152D01*
X135572419Y-88576152D01*
X137985600Y-109670904D02*
X138137980Y-109670904D01*
X138214171Y-109709000D01*
X138290361Y-109785190D01*
X138328457Y-109937571D01*
X138328457Y-110204238D01*
X138290361Y-110356619D01*
X138214171Y-110432809D01*
X138137980Y-110470904D01*
X137985600Y-110470904D01*
X137909409Y-110432809D01*
X137833219Y-110356619D01*
X137795123Y-110204238D01*
X137795123Y-109937571D01*
X137833219Y-109785190D01*
X137909409Y-109709000D01*
X137985600Y-109670904D01*
X138671314Y-109670904D02*
X138671314Y-110318523D01*
X138709409Y-110394714D01*
X138747504Y-110432809D01*
X138823695Y-110470904D01*
X138976076Y-110470904D01*
X139052266Y-110432809D01*
X139090361Y-110394714D01*
X139128457Y-110318523D01*
X139128457Y-109670904D01*
X139395123Y-109670904D02*
X139852266Y-109670904D01*
X139623695Y-110470904D02*
X139623695Y-109670904D01*
X154774952Y-107803904D02*
X154774952Y-107003904D01*
X155155904Y-107803904D02*
X155155904Y-107003904D01*
X155613047Y-107803904D01*
X155613047Y-107003904D01*
D12*
X127989980Y-103950400D02*
X127989980Y-103759923D01*
X128037600Y-103664685D01*
X128132838Y-103569447D01*
X128323314Y-103521828D01*
X128656647Y-103521828D01*
X128847123Y-103569447D01*
X128942361Y-103664685D01*
X128989980Y-103759923D01*
X128989980Y-103950400D01*
X128942361Y-104045638D01*
X128847123Y-104140876D01*
X128656647Y-104188495D01*
X128323314Y-104188495D01*
X128132838Y-104140876D01*
X128037600Y-104045638D01*
X127989980Y-103950400D01*
X128323314Y-103188495D02*
X128989980Y-102950400D01*
X128323314Y-102712304D01*
X128942361Y-101950400D02*
X128989980Y-102045638D01*
X128989980Y-102236114D01*
X128942361Y-102331352D01*
X128847123Y-102378971D01*
X128466171Y-102378971D01*
X128370933Y-102331352D01*
X128323314Y-102236114D01*
X128323314Y-102045638D01*
X128370933Y-101950400D01*
X128466171Y-101902780D01*
X128561409Y-101902780D01*
X128656647Y-102378971D01*
X128989980Y-101474209D02*
X128323314Y-101474209D01*
X128513790Y-101474209D02*
X128418552Y-101426590D01*
X128370933Y-101378971D01*
X128323314Y-101283733D01*
X128323314Y-101188495D01*
X128989980Y-100426590D02*
X127989980Y-100426590D01*
X128942361Y-100426590D02*
X128989980Y-100521828D01*
X128989980Y-100712304D01*
X128942361Y-100807542D01*
X128894742Y-100855161D01*
X128799504Y-100902780D01*
X128513790Y-100902780D01*
X128418552Y-100855161D01*
X128370933Y-100807542D01*
X128323314Y-100712304D01*
X128323314Y-100521828D01*
X128370933Y-100426590D01*
X128989980Y-99950400D02*
X128323314Y-99950400D01*
X128513790Y-99950400D02*
X128418552Y-99902780D01*
X128370933Y-99855161D01*
X128323314Y-99759923D01*
X128323314Y-99664685D01*
X128989980Y-99331352D02*
X128323314Y-99331352D01*
X127989980Y-99331352D02*
X128037600Y-99378971D01*
X128085219Y-99331352D01*
X128037600Y-99283733D01*
X127989980Y-99331352D01*
X128085219Y-99331352D01*
X128323314Y-98950400D02*
X128989980Y-98712304D01*
X128323314Y-98474209D01*
X128942361Y-97712304D02*
X128989980Y-97807542D01*
X128989980Y-97998019D01*
X128942361Y-98093257D01*
X128847123Y-98140876D01*
X128466171Y-98140876D01*
X128370933Y-98093257D01*
X128323314Y-97998019D01*
X128323314Y-97807542D01*
X128370933Y-97712304D01*
X128466171Y-97664685D01*
X128561409Y-97664685D01*
X128656647Y-98140876D01*
X128989980Y-96474209D02*
X127989980Y-96474209D01*
X127989980Y-96093257D01*
X128037600Y-95998019D01*
X128085219Y-95950400D01*
X128180457Y-95902780D01*
X128323314Y-95902780D01*
X128418552Y-95950400D01*
X128466171Y-95998019D01*
X128513790Y-96093257D01*
X128513790Y-96474209D01*
X128942361Y-95093257D02*
X128989980Y-95188495D01*
X128989980Y-95378971D01*
X128942361Y-95474209D01*
X128847123Y-95521828D01*
X128466171Y-95521828D01*
X128370933Y-95474209D01*
X128323314Y-95378971D01*
X128323314Y-95188495D01*
X128370933Y-95093257D01*
X128466171Y-95045638D01*
X128561409Y-95045638D01*
X128656647Y-95521828D01*
X128989980Y-94188495D02*
X127989980Y-94188495D01*
X128942361Y-94188495D02*
X128989980Y-94283733D01*
X128989980Y-94474209D01*
X128942361Y-94569447D01*
X128894742Y-94617066D01*
X128799504Y-94664685D01*
X128513790Y-94664685D01*
X128418552Y-94617066D01*
X128370933Y-94569447D01*
X128323314Y-94474209D01*
X128323314Y-94283733D01*
X128370933Y-94188495D01*
X128989980Y-93283733D02*
X128466171Y-93283733D01*
X128370933Y-93331352D01*
X128323314Y-93426590D01*
X128323314Y-93617066D01*
X128370933Y-93712304D01*
X128942361Y-93283733D02*
X128989980Y-93378971D01*
X128989980Y-93617066D01*
X128942361Y-93712304D01*
X128847123Y-93759923D01*
X128751885Y-93759923D01*
X128656647Y-93712304D01*
X128609028Y-93617066D01*
X128609028Y-93378971D01*
X128561409Y-93283733D01*
X128989980Y-92664685D02*
X128942361Y-92759923D01*
X128847123Y-92807542D01*
X127989980Y-92807542D01*
X130689980Y-99450400D02*
X130213790Y-99783733D01*
X130689980Y-100021828D02*
X129689980Y-100021828D01*
X129689980Y-99640876D01*
X129737600Y-99545638D01*
X129785219Y-99498019D01*
X129880457Y-99450400D01*
X130023314Y-99450400D01*
X130118552Y-99498019D01*
X130166171Y-99545638D01*
X130213790Y-99640876D01*
X130213790Y-100021828D01*
X130642361Y-98640876D02*
X130689980Y-98736114D01*
X130689980Y-98926590D01*
X130642361Y-99021828D01*
X130547123Y-99069447D01*
X130166171Y-99069447D01*
X130070933Y-99021828D01*
X130023314Y-98926590D01*
X130023314Y-98736114D01*
X130070933Y-98640876D01*
X130166171Y-98593257D01*
X130261409Y-98593257D01*
X130356647Y-99069447D01*
X130023314Y-98259923D02*
X130689980Y-98021828D01*
X130023314Y-97783733D01*
X130166171Y-97069447D02*
X130213790Y-96926590D01*
X130261409Y-96878971D01*
X130356647Y-96831352D01*
X130499504Y-96831352D01*
X130594742Y-96878971D01*
X130642361Y-96926590D01*
X130689980Y-97021828D01*
X130689980Y-97402780D01*
X129689980Y-97402780D01*
X129689980Y-97069447D01*
X129737600Y-96974209D01*
X129785219Y-96926590D01*
X129880457Y-96878971D01*
X129975695Y-96878971D01*
X130070933Y-96926590D01*
X130118552Y-96974209D01*
X130166171Y-97069447D01*
X130166171Y-97402780D01*
D13*
X141115148Y-87324000D02*
X141637652Y-87324000D01*
X141115148Y-85904000D02*
X141637652Y-85904000D01*
X147073252Y-82195600D02*
X146550748Y-82195600D01*
X147073252Y-83615600D02*
X146550748Y-83615600D01*
X151449000Y-107300800D02*
X151449000Y-108700800D01*
X150049000Y-107300800D02*
X151449000Y-107300800D01*
X150049000Y-108700800D02*
X150049000Y-107300800D01*
X151449000Y-108700800D02*
X150049000Y-108700800D01*
X132754600Y-94461100D02*
X132754600Y-95861100D01*
X131354600Y-94461100D02*
X132754600Y-94461100D01*
X131354600Y-95861100D02*
X131354600Y-94461100D01*
X132754600Y-95861100D02*
X131354600Y-95861100D01*
X131253000Y-83631000D02*
X131253000Y-82231000D01*
X132653000Y-83631000D02*
X131253000Y-83631000D01*
X132653000Y-82231000D02*
X132653000Y-83631000D01*
X131253000Y-82231000D02*
X132653000Y-82231000D01*
X137056900Y-95861100D02*
X137056900Y-94461100D01*
X138456900Y-95861100D02*
X137056900Y-95861100D01*
X138456900Y-94461100D02*
X138456900Y-95861100D01*
X137056900Y-94461100D02*
X138456900Y-94461100D01*
X131176800Y-88025200D02*
X131176800Y-86625200D01*
X132576800Y-88025200D02*
X131176800Y-88025200D01*
X132576800Y-86625200D02*
X132576800Y-88025200D01*
X131176800Y-86625200D02*
X132576800Y-86625200D01*
X155040100Y-89219000D02*
X155040100Y-87819000D01*
X156440100Y-89219000D02*
X155040100Y-89219000D01*
X156440100Y-87819000D02*
X156440100Y-89219000D01*
X155040100Y-87819000D02*
X156440100Y-87819000D01*
X155967200Y-109104200D02*
X157367200Y-109104200D01*
X155967200Y-110504200D02*
X155967200Y-109104200D01*
X157367200Y-110504200D02*
X155967200Y-110504200D01*
X157367200Y-109104200D02*
X157367200Y-110504200D01*
X131613000Y-106338800D02*
X131613000Y-108788800D01*
X134833000Y-108138800D02*
X134833000Y-106338800D01*
X152232000Y-85355000D02*
X152232000Y-82905000D01*
X149012000Y-83555000D02*
X149012000Y-85355000D01*
X130415000Y-86732000D02*
X130415000Y-84302000D01*
X127345000Y-84972000D02*
X127345000Y-86732000D01*
X160895000Y-86655800D02*
X160895000Y-84225800D01*
X157825000Y-84895800D02*
X157825000Y-86655800D01*
X139771000Y-84580000D02*
X139771000Y-83120000D01*
X142931000Y-84580000D02*
X142931000Y-82420000D01*
X142931000Y-84580000D02*
X142001000Y-84580000D01*
X139771000Y-84580000D02*
X140701000Y-84580000D01*
X143962000Y-86510400D02*
X143962000Y-85050400D01*
X147122000Y-86510400D02*
X147122000Y-84350400D01*
X147122000Y-86510400D02*
X146192000Y-86510400D01*
X143962000Y-86510400D02*
X144892000Y-86510400D01*
X133159600Y-102069700D02*
X135459600Y-102069700D01*
X134759600Y-98869700D02*
X133159600Y-98869700D01*
D10*
X150508600Y-94905200D02*
X151858600Y-94905200D01*
X150508600Y-89780200D02*
X145858600Y-89780200D01*
X150508600Y-95030200D02*
X145858600Y-95030200D01*
X150508600Y-89780200D02*
X150508600Y-90005200D01*
X145858600Y-89780200D02*
X145858600Y-90005200D01*
X145858600Y-95030200D02*
X145858600Y-94805200D01*
X150508600Y-95030200D02*
X150508600Y-94905200D01*
D13*
X144157800Y-110388200D02*
X146457800Y-110388200D01*
X145757800Y-107188200D02*
X144157800Y-107188200D01*
X144957800Y-102077200D02*
X148407800Y-102077200D01*
X144957800Y-102077200D02*
X143007800Y-102077200D01*
X144957800Y-96957200D02*
X146907800Y-96957200D01*
X144957800Y-96957200D02*
X143007800Y-96957200D01*
X154080800Y-102072200D02*
X156380800Y-102072200D01*
X155680800Y-98872200D02*
X154080800Y-98872200D01*
X157895600Y-91389200D02*
X157895600Y-92719200D01*
X157895600Y-92719200D02*
X156565600Y-92719200D01*
X155295600Y-92719200D02*
X152695600Y-92719200D01*
X152695600Y-90059200D02*
X152695600Y-92719200D01*
X155295600Y-90059200D02*
X152695600Y-90059200D01*
X155295600Y-90059200D02*
X155295600Y-92719200D01*
X148827800Y-103648200D02*
X148827800Y-104978200D01*
X147497800Y-103648200D02*
X148827800Y-103648200D01*
X146227800Y-103648200D02*
X146227800Y-106308200D01*
X146227800Y-106308200D02*
X141087800Y-106308200D01*
X146227800Y-103648200D02*
X141087800Y-103648200D01*
X141087800Y-103648200D02*
X141087800Y-106308200D01*
X138176000Y-103749800D02*
X139506000Y-103749800D01*
X139506000Y-103749800D02*
X139506000Y-105079800D01*
X139506000Y-106349800D02*
X139506000Y-108949800D01*
X136846000Y-108949800D02*
X139506000Y-108949800D01*
X136846000Y-106349800D02*
X136846000Y-108949800D01*
X136846000Y-106349800D02*
X139506000Y-106349800D01*
X130699200Y-91363800D02*
X130699200Y-90033800D01*
X130699200Y-90033800D02*
X132029200Y-90033800D01*
X133299200Y-90033800D02*
X143519200Y-90033800D01*
X143519200Y-92693800D02*
X143519200Y-90033800D01*
X133299200Y-92693800D02*
X143519200Y-92693800D01*
X133299200Y-92693800D02*
X133299200Y-90033800D01*
X136254800Y-87537600D02*
X134924800Y-87537600D01*
X136254800Y-86207600D02*
X136254800Y-87537600D01*
X136254800Y-84937600D02*
X133594800Y-84937600D01*
X133594800Y-84937600D02*
X133594800Y-82337600D01*
X136254800Y-84937600D02*
X136254800Y-82337600D01*
X136254800Y-82337600D02*
X133594800Y-82337600D01*
X157336800Y-104978200D02*
X157336800Y-106308200D01*
X157336800Y-106308200D02*
X156006800Y-106308200D01*
X154736800Y-106308200D02*
X152136800Y-106308200D01*
X152136800Y-103648200D02*
X152136800Y-106308200D01*
X154736800Y-103648200D02*
X152136800Y-103648200D01*
X154736800Y-103648200D02*
X154736800Y-106308200D01*
X126865000Y-88185000D02*
X126865000Y-84125000D01*
X124595000Y-88185000D02*
X126865000Y-88185000D01*
X124595000Y-84125000D02*
X124595000Y-88185000D01*
X164330000Y-88185000D02*
X164330000Y-84125000D01*
X162060000Y-88185000D02*
X164330000Y-88185000D01*
X162060000Y-84125000D02*
X162060000Y-88185000D01*
X126865000Y-94535000D02*
X126865000Y-90475000D01*
X124595000Y-94535000D02*
X126865000Y-94535000D01*
X124595000Y-90475000D02*
X124595000Y-94535000D01*
X164330000Y-108505000D02*
X164330000Y-104445000D01*
X162060000Y-108505000D02*
X164330000Y-108505000D01*
X162060000Y-104445000D02*
X162060000Y-108505000D01*
X126865000Y-101520000D02*
X126865000Y-97460000D01*
X124595000Y-101520000D02*
X126865000Y-101520000D01*
X124595000Y-97460000D02*
X124595000Y-101520000D01*
X164330000Y-101520000D02*
X164330000Y-97460000D01*
X162060000Y-101520000D02*
X164330000Y-101520000D01*
X162060000Y-97460000D02*
X162060000Y-101520000D01*
X126865000Y-108505000D02*
X126865000Y-104445000D01*
X124595000Y-108505000D02*
X126865000Y-108505000D01*
X124595000Y-104445000D02*
X124595000Y-108505000D01*
X164330000Y-94535000D02*
X164330000Y-90475000D01*
X162060000Y-94535000D02*
X164330000Y-94535000D01*
X162060000Y-90475000D02*
X162060000Y-94535000D01*
X137176000Y-86528000D02*
X137176000Y-82678000D01*
X139176000Y-86528000D02*
X139176000Y-82678000D01*
X137176000Y-86528000D02*
X139176000Y-86528000D01*
D10*
X140862114Y-88499914D02*
X140824019Y-88538009D01*
X140709733Y-88576104D01*
X140633542Y-88576104D01*
X140519257Y-88538009D01*
X140443066Y-88461819D01*
X140404971Y-88385628D01*
X140366876Y-88233247D01*
X140366876Y-88118961D01*
X140404971Y-87966580D01*
X140443066Y-87890390D01*
X140519257Y-87814200D01*
X140633542Y-87776104D01*
X140709733Y-87776104D01*
X140824019Y-87814200D01*
X140862114Y-87852295D01*
X141624019Y-88576104D02*
X141166876Y-88576104D01*
X141395447Y-88576104D02*
X141395447Y-87776104D01*
X141319257Y-87890390D01*
X141243066Y-87966580D01*
X141166876Y-88004676D01*
X142119257Y-87776104D02*
X142195447Y-87776104D01*
X142271638Y-87814200D01*
X142309733Y-87852295D01*
X142347828Y-87928485D01*
X142385923Y-88080866D01*
X142385923Y-88271342D01*
X142347828Y-88423723D01*
X142309733Y-88499914D01*
X142271638Y-88538009D01*
X142195447Y-88576104D01*
X142119257Y-88576104D01*
X142043066Y-88538009D01*
X142004971Y-88499914D01*
X141966876Y-88423723D01*
X141928780Y-88271342D01*
X141928780Y-88080866D01*
X141966876Y-87928485D01*
X142004971Y-87852295D01*
X142043066Y-87814200D01*
X142119257Y-87776104D01*
X146678666Y-81718114D02*
X146640571Y-81756209D01*
X146526285Y-81794304D01*
X146450095Y-81794304D01*
X146335809Y-81756209D01*
X146259619Y-81680019D01*
X146221523Y-81603828D01*
X146183428Y-81451447D01*
X146183428Y-81337161D01*
X146221523Y-81184780D01*
X146259619Y-81108590D01*
X146335809Y-81032400D01*
X146450095Y-80994304D01*
X146526285Y-80994304D01*
X146640571Y-81032400D01*
X146678666Y-81070495D01*
X147135809Y-81337161D02*
X147059619Y-81299066D01*
X147021523Y-81260971D01*
X146983428Y-81184780D01*
X146983428Y-81146685D01*
X147021523Y-81070495D01*
X147059619Y-81032400D01*
X147135809Y-80994304D01*
X147288190Y-80994304D01*
X147364380Y-81032400D01*
X147402476Y-81070495D01*
X147440571Y-81146685D01*
X147440571Y-81184780D01*
X147402476Y-81260971D01*
X147364380Y-81299066D01*
X147288190Y-81337161D01*
X147135809Y-81337161D01*
X147059619Y-81375257D01*
X147021523Y-81413352D01*
X146983428Y-81489542D01*
X146983428Y-81641923D01*
X147021523Y-81718114D01*
X147059619Y-81756209D01*
X147135809Y-81794304D01*
X147288190Y-81794304D01*
X147364380Y-81756209D01*
X147402476Y-81718114D01*
X147440571Y-81641923D01*
X147440571Y-81489542D01*
X147402476Y-81413352D01*
X147364380Y-81375257D01*
X147288190Y-81337161D01*
X149739476Y-109213704D02*
X150196619Y-109213704D01*
X149968047Y-110013704D02*
X149968047Y-109213704D01*
X150463285Y-110013704D02*
X150463285Y-109213704D01*
X150768047Y-109213704D01*
X150844238Y-109251800D01*
X150882333Y-109289895D01*
X150920428Y-109366085D01*
X150920428Y-109480371D01*
X150882333Y-109556561D01*
X150844238Y-109594657D01*
X150768047Y-109632752D01*
X150463285Y-109632752D01*
X151187095Y-109213704D02*
X151720428Y-109213704D01*
X151377571Y-110013704D01*
X131045076Y-93262504D02*
X131502219Y-93262504D01*
X131273647Y-94062504D02*
X131273647Y-93262504D01*
X131768885Y-94062504D02*
X131768885Y-93262504D01*
X132073647Y-93262504D01*
X132149838Y-93300600D01*
X132187933Y-93338695D01*
X132226028Y-93414885D01*
X132226028Y-93529171D01*
X132187933Y-93605361D01*
X132149838Y-93643457D01*
X132073647Y-93681552D01*
X131768885Y-93681552D01*
X132911742Y-93262504D02*
X132759361Y-93262504D01*
X132683171Y-93300600D01*
X132645076Y-93338695D01*
X132568885Y-93452980D01*
X132530790Y-93605361D01*
X132530790Y-93910123D01*
X132568885Y-93986314D01*
X132606980Y-94024409D01*
X132683171Y-94062504D01*
X132835552Y-94062504D01*
X132911742Y-94024409D01*
X132949838Y-93986314D01*
X132987933Y-93910123D01*
X132987933Y-93719647D01*
X132949838Y-93643457D01*
X132911742Y-93605361D01*
X132835552Y-93567266D01*
X132683171Y-93567266D01*
X132606980Y-93605361D01*
X132568885Y-93643457D01*
X132530790Y-93719647D01*
X130943476Y-81044904D02*
X131400619Y-81044904D01*
X131172047Y-81844904D02*
X131172047Y-81044904D01*
X131667285Y-81844904D02*
X131667285Y-81044904D01*
X131972047Y-81044904D01*
X132048238Y-81083000D01*
X132086333Y-81121095D01*
X132124428Y-81197285D01*
X132124428Y-81311571D01*
X132086333Y-81387761D01*
X132048238Y-81425857D01*
X131972047Y-81463952D01*
X131667285Y-81463952D01*
X132848238Y-81044904D02*
X132467285Y-81044904D01*
X132429190Y-81425857D01*
X132467285Y-81387761D01*
X132543476Y-81349666D01*
X132733952Y-81349666D01*
X132810142Y-81387761D01*
X132848238Y-81425857D01*
X132886333Y-81502047D01*
X132886333Y-81692523D01*
X132848238Y-81768714D01*
X132810142Y-81806809D01*
X132733952Y-81844904D01*
X132543476Y-81844904D01*
X132467285Y-81806809D01*
X132429190Y-81768714D01*
X136747376Y-93211704D02*
X137204519Y-93211704D01*
X136975947Y-94011704D02*
X136975947Y-93211704D01*
X137471185Y-94011704D02*
X137471185Y-93211704D01*
X137775947Y-93211704D01*
X137852138Y-93249800D01*
X137890233Y-93287895D01*
X137928328Y-93364085D01*
X137928328Y-93478371D01*
X137890233Y-93554561D01*
X137852138Y-93592657D01*
X137775947Y-93630752D01*
X137471185Y-93630752D01*
X138614042Y-93478371D02*
X138614042Y-94011704D01*
X138423566Y-93173609D02*
X138233090Y-93745038D01*
X138728328Y-93745038D01*
X130816476Y-85312304D02*
X131273619Y-85312304D01*
X131045047Y-86112304D02*
X131045047Y-85312304D01*
X131540285Y-86112304D02*
X131540285Y-85312304D01*
X131845047Y-85312304D01*
X131921238Y-85350400D01*
X131959333Y-85388495D01*
X131997428Y-85464685D01*
X131997428Y-85578971D01*
X131959333Y-85655161D01*
X131921238Y-85693257D01*
X131845047Y-85731352D01*
X131540285Y-85731352D01*
X132264095Y-85312304D02*
X132759333Y-85312304D01*
X132492666Y-85617066D01*
X132606952Y-85617066D01*
X132683142Y-85655161D01*
X132721238Y-85693257D01*
X132759333Y-85769447D01*
X132759333Y-85959923D01*
X132721238Y-86036114D01*
X132683142Y-86074209D01*
X132606952Y-86112304D01*
X132378380Y-86112304D01*
X132302190Y-86074209D01*
X132264095Y-86036114D01*
X152571576Y-88106304D02*
X153028719Y-88106304D01*
X152800147Y-88906304D02*
X152800147Y-88106304D01*
X153295385Y-88906304D02*
X153295385Y-88106304D01*
X153600147Y-88106304D01*
X153676338Y-88144400D01*
X153714433Y-88182495D01*
X153752528Y-88258685D01*
X153752528Y-88372971D01*
X153714433Y-88449161D01*
X153676338Y-88487257D01*
X153600147Y-88525352D01*
X153295385Y-88525352D01*
X154057290Y-88182495D02*
X154095385Y-88144400D01*
X154171576Y-88106304D01*
X154362052Y-88106304D01*
X154438242Y-88144400D01*
X154476338Y-88182495D01*
X154514433Y-88258685D01*
X154514433Y-88334876D01*
X154476338Y-88449161D01*
X154019195Y-88906304D01*
X154514433Y-88906304D01*
X157943676Y-109366104D02*
X158400819Y-109366104D01*
X158172247Y-110166104D02*
X158172247Y-109366104D01*
X158667485Y-110166104D02*
X158667485Y-109366104D01*
X158972247Y-109366104D01*
X159048438Y-109404200D01*
X159086533Y-109442295D01*
X159124628Y-109518485D01*
X159124628Y-109632771D01*
X159086533Y-109708961D01*
X159048438Y-109747057D01*
X158972247Y-109785152D01*
X158667485Y-109785152D01*
X159886533Y-110166104D02*
X159429390Y-110166104D01*
X159657961Y-110166104D02*
X159657961Y-109366104D01*
X159581771Y-109480390D01*
X159505580Y-109556580D01*
X159429390Y-109594676D01*
X132257923Y-109848704D02*
X132257923Y-110496323D01*
X132296019Y-110572514D01*
X132334114Y-110610609D01*
X132410304Y-110648704D01*
X132562685Y-110648704D01*
X132638876Y-110610609D01*
X132676971Y-110572514D01*
X132715066Y-110496323D01*
X132715066Y-109848704D01*
X133515066Y-110648704D02*
X133057923Y-110648704D01*
X133286495Y-110648704D02*
X133286495Y-109848704D01*
X133210304Y-109962990D01*
X133134114Y-110039180D01*
X133057923Y-110077276D01*
X134276971Y-110648704D02*
X133819828Y-110648704D01*
X134048400Y-110648704D02*
X134048400Y-109848704D01*
X133972209Y-109962990D01*
X133896019Y-110039180D01*
X133819828Y-110077276D01*
X128289066Y-106965704D02*
X128022400Y-106584752D01*
X127831923Y-106965704D02*
X127831923Y-106165704D01*
X128136685Y-106165704D01*
X128212876Y-106203800D01*
X128250971Y-106241895D01*
X128289066Y-106318085D01*
X128289066Y-106432371D01*
X128250971Y-106508561D01*
X128212876Y-106546657D01*
X128136685Y-106584752D01*
X127831923Y-106584752D01*
X129012876Y-106165704D02*
X128631923Y-106165704D01*
X128593828Y-106546657D01*
X128631923Y-106508561D01*
X128708114Y-106470466D01*
X128898590Y-106470466D01*
X128974780Y-106508561D01*
X129012876Y-106546657D01*
X129050971Y-106622847D01*
X129050971Y-106813323D01*
X129012876Y-106889514D01*
X128974780Y-106927609D01*
X128898590Y-106965704D01*
X128708114Y-106965704D01*
X128631923Y-106927609D01*
X128593828Y-106889514D01*
X127654114Y-105619514D02*
X127616019Y-105657609D01*
X127501733Y-105695704D01*
X127425542Y-105695704D01*
X127311257Y-105657609D01*
X127235066Y-105581419D01*
X127196971Y-105505228D01*
X127158876Y-105352847D01*
X127158876Y-105238561D01*
X127196971Y-105086180D01*
X127235066Y-105009990D01*
X127311257Y-104933800D01*
X127425542Y-104895704D01*
X127501733Y-104895704D01*
X127616019Y-104933800D01*
X127654114Y-104971895D01*
X127958876Y-104971895D02*
X127996971Y-104933800D01*
X128073161Y-104895704D01*
X128263638Y-104895704D01*
X128339828Y-104933800D01*
X128377923Y-104971895D01*
X128416019Y-105048085D01*
X128416019Y-105124276D01*
X128377923Y-105238561D01*
X127920780Y-105695704D01*
X128416019Y-105695704D01*
X128911257Y-104895704D02*
X128987447Y-104895704D01*
X129063638Y-104933800D01*
X129101733Y-104971895D01*
X129139828Y-105048085D01*
X129177923Y-105200466D01*
X129177923Y-105390942D01*
X129139828Y-105543323D01*
X129101733Y-105619514D01*
X129063638Y-105657609D01*
X128987447Y-105695704D01*
X128911257Y-105695704D01*
X128835066Y-105657609D01*
X128796971Y-105619514D01*
X128758876Y-105543323D01*
X128720780Y-105390942D01*
X128720780Y-105200466D01*
X128758876Y-105048085D01*
X128796971Y-104971895D01*
X128835066Y-104933800D01*
X128911257Y-104895704D01*
X127654114Y-108159514D02*
X127616019Y-108197609D01*
X127501733Y-108235704D01*
X127425542Y-108235704D01*
X127311257Y-108197609D01*
X127235066Y-108121419D01*
X127196971Y-108045228D01*
X127158876Y-107892847D01*
X127158876Y-107778561D01*
X127196971Y-107626180D01*
X127235066Y-107549990D01*
X127311257Y-107473800D01*
X127425542Y-107435704D01*
X127501733Y-107435704D01*
X127616019Y-107473800D01*
X127654114Y-107511895D01*
X128416019Y-108235704D02*
X127958876Y-108235704D01*
X128187447Y-108235704D02*
X128187447Y-107435704D01*
X128111257Y-107549990D01*
X128035066Y-107626180D01*
X127958876Y-107664276D01*
X128796971Y-108235704D02*
X128949352Y-108235704D01*
X129025542Y-108197609D01*
X129063638Y-108159514D01*
X129139828Y-108045228D01*
X129177923Y-107892847D01*
X129177923Y-107588085D01*
X129139828Y-107511895D01*
X129101733Y-107473800D01*
X129025542Y-107435704D01*
X128873161Y-107435704D01*
X128796971Y-107473800D01*
X128758876Y-107511895D01*
X128720780Y-107588085D01*
X128720780Y-107778561D01*
X128758876Y-107854752D01*
X128796971Y-107892847D01*
X128873161Y-107930942D01*
X129025542Y-107930942D01*
X129101733Y-107892847D01*
X129139828Y-107854752D01*
X129177923Y-107778561D01*
X134359714Y-104476514D02*
X134321619Y-104514609D01*
X134207333Y-104552704D01*
X134131142Y-104552704D01*
X134016857Y-104514609D01*
X133940666Y-104438419D01*
X133902571Y-104362228D01*
X133864476Y-104209847D01*
X133864476Y-104095561D01*
X133902571Y-103943180D01*
X133940666Y-103866990D01*
X134016857Y-103790800D01*
X134131142Y-103752704D01*
X134207333Y-103752704D01*
X134321619Y-103790800D01*
X134359714Y-103828895D01*
X135121619Y-104552704D02*
X134664476Y-104552704D01*
X134893047Y-104552704D02*
X134893047Y-103752704D01*
X134816857Y-103866990D01*
X134740666Y-103943180D01*
X134664476Y-103981276D01*
X135578761Y-104095561D02*
X135502571Y-104057466D01*
X135464476Y-104019371D01*
X135426380Y-103943180D01*
X135426380Y-103905085D01*
X135464476Y-103828895D01*
X135502571Y-103790800D01*
X135578761Y-103752704D01*
X135731142Y-103752704D01*
X135807333Y-103790800D01*
X135845428Y-103828895D01*
X135883523Y-103905085D01*
X135883523Y-103943180D01*
X135845428Y-104019371D01*
X135807333Y-104057466D01*
X135731142Y-104095561D01*
X135578761Y-104095561D01*
X135502571Y-104133657D01*
X135464476Y-104171752D01*
X135426380Y-104247942D01*
X135426380Y-104400323D01*
X135464476Y-104476514D01*
X135502571Y-104514609D01*
X135578761Y-104552704D01*
X135731142Y-104552704D01*
X135807333Y-104514609D01*
X135845428Y-104476514D01*
X135883523Y-104400323D01*
X135883523Y-104247942D01*
X135845428Y-104171752D01*
X135807333Y-104133657D01*
X135731142Y-104095561D01*
X129660714Y-110521714D02*
X129622619Y-110559809D01*
X129508333Y-110597904D01*
X129432142Y-110597904D01*
X129317857Y-110559809D01*
X129241666Y-110483619D01*
X129203571Y-110407428D01*
X129165476Y-110255047D01*
X129165476Y-110140761D01*
X129203571Y-109988380D01*
X129241666Y-109912190D01*
X129317857Y-109836000D01*
X129432142Y-109797904D01*
X129508333Y-109797904D01*
X129622619Y-109836000D01*
X129660714Y-109874095D01*
X130422619Y-110597904D02*
X129965476Y-110597904D01*
X130194047Y-110597904D02*
X130194047Y-109797904D01*
X130117857Y-109912190D01*
X130041666Y-109988380D01*
X129965476Y-110026476D01*
X131108333Y-109797904D02*
X130955952Y-109797904D01*
X130879761Y-109836000D01*
X130841666Y-109874095D01*
X130765476Y-109988380D01*
X130727380Y-110140761D01*
X130727380Y-110445523D01*
X130765476Y-110521714D01*
X130803571Y-110559809D01*
X130879761Y-110597904D01*
X131032142Y-110597904D01*
X131108333Y-110559809D01*
X131146428Y-110521714D01*
X131184523Y-110445523D01*
X131184523Y-110255047D01*
X131146428Y-110178857D01*
X131108333Y-110140761D01*
X131032142Y-110102666D01*
X130879761Y-110102666D01*
X130803571Y-110140761D01*
X130765476Y-110178857D01*
X130727380Y-110255047D01*
X149313976Y-81045104D02*
X149313976Y-81692723D01*
X149352071Y-81768914D01*
X149390166Y-81807009D01*
X149466357Y-81845104D01*
X149618738Y-81845104D01*
X149694928Y-81807009D01*
X149733023Y-81768914D01*
X149771119Y-81692723D01*
X149771119Y-81045104D01*
X150075880Y-81045104D02*
X150571119Y-81045104D01*
X150304452Y-81349866D01*
X150418738Y-81349866D01*
X150494928Y-81387961D01*
X150533023Y-81426057D01*
X150571119Y-81502247D01*
X150571119Y-81692723D01*
X150533023Y-81768914D01*
X150494928Y-81807009D01*
X150418738Y-81845104D01*
X150190166Y-81845104D01*
X150113976Y-81807009D01*
X150075880Y-81768914D01*
X157219714Y-94011714D02*
X157181619Y-94049809D01*
X157067333Y-94087904D01*
X156991142Y-94087904D01*
X156876857Y-94049809D01*
X156800666Y-93973619D01*
X156762571Y-93897428D01*
X156724476Y-93745047D01*
X156724476Y-93630761D01*
X156762571Y-93478380D01*
X156800666Y-93402190D01*
X156876857Y-93326000D01*
X156991142Y-93287904D01*
X157067333Y-93287904D01*
X157181619Y-93326000D01*
X157219714Y-93364095D01*
X157981619Y-94087904D02*
X157524476Y-94087904D01*
X157753047Y-94087904D02*
X157753047Y-93287904D01*
X157676857Y-93402190D01*
X157600666Y-93478380D01*
X157524476Y-93516476D01*
X158248285Y-93287904D02*
X158781619Y-93287904D01*
X158438761Y-94087904D01*
X127279523Y-89096904D02*
X127279523Y-89744523D01*
X127317619Y-89820714D01*
X127355714Y-89858809D01*
X127431904Y-89896904D01*
X127584285Y-89896904D01*
X127660476Y-89858809D01*
X127698571Y-89820714D01*
X127736666Y-89744523D01*
X127736666Y-89096904D01*
X128536666Y-89896904D02*
X128079523Y-89896904D01*
X128308095Y-89896904D02*
X128308095Y-89096904D01*
X128231904Y-89211190D01*
X128155714Y-89287380D01*
X128079523Y-89325476D01*
X129031904Y-89096904D02*
X129108095Y-89096904D01*
X129184285Y-89135000D01*
X129222380Y-89173095D01*
X129260476Y-89249285D01*
X129298571Y-89401666D01*
X129298571Y-89592142D01*
X129260476Y-89744523D01*
X129222380Y-89820714D01*
X129184285Y-89858809D01*
X129108095Y-89896904D01*
X129031904Y-89896904D01*
X128955714Y-89858809D01*
X128917619Y-89820714D01*
X128879523Y-89744523D01*
X128841428Y-89592142D01*
X128841428Y-89401666D01*
X128879523Y-89249285D01*
X128917619Y-89173095D01*
X128955714Y-89135000D01*
X129031904Y-89096904D01*
X158597676Y-81400704D02*
X158597676Y-82048323D01*
X158635771Y-82124514D01*
X158673866Y-82162609D01*
X158750057Y-82200704D01*
X158902438Y-82200704D01*
X158978628Y-82162609D01*
X159016723Y-82124514D01*
X159054819Y-82048323D01*
X159054819Y-81400704D01*
X159473866Y-82200704D02*
X159626247Y-82200704D01*
X159702438Y-82162609D01*
X159740533Y-82124514D01*
X159816723Y-82010228D01*
X159854819Y-81857847D01*
X159854819Y-81553085D01*
X159816723Y-81476895D01*
X159778628Y-81438800D01*
X159702438Y-81400704D01*
X159550057Y-81400704D01*
X159473866Y-81438800D01*
X159435771Y-81476895D01*
X159397676Y-81553085D01*
X159397676Y-81743561D01*
X159435771Y-81819752D01*
X159473866Y-81857847D01*
X159550057Y-81895942D01*
X159702438Y-81895942D01*
X159778628Y-81857847D01*
X159816723Y-81819752D01*
X159854819Y-81743561D01*
X140766876Y-81045104D02*
X140766876Y-81692723D01*
X140804971Y-81768914D01*
X140843066Y-81807009D01*
X140919257Y-81845104D01*
X141071638Y-81845104D01*
X141147828Y-81807009D01*
X141185923Y-81768914D01*
X141224019Y-81692723D01*
X141224019Y-81045104D01*
X141719257Y-81387961D02*
X141643066Y-81349866D01*
X141604971Y-81311771D01*
X141566876Y-81235580D01*
X141566876Y-81197485D01*
X141604971Y-81121295D01*
X141643066Y-81083200D01*
X141719257Y-81045104D01*
X141871638Y-81045104D01*
X141947828Y-81083200D01*
X141985923Y-81121295D01*
X142024019Y-81197485D01*
X142024019Y-81235580D01*
X141985923Y-81311771D01*
X141947828Y-81349866D01*
X141871638Y-81387961D01*
X141719257Y-81387961D01*
X141643066Y-81426057D01*
X141604971Y-81464152D01*
X141566876Y-81540342D01*
X141566876Y-81692723D01*
X141604971Y-81768914D01*
X141643066Y-81807009D01*
X141719257Y-81845104D01*
X141871638Y-81845104D01*
X141947828Y-81807009D01*
X141985923Y-81768914D01*
X142024019Y-81692723D01*
X142024019Y-81540342D01*
X141985923Y-81464152D01*
X141947828Y-81426057D01*
X141871638Y-81387961D01*
X145135676Y-87649104D02*
X145135676Y-88296723D01*
X145173771Y-88372914D01*
X145211866Y-88411009D01*
X145288057Y-88449104D01*
X145440438Y-88449104D01*
X145516628Y-88411009D01*
X145554723Y-88372914D01*
X145592819Y-88296723D01*
X145592819Y-87649104D01*
X145897580Y-87649104D02*
X146430914Y-87649104D01*
X146088057Y-88449104D01*
X132588076Y-97809104D02*
X132588076Y-98456723D01*
X132626171Y-98532914D01*
X132664266Y-98571009D01*
X132740457Y-98609104D01*
X132892838Y-98609104D01*
X132969028Y-98571009D01*
X133007123Y-98532914D01*
X133045219Y-98456723D01*
X133045219Y-97809104D01*
X133769028Y-97809104D02*
X133616647Y-97809104D01*
X133540457Y-97847200D01*
X133502361Y-97885295D01*
X133426171Y-97999580D01*
X133388076Y-98151961D01*
X133388076Y-98456723D01*
X133426171Y-98532914D01*
X133464266Y-98571009D01*
X133540457Y-98609104D01*
X133692838Y-98609104D01*
X133769028Y-98571009D01*
X133807123Y-98532914D01*
X133845219Y-98456723D01*
X133845219Y-98266247D01*
X133807123Y-98190057D01*
X133769028Y-98151961D01*
X133692838Y-98113866D01*
X133540457Y-98113866D01*
X133464266Y-98151961D01*
X133426171Y-98190057D01*
X133388076Y-98266247D01*
X147497876Y-88588904D02*
X147497876Y-89236523D01*
X147535971Y-89312714D01*
X147574066Y-89350809D01*
X147650257Y-89388904D01*
X147802638Y-89388904D01*
X147878828Y-89350809D01*
X147916923Y-89312714D01*
X147955019Y-89236523D01*
X147955019Y-88588904D01*
X148716923Y-88588904D02*
X148335971Y-88588904D01*
X148297876Y-88969857D01*
X148335971Y-88931761D01*
X148412161Y-88893666D01*
X148602638Y-88893666D01*
X148678828Y-88931761D01*
X148716923Y-88969857D01*
X148755019Y-89046047D01*
X148755019Y-89236523D01*
X148716923Y-89312714D01*
X148678828Y-89350809D01*
X148602638Y-89388904D01*
X148412161Y-89388904D01*
X148335971Y-89350809D01*
X148297876Y-89312714D01*
X141528876Y-108807304D02*
X141528876Y-109454923D01*
X141566971Y-109531114D01*
X141605066Y-109569209D01*
X141681257Y-109607304D01*
X141833638Y-109607304D01*
X141909828Y-109569209D01*
X141947923Y-109531114D01*
X141986019Y-109454923D01*
X141986019Y-108807304D01*
X142709828Y-109073971D02*
X142709828Y-109607304D01*
X142519352Y-108769209D02*
X142328876Y-109340638D01*
X142824114Y-109340638D01*
X144348276Y-95713604D02*
X144348276Y-96361223D01*
X144386371Y-96437414D01*
X144424466Y-96475509D01*
X144500657Y-96513604D01*
X144653038Y-96513604D01*
X144729228Y-96475509D01*
X144767323Y-96437414D01*
X144805419Y-96361223D01*
X144805419Y-95713604D01*
X145148276Y-95789795D02*
X145186371Y-95751700D01*
X145262561Y-95713604D01*
X145453038Y-95713604D01*
X145529228Y-95751700D01*
X145567323Y-95789795D01*
X145605419Y-95865985D01*
X145605419Y-95942176D01*
X145567323Y-96056461D01*
X145110180Y-96513604D01*
X145605419Y-96513604D01*
X155143276Y-97809104D02*
X155143276Y-98456723D01*
X155181371Y-98532914D01*
X155219466Y-98571009D01*
X155295657Y-98609104D01*
X155448038Y-98609104D01*
X155524228Y-98571009D01*
X155562323Y-98532914D01*
X155600419Y-98456723D01*
X155600419Y-97809104D01*
X156400419Y-98609104D02*
X155943276Y-98609104D01*
X156171847Y-98609104D02*
X156171847Y-97809104D01*
X156095657Y-97923390D01*
X156019466Y-97999580D01*
X155943276Y-98037676D01*
X158991333Y-90239904D02*
X158991333Y-90811333D01*
X158953238Y-90925619D01*
X158877047Y-91001809D01*
X158762761Y-91039904D01*
X158686571Y-91039904D01*
X159715142Y-90506571D02*
X159715142Y-91039904D01*
X159524666Y-90201809D02*
X159334190Y-90773238D01*
X159829428Y-90773238D01*
X147859809Y-107473704D02*
X147593142Y-107092752D01*
X147402666Y-107473704D02*
X147402666Y-106673704D01*
X147707428Y-106673704D01*
X147783619Y-106711800D01*
X147821714Y-106749895D01*
X147859809Y-106826085D01*
X147859809Y-106940371D01*
X147821714Y-107016561D01*
X147783619Y-107054657D01*
X147707428Y-107092752D01*
X147402666Y-107092752D01*
X148088380Y-106673704D02*
X148355047Y-107473704D01*
X148621714Y-106673704D01*
X149307428Y-107473704D02*
X148850285Y-107473704D01*
X149078857Y-107473704D02*
X149078857Y-106673704D01*
X149002666Y-106787990D01*
X148926476Y-106864180D01*
X148850285Y-106902276D01*
X152215914Y-96196104D02*
X151949247Y-95815152D01*
X151758771Y-96196104D02*
X151758771Y-95396104D01*
X152063533Y-95396104D01*
X152139723Y-95434200D01*
X152177819Y-95472295D01*
X152215914Y-95548485D01*
X152215914Y-95662771D01*
X152177819Y-95738961D01*
X152139723Y-95777057D01*
X152063533Y-95815152D01*
X151758771Y-95815152D01*
X152977819Y-96196104D02*
X152520676Y-96196104D01*
X152749247Y-96196104D02*
X152749247Y-95396104D01*
X152673057Y-95510390D01*
X152596866Y-95586580D01*
X152520676Y-95624676D01*
X153739723Y-96196104D02*
X153282580Y-96196104D01*
X153511152Y-96196104D02*
X153511152Y-95396104D01*
X153434961Y-95510390D01*
X153358771Y-95586580D01*
X153282580Y-95624676D01*
X157346714Y-96881904D02*
X157080047Y-96500952D01*
X156889571Y-96881904D02*
X156889571Y-96081904D01*
X157194333Y-96081904D01*
X157270523Y-96120000D01*
X157308619Y-96158095D01*
X157346714Y-96234285D01*
X157346714Y-96348571D01*
X157308619Y-96424761D01*
X157270523Y-96462857D01*
X157194333Y-96500952D01*
X156889571Y-96500952D01*
X158108619Y-96881904D02*
X157651476Y-96881904D01*
X157880047Y-96881904D02*
X157880047Y-96081904D01*
X157803857Y-96196190D01*
X157727666Y-96272380D01*
X157651476Y-96310476D01*
X158603857Y-96081904D02*
X158680047Y-96081904D01*
X158756238Y-96120000D01*
X158794333Y-96158095D01*
X158832428Y-96234285D01*
X158870523Y-96386666D01*
X158870523Y-96577142D01*
X158832428Y-96729523D01*
X158794333Y-96805714D01*
X158756238Y-96843809D01*
X158680047Y-96881904D01*
X158603857Y-96881904D01*
X158527666Y-96843809D01*
X158489571Y-96805714D01*
X158451476Y-96729523D01*
X158413380Y-96577142D01*
X158413380Y-96386666D01*
X158451476Y-96234285D01*
X158489571Y-96158095D01*
X158527666Y-96120000D01*
X158603857Y-96081904D01*
X157346666Y-95103904D02*
X157080000Y-94722952D01*
X156889523Y-95103904D02*
X156889523Y-94303904D01*
X157194285Y-94303904D01*
X157270476Y-94342000D01*
X157308571Y-94380095D01*
X157346666Y-94456285D01*
X157346666Y-94570571D01*
X157308571Y-94646761D01*
X157270476Y-94684857D01*
X157194285Y-94722952D01*
X156889523Y-94722952D01*
X157803809Y-94646761D02*
X157727619Y-94608666D01*
X157689523Y-94570571D01*
X157651428Y-94494380D01*
X157651428Y-94456285D01*
X157689523Y-94380095D01*
X157727619Y-94342000D01*
X157803809Y-94303904D01*
X157956190Y-94303904D01*
X158032380Y-94342000D01*
X158070476Y-94380095D01*
X158108571Y-94456285D01*
X158108571Y-94494380D01*
X158070476Y-94570571D01*
X158032380Y-94608666D01*
X157956190Y-94646761D01*
X157803809Y-94646761D01*
X157727619Y-94684857D01*
X157689523Y-94722952D01*
X157651428Y-94799142D01*
X157651428Y-94951523D01*
X157689523Y-95027714D01*
X157727619Y-95065809D01*
X157803809Y-95103904D01*
X157956190Y-95103904D01*
X158032380Y-95065809D01*
X158070476Y-95027714D01*
X158108571Y-94951523D01*
X158108571Y-94799142D01*
X158070476Y-94722952D01*
X158032380Y-94684857D01*
X157956190Y-94646761D01*
X155949666Y-85883704D02*
X155683000Y-85502752D01*
X155492523Y-85883704D02*
X155492523Y-85083704D01*
X155797285Y-85083704D01*
X155873476Y-85121800D01*
X155911571Y-85159895D01*
X155949666Y-85236085D01*
X155949666Y-85350371D01*
X155911571Y-85426561D01*
X155873476Y-85464657D01*
X155797285Y-85502752D01*
X155492523Y-85502752D01*
X156216333Y-85083704D02*
X156749666Y-85083704D01*
X156406809Y-85883704D01*
X137280666Y-97948704D02*
X137014000Y-97567752D01*
X136823523Y-97948704D02*
X136823523Y-97148704D01*
X137128285Y-97148704D01*
X137204476Y-97186800D01*
X137242571Y-97224895D01*
X137280666Y-97301085D01*
X137280666Y-97415371D01*
X137242571Y-97491561D01*
X137204476Y-97529657D01*
X137128285Y-97567752D01*
X136823523Y-97567752D01*
X137547333Y-97148704D02*
X138042571Y-97148704D01*
X137775904Y-97453466D01*
X137890190Y-97453466D01*
X137966380Y-97491561D01*
X138004476Y-97529657D01*
X138042571Y-97605847D01*
X138042571Y-97796323D01*
X138004476Y-97872514D01*
X137966380Y-97910609D01*
X137890190Y-97948704D01*
X137661619Y-97948704D01*
X137585428Y-97910609D01*
X137547333Y-97872514D01*
X150412466Y-106483104D02*
X150145800Y-106102152D01*
X149955323Y-106483104D02*
X149955323Y-105683104D01*
X150260085Y-105683104D01*
X150336276Y-105721200D01*
X150374371Y-105759295D01*
X150412466Y-105835485D01*
X150412466Y-105949771D01*
X150374371Y-106025961D01*
X150336276Y-106064057D01*
X150260085Y-106102152D01*
X149955323Y-106102152D01*
X150717228Y-105759295D02*
X150755323Y-105721200D01*
X150831514Y-105683104D01*
X151021990Y-105683104D01*
X151098180Y-105721200D01*
X151136276Y-105759295D01*
X151174371Y-105835485D01*
X151174371Y-105911676D01*
X151136276Y-106025961D01*
X150679133Y-106483104D01*
X151174371Y-106483104D01*
X152266666Y-100704604D02*
X152000000Y-100323652D01*
X151809523Y-100704604D02*
X151809523Y-99904604D01*
X152114285Y-99904604D01*
X152190476Y-99942700D01*
X152228571Y-99980795D01*
X152266666Y-100056985D01*
X152266666Y-100171271D01*
X152228571Y-100247461D01*
X152190476Y-100285557D01*
X152114285Y-100323652D01*
X151809523Y-100323652D01*
X153028571Y-100704604D02*
X152571428Y-100704604D01*
X152800000Y-100704604D02*
X152800000Y-99904604D01*
X152723809Y-100018890D01*
X152647619Y-100095080D01*
X152571428Y-100133176D01*
X136639333Y-109670904D02*
X136639333Y-110242333D01*
X136601238Y-110356619D01*
X136525047Y-110432809D01*
X136410761Y-110470904D01*
X136334571Y-110470904D01*
X137363142Y-109670904D02*
X137210761Y-109670904D01*
X137134571Y-109709000D01*
X137096476Y-109747095D01*
X137020285Y-109861380D01*
X136982190Y-110013761D01*
X136982190Y-110318523D01*
X137020285Y-110394714D01*
X137058380Y-110432809D01*
X137134571Y-110470904D01*
X137286952Y-110470904D01*
X137363142Y-110432809D01*
X137401238Y-110394714D01*
X137439333Y-110318523D01*
X137439333Y-110128047D01*
X137401238Y-110051857D01*
X137363142Y-110013761D01*
X137286952Y-109975666D01*
X137134571Y-109975666D01*
X137058380Y-110013761D01*
X137020285Y-110051857D01*
X136982190Y-110128047D01*
X129070133Y-90951104D02*
X129070133Y-91522533D01*
X129032038Y-91636819D01*
X128955847Y-91713009D01*
X128841561Y-91751104D01*
X128765371Y-91751104D01*
X129374895Y-90951104D02*
X129870133Y-90951104D01*
X129603466Y-91255866D01*
X129717752Y-91255866D01*
X129793942Y-91293961D01*
X129832038Y-91332057D01*
X129870133Y-91408247D01*
X129870133Y-91598723D01*
X129832038Y-91674914D01*
X129793942Y-91713009D01*
X129717752Y-91751104D01*
X129489180Y-91751104D01*
X129412990Y-91713009D01*
X129374895Y-91674914D01*
X134658133Y-81045104D02*
X134658133Y-81616533D01*
X134620038Y-81730819D01*
X134543847Y-81807009D01*
X134429561Y-81845104D01*
X134353371Y-81845104D01*
X135000990Y-81121295D02*
X135039085Y-81083200D01*
X135115276Y-81045104D01*
X135305752Y-81045104D01*
X135381942Y-81083200D01*
X135420038Y-81121295D01*
X135458133Y-81197485D01*
X135458133Y-81273676D01*
X135420038Y-81387961D01*
X134962895Y-81845104D01*
X135458133Y-81845104D01*
X152895333Y-107003904D02*
X152895333Y-107575333D01*
X152857238Y-107689619D01*
X152781047Y-107765809D01*
X152666761Y-107803904D01*
X152590571Y-107803904D01*
X153695333Y-107803904D02*
X153238190Y-107803904D01*
X153466761Y-107803904D02*
X153466761Y-107003904D01*
X153390571Y-107118190D01*
X153314380Y-107194380D01*
X153238190Y-107232476D01*
X125139523Y-89261904D02*
X125139523Y-88461904D01*
X125330000Y-88461904D01*
X125444285Y-88500000D01*
X125520476Y-88576190D01*
X125558571Y-88652380D01*
X125596666Y-88804761D01*
X125596666Y-88919047D01*
X125558571Y-89071428D01*
X125520476Y-89147619D01*
X125444285Y-89223809D01*
X125330000Y-89261904D01*
X125139523Y-89261904D01*
X125977619Y-89261904D02*
X126130000Y-89261904D01*
X126206190Y-89223809D01*
X126244285Y-89185714D01*
X126320476Y-89071428D01*
X126358571Y-88919047D01*
X126358571Y-88614285D01*
X126320476Y-88538095D01*
X126282380Y-88500000D01*
X126206190Y-88461904D01*
X126053809Y-88461904D01*
X125977619Y-88500000D01*
X125939523Y-88538095D01*
X125901428Y-88614285D01*
X125901428Y-88804761D01*
X125939523Y-88880952D01*
X125977619Y-88919047D01*
X126053809Y-88957142D01*
X126206190Y-88957142D01*
X126282380Y-88919047D01*
X126320476Y-88880952D01*
X126358571Y-88804761D01*
X162604523Y-89134904D02*
X162604523Y-88334904D01*
X162795000Y-88334904D01*
X162909285Y-88373000D01*
X162985476Y-88449190D01*
X163023571Y-88525380D01*
X163061666Y-88677761D01*
X163061666Y-88792047D01*
X163023571Y-88944428D01*
X162985476Y-89020619D01*
X162909285Y-89096809D01*
X162795000Y-89134904D01*
X162604523Y-89134904D01*
X163518809Y-88677761D02*
X163442619Y-88639666D01*
X163404523Y-88601571D01*
X163366428Y-88525380D01*
X163366428Y-88487285D01*
X163404523Y-88411095D01*
X163442619Y-88373000D01*
X163518809Y-88334904D01*
X163671190Y-88334904D01*
X163747380Y-88373000D01*
X163785476Y-88411095D01*
X163823571Y-88487285D01*
X163823571Y-88525380D01*
X163785476Y-88601571D01*
X163747380Y-88639666D01*
X163671190Y-88677761D01*
X163518809Y-88677761D01*
X163442619Y-88715857D01*
X163404523Y-88753952D01*
X163366428Y-88830142D01*
X163366428Y-88982523D01*
X163404523Y-89058714D01*
X163442619Y-89096809D01*
X163518809Y-89134904D01*
X163671190Y-89134904D01*
X163747380Y-89096809D01*
X163785476Y-89058714D01*
X163823571Y-88982523D01*
X163823571Y-88830142D01*
X163785476Y-88753952D01*
X163747380Y-88715857D01*
X163671190Y-88677761D01*
X125139523Y-95611904D02*
X125139523Y-94811904D01*
X125330000Y-94811904D01*
X125444285Y-94850000D01*
X125520476Y-94926190D01*
X125558571Y-95002380D01*
X125596666Y-95154761D01*
X125596666Y-95269047D01*
X125558571Y-95421428D01*
X125520476Y-95497619D01*
X125444285Y-95573809D01*
X125330000Y-95611904D01*
X125139523Y-95611904D01*
X125863333Y-94811904D02*
X126396666Y-94811904D01*
X126053809Y-95611904D01*
X162604523Y-109454904D02*
X162604523Y-108654904D01*
X162795000Y-108654904D01*
X162909285Y-108693000D01*
X162985476Y-108769190D01*
X163023571Y-108845380D01*
X163061666Y-108997761D01*
X163061666Y-109112047D01*
X163023571Y-109264428D01*
X162985476Y-109340619D01*
X162909285Y-109416809D01*
X162795000Y-109454904D01*
X162604523Y-109454904D01*
X163747380Y-108654904D02*
X163595000Y-108654904D01*
X163518809Y-108693000D01*
X163480714Y-108731095D01*
X163404523Y-108845380D01*
X163366428Y-108997761D01*
X163366428Y-109302523D01*
X163404523Y-109378714D01*
X163442619Y-109416809D01*
X163518809Y-109454904D01*
X163671190Y-109454904D01*
X163747380Y-109416809D01*
X163785476Y-109378714D01*
X163823571Y-109302523D01*
X163823571Y-109112047D01*
X163785476Y-109035857D01*
X163747380Y-108997761D01*
X163671190Y-108959666D01*
X163518809Y-108959666D01*
X163442619Y-108997761D01*
X163404523Y-109035857D01*
X163366428Y-109112047D01*
X125139523Y-102596904D02*
X125139523Y-101796904D01*
X125330000Y-101796904D01*
X125444285Y-101835000D01*
X125520476Y-101911190D01*
X125558571Y-101987380D01*
X125596666Y-102139761D01*
X125596666Y-102254047D01*
X125558571Y-102406428D01*
X125520476Y-102482619D01*
X125444285Y-102558809D01*
X125330000Y-102596904D01*
X125139523Y-102596904D01*
X126320476Y-101796904D02*
X125939523Y-101796904D01*
X125901428Y-102177857D01*
X125939523Y-102139761D01*
X126015714Y-102101666D01*
X126206190Y-102101666D01*
X126282380Y-102139761D01*
X126320476Y-102177857D01*
X126358571Y-102254047D01*
X126358571Y-102444523D01*
X126320476Y-102520714D01*
X126282380Y-102558809D01*
X126206190Y-102596904D01*
X126015714Y-102596904D01*
X125939523Y-102558809D01*
X125901428Y-102520714D01*
X162604523Y-102469904D02*
X162604523Y-101669904D01*
X162795000Y-101669904D01*
X162909285Y-101708000D01*
X162985476Y-101784190D01*
X163023571Y-101860380D01*
X163061666Y-102012761D01*
X163061666Y-102127047D01*
X163023571Y-102279428D01*
X162985476Y-102355619D01*
X162909285Y-102431809D01*
X162795000Y-102469904D01*
X162604523Y-102469904D01*
X163747380Y-101936571D02*
X163747380Y-102469904D01*
X163556904Y-101631809D02*
X163366428Y-102203238D01*
X163861666Y-102203238D01*
X125139523Y-109581904D02*
X125139523Y-108781904D01*
X125330000Y-108781904D01*
X125444285Y-108820000D01*
X125520476Y-108896190D01*
X125558571Y-108972380D01*
X125596666Y-109124761D01*
X125596666Y-109239047D01*
X125558571Y-109391428D01*
X125520476Y-109467619D01*
X125444285Y-109543809D01*
X125330000Y-109581904D01*
X125139523Y-109581904D01*
X125863333Y-108781904D02*
X126358571Y-108781904D01*
X126091904Y-109086666D01*
X126206190Y-109086666D01*
X126282380Y-109124761D01*
X126320476Y-109162857D01*
X126358571Y-109239047D01*
X126358571Y-109429523D01*
X126320476Y-109505714D01*
X126282380Y-109543809D01*
X126206190Y-109581904D01*
X125977619Y-109581904D01*
X125901428Y-109543809D01*
X125863333Y-109505714D01*
X162604523Y-95484904D02*
X162604523Y-94684904D01*
X162795000Y-94684904D01*
X162909285Y-94723000D01*
X162985476Y-94799190D01*
X163023571Y-94875380D01*
X163061666Y-95027761D01*
X163061666Y-95142047D01*
X163023571Y-95294428D01*
X162985476Y-95370619D01*
X162909285Y-95446809D01*
X162795000Y-95484904D01*
X162604523Y-95484904D01*
X163366428Y-94761095D02*
X163404523Y-94723000D01*
X163480714Y-94684904D01*
X163671190Y-94684904D01*
X163747380Y-94723000D01*
X163785476Y-94761095D01*
X163823571Y-94837285D01*
X163823571Y-94913476D01*
X163785476Y-95027761D01*
X163328333Y-95484904D01*
X163823571Y-95484904D01*
X137636323Y-81845104D02*
X137636323Y-81045104D01*
X137826800Y-81045104D01*
X137941085Y-81083200D01*
X138017276Y-81159390D01*
X138055371Y-81235580D01*
X138093466Y-81387961D01*
X138093466Y-81502247D01*
X138055371Y-81654628D01*
X138017276Y-81730819D01*
X137941085Y-81807009D01*
X137826800Y-81845104D01*
X137636323Y-81845104D01*
X138855371Y-81845104D02*
X138398228Y-81845104D01*
X138626800Y-81845104D02*
X138626800Y-81045104D01*
X138550609Y-81159390D01*
X138474419Y-81235580D01*
X138398228Y-81273676D01*
X125190314Y-81819714D02*
X125152219Y-81857809D01*
X125037933Y-81895904D01*
X124961742Y-81895904D01*
X124847457Y-81857809D01*
X124771266Y-81781619D01*
X124733171Y-81705428D01*
X124695076Y-81553047D01*
X124695076Y-81438761D01*
X124733171Y-81286380D01*
X124771266Y-81210190D01*
X124847457Y-81134000D01*
X124961742Y-81095904D01*
X125037933Y-81095904D01*
X125152219Y-81134000D01*
X125190314Y-81172095D01*
X125952219Y-81895904D02*
X125495076Y-81895904D01*
X125723647Y-81895904D02*
X125723647Y-81095904D01*
X125647457Y-81210190D01*
X125571266Y-81286380D01*
X125495076Y-81324476D01*
X126676028Y-81095904D02*
X126295076Y-81095904D01*
X126256980Y-81476857D01*
X126295076Y-81438761D01*
X126371266Y-81400666D01*
X126561742Y-81400666D01*
X126637933Y-81438761D01*
X126676028Y-81476857D01*
X126714123Y-81553047D01*
X126714123Y-81743523D01*
X126676028Y-81819714D01*
X126637933Y-81857809D01*
X126561742Y-81895904D01*
X126371266Y-81895904D01*
X126295076Y-81857809D01*
X126256980Y-81819714D01*
X162706114Y-81819714D02*
X162668019Y-81857809D01*
X162553733Y-81895904D01*
X162477542Y-81895904D01*
X162363257Y-81857809D01*
X162287066Y-81781619D01*
X162248971Y-81705428D01*
X162210876Y-81553047D01*
X162210876Y-81438761D01*
X162248971Y-81286380D01*
X162287066Y-81210190D01*
X162363257Y-81134000D01*
X162477542Y-81095904D01*
X162553733Y-81095904D01*
X162668019Y-81134000D01*
X162706114Y-81172095D01*
X163468019Y-81895904D02*
X163010876Y-81895904D01*
X163239447Y-81895904D02*
X163239447Y-81095904D01*
X163163257Y-81210190D01*
X163087066Y-81286380D01*
X163010876Y-81324476D01*
X164153733Y-81362571D02*
X164153733Y-81895904D01*
X163963257Y-81057809D02*
X163772780Y-81629238D01*
X164268019Y-81629238D01*
X155898914Y-86925114D02*
X155860819Y-86963209D01*
X155746533Y-87001304D01*
X155670342Y-87001304D01*
X155556057Y-86963209D01*
X155479866Y-86887019D01*
X155441771Y-86810828D01*
X155403676Y-86658447D01*
X155403676Y-86544161D01*
X155441771Y-86391780D01*
X155479866Y-86315590D01*
X155556057Y-86239400D01*
X155670342Y-86201304D01*
X155746533Y-86201304D01*
X155860819Y-86239400D01*
X155898914Y-86277495D01*
X156660819Y-87001304D02*
X156203676Y-87001304D01*
X156432247Y-87001304D02*
X156432247Y-86201304D01*
X156356057Y-86315590D01*
X156279866Y-86391780D01*
X156203676Y-86429876D01*
X156927485Y-86201304D02*
X157422723Y-86201304D01*
X157156057Y-86506066D01*
X157270342Y-86506066D01*
X157346533Y-86544161D01*
X157384628Y-86582257D01*
X157422723Y-86658447D01*
X157422723Y-86848923D01*
X157384628Y-86925114D01*
X157346533Y-86963209D01*
X157270342Y-87001304D01*
X157041771Y-87001304D01*
X156965580Y-86963209D01*
X156927485Y-86925114D01*
X155949714Y-82429314D02*
X155911619Y-82467409D01*
X155797333Y-82505504D01*
X155721142Y-82505504D01*
X155606857Y-82467409D01*
X155530666Y-82391219D01*
X155492571Y-82315028D01*
X155454476Y-82162647D01*
X155454476Y-82048361D01*
X155492571Y-81895980D01*
X155530666Y-81819790D01*
X155606857Y-81743600D01*
X155721142Y-81705504D01*
X155797333Y-81705504D01*
X155911619Y-81743600D01*
X155949714Y-81781695D01*
X156711619Y-82505504D02*
X156254476Y-82505504D01*
X156483047Y-82505504D02*
X156483047Y-81705504D01*
X156406857Y-81819790D01*
X156330666Y-81895980D01*
X156254476Y-81934076D01*
X157016380Y-81781695D02*
X157054476Y-81743600D01*
X157130666Y-81705504D01*
X157321142Y-81705504D01*
X157397333Y-81743600D01*
X157435428Y-81781695D01*
X157473523Y-81857885D01*
X157473523Y-81934076D01*
X157435428Y-82048361D01*
X156978285Y-82505504D01*
X157473523Y-82505504D01*
X143757714Y-81768914D02*
X143719619Y-81807009D01*
X143605333Y-81845104D01*
X143529142Y-81845104D01*
X143414857Y-81807009D01*
X143338666Y-81730819D01*
X143300571Y-81654628D01*
X143262476Y-81502247D01*
X143262476Y-81387961D01*
X143300571Y-81235580D01*
X143338666Y-81159390D01*
X143414857Y-81083200D01*
X143529142Y-81045104D01*
X143605333Y-81045104D01*
X143719619Y-81083200D01*
X143757714Y-81121295D01*
X144519619Y-81845104D02*
X144062476Y-81845104D01*
X144291047Y-81845104D02*
X144291047Y-81045104D01*
X144214857Y-81159390D01*
X144138666Y-81235580D01*
X144062476Y-81273676D01*
X145281523Y-81845104D02*
X144824380Y-81845104D01*
X145052952Y-81845104D02*
X145052952Y-81045104D01*
X144976761Y-81159390D01*
X144900571Y-81235580D01*
X144824380Y-81273676D01*
X133826266Y-93960914D02*
X133788171Y-93999009D01*
X133673885Y-94037104D01*
X133597695Y-94037104D01*
X133483409Y-93999009D01*
X133407219Y-93922819D01*
X133369123Y-93846628D01*
X133331028Y-93694247D01*
X133331028Y-93579961D01*
X133369123Y-93427580D01*
X133407219Y-93351390D01*
X133483409Y-93275200D01*
X133597695Y-93237104D01*
X133673885Y-93237104D01*
X133788171Y-93275200D01*
X133826266Y-93313295D01*
X134207219Y-94037104D02*
X134359600Y-94037104D01*
X134435790Y-93999009D01*
X134473885Y-93960914D01*
X134550076Y-93846628D01*
X134588171Y-93694247D01*
X134588171Y-93389485D01*
X134550076Y-93313295D01*
X134511980Y-93275200D01*
X134435790Y-93237104D01*
X134283409Y-93237104D01*
X134207219Y-93275200D01*
X134169123Y-93313295D01*
X134131028Y-93389485D01*
X134131028Y-93579961D01*
X134169123Y-93656152D01*
X134207219Y-93694247D01*
X134283409Y-93732342D01*
X134435790Y-93732342D01*
X134511980Y-93694247D01*
X134550076Y-93656152D01*
X134588171Y-93579961D01*
X152266666Y-98850414D02*
X152228571Y-98888509D01*
X152114285Y-98926604D01*
X152038095Y-98926604D01*
X151923809Y-98888509D01*
X151847619Y-98812319D01*
X151809523Y-98736128D01*
X151771428Y-98583747D01*
X151771428Y-98469461D01*
X151809523Y-98317080D01*
X151847619Y-98240890D01*
X151923809Y-98164700D01*
X152038095Y-98126604D01*
X152114285Y-98126604D01*
X152228571Y-98164700D01*
X152266666Y-98202795D01*
X152533333Y-98126604D02*
X153066666Y-98126604D01*
X152723809Y-98926604D01*
X137382266Y-101707914D02*
X137344171Y-101746009D01*
X137229885Y-101784104D01*
X137153695Y-101784104D01*
X137039409Y-101746009D01*
X136963219Y-101669819D01*
X136925123Y-101593628D01*
X136887028Y-101441247D01*
X136887028Y-101326961D01*
X136925123Y-101174580D01*
X136963219Y-101098390D01*
X137039409Y-101022200D01*
X137153695Y-100984104D01*
X137229885Y-100984104D01*
X137344171Y-101022200D01*
X137382266Y-101060295D01*
X138067980Y-100984104D02*
X137915600Y-100984104D01*
X137839409Y-101022200D01*
X137801314Y-101060295D01*
X137725123Y-101174580D01*
X137687028Y-101326961D01*
X137687028Y-101631723D01*
X137725123Y-101707914D01*
X137763219Y-101746009D01*
X137839409Y-101784104D01*
X137991790Y-101784104D01*
X138067980Y-101746009D01*
X138106076Y-101707914D01*
X138144171Y-101631723D01*
X138144171Y-101441247D01*
X138106076Y-101365057D01*
X138067980Y-101326961D01*
X137991790Y-101288866D01*
X137839409Y-101288866D01*
X137763219Y-101326961D01*
X137725123Y-101365057D01*
X137687028Y-101441247D01*
X155949666Y-84664514D02*
X155911571Y-84702609D01*
X155797285Y-84740704D01*
X155721095Y-84740704D01*
X155606809Y-84702609D01*
X155530619Y-84626419D01*
X155492523Y-84550228D01*
X155454428Y-84397847D01*
X155454428Y-84283561D01*
X155492523Y-84131180D01*
X155530619Y-84054990D01*
X155606809Y-83978800D01*
X155721095Y-83940704D01*
X155797285Y-83940704D01*
X155911571Y-83978800D01*
X155949666Y-84016895D01*
X156673476Y-83940704D02*
X156292523Y-83940704D01*
X156254428Y-84321657D01*
X156292523Y-84283561D01*
X156368714Y-84245466D01*
X156559190Y-84245466D01*
X156635380Y-84283561D01*
X156673476Y-84321657D01*
X156711571Y-84397847D01*
X156711571Y-84588323D01*
X156673476Y-84664514D01*
X156635380Y-84702609D01*
X156559190Y-84740704D01*
X156368714Y-84740704D01*
X156292523Y-84702609D01*
X156254428Y-84664514D01*
X155949666Y-83521514D02*
X155911571Y-83559609D01*
X155797285Y-83597704D01*
X155721095Y-83597704D01*
X155606809Y-83559609D01*
X155530619Y-83483419D01*
X155492523Y-83407228D01*
X155454428Y-83254847D01*
X155454428Y-83140561D01*
X155492523Y-82988180D01*
X155530619Y-82911990D01*
X155606809Y-82835800D01*
X155721095Y-82797704D01*
X155797285Y-82797704D01*
X155911571Y-82835800D01*
X155949666Y-82873895D01*
X156635380Y-83064371D02*
X156635380Y-83597704D01*
X156444904Y-82759609D02*
X156254428Y-83331038D01*
X156749666Y-83331038D01*
X149167866Y-87814114D02*
X149129771Y-87852209D01*
X149015485Y-87890304D01*
X148939295Y-87890304D01*
X148825009Y-87852209D01*
X148748819Y-87776019D01*
X148710723Y-87699828D01*
X148672628Y-87547447D01*
X148672628Y-87433161D01*
X148710723Y-87280780D01*
X148748819Y-87204590D01*
X148825009Y-87128400D01*
X148939295Y-87090304D01*
X149015485Y-87090304D01*
X149129771Y-87128400D01*
X149167866Y-87166495D01*
X149434533Y-87090304D02*
X149929771Y-87090304D01*
X149663104Y-87395066D01*
X149777390Y-87395066D01*
X149853580Y-87433161D01*
X149891676Y-87471257D01*
X149929771Y-87547447D01*
X149929771Y-87737923D01*
X149891676Y-87814114D01*
X149853580Y-87852209D01*
X149777390Y-87890304D01*
X149548819Y-87890304D01*
X149472628Y-87852209D01*
X149434533Y-87814114D01*
X137280666Y-99142514D02*
X137242571Y-99180609D01*
X137128285Y-99218704D01*
X137052095Y-99218704D01*
X136937809Y-99180609D01*
X136861619Y-99104419D01*
X136823523Y-99028228D01*
X136785428Y-98875847D01*
X136785428Y-98761561D01*
X136823523Y-98609180D01*
X136861619Y-98532990D01*
X136937809Y-98456800D01*
X137052095Y-98418704D01*
X137128285Y-98418704D01*
X137242571Y-98456800D01*
X137280666Y-98494895D01*
X137585428Y-98494895D02*
X137623523Y-98456800D01*
X137699714Y-98418704D01*
X137890190Y-98418704D01*
X137966380Y-98456800D01*
X138004476Y-98494895D01*
X138042571Y-98571085D01*
X138042571Y-98647276D01*
X138004476Y-98761561D01*
X137547333Y-99218704D01*
X138042571Y-99218704D01*
X152266666Y-101707914D02*
X152228571Y-101746009D01*
X152114285Y-101784104D01*
X152038095Y-101784104D01*
X151923809Y-101746009D01*
X151847619Y-101669819D01*
X151809523Y-101593628D01*
X151771428Y-101441247D01*
X151771428Y-101326961D01*
X151809523Y-101174580D01*
X151847619Y-101098390D01*
X151923809Y-101022200D01*
X152038095Y-100984104D01*
X152114285Y-100984104D01*
X152228571Y-101022200D01*
X152266666Y-101060295D01*
X153028571Y-101784104D02*
X152571428Y-101784104D01*
X152800000Y-101784104D02*
X152800000Y-100984104D01*
X152723809Y-101098390D01*
X152647619Y-101174580D01*
X152571428Y-101212676D01*
M02*
