M48
; DRILL file {KiCad 5.1.5-52549c5~84~ubuntu18.04.1} date Tue 31 Mar 2020 23:43:53 BST
; FORMAT={-:-/ absolute / inch / decimal}
; #@! TF.CreationDate,2020-03-31T23:43:53+01:00
; #@! TF.GenerationSoftware,Kicad,Pcbnew,5.1.5-52549c5~84~ubuntu18.04.1
; #@! TF.FileFunction,Plated,1,2,PTH
FMAT,2
INCH
T1C0.0118
T2C0.0394
%
G90
G05
T1
X4.999Y-3.251
X5.07Y-4.295
X5.142Y-3.51
X5.145Y-4.113
X5.1905Y-3.918
X5.1905Y-3.993
X5.195Y-3.319
X5.2746Y-3.7969
X5.2866Y-3.9555
X5.3188Y-4.1689
X5.532Y-3.843
X5.532Y-3.993
X5.6025Y-3.2985
X5.606Y-3.366
X5.6296Y-4.2456
X5.6615Y-3.541
X5.662Y-3.641
X5.6925Y-3.378
X5.767Y-3.378
X5.79Y-3.61
X5.81Y-3.55
X5.81Y-3.6955
X5.858Y-3.378
X5.892Y-4.093
X5.9515Y-3.9185
X6.006Y-3.412
X6.014Y-3.9185
X6.0741Y-3.4449
X6.105Y-3.277
X6.15Y-3.69
X6.15Y-3.73
X6.15Y-3.8
X6.15Y-3.8415
X6.189Y-3.4465
X6.209Y-4.0335
X6.275Y-3.259
X6.38Y-3.25
T2
X5.312Y-3.294
X5.312Y-3.394
X6.042Y-4.133
X6.142Y-4.133
X6.064Y-3.598
X6.164Y-3.598
X5.44Y-4.137
X5.44Y-4.237
X5.198Y-3.597
X5.298Y-3.597
X5.398Y-3.597
X5.498Y-3.597
X5.598Y-3.597
X5.607Y-4.133
X5.707Y-4.133
X5.807Y-4.133
T0
M30
