G04 #@! TF.GenerationSoftware,KiCad,Pcbnew,5.1.5-52549c5~84~ubuntu18.04.1*
G04 #@! TF.CreationDate,2020-03-31T23:43:49+01:00*
G04 #@! TF.ProjectId,OverdrivePedal_RevB,4f766572-6472-4697-9665-506564616c5f,RevB*
G04 #@! TF.SameCoordinates,Original*
G04 #@! TF.FileFunction,Soldermask,Bot*
G04 #@! TF.FilePolarity,Negative*
%FSLAX46Y46*%
G04 Gerber Fmt 4.6, Leading zero omitted, Abs format (unit mm)*
G04 Created by KiCad (PCBNEW 5.1.5-52549c5~84~ubuntu18.04.1) date 2020-03-31 23:43:49*
%MOMM*%
%LPD*%
G04 APERTURE LIST*
%ADD10C,0.100000*%
G04 APERTURE END LIST*
D10*
G36*
X138289512Y-106723727D02*
G01*
X138438812Y-106753424D01*
X138602784Y-106821344D01*
X138750354Y-106919947D01*
X138875853Y-107045446D01*
X138974456Y-107193016D01*
X139042376Y-107356988D01*
X139077000Y-107531059D01*
X139077000Y-107708541D01*
X139042376Y-107882612D01*
X138974456Y-108046584D01*
X138875853Y-108194154D01*
X138750354Y-108319653D01*
X138602784Y-108418256D01*
X138438812Y-108486176D01*
X138289512Y-108515873D01*
X138264742Y-108520800D01*
X138087258Y-108520800D01*
X138062488Y-108515873D01*
X137913188Y-108486176D01*
X137749216Y-108418256D01*
X137601646Y-108319653D01*
X137476147Y-108194154D01*
X137377544Y-108046584D01*
X137309624Y-107882612D01*
X137275000Y-107708541D01*
X137275000Y-107531059D01*
X137309624Y-107356988D01*
X137377544Y-107193016D01*
X137476147Y-107045446D01*
X137601646Y-106919947D01*
X137749216Y-106821344D01*
X137913188Y-106753424D01*
X138062488Y-106723727D01*
X138087258Y-106718800D01*
X138264742Y-106718800D01*
X138289512Y-106723727D01*
G37*
G36*
X139077000Y-105980800D02*
G01*
X137275000Y-105980800D01*
X137275000Y-104178800D01*
X139077000Y-104178800D01*
X139077000Y-105980800D01*
G37*
G36*
X156907800Y-105879200D02*
G01*
X155105800Y-105879200D01*
X155105800Y-104077200D01*
X156907800Y-104077200D01*
X156907800Y-105879200D01*
G37*
G36*
X153580312Y-104082127D02*
G01*
X153729612Y-104111824D01*
X153893584Y-104179744D01*
X154041154Y-104278347D01*
X154166653Y-104403846D01*
X154265256Y-104551416D01*
X154333176Y-104715388D01*
X154367800Y-104889459D01*
X154367800Y-105066941D01*
X154333176Y-105241012D01*
X154265256Y-105404984D01*
X154166653Y-105552554D01*
X154041154Y-105678053D01*
X153893584Y-105776656D01*
X153729612Y-105844576D01*
X153580312Y-105874273D01*
X153555542Y-105879200D01*
X153378058Y-105879200D01*
X153353288Y-105874273D01*
X153203988Y-105844576D01*
X153040016Y-105776656D01*
X152892446Y-105678053D01*
X152766947Y-105552554D01*
X152668344Y-105404984D01*
X152600424Y-105241012D01*
X152565800Y-105066941D01*
X152565800Y-104889459D01*
X152600424Y-104715388D01*
X152668344Y-104551416D01*
X152766947Y-104403846D01*
X152892446Y-104278347D01*
X153040016Y-104179744D01*
X153203988Y-104111824D01*
X153353288Y-104082127D01*
X153378058Y-104077200D01*
X153555542Y-104077200D01*
X153580312Y-104082127D01*
G37*
G36*
X148398800Y-105879200D02*
G01*
X146596800Y-105879200D01*
X146596800Y-104077200D01*
X148398800Y-104077200D01*
X148398800Y-105879200D01*
G37*
G36*
X145071312Y-104082127D02*
G01*
X145220612Y-104111824D01*
X145384584Y-104179744D01*
X145532154Y-104278347D01*
X145657653Y-104403846D01*
X145756256Y-104551416D01*
X145824176Y-104715388D01*
X145858800Y-104889459D01*
X145858800Y-105066941D01*
X145824176Y-105241012D01*
X145756256Y-105404984D01*
X145657653Y-105552554D01*
X145532154Y-105678053D01*
X145384584Y-105776656D01*
X145220612Y-105844576D01*
X145071312Y-105874273D01*
X145046542Y-105879200D01*
X144869058Y-105879200D01*
X144844288Y-105874273D01*
X144694988Y-105844576D01*
X144531016Y-105776656D01*
X144383446Y-105678053D01*
X144257947Y-105552554D01*
X144159344Y-105404984D01*
X144091424Y-105241012D01*
X144056800Y-105066941D01*
X144056800Y-104889459D01*
X144091424Y-104715388D01*
X144159344Y-104551416D01*
X144257947Y-104403846D01*
X144383446Y-104278347D01*
X144531016Y-104179744D01*
X144694988Y-104111824D01*
X144844288Y-104082127D01*
X144869058Y-104077200D01*
X145046542Y-104077200D01*
X145071312Y-104082127D01*
G37*
G36*
X142531312Y-104082127D02*
G01*
X142680612Y-104111824D01*
X142844584Y-104179744D01*
X142992154Y-104278347D01*
X143117653Y-104403846D01*
X143216256Y-104551416D01*
X143284176Y-104715388D01*
X143318800Y-104889459D01*
X143318800Y-105066941D01*
X143284176Y-105241012D01*
X143216256Y-105404984D01*
X143117653Y-105552554D01*
X142992154Y-105678053D01*
X142844584Y-105776656D01*
X142680612Y-105844576D01*
X142531312Y-105874273D01*
X142506542Y-105879200D01*
X142329058Y-105879200D01*
X142304288Y-105874273D01*
X142154988Y-105844576D01*
X141991016Y-105776656D01*
X141843446Y-105678053D01*
X141717947Y-105552554D01*
X141619344Y-105404984D01*
X141551424Y-105241012D01*
X141516800Y-105066941D01*
X141516800Y-104889459D01*
X141551424Y-104715388D01*
X141619344Y-104551416D01*
X141717947Y-104403846D01*
X141843446Y-104278347D01*
X141991016Y-104179744D01*
X142154988Y-104111824D01*
X142304288Y-104082127D01*
X142329058Y-104077200D01*
X142506542Y-104077200D01*
X142531312Y-104082127D01*
G37*
G36*
X154139112Y-90493127D02*
G01*
X154288412Y-90522824D01*
X154452384Y-90590744D01*
X154599954Y-90689347D01*
X154725453Y-90814846D01*
X154824056Y-90962416D01*
X154891976Y-91126388D01*
X154926600Y-91300459D01*
X154926600Y-91477941D01*
X154891976Y-91652012D01*
X154824056Y-91815984D01*
X154725453Y-91963554D01*
X154599954Y-92089053D01*
X154452384Y-92187656D01*
X154288412Y-92255576D01*
X154139112Y-92285273D01*
X154114342Y-92290200D01*
X153936858Y-92290200D01*
X153912088Y-92285273D01*
X153762788Y-92255576D01*
X153598816Y-92187656D01*
X153451246Y-92089053D01*
X153325747Y-91963554D01*
X153227144Y-91815984D01*
X153159224Y-91652012D01*
X153124600Y-91477941D01*
X153124600Y-91300459D01*
X153159224Y-91126388D01*
X153227144Y-90962416D01*
X153325747Y-90814846D01*
X153451246Y-90689347D01*
X153598816Y-90590744D01*
X153762788Y-90522824D01*
X153912088Y-90493127D01*
X153936858Y-90488200D01*
X154114342Y-90488200D01*
X154139112Y-90493127D01*
G37*
G36*
X157466600Y-92290200D02*
G01*
X155664600Y-92290200D01*
X155664600Y-90488200D01*
X157466600Y-90488200D01*
X157466600Y-92290200D01*
G37*
G36*
X142302712Y-90467727D02*
G01*
X142452012Y-90497424D01*
X142615984Y-90565344D01*
X142763554Y-90663947D01*
X142889053Y-90789446D01*
X142987656Y-90937016D01*
X143055576Y-91100988D01*
X143090200Y-91275059D01*
X143090200Y-91452541D01*
X143055576Y-91626612D01*
X142987656Y-91790584D01*
X142889053Y-91938154D01*
X142763554Y-92063653D01*
X142615984Y-92162256D01*
X142452012Y-92230176D01*
X142302712Y-92259873D01*
X142277942Y-92264800D01*
X142100458Y-92264800D01*
X142075688Y-92259873D01*
X141926388Y-92230176D01*
X141762416Y-92162256D01*
X141614846Y-92063653D01*
X141489347Y-91938154D01*
X141390744Y-91790584D01*
X141322824Y-91626612D01*
X141288200Y-91452541D01*
X141288200Y-91275059D01*
X141322824Y-91100988D01*
X141390744Y-90937016D01*
X141489347Y-90789446D01*
X141614846Y-90663947D01*
X141762416Y-90565344D01*
X141926388Y-90497424D01*
X142075688Y-90467727D01*
X142100458Y-90462800D01*
X142277942Y-90462800D01*
X142302712Y-90467727D01*
G37*
G36*
X139762712Y-90467727D02*
G01*
X139912012Y-90497424D01*
X140075984Y-90565344D01*
X140223554Y-90663947D01*
X140349053Y-90789446D01*
X140447656Y-90937016D01*
X140515576Y-91100988D01*
X140550200Y-91275059D01*
X140550200Y-91452541D01*
X140515576Y-91626612D01*
X140447656Y-91790584D01*
X140349053Y-91938154D01*
X140223554Y-92063653D01*
X140075984Y-92162256D01*
X139912012Y-92230176D01*
X139762712Y-92259873D01*
X139737942Y-92264800D01*
X139560458Y-92264800D01*
X139535688Y-92259873D01*
X139386388Y-92230176D01*
X139222416Y-92162256D01*
X139074846Y-92063653D01*
X138949347Y-91938154D01*
X138850744Y-91790584D01*
X138782824Y-91626612D01*
X138748200Y-91452541D01*
X138748200Y-91275059D01*
X138782824Y-91100988D01*
X138850744Y-90937016D01*
X138949347Y-90789446D01*
X139074846Y-90663947D01*
X139222416Y-90565344D01*
X139386388Y-90497424D01*
X139535688Y-90467727D01*
X139560458Y-90462800D01*
X139737942Y-90462800D01*
X139762712Y-90467727D01*
G37*
G36*
X137222712Y-90467727D02*
G01*
X137372012Y-90497424D01*
X137535984Y-90565344D01*
X137683554Y-90663947D01*
X137809053Y-90789446D01*
X137907656Y-90937016D01*
X137975576Y-91100988D01*
X138010200Y-91275059D01*
X138010200Y-91452541D01*
X137975576Y-91626612D01*
X137907656Y-91790584D01*
X137809053Y-91938154D01*
X137683554Y-92063653D01*
X137535984Y-92162256D01*
X137372012Y-92230176D01*
X137222712Y-92259873D01*
X137197942Y-92264800D01*
X137020458Y-92264800D01*
X136995688Y-92259873D01*
X136846388Y-92230176D01*
X136682416Y-92162256D01*
X136534846Y-92063653D01*
X136409347Y-91938154D01*
X136310744Y-91790584D01*
X136242824Y-91626612D01*
X136208200Y-91452541D01*
X136208200Y-91275059D01*
X136242824Y-91100988D01*
X136310744Y-90937016D01*
X136409347Y-90789446D01*
X136534846Y-90663947D01*
X136682416Y-90565344D01*
X136846388Y-90497424D01*
X136995688Y-90467727D01*
X137020458Y-90462800D01*
X137197942Y-90462800D01*
X137222712Y-90467727D01*
G37*
G36*
X132930200Y-92264800D02*
G01*
X131128200Y-92264800D01*
X131128200Y-90462800D01*
X132930200Y-90462800D01*
X132930200Y-92264800D01*
G37*
G36*
X134682712Y-90467727D02*
G01*
X134832012Y-90497424D01*
X134995984Y-90565344D01*
X135143554Y-90663947D01*
X135269053Y-90789446D01*
X135367656Y-90937016D01*
X135435576Y-91100988D01*
X135470200Y-91275059D01*
X135470200Y-91452541D01*
X135435576Y-91626612D01*
X135367656Y-91790584D01*
X135269053Y-91938154D01*
X135143554Y-92063653D01*
X134995984Y-92162256D01*
X134832012Y-92230176D01*
X134682712Y-92259873D01*
X134657942Y-92264800D01*
X134480458Y-92264800D01*
X134455688Y-92259873D01*
X134306388Y-92230176D01*
X134142416Y-92162256D01*
X133994846Y-92063653D01*
X133869347Y-91938154D01*
X133770744Y-91790584D01*
X133702824Y-91626612D01*
X133668200Y-91452541D01*
X133668200Y-91275059D01*
X133702824Y-91100988D01*
X133770744Y-90937016D01*
X133869347Y-90789446D01*
X133994846Y-90663947D01*
X134142416Y-90565344D01*
X134306388Y-90497424D01*
X134455688Y-90467727D01*
X134480458Y-90462800D01*
X134657942Y-90462800D01*
X134682712Y-90467727D01*
G37*
G36*
X135825800Y-87108600D02*
G01*
X134023800Y-87108600D01*
X134023800Y-85306600D01*
X135825800Y-85306600D01*
X135825800Y-87108600D01*
G37*
G36*
X135038312Y-82771527D02*
G01*
X135187612Y-82801224D01*
X135351584Y-82869144D01*
X135499154Y-82967747D01*
X135624653Y-83093246D01*
X135723256Y-83240816D01*
X135791176Y-83404788D01*
X135825800Y-83578859D01*
X135825800Y-83756341D01*
X135791176Y-83930412D01*
X135723256Y-84094384D01*
X135624653Y-84241954D01*
X135499154Y-84367453D01*
X135351584Y-84466056D01*
X135187612Y-84533976D01*
X135038312Y-84563673D01*
X135013542Y-84568600D01*
X134836058Y-84568600D01*
X134811288Y-84563673D01*
X134661988Y-84533976D01*
X134498016Y-84466056D01*
X134350446Y-84367453D01*
X134224947Y-84241954D01*
X134126344Y-84094384D01*
X134058424Y-83930412D01*
X134023800Y-83756341D01*
X134023800Y-83578859D01*
X134058424Y-83404788D01*
X134126344Y-83240816D01*
X134224947Y-83093246D01*
X134350446Y-82967747D01*
X134498016Y-82869144D01*
X134661988Y-82801224D01*
X134811288Y-82771527D01*
X134836058Y-82766600D01*
X135013542Y-82766600D01*
X135038312Y-82771527D01*
G37*
M02*
